<svg width="171" height="104" viewBox="0 0 171 104" fill="none" xmlns="http://www.w3.org/2000/svg">
<rect opacity="0.2" x="131" y="39" width="40" height="40" fill="url(#paint0_linear)"/>
<rect opacity="0.5" x="70" y="24" width="70" height="70" fill="url(#paint1_linear)"/>
<rect y="14" width="90" height="90" fill="url(#paint2_linear)"/>
<path d="M76.6586 10V1.744L73.4186 2.248V3.472L75.2666 3.16V10H76.6586ZM81.1946 10H82.5986V6.244C82.5986 5.308 82.9346 4.828 83.5466 4.828C84.1466 4.828 84.4946 5.392 84.4946 6.448V10H85.8986V6.448C85.8986 5.392 86.2346 4.828 86.8466 4.828C87.4586 4.828 87.7946 5.308 87.7946 6.244V10H89.1986V6.124C89.1986 4.444 88.1426 3.616 86.8466 3.616C86.1146 3.616 85.5386 3.976 85.1906 4.6C84.8546 3.988 84.2786 3.616 83.5466 3.616C82.2626 3.616 81.1946 4.444 81.1946 6.124V10Z" fill="white"/>
<path opacity="0.5" d="M121.786 19.772C122.554 20.012 123.322 20.156 124.102 20.156C125.506 20.156 127.078 19.256 127.078 17.36C127.078 15.668 125.89 14.864 124.09 14.864H123.574L123.646 13.064H126.586L126.826 11.888H122.386L122.242 16.016H123.946C125.11 16.016 125.638 16.496 125.638 17.372C125.638 18.464 124.822 18.944 124.054 18.944C123.382 18.944 122.734 18.8 122.062 18.596L121.786 19.772ZM131.195 20H132.599V16.244C132.599 15.308 132.935 14.828 133.547 14.828C134.147 14.828 134.495 15.392 134.495 16.448V20H135.899V16.448C135.899 15.392 136.235 14.828 136.847 14.828C137.459 14.828 137.795 15.308 137.795 16.244V20H139.199V16.124C139.199 14.444 138.143 13.616 136.847 13.616C136.115 13.616 135.539 13.976 135.191 14.6C134.855 13.988 134.279 13.616 133.547 13.616C132.263 13.616 131.195 14.444 131.195 16.124V20Z" fill="white"/>
<path opacity="0.2" d="M150.557 34V25.744L147.317 26.248V27.472L149.165 27.16V34H150.557ZM157.967 29.02C157.967 26.74 156.659 25.732 155.075 25.732C153.479 25.732 152.183 26.74 152.183 29.02V30.856C152.183 33.136 153.491 34.156 155.075 34.156C156.647 34.156 157.967 33.136 157.967 30.856V29.02ZM156.563 30.856C156.563 32.38 155.939 32.944 155.075 32.944C154.211 32.944 153.587 32.38 153.587 30.856V29.02C153.587 27.496 154.223 26.944 155.075 26.944C155.927 26.944 156.563 27.496 156.563 29.02V30.856ZM162.195 34H163.599V30.244C163.599 29.308 163.935 28.828 164.547 28.828C165.147 28.828 165.495 29.392 165.495 30.448V34H166.899V30.448C166.899 29.392 167.235 28.828 167.847 28.828C168.459 28.828 168.795 29.308 168.795 30.244V34H170.199V30.124C170.199 28.444 169.143 27.616 167.847 27.616C167.115 27.616 166.539 27.976 166.191 28.6C165.855 27.988 165.279 27.616 164.547 27.616C163.263 27.616 162.195 28.444 162.195 30.124V34Z" fill="white"/>
<defs>
<linearGradient id="paint0_linear" x1="131" y1="39" x2="175.429" y2="44.7436" gradientUnits="userSpaceOnUse">
<stop stop-color="#20A760"/>
<stop offset="0.1875" stop-color="#238A98"/>
<stop offset="0.828125" stop-color="#03ABC2"/>
<stop offset="1" stop-color="#048B45"/>
</linearGradient>
<linearGradient id="paint1_linear" x1="70" y1="24" x2="147.75" y2="34.0513" gradientUnits="userSpaceOnUse">
<stop stop-color="#20A760"/>
<stop offset="0.1875" stop-color="#238A98"/>
<stop offset="0.828125" stop-color="#03ABC2"/>
<stop offset="1" stop-color="#048B45"/>
</linearGradient>
<linearGradient id="paint2_linear" x1="0" y1="14" x2="99.9643" y2="26.923" gradientUnits="userSpaceOnUse">
<stop stop-color="#20A760"/>
<stop offset="0.1875" stop-color="#238A98"/>
<stop offset="0.828125" stop-color="#03ABC2"/>
<stop offset="1" stop-color="#048B45"/>
</linearGradient>
</defs>
</svg>
