<?xml version="1.0" standalone="no"?>
<!DOCTYPE svg PUBLIC "-//W3C//DTD SVG 20010904//EN"
 "http://www.w3.org/TR/2001/REC-SVG-20010904/DTD/svg10.dtd">
<svg version="1.0" xmlns="http://www.w3.org/2000/svg"
 width="512.000000pt" height="512.000000pt" viewBox="0 0 512.000000 512.000000"
 preserveAspectRatio="xMidYMid meet">
<metadata>
Created by potrace 1.11, written by Peter Selinger 2001-2013
</metadata>
<g transform="translate(0.000000,512.000000) scale(0.100000,-0.100000)"
fill="#000000" stroke="none">
<path d="M1233 5083 c2 -5 23 -48 47 -98 59 -125 122 -258 192 -405 97 -202
172 -394 194 -495 34 -154 43 -298 23 -381 -19 -79 -77 -190 -139 -267 -65
-81 -92 -111 -240 -264 -153 -159 -200 -215 -292 -348 -131 -190 -227 -422
-258 -624 -6 -36 -13 -77 -17 -91 -12 -56 -11 -397 3 -481 7 -46 16 -99 19
-116 3 -18 14 -66 24 -105 180 -663 711 -1152 1404 -1292 195 -40 514 -43 704
-7 354 68 660 218 914 448 91 83 145 139 199 212 14 18 30 38 35 44 6 7 33 46
60 87 125 190 219 432 260 670 20 119 23 160 20 355 -2 121 -6 234 -8 250 -2
17 -7 61 -11 98 -4 37 -9 78 -12 90 -2 12 -6 36 -8 52 -3 17 -14 75 -26 130
-12 55 -23 110 -26 123 -12 58 -80 267 -121 371 -143 363 -350 679 -623 951
-63 64 -139 136 -169 160 -29 25 -59 50 -65 55 -6 6 -29 24 -51 40 -22 17 -46
36 -53 43 -8 6 -23 17 -34 23 -11 6 -28 18 -39 27 -100 87 -538 320 -779 415
-101 40 -337 122 -380 132 -8 2 -63 17 -121 34 -58 16 -139 39 -180 50 -41 11
-156 43 -257 70 -199 55 -195 54 -189 44z"/>
</g>
</svg>
