<svg width="138" height="138" viewBox="0 0 138 138" fill="none" xmlns="http://www.w3.org/2000/svg">
<rect x="10" y="10" width="118" height="118" fill="url(#paint0_linear)"/>
<path d="M125.749 19.9587L118.041 19.9587V12.2512L120.035 12.2512L120.042 16.5434L130.182 6.40348L125.89 6.3964V4.40236L133.598 4.40236V12.1098H131.604L131.596 7.81769L121.457 17.9576L125.749 17.9647L125.749 19.9587Z" fill="white"/>
<path d="M19.9582 12.2518L19.9582 19.9593L12.2508 19.9593L12.2508 17.9652L16.5429 17.9581L6.40299 7.81823L6.39592 12.1104L4.40187 12.1104L4.40187 4.40291L12.1093 4.40291L12.1093 6.39695L7.8172 6.40402L17.9571 16.5439L17.9642 12.2518L19.9582 12.2518Z" fill="white"/>
<path d="M133.598 125.89L133.598 133.598L125.89 133.598L125.89 131.604L130.183 131.597L120.043 121.457L120.036 125.749L118.042 125.749L118.042 118.042L125.749 118.042L125.749 120.036L121.457 120.043L131.597 130.183L131.604 125.89L133.598 125.89Z" fill="white"/>
<path d="M12.109 133.598L4.40158 133.598V125.89L6.39562 125.89L6.4027 130.183L16.5426 120.043L12.2505 120.036V118.042L19.9579 118.042V125.749H17.9639L17.9568 121.457L7.81691 131.597L12.109 131.604L12.109 133.598Z" fill="white"/>
<defs>
<linearGradient id="paint0_linear" x1="10" y1="10" x2="141.064" y2="26.9435" gradientUnits="userSpaceOnUse">
<stop stop-color="#20A760"/>
<stop offset="0.1875" stop-color="#238A98"/>
<stop offset="0.828125" stop-color="#03ABC2"/>
<stop offset="1" stop-color="#048B45"/>
</linearGradient>
</defs>
</svg>
