<svg width="151" height="91" viewBox="0 0 151 91" fill="none" xmlns="http://www.w3.org/2000/svg">
<rect x="21" y="24" width="130" height="17" fill="url(#paint0_linear)"/>
<rect x="21" y="49" width="130" height="17" fill="url(#paint1_linear)"/>
<rect x="21" y="74" width="130" height="17" fill="url(#paint2_linear)"/>
<path fill-rule="evenodd" clip-rule="evenodd" d="M46.4061 54.0202L59.7814 61.5264C59.8702 61.5762 59.9397 61.646 59.9875 61.7266L60.3439 61.9267C60.613 62.0776 60.957 61.988 61.1123 61.7265C61.2676 61.465 61.1755 61.1306 60.9064 60.9796L59.4259 60.1488C61.6268 58.8996 63 57.3741 63 57.3741C63 57.3741 59.3898 53 53.8364 53C52.0579 53 50.4061 53.5765 49.0234 54.3109L47.1746 53.2734C46.9056 53.1224 46.5616 53.212 46.4062 53.4735C46.3022 53.6487 46.3092 53.8566 46.4061 54.0202ZM46.9906 55.6109C45.7452 56.5463 45 57.3741 45 57.3741C45 57.3741 48.9375 61.7482 53.8364 61.7482C54.9596 61.7482 56.0234 61.5462 57.0013 61.2289L54.8026 59.995C54.5483 60.0685 54.2789 60.1079 54 60.1079C52.6716 60.1079 51.5582 59.2127 51.2637 58.009L46.9906 55.6109ZM56.8125 57.3741C56.8125 57.7886 56.7176 58.1816 56.5478 58.5336L51.6935 55.8093C52.2019 55.1026 53.0454 54.6403 54 54.6403C55.5533 54.6403 56.8125 55.8643 56.8125 57.3741Z" fill="white" fill-opacity="0.2"/>
<path fill-rule="evenodd" clip-rule="evenodd" d="M46.4061 79.0202L59.7814 86.5264C59.8702 86.5762 59.9397 86.646 59.9875 86.7266L60.3439 86.9267C60.613 87.0776 60.957 86.988 61.1123 86.7265C61.2676 86.465 61.1755 86.1306 60.9064 85.9796L59.4259 85.1488C61.6268 83.8996 63 82.3741 63 82.3741C63 82.3741 59.3898 78 53.8364 78C52.0579 78 50.4061 78.5765 49.0234 79.3109L47.1746 78.2734C46.9056 78.1224 46.5616 78.212 46.4062 78.4735C46.3022 78.6487 46.3092 78.8566 46.4061 79.0202ZM46.9906 80.6109C45.7452 81.5463 45 82.3741 45 82.3741C45 82.3741 48.9375 86.7482 53.8364 86.7482C54.9596 86.7482 56.0234 86.5462 57.0013 86.2289L54.8026 84.995C54.5483 85.0685 54.2789 85.1079 54 85.1079C52.6716 85.1079 51.5582 84.2127 51.2637 83.009L46.9906 80.6109ZM56.8125 82.3741C56.8125 82.7886 56.7176 83.1816 56.5478 83.5336L51.6935 80.8093C52.2019 80.1026 53.0454 79.6403 54 79.6403C55.5533 79.6403 56.8125 80.8643 56.8125 82.3741Z" fill="white" fill-opacity="0.2"/>
<path fill-rule="evenodd" clip-rule="evenodd" d="M45 32.5C45 32.5 48.9375 28 53.8364 28C59.3898 28 63 32.5 63 32.5C63 32.5 59.0625 37 53.8364 37C48.9375 37 45 32.5 45 32.5ZM54 35.3125C55.5533 35.3125 56.8125 34.0533 56.8125 32.5C56.8125 30.9467 55.5533 29.6875 54 29.6875C52.4467 29.6875 51.1875 30.9467 51.1875 32.5C51.1875 34.0533 52.4467 35.3125 54 35.3125Z" fill="white"/>
<rect x="22.5" y="25.5" width="19" height="14" stroke="white" stroke-opacity="0.5" stroke-dasharray="6 6"/>
<rect x="22.5" y="50.5" width="19" height="14" stroke="white" stroke-opacity="0.5" stroke-dasharray="6 6"/>
<rect x="22.5" y="75.5" width="19" height="14" stroke="white" stroke-opacity="0.5" stroke-dasharray="6 6"/>
<rect x="66.5" y="25.5" width="19" height="14" stroke="white" stroke-opacity="0.5" stroke-dasharray="6 6"/>
<rect x="66.5" y="50.5" width="19" height="14" stroke="white" stroke-opacity="0.5" stroke-dasharray="6 6"/>
<rect x="66.5" y="75.5" width="19" height="14" stroke="white" stroke-opacity="0.5" stroke-dasharray="6 6"/>
<rect x="44.5" y="25.5" width="19" height="14" stroke="white" stroke-dasharray="6 6"/>
<rect x="44.5" y="50.5" width="19" height="14" stroke="white" stroke-dasharray="6 6"/>
<rect x="44.5" y="75.5" width="19" height="14" stroke="white" stroke-dasharray="6 6"/>
<path d="M21 82.5H9V33M9 33V17M9 33H21M9 57.5H21" stroke="white" stroke-opacity="0.5"/>
<rect width="17" height="17" fill="#323232"/>
<rect width="17" height="4" fill="#FF7A00"/>
<defs>
<linearGradient id="paint0_linear" x1="21" y1="24" x2="95.2456" y2="97.3981" gradientUnits="userSpaceOnUse">
<stop stop-color="#20A760"/>
<stop offset="0.1875" stop-color="#238A98"/>
<stop offset="0.828125" stop-color="#03ABC2"/>
<stop offset="1" stop-color="#048B45"/>
</linearGradient>
<linearGradient id="paint1_linear" x1="21" y1="49" x2="95.2456" y2="122.398" gradientUnits="userSpaceOnUse">
<stop stop-color="#20A760"/>
<stop offset="0.1875" stop-color="#238A98"/>
<stop offset="0.828125" stop-color="#03ABC2"/>
<stop offset="1" stop-color="#048B45"/>
</linearGradient>
<linearGradient id="paint2_linear" x1="21" y1="74" x2="95.2456" y2="147.398" gradientUnits="userSpaceOnUse">
<stop stop-color="#20A760"/>
<stop offset="0.1875" stop-color="#238A98"/>
<stop offset="0.828125" stop-color="#03ABC2"/>
<stop offset="1" stop-color="#048B45"/>
</linearGradient>
</defs>
</svg>
