<svg width="190" height="120" viewBox="0 0 190 120" fill="none" xmlns="http://www.w3.org/2000/svg">
<path d="M109.545 19.6643H163.175V48.2669H109.545V19.6643Z" fill="white" fill-opacity="0.3"/>
<path d="M109.545 55.4175H189.394V84.02H109.545V55.4175Z" fill="white" fill-opacity="0.3"/>
<path d="M109.545 91.1707H143.511V119.773H109.545V91.1707Z" fill="white" fill-opacity="0.3"/>
<path d="M21.95 21.75L21.95 71.2086M21.95 71.2086C27.0151 71.2086 33.8834 75.1423 35.8437 84.3129C37.804 93.4835 41.1546 110.816 42.5849 118.336L31.6119 118.325M21.95 71.2086C15.3953 71.2086 9.98708 75.5077 8.16855 85.3815C6.71372 93.2805 3.5212 110.614 2.59448 118.294L31.6119 118.325M31.6119 118.325L28.4272 104.178M8.65651 85.6257L35.3571 85.2878" stroke="white" stroke-width="3" stroke-linecap="round"/>
<rect x="72.3127" y="92.6707" width="25.6026" height="25.6026" fill="white" fill-opacity="0.27" stroke="white" stroke-width="3"/>
<rect x="72.3127" y="56.9175" width="25.6026" height="25.6026" fill="white" fill-opacity="0.27" stroke="white" stroke-width="3"/>
<rect x="72.3127" y="21.1643" width="25.6026" height="25.6026" fill="white" fill-opacity="0.27" stroke="white" stroke-width="3"/>
<path d="M85.2891 38.342V36.006C85.2891 33.014 87.1771 31.558 89.7051 31.558C90.8571 31.558 91.9771 31.83 93.1451 32.198L92.6331 34.102C91.6571 33.798 90.7131 33.574 89.7211 33.574C88.4411 33.574 87.6411 34.246 87.6411 36.182V38.102C87.6411 40.086 88.4411 40.774 89.7211 40.774C90.2651 40.774 90.7131 40.726 91.2251 40.614V38.246H90.1211V36.598H93.4171V42.118C92.2971 42.502 90.9051 42.79 89.7051 42.79C87.1771 42.79 85.2891 41.334 85.2891 38.342Z" fill="white"/>
<path d="M85.2891 74.6912V72.3552C85.2891 69.3632 87.1771 67.9072 89.7051 67.9072C90.8571 67.9072 91.9771 68.1792 93.1451 68.5472L92.6331 70.4512C91.6571 70.1472 90.7131 69.9232 89.7211 69.9232C88.4411 69.9232 87.6411 70.5952 87.6411 72.5312V74.4512C87.6411 76.4352 88.4411 77.1232 89.7211 77.1232C90.2651 77.1232 90.7131 77.0752 91.2251 76.9632V74.5952H90.1211V72.9472H93.4171V78.4672C92.2971 78.8512 90.9051 79.1392 89.7051 79.1392C87.1771 79.1392 85.2891 77.6832 85.2891 74.6912Z" fill="white"/>
<path d="M85.2891 109.252V106.916C85.2891 103.924 87.1771 102.468 89.7051 102.468C90.8571 102.468 91.9771 102.74 93.1451 103.108L92.6331 105.012C91.6571 104.708 90.7131 104.484 89.7211 104.484C88.4411 104.484 87.6411 105.156 87.6411 107.092V109.012C87.6411 110.996 88.4411 111.684 89.7211 111.684C90.2651 111.684 90.7131 111.636 91.2251 111.524V109.156H90.1211V107.508H93.4171V113.028C92.2971 113.412 90.9051 113.7 89.7051 113.7C87.1771 113.7 85.2891 112.244 85.2891 109.252Z" fill="white"/>
<path d="M111.929 13.1096L106.252 3.27749L117.606 3.27749L111.929 13.1096Z" fill="white"/>
<path fill-rule="evenodd" clip-rule="evenodd" d="M109.545 48.2669L109.545 19.6643L113.121 19.6643L113.121 48.2669L109.545 48.2669Z" fill="white"/>
<path fill-rule="evenodd" clip-rule="evenodd" d="M109.545 84.02L109.545 55.4175L113.121 55.4175L113.121 84.02L109.545 84.02Z" fill="white"/>
<path fill-rule="evenodd" clip-rule="evenodd" d="M109.545 119.773L109.545 91.1707L113.121 91.1707L113.121 119.773L109.545 119.773Z" fill="white"/>
</svg>
