<svg width="224" height="120" viewBox="0 0 224 120" fill="none" xmlns="http://www.w3.org/2000/svg">
<rect x="0.5" y="0.5" width="223" height="119" fill="white" fill-opacity="0.27" stroke="#8C3ED3"/>
<path d="M37 1V119.5" stroke="#7241C9" stroke-dasharray="6 6"/>
<path d="M224 34L-3.27826e-06 34" stroke="#7241C9" stroke-dasharray="6 6"/>
<path d="M224 86L0 86" stroke="#7241C9" stroke-dasharray="6 6"/>
<path d="M190 1V119.5" stroke="#7241C9" stroke-dasharray="6 6"/>
<path d="M213 101H203.923V100.077C203.924 99.2612 204.248 98.479 204.825 97.9021C205.402 97.3252 206.184 97.0008 207 97C208.118 97 209.091 97.604 209.629 98.499C209.634 98.493 209.643 98.49 209.649 98.484C209.83 98.742 210.115 98.922 210.454 98.922C210.618 98.9218 210.78 98.8811 210.925 98.8036C211.07 98.7261 211.193 98.614 211.284 98.4774C211.376 98.3408 211.432 98.1838 211.448 98.0203C211.464 97.8568 211.44 97.6918 211.377 97.54L211.366 97.518C211.321 97.4196 211.26 97.3294 211.186 97.251C210.276 95.9 208.752 95 207 95C204.196 95 201.923 97.273 201.923 100.077V101H201C200.735 101 200.48 101.105 200.293 101.293C200.105 101.48 200 101.735 200 102V110C200 110.265 200.105 110.52 200.293 110.707C200.48 110.895 200.735 111 201 111H213C213.265 111 213.52 110.895 213.707 110.707C213.895 110.52 214 110.265 214 110V102C214 101.735 213.895 101.48 213.707 101.293C213.52 101.105 213.265 101 213 101ZM207 108C205.895 108 205 107.105 205 106C205 104.895 205.895 104 207 104C208.105 104 209 104.895 209 106C209 107.105 208.105 108 207 108Z" fill="#975ECB"/>
<path d="M26 101H16.923V100.077C16.9238 99.2612 17.2482 98.479 17.8251 97.9021C18.402 97.3252 19.1842 97.0008 20 97C21.118 97 22.091 97.604 22.629 98.499C22.634 98.493 22.643 98.49 22.649 98.484C22.83 98.742 23.115 98.922 23.454 98.922C23.6183 98.9218 23.78 98.8811 23.9248 98.8036C24.0697 98.7261 24.1932 98.614 24.2844 98.4774C24.3757 98.3408 24.4319 98.1838 24.448 98.0203C24.4641 97.8568 24.4398 97.6918 24.377 97.54L24.366 97.518C24.3213 97.4196 24.2604 97.3294 24.186 97.251C23.276 95.9 21.752 95 20 95C17.196 95 14.923 97.273 14.923 100.077V101H14C13.7348 101 13.4804 101.105 13.2929 101.293C13.1054 101.48 13 101.735 13 102V110C13 110.265 13.1054 110.52 13.2929 110.707C13.4804 110.895 13.7348 111 14 111H26C26.2652 111 26.5196 110.895 26.7071 110.707C26.8946 110.52 27 110.265 27 110V102C27 101.735 26.8946 101.48 26.7071 101.293C26.5196 101.105 26.2652 101 26 101ZM20 108C18.895 108 18 107.105 18 106C18 104.895 18.895 104 20 104C21.105 104 22 104.895 22 106C22 107.105 21.105 108 20 108Z" fill="#975ECB"/>
<path d="M213 15H203.923V14.077C203.924 13.2612 204.248 12.479 204.825 11.9021C205.402 11.3252 206.184 11.0008 207 11C208.118 11 209.091 11.604 209.629 12.499C209.634 12.493 209.643 12.49 209.649 12.484C209.83 12.742 210.115 12.922 210.454 12.922C210.618 12.9218 210.78 12.8811 210.925 12.8036C211.07 12.7261 211.193 12.614 211.284 12.4774C211.376 12.3408 211.432 12.1838 211.448 12.0203C211.464 11.8568 211.44 11.6918 211.377 11.54L211.366 11.518C211.321 11.4196 211.26 11.3294 211.186 11.251C210.276 9.9 208.752 9 207 9C204.196 9 201.923 11.273 201.923 14.077V15H201C200.735 15 200.48 15.1054 200.293 15.2929C200.105 15.4804 200 15.7348 200 16V24C200 24.2652 200.105 24.5196 200.293 24.7071C200.48 24.8946 200.735 25 201 25H213C213.265 25 213.52 24.8946 213.707 24.7071C213.895 24.5196 214 24.2652 214 24V16C214 15.7348 213.895 15.4804 213.707 15.2929C213.52 15.1054 213.265 15 213 15ZM207 22C205.895 22 205 21.105 205 20C205 18.895 205.895 18 207 18C208.105 18 209 18.895 209 20C209 21.105 208.105 22 207 22Z" fill="#975ECB"/>
<path d="M26 15H16.923V14.077C16.9238 13.2612 17.2482 12.479 17.8251 11.9021C18.402 11.3252 19.1842 11.0008 20 11C21.118 11 22.091 11.604 22.629 12.499C22.634 12.493 22.643 12.49 22.649 12.484C22.83 12.742 23.115 12.922 23.454 12.922C23.6183 12.9218 23.78 12.8811 23.9248 12.8036C24.0697 12.7261 24.1932 12.614 24.2844 12.4774C24.3757 12.3408 24.4319 12.1838 24.448 12.0203C24.4641 11.8568 24.4398 11.6918 24.377 11.54L24.366 11.518C24.3213 11.4196 24.2604 11.3294 24.186 11.251C23.276 9.9 21.752 9 20 9C17.196 9 14.923 11.273 14.923 14.077V15H14C13.7348 15 13.4804 15.1054 13.2929 15.2929C13.1054 15.4804 13 15.7348 13 16V24C13 24.2652 13.1054 24.5196 13.2929 24.7071C13.4804 24.8946 13.7348 25 14 25H26C26.2652 25 26.5196 24.8946 26.7071 24.7071C26.8946 24.5196 27 24.2652 27 24V16C27 15.7348 26.8946 15.4804 26.7071 15.2929C26.5196 15.1054 26.2652 15 26 15ZM20 22C18.895 22 18 21.105 18 20C18 18.895 18.895 18 20 18C21.105 18 22 18.895 22 20C22 21.105 21.105 22 20 22Z" fill="#975ECB"/>
<path d="M106.45 22.9L101 17.45L106.45 12L107.86 13.41L104.83 16.45H119.17L116.14 13.41L117.55 12L123 17.45L117.55 22.9L116.14 21.49L119.17 18.45H104.83L107.86 21.49L106.45 22.9Z" fill="#975ECB"/>
<path d="M106.45 108.9L101 103.45L106.45 98L107.86 99.41L104.83 102.45H119.17L116.14 99.41L117.55 98L123 103.45L117.55 108.9L116.14 107.49L119.17 104.45H104.83L107.86 107.49L106.45 108.9Z" fill="#975ECB"/>
<path d="M212.45 66L207 71.45L201.55 66L202.96 64.59L206 67.62L206 53.28L202.96 56.31L201.55 54.9L207 49.45L212.45 54.9L211.04 56.31L208 53.28L208 67.62L211.04 64.59L212.45 66Z" fill="#975ECB"/>
<path d="M25.9 66L20.45 71.45L15 66L16.41 64.59L19.45 67.62L19.45 53.28L16.41 56.31L15 54.9L20.45 49.45L25.9 54.9L24.49 56.31L21.45 53.28L21.45 67.62L24.49 64.59L25.9 66Z" fill="#975ECB"/>
<path d="M126.922 59.618C126.872 59.4968 126.799 59.3866 126.706 59.294L122.706 55.294C122.517 55.1118 122.265 55.011 122.003 55.0133C121.74 55.0156 121.49 55.1208 121.304 55.3062C121.119 55.4916 121.014 55.7424 121.011 56.0046C121.009 56.2668 121.11 56.5194 121.292 56.708L123.586 59H113V48.414L115.292 50.706C115.481 50.8882 115.733 50.989 115.995 50.9867C116.258 50.9844 116.508 50.8792 116.694 50.6938C116.879 50.5084 116.984 50.2576 116.987 49.9954C116.989 49.7332 116.888 49.4806 116.706 49.292L112.706 45.292L112.696 45.286C112.606 45.197 112.499 45.1263 112.382 45.078C112.261 45.0265 112.131 45 112 45H111.996C111.737 45.002 111.489 45.1046 111.304 45.286L111.292 45.292L107.292 49.292C107.11 49.4806 107.009 49.7332 107.011 49.9954C107.014 50.2576 107.119 50.5084 107.304 50.6938C107.49 50.8792 107.74 50.9844 108.003 50.9867C108.265 50.989 108.517 50.8882 108.706 50.706L111 48.414V59H100.414L102.706 56.708C102.888 56.5194 102.989 56.2668 102.987 56.0046C102.984 55.7424 102.879 55.4916 102.694 55.3062C102.508 55.1208 102.258 55.0156 101.995 55.0133C101.733 55.011 101.481 55.1118 101.292 55.294L97.292 59.294L97.286 59.304C97.197 59.3942 97.1263 59.5008 97.078 59.618C97.0265 59.7388 97 59.8687 97 60V60.004C97.002 60.263 97.1046 60.5111 97.286 60.696L97.292 60.708L101.292 64.708C101.481 64.8902 101.733 64.991 101.995 64.9887C102.258 64.9864 102.508 64.8812 102.694 64.6958C102.879 64.5104 102.984 64.2596 102.987 63.9974C102.989 63.7352 102.888 63.4826 102.706 63.294L100.414 61H111V71.586L108.708 69.294C108.519 69.1118 108.267 69.011 108.005 69.0133C107.742 69.0156 107.492 69.1208 107.306 69.3062C107.121 69.4916 107.016 69.7424 107.013 70.0046C107.011 70.2668 107.112 70.5194 107.294 70.708L111.294 74.708C111.386 74.8005 111.495 74.874 111.616 74.9241C111.736 74.9742 111.866 75 111.996 75H112C112.13 75 112.26 74.974 112.382 74.922C112.503 74.8722 112.613 74.7987 112.706 74.706L116.706 70.706C116.888 70.5174 116.989 70.2648 116.987 70.0026C116.984 69.7404 116.879 69.4896 116.694 69.3042C116.508 69.1188 116.258 69.0136 115.995 69.0113C115.733 69.009 115.481 69.1098 115.292 69.292L113 71.586V61H123.586L121.294 63.292C121.112 63.4806 121.011 63.7332 121.013 63.9954C121.016 64.2576 121.121 64.5084 121.306 64.6938C121.492 64.8792 121.742 64.9844 122.005 64.9867C122.267 64.989 122.519 64.8882 122.708 64.706L126.708 60.706C126.801 60.614 126.874 60.5046 126.924 60.3841C126.974 60.2637 127 60.1345 127 60.004V60C127 59.87 126.974 59.74 126.922 59.618Z" fill="#975ECB"/>
</svg>
