<svg width="244" height="101" viewBox="0 0 244 101" fill="none" xmlns="http://www.w3.org/2000/svg">
<rect x="111" y="1" width="133" height="14" fill="#323070"/>
<rect x="111" y="71" width="133" height="14" fill="#323070"/>
<rect x="118" y="1" width="119" height="14" fill="#8297BF"/>
<rect x="15" y="17" width="70" height="14" fill="#5A5A5A"/>
<rect x="15" y="33" width="70" height="14" fill="#5A5A5A"/>
<rect x="15" y="50" width="70" height="14" fill="#5A5A5A"/>
<rect x="15" y="87" width="70" height="14" fill="#5A5A5A"/>
<rect y="71" width="70" height="14" fill="#5A5A5A"/>
<rect y="71" width="15" height="14" fill="#FFAE45"/>
<rect x="15" y="87" width="15" height="14" fill="#FFAE45"/>
<rect y="1" width="70" height="14" fill="#5A5A5A"/>
<rect y="1" width="15" height="14" fill="#FFAE45"/>
<rect x="15" y="1" width="15" height="14" fill="#9FA7AD"/>
<rect x="30" y="17" width="15" height="14" fill="#9FA7AD"/>
<rect x="30" y="33" width="15" height="14" fill="#9FA7AD"/>
<rect x="30" y="50" width="15" height="14" fill="#9FA7AD"/>
<rect x="15" y="71" width="15" height="14" fill="#9FA7AD"/>
<rect x="30" y="87" width="15" height="14" fill="#9FA7AD"/>
<rect x="15" y="17" width="15" height="14" fill="#FFAE45"/>
<rect x="15" y="33" width="15" height="14" fill="#FFAE45"/>
<rect x="15" y="50" width="15" height="14" fill="#FFAE45"/>
<rect x="118" y="71" width="119" height="14" fill="#8297BF"/>
<rect x="111" y="17" width="91" height="14" fill="#622C6A"/>
<rect x="118" y="17" width="77" height="14" fill="#C6B3DF"/>
<rect x="153" y="33" width="91" height="15" fill="#622C6A"/>
<rect x="160" y="33" width="77" height="15" fill="#C6B3DF"/>
<rect x="132" y="50" width="91" height="14" fill="#622C6A"/>
<rect x="111" y="87" width="133" height="14" fill="#622C6A"/>
<rect x="139" y="50" width="77" height="14" fill="#C6B3DF"/>
<rect x="118" y="87" width="119" height="14" fill="#C6B3DF"/>
<path d="M89 6.00008V10.0001H98L94.5 13.5001L96.92 15.9201L104.84 8.00008L96.92 0.0800781L94.5 2.50008L98 6.00008H89Z" fill="white"/>
<path d="M89 76.92V80.92H98L94.5 84.42L96.92 86.84L104.84 78.92L96.92 71L94.5 73.42L98 76.92H89Z" fill="white"/>
</svg>
