<svg width="190" height="64" viewBox="0 0 190 64" fill="none" xmlns="http://www.w3.org/2000/svg">
<rect width="64" height="64" fill="url(#paint0_linear)"/>
<rect x="126" width="64" height="64" fill="url(#paint1_linear)"/>
<path d="M94.9998 29.0516C94.6073 29.4441 94.4087 29.9559 94.3952 30.4719C94.8867 30.6131 95.35 30.8763 95.7367 31.2631C96.9563 32.4827 96.9563 34.4663 95.7367 35.6854L92.4199 39.0023C91.2003 40.2218 89.2166 40.2218 87.9975 39.0023C86.778 37.7827 86.778 35.799 87.9975 34.5799L90.4388 32.1387C90.198 31.2308 90.1594 30.2806 90.333 29.3602C90.1631 29.4926 89.9968 29.6323 89.8405 29.7886L86.5236 33.1055C84.4915 35.1376 84.4915 38.4441 86.5236 40.4762C88.5557 42.5083 91.8622 42.5083 93.8943 40.4762L97.2112 37.1593C99.2433 35.1272 99.2433 31.8207 97.2112 29.7886C96.6869 29.2643 96.0771 28.8781 95.4271 28.6243L94.9998 29.0516Z" fill="#A8EBF3"/>
<path d="M96.105 23.5239L92.7881 26.8408C90.756 28.8729 90.756 32.1794 92.7881 34.2115C93.3124 34.7358 93.9222 35.122 94.5721 35.3758L94.9995 34.9485C95.393 34.555 95.5874 34.0426 95.5979 33.5267C95.109 33.3849 94.6477 33.1222 94.2626 32.737C93.043 31.5175 93.043 29.5338 94.2626 28.3147L97.5794 24.9979C98.799 23.7783 100.783 23.7783 102.002 24.9979C103.221 26.2174 103.221 28.2011 102.002 29.4202L99.5579 31.864C99.7997 32.773 99.8331 33.7237 99.6595 34.6451C99.832 34.5117 100 34.3699 100.159 34.2115L103.476 30.8946C105.508 28.8625 105.508 25.5561 103.476 23.5239C101.444 21.4918 98.1371 21.4913 96.105 23.5239Z" fill="#A8EBF3"/>
<path d="M32 32H64M32 32V0M32 32L16.5 47.5" stroke="#79D5FF" stroke-width="2"/>
<path d="M158 32H190M158 32V0M158 32L143 47.5" stroke="#79D5FF" stroke-width="2"/>
<defs>
<linearGradient id="paint0_linear" x1="0" y1="0" x2="71.0857" y2="9.18972" gradientUnits="userSpaceOnUse">
<stop stop-color="#20A760"/>
<stop offset="0.1875" stop-color="#238A98"/>
<stop offset="0.828125" stop-color="#03ABC2"/>
<stop offset="1" stop-color="#048B45"/>
</linearGradient>
<linearGradient id="paint1_linear" x1="126" y1="0" x2="197.086" y2="9.18972" gradientUnits="userSpaceOnUse">
<stop stop-color="#20A760"/>
<stop offset="0.1875" stop-color="#238A98"/>
<stop offset="0.828125" stop-color="#03ABC2"/>
<stop offset="1" stop-color="#048B45"/>
</linearGradient>
</defs>
</svg>
