<svg width="108" height="108" viewBox="0 0 108 108" fill="none" xmlns="http://www.w3.org/2000/svg">
<rect x="9" y="9" width="90" height="90" fill="url(#paint0_linear)"/>
<path d="M95.7487 19.9582L88.0412 19.9582V12.2508L90.0353 12.2508L90.0423 16.5429L100.182 6.40299L95.8901 6.39592V4.40188L103.598 4.40188V12.1093H101.604L101.596 7.8172L91.4566 17.9571L95.7487 17.9642L95.7487 19.9582Z" fill="white"/>
<path d="M19.9582 12.2508L19.9582 19.9583L12.2508 19.9583L12.2508 17.9642L16.5429 17.9572L6.40299 7.81726L6.39592 12.1094L4.40187 12.1094L4.40187 4.40193L12.1093 4.40193L12.1093 6.39597L7.8172 6.40304L17.9571 16.543L17.9642 12.2508L19.9582 12.2508Z" fill="white"/>
<path d="M103.598 95.8905L103.598 103.598L95.8904 103.598L95.8904 101.604L100.183 101.597L90.0426 91.4569L90.0356 95.749L88.0415 95.749L88.0415 88.0416L95.749 88.0416L95.749 90.0356L91.4568 90.0427L101.597 100.183L101.604 95.8905L103.598 95.8905Z" fill="white"/>
<path d="M12.109 103.598L4.40158 103.598V95.8904L6.39562 95.8904L6.4027 100.183L16.5426 90.0426L12.2505 90.0356V88.0415L19.9579 88.0415V95.749H17.9639L17.9568 91.4568L7.81691 101.597L12.109 101.604L12.109 103.598Z" fill="white"/>
<path d="M50 56.25L46.75 53H49C49.25 47.39 51.39 43 54 43C56 43 57.77 45.64 58.55 49.45C62.36 50.23 65 52 65 54C65 55.83 62.83 57.43 59.6 58.3L59.89 56.27C61.8 55.72 63 54.91 63 54C63 52.94 61.35 52 58.87 51.5C58.95 52.29 59 53.13 59 54C59 60.08 56.76 65 54 65C52.17 65 50.57 62.83 49.7 59.6L51.73 59.89C52.28 61.8 53.09 63 54 63C55.66 63 57 58.97 57 54C57 53 56.95 52.05 56.85 51.15C55.95 51.05 55 51 54 51L52.14 51.06L52.43 49.05L54 49C54.87 49 55.71 49.05 56.5 49.13C56 46.65 55.06 45 54 45C52.46 45 51.18 48.5 51 53H53.25L50 56.25ZM56.25 58L53 61.25V59C47.39 58.75 43 56.61 43 54C43 52.17 45.17 50.57 48.4 49.7L48.11 51.73C46.2 52.28 45 53.09 45 54C45 55.54 48.5 56.82 53 57V54.75L56.25 58Z" fill="white"/>
<mask id="mask0" mask-type="alpha" maskUnits="userSpaceOnUse" x="10" y="10" width="88" height="88">
<circle cx="54" cy="54" r="29" stroke="black" stroke-width="30"/>
</mask>
<g mask="url(#mask0)">
<path d="M30.45 59.4498L25 53.9998L30.45 48.5498L31.86 49.9598L28.83 52.9998H79.17L76.14 49.9598L77.55 48.5498L83 53.9998L77.55 59.4498L76.14 58.0398L79.17 54.9998H28.83L31.86 58.0398L30.45 59.4498Z" fill="white"/>
<path d="M48.55 30.4498L54 24.9998L59.45 30.4498L58.04 31.8598L55 28.8298L55 79.1698L58.04 76.1398L59.45 77.5498L54 82.9998L48.55 77.5498L49.96 76.1398L53 79.1698L53 28.8298L49.96 31.8598L48.55 30.4498Z" fill="white"/>
</g>
<defs>
<linearGradient id="paint0_linear" x1="9" y1="9" x2="108.964" y2="21.923" gradientUnits="userSpaceOnUse">
<stop stop-color="#20A760"/>
<stop offset="0.1875" stop-color="#238A98"/>
<stop offset="0.828125" stop-color="#03ABC2"/>
<stop offset="1" stop-color="#048B45"/>
</linearGradient>
</defs>
</svg>
