<svg width="169" height="108" viewBox="0 0 169 108" fill="none" xmlns="http://www.w3.org/2000/svg">
<circle cx="54" cy="54" r="53.5" fill="url(#paint0_linear)" stroke="white"/>
<path d="M56.8932 10.02C56.8932 7.74 55.5852 6.732 54.0012 6.732C52.4052 6.732 51.1092 7.74 51.1092 10.02V11.856C51.1092 14.136 52.4172 15.156 54.0012 15.156C55.5732 15.156 56.8932 14.136 56.8932 11.856V10.02ZM55.4892 11.856C55.4892 13.38 54.8652 13.944 54.0012 13.944C53.1372 13.944 52.5132 13.38 52.5132 11.856V10.02C52.5132 8.496 53.1492 7.944 54.0012 7.944C54.8532 7.944 55.4892 8.496 55.4892 10.02V11.856Z" fill="white"/>
<path d="M52.2485 100V91.744L49.0085 92.248V93.472L50.8565 93.16V100H52.2485ZM58.8308 100V98.824H55.2548C55.2548 97.012 58.8428 96.424 58.8428 94.12C58.8428 92.68 57.7268 91.732 56.2148 91.732C55.3028 91.732 54.5828 91.972 53.8628 92.344L54.3428 93.436C54.9188 93.16 55.4708 92.944 56.1668 92.944C56.9948 92.944 57.4028 93.472 57.4028 94.132C57.4028 95.812 53.7428 96.088 53.7428 99.148V100H58.8308Z" fill="white"/>
<path d="M88.3534 87.176C88.3534 87.824 87.9774 88.296 87.3614 88.296C87.0094 88.296 86.6734 88.224 86.2814 88.096L86.0734 88.88C86.5374 89.024 86.9294 89.104 87.3614 89.104C88.6254 89.104 89.2894 88.184 89.2894 87.088V85.304C89.2894 84.144 88.4414 83.488 87.4494 83.488C86.4494 83.488 85.5934 84.152 85.5934 85.368C85.5934 86.584 86.3454 87.264 87.3374 87.264C87.6894 87.264 88.0174 87.176 88.3534 86.944V87.176ZM88.3534 86.208C88.0654 86.44 87.7694 86.528 87.4574 86.528C86.8254 86.528 86.5534 86.04 86.5534 85.368C86.5534 84.784 86.8574 84.296 87.4574 84.296C88.0494 84.296 88.3534 84.768 88.3534 85.296V86.208Z" fill="white" fill-opacity="0.5"/>
<path d="M20.8675 89V83.496L18.7075 83.832V84.648L19.9395 84.44V89H20.8675ZM21.7517 88.848C22.2637 89.008 22.7757 89.104 23.2957 89.104C24.2317 89.104 25.2797 88.504 25.2797 87.24C25.2797 86.112 24.4877 85.576 23.2877 85.576H22.9437L22.9917 84.376H24.9517L25.1117 83.592H22.1517L22.0557 86.344H23.1917C23.9677 86.344 24.3197 86.664 24.3197 87.248C24.3197 87.976 23.7757 88.296 23.2637 88.296C22.8157 88.296 22.3837 88.2 21.9357 88.064L21.7517 88.848Z" fill="white" fill-opacity="0.5"/>
<path d="M85.6609 24.832C86.1649 25.008 86.6529 25.104 87.1169 25.104C88.1969 25.104 89.1489 24.448 89.1489 23.344C89.1489 22.392 88.3889 21.784 87.5169 21.768L88.9089 20.376L88.8369 19.592H85.7089L85.8289 20.376H87.8369L86.4449 21.768L86.5889 22.512H87.2289C87.9489 22.512 88.1969 22.896 88.1969 23.344C88.1969 23.936 87.7249 24.296 87.1009 24.296C86.7089 24.296 86.3089 24.216 85.9009 24.072L85.6609 24.832Z" fill="white" fill-opacity="0.5"/>
<path d="M23.0643 25V24.216H20.6803C20.6803 23.008 23.0723 22.616 23.0723 21.08C23.0723 20.12 22.3283 19.488 21.3203 19.488C20.7123 19.488 20.2323 19.648 19.7523 19.896L20.0723 20.624C20.4563 20.44 20.8243 20.296 21.2883 20.296C21.8403 20.296 22.1123 20.648 22.1123 21.088C22.1123 22.208 19.6723 22.392 19.6723 24.432V25H23.0643ZM26.0354 25V19.496L23.8754 19.832V20.648L25.1074 20.44V25H26.0354Z" fill="white" fill-opacity="0.5"/>
<path d="M95.7909 54.432C95.7909 56.172 97.0629 57.156 98.5509 57.156C100.051 57.156 101.335 56.16 101.335 54.336C101.335 52.512 100.219 51.492 98.7189 51.492C98.1909 51.492 97.6989 51.624 97.1949 51.972V51.624C97.1949 50.652 97.7709 49.944 98.6829 49.944C99.2229 49.944 99.7269 50.052 100.303 50.244L100.615 49.068C99.9189 48.852 99.3309 48.732 98.6829 48.732C96.7869 48.732 95.7909 50.112 95.7909 51.756V54.432ZM97.1949 53.076C97.6269 52.728 98.0709 52.596 98.5389 52.596C99.4869 52.596 99.8949 53.328 99.8949 54.336C99.8949 55.212 99.4389 55.944 98.5389 55.944C97.6509 55.944 97.1949 55.236 97.1949 54.444V53.076Z" fill="white"/>
<path d="M8.9555 57V48.744L5.7155 49.248V50.472L7.5635 50.16V57H8.9555ZM14.7219 52.692C15.4179 52.284 15.9699 51.78 15.9699 50.904C15.9699 49.584 14.7099 48.732 13.3539 48.732C11.7219 48.732 10.7739 49.764 10.7739 50.904C10.7739 51.852 11.3139 52.416 11.9859 52.836C11.1939 53.256 10.5219 53.808 10.5219 54.864C10.5219 56.34 11.9859 57.156 13.3539 57.156C14.6979 57.156 16.1979 56.34 16.1979 54.864C16.1979 53.724 15.5259 53.124 14.7219 52.692ZM13.4859 52.116C12.7779 51.816 12.2019 51.504 12.2019 50.892C12.2019 50.304 12.6819 49.944 13.3539 49.944C14.0379 49.944 14.5419 50.292 14.5419 50.892C14.5419 51.48 14.0859 51.816 13.4859 52.116ZM13.2099 53.436C14.0379 53.796 14.7699 54.144 14.7699 54.852C14.7699 55.5 14.1099 55.944 13.3539 55.944C12.5739 55.944 11.9619 55.488 11.9619 54.852C11.9619 54.168 12.5139 53.784 13.2099 53.436Z" fill="white"/>
<path d="M54.5 52.5L100 81.5C96 87 88 97.5 75 103C58.8831 109.819 41.5 109.053 24 98C8.8 88.4 0.499997 71 0.5 52.5H54.5Z" fill="white" fill-opacity="0.4"/>
<path d="M0.5 52.5H54.5L26 8.5C21.5 11 12.5 19 8 26.5C3.5 34 0.5 44 0.5 52.5Z" fill="white" fill-opacity="0.2"/>
<path d="M86.4833 35.1282C86.5541 34.8613 86.3951 34.5875 86.1282 34.5167L81.7787 33.3628C81.5118 33.292 81.238 33.4509 81.1672 33.7178C81.0964 33.9847 81.2553 34.2585 81.5223 34.3293L85.3885 35.3551L84.3628 39.2213C84.292 39.4882 84.4509 39.762 84.7178 39.8328C84.9847 39.9036 85.2585 39.7447 85.3293 39.4777L86.4833 35.1282ZM55.2511 53.4324L86.2511 35.4324L85.7489 34.5676L54.7489 52.5676L55.2511 53.4324Z" fill="white"/>
<circle cx="55" cy="53" r="3" fill="white"/>
<line x1="137" y1="53.5" x2="108" y2="53.5" stroke="white" stroke-opacity="0.2"/>
<line x1="137" y1="78.5" x2="102" y2="78.5" stroke="white" stroke-opacity="0.2"/>
<line x1="137" y1="28.5" x2="101" y2="28.5" stroke="white"/>
<path fill-rule="evenodd" clip-rule="evenodd" d="M145 29C145 29 150.25 23 156.782 23C164.186 23 169 29 169 29C169 29 163.75 35 156.782 35C150.25 35 145 29 145 29ZM157 32.75C159.071 32.75 160.75 31.0711 160.75 29C160.75 26.9289 159.071 25.25 157 25.25C154.929 25.25 153.25 26.9289 153.25 29C153.25 31.0711 154.929 32.75 157 32.75Z" fill="white"/>
<path fill-rule="evenodd" clip-rule="evenodd" d="M146.875 49.3602L164.709 59.3685C164.827 59.435 164.92 59.5281 164.983 59.6355L165.459 59.9022C165.817 60.1035 166.276 59.9841 166.483 59.6354C166.69 59.2867 166.567 58.8408 166.209 58.6395L164.235 57.5317C167.169 55.8661 169 53.8321 169 53.8321C169 53.8321 164.186 48 156.782 48C154.411 48 152.208 48.7687 150.365 49.7479L147.9 48.3645C147.541 48.1632 147.082 48.2827 146.875 48.6313C146.736 48.8649 146.746 49.1422 146.875 49.3602ZM147.654 51.4812C145.994 52.7284 145 53.8321 145 53.8321C145 53.8321 150.25 59.6643 156.782 59.6643C158.28 59.6643 159.698 59.3949 161.002 58.9718L158.07 57.3267C157.731 57.4246 157.372 57.4772 157 57.4772C155.229 57.4772 153.744 56.2836 153.352 54.6786L147.654 51.4812ZM160.75 53.8321C160.75 54.3848 160.623 54.9088 160.397 55.3781L153.925 51.7458C154.603 50.8034 155.727 50.1871 157 50.1871C159.071 50.1871 160.75 51.819 160.75 53.8321Z" fill="white" fill-opacity="0.2"/>
<path fill-rule="evenodd" clip-rule="evenodd" d="M146.875 73.3602L164.709 83.3685C164.827 83.435 164.92 83.5281 164.983 83.6355L165.459 83.9022C165.817 84.1035 166.276 83.9841 166.483 83.6354C166.69 83.2867 166.567 82.8408 166.209 82.6395L164.235 81.5317C167.169 79.8661 169 77.8321 169 77.8321C169 77.8321 164.186 72 156.782 72C154.411 72 152.208 72.7687 150.365 73.7479L147.9 72.3645C147.541 72.1632 147.082 72.2827 146.875 72.6313C146.736 72.8649 146.746 73.1422 146.875 73.3602ZM147.654 75.4812C145.994 76.7284 145 77.8321 145 77.8321C145 77.8321 150.25 83.6643 156.782 83.6643C158.28 83.6643 159.698 83.3949 161.002 82.9718L158.07 81.3267C157.731 81.4246 157.372 81.4772 157 81.4772C155.229 81.4772 153.744 80.2836 153.352 78.6786L147.654 75.4812ZM160.75 77.8321C160.75 78.3848 160.623 78.9088 160.397 79.3781L153.925 75.7458C154.603 74.8034 155.727 74.1871 157 74.1871C159.071 74.1871 160.75 75.819 160.75 77.8321Z" fill="white" fill-opacity="0.2"/>
<defs>
<linearGradient id="paint0_linear" x1="2.30464e-06" y1="2.81739" x2="103.696" y2="63.6701" gradientUnits="userSpaceOnUse">
<stop stop-color="#C45ADD"/>
<stop offset="1" stop-color="#7F4EF4"/>
</linearGradient>
</defs>
</svg>
