<svg width="239" height="47" viewBox="0 0 239 47" fill="none" xmlns="http://www.w3.org/2000/svg">
	<path d="M224.228 24H226.802V16.296H228.314V14.586H226.802V11.706L224.228 12.048V14.586H222.698L223.076 16.296H224.228V24Z" fill="#F5F1FF" />
	<path d="M231.959 24H234.839L237.737 14.586H235.091L234.119 18.15C233.885 18.978 233.633 20.148 233.399 21.246C233.165 20.148 232.895 18.978 232.679 18.15L231.707 14.586H229.061L231.959 24Z" fill="#F5F1FF" />
	<path d="M117.857 11C117.857 11 105.5 10 88 7.5C70.5 5 53.5 0 53.5 0C88 5.5 111.857 5.5 122.857 5.5V29.5C99.8666 31.0967 74 31.5 0 47C0 47 39 36 67.5 31.5C96 27 117.857 24.5 117.857 24.5V11Z" fill="#F5F1FF" />
	<path d="M133.357 5.5H127.857V29.5H150.857V5.5H145.357V24.5H133.357V5.5Z" fill="#F5F1FF" />
	<path d="M176.857 5.5H155.357V11H171.857V24.5H155.357V29.5H176.857V5.5Z" fill="#F5F1FF" />
	<path d="M187.357 5.5H181.857V29.5H187.357V5.5Z" fill="#F5F1FF" />
	<path d="M214.857 5.5H191.857V29.5H197.357V11H209.857V29.5H214.857V5.5Z" fill="#F5F1FF" />
</svg>
