<svg width="224" height="74" viewBox="0 0 224 74" fill="none" xmlns="http://www.w3.org/2000/svg">
<path opacity="0.2" d="M163.5 36H204L223.5 52H144L163.5 36Z" fill="url(#paint0_linear)"/>
<path opacity="0.5" d="M132 24H72L65.5 64H139L132 24Z" fill="url(#paint1_linear)"/>
<rect y="14" width="60" height="60" fill="url(#paint2_linear)"/>
<path d="M30.6432 5.02C30.6432 2.74 29.3352 1.732 27.7512 1.732C26.1552 1.732 24.8592 2.74 24.8592 5.02V6.856C24.8592 9.136 26.1672 10.156 27.7512 10.156C29.3232 10.156 30.6432 9.136 30.6432 6.856V5.02ZM29.2392 6.856C29.2392 8.38 28.6152 8.944 27.7512 8.944C26.8872 8.944 26.2632 8.38 26.2632 6.856V5.02C26.2632 3.496 26.8992 2.944 27.7512 2.944C28.6032 2.944 29.2392 3.496 29.2392 5.02V6.856ZM33.5448 4.132C34.3608 4.132 35.0688 3.46 35.0688 2.62C35.0688 1.804 34.3608 1.096 33.5448 1.096C32.7168 1.096 32.0328 1.792 32.0328 2.596C32.0328 3.46 32.7048 4.132 33.5448 4.132ZM33.5568 3.22C33.2208 3.22 32.9448 2.944 32.9448 2.608C32.9448 2.284 33.2208 2.02 33.5448 2.02C33.8808 2.02 34.1448 2.284 34.1448 2.608C34.1448 2.944 33.8808 3.22 33.5568 3.22Z" fill="white"/>
<path opacity="0.5" d="M93.4406 19.748C94.1966 20.012 94.9286 20.156 95.6246 20.156C97.2446 20.156 98.6726 19.172 98.6726 17.516C98.6726 16.088 97.5326 15.176 96.2246 15.152L98.3126 13.064L98.2046 11.888H93.5126L93.6926 13.064H96.7046L94.6166 15.152L94.8326 16.268H95.7926C96.8726 16.268 97.2446 16.844 97.2446 17.516C97.2446 18.404 96.5366 18.944 95.6006 18.944C95.0126 18.944 94.4126 18.824 93.8006 18.608L93.4406 19.748ZM105.702 15.02C105.702 12.74 104.394 11.732 102.81 11.732C101.214 11.732 99.9178 12.74 99.9178 15.02V16.856C99.9178 19.136 101.226 20.156 102.81 20.156C104.382 20.156 105.702 19.136 105.702 16.856V15.02ZM104.298 16.856C104.298 18.38 103.674 18.944 102.81 18.944C101.946 18.944 101.322 18.38 101.322 16.856V15.02C101.322 13.496 101.958 12.944 102.81 12.944C103.662 12.944 104.298 13.496 104.298 15.02V16.856ZM108.603 14.132C109.419 14.132 110.127 13.46 110.127 12.62C110.127 11.804 109.419 11.096 108.603 11.096C107.775 11.096 107.091 11.792 107.091 12.596C107.091 13.46 107.763 14.132 108.603 14.132ZM108.615 13.22C108.279 13.22 108.003 12.944 108.003 12.608C108.003 12.284 108.279 12.02 108.603 12.02C108.939 12.02 109.203 12.284 109.203 12.608C109.203 12.944 108.939 13.22 108.615 13.22Z" fill="white"/>
<path opacity="0.2" d="M175.99 28.432C175.99 30.172 177.262 31.156 178.75 31.156C180.25 31.156 181.534 30.16 181.534 28.336C181.534 26.512 180.418 25.492 178.918 25.492C178.39 25.492 177.898 25.624 177.394 25.972V25.624C177.394 24.652 177.97 23.944 178.882 23.944C179.422 23.944 179.926 24.052 180.502 24.244L180.814 23.068C180.118 22.852 179.53 22.732 178.882 22.732C176.986 22.732 175.99 24.112 175.99 25.756V28.432ZM177.394 27.076C177.826 26.728 178.27 26.596 178.738 26.596C179.686 26.596 180.094 27.328 180.094 28.336C180.094 29.212 179.638 29.944 178.738 29.944C177.85 29.944 177.394 29.236 177.394 28.444V27.076ZM188.512 26.02C188.512 23.74 187.204 22.732 185.62 22.732C184.024 22.732 182.728 23.74 182.728 26.02V27.856C182.728 30.136 184.036 31.156 185.62 31.156C187.192 31.156 188.512 30.136 188.512 27.856V26.02ZM187.108 27.856C187.108 29.38 186.484 29.944 185.62 29.944C184.756 29.944 184.132 29.38 184.132 27.856V26.02C184.132 24.496 184.768 23.944 185.62 23.944C186.472 23.944 187.108 24.496 187.108 26.02V27.856ZM191.414 25.132C192.23 25.132 192.938 24.46 192.938 23.62C192.938 22.804 192.23 22.096 191.414 22.096C190.586 22.096 189.902 22.792 189.902 23.596C189.902 24.46 190.574 25.132 191.414 25.132ZM191.426 24.22C191.09 24.22 190.814 23.944 190.814 23.608C190.814 23.284 191.09 23.02 191.414 23.02C191.75 23.02 192.014 23.284 192.014 23.608C192.014 23.944 191.75 24.22 191.426 24.22Z" fill="white"/>
<defs>
<linearGradient id="paint0_linear" x1="144" y1="36" x2="207.555" y2="76.8238" gradientUnits="userSpaceOnUse">
<stop stop-color="#20A760"/>
<stop offset="0.1875" stop-color="#238A98"/>
<stop offset="0.828125" stop-color="#03ABC2"/>
<stop offset="1" stop-color="#048B45"/>
</linearGradient>
<linearGradient id="paint1_linear" x1="139" y1="24" x2="60.4316" y2="42.6636" gradientUnits="userSpaceOnUse">
<stop stop-color="#20A760"/>
<stop offset="0.1875" stop-color="#238A98"/>
<stop offset="0.828125" stop-color="#03ABC2"/>
<stop offset="1" stop-color="#048B45"/>
</linearGradient>
<linearGradient id="paint2_linear" x1="0" y1="14" x2="66.6428" y2="22.6154" gradientUnits="userSpaceOnUse">
<stop stop-color="#20A760"/>
<stop offset="0.1875" stop-color="#238A98"/>
<stop offset="0.828125" stop-color="#03ABC2"/>
<stop offset="1" stop-color="#048B45"/>
</linearGradient>
</defs>
</svg>
