<svg width="118" height="118" viewBox="0 0 118 118" fill="none" xmlns="http://www.w3.org/2000/svg">
<rect width="118" height="118" fill="url(#paint0_linear)"/>
<path d="M50.2727 63.9091L43.1818 56.8182H48.0909C48.6364 44.5782 53.3055 35 59 35C63.3636 35 67.2255 40.76 68.9273 49.0727C77.24 50.7745 83 54.6364 83 59C83 62.9927 78.2655 66.4836 71.2182 68.3818L71.8509 63.9527C76.0182 62.7527 78.6364 60.9855 78.6364 59C78.6364 56.6873 75.0364 54.6364 69.6255 53.5455C69.8 55.2691 69.9091 57.1018 69.9091 59C69.9091 72.2655 65.0218 83 59 83C55.0073 83 51.5164 78.2655 49.6182 71.2182L54.0473 71.8509C55.2473 76.0182 57.0145 78.6364 59 78.6364C62.6218 78.6364 65.5455 69.8436 65.5455 59C65.5455 56.8182 65.4364 54.7455 65.2182 52.7818C63.2545 52.5636 61.1818 52.4545 59 52.4545L54.9418 52.5855L55.5745 48.2L59 48.0909C60.8982 48.0909 62.7309 48.2 64.4545 48.3745C63.3636 42.9636 61.3127 39.3636 59 39.3636C55.64 39.3636 52.8473 47 52.4545 56.8182H57.3636L50.2727 63.9091ZM63.9091 67.7273L56.8182 74.8182V69.9091C44.5782 69.3636 35 64.6945 35 59C35 55.0073 39.7345 51.5164 46.7818 49.6182L46.1491 54.0473C41.9818 55.2473 39.3636 57.0145 39.3636 59C39.3636 62.36 47 65.1527 56.8182 65.5455V60.6364L63.9091 67.7273Z" fill="white"/>
<defs>
<linearGradient id="paint0_linear" x1="0" y1="0" x2="131.064" y2="16.9435" gradientUnits="userSpaceOnUse">
<stop stop-color="#20A760"/>
<stop offset="0.1875" stop-color="#238A98"/>
<stop offset="0.828125" stop-color="#03ABC2"/>
<stop offset="1" stop-color="#048B45"/>
</linearGradient>
</defs>
</svg>
