<svg xmlns="http://www.w3.org/2000/svg" fill="none" viewBox="0 0 216 436">
  <path fill="url(#paint0_linear)" d="M24 114C74 6 216 0 216 0S85 10 37 117c-49 108 38 319 38 319S-26 221 24 114z"/>
  <path fill="url(#paint1_linear)" d="M19 93C57 30 133 3 133 3S94 27 48 105C2 184 10 260 10 260s-28-104 9-167z"/>
  <path fill="url(#paint2_linear)" d="M30 106C89 7 211 19 211 19S110 37 58 140s30 248 30 248-116-183-58-282z"/>
  <defs>
    <linearGradient id="paint0_linear" x1="109" x2="109" y1="15.7" y2="354.3" gradientUnits="userSpaceOnUse">
      <stop stop-color="#B2DCF9"/>
      <stop offset="1" stop-color="#82FCD3"/>
    </linearGradient>
    <linearGradient id="paint1_linear" x1="103.2" x2="103.2" y1="0" y2="334.9" gradientUnits="userSpaceOnUse">
      <stop stop-color="#6641D1"/>
      <stop offset="1" stop-color="#B642AE"/>
    </linearGradient>
    <linearGradient id="paint2_linear" x1="129.7" x2="129.7" y1="29.6" y2="368.2" gradientUnits="userSpaceOnUse">
      <stop stop-color="#832AE6"/>
      <stop offset="1" stop-color="#FC59DA"/>
    </linearGradient>
  </defs>
</svg>