<svg width="1200" height="627" viewBox="0 0 1200 627" fill="none" xmlns="http://www.w3.org/2000/svg">
<g clip-path="url(#clip0)">
<rect width="1200" height="627" fill="#243B61"/>
<path d="M624.872 329.536C1095.45 315.997 1272 563.475 1272 563.475C1272 563.475 1127.97 414.001 646.775 434.152C165.577 454.304 -155 620 -155 620C-155 620 154.294 343.074 624.872 329.536Z" fill="url(#paint0_linear)"/>
<path d="M326.941 327.697C-143.435 341.221 -438 -102 -438 -102C-438 -102 -175.943 243.322 305.048 223.192C786.038 203.062 1273 35.0834 1273 35.0834C1273 35.0834 797.317 314.173 326.941 327.697Z" fill="url(#paint1_linear)"/>
<path d="M411.896 188.17C794.381 32.1472 1311 151.929 1311 151.929C1311 151.929 1009.53 151.929 771.139 347.878C532.75 543.828 23.4348 396.405 -624 534C-624 534 29.4108 344.193 411.896 188.17Z" fill="url(#paint2_linear)"/>
<path d="M401.735 160.928C819.883 37.7909 2073 429.983 2073 429.983C2073 429.983 1238.69 263.222 784.042 429.983C329.389 596.744 -185 246.509 -185 246.509C-185 246.509 -16.4133 284.066 401.735 160.928Z" fill="url(#paint3_linear)"/>
<path d="M609.907 177.628C1015.57 134.859 1410 445.53 1410 445.53C1410 445.53 1190.22 357.461 706.847 445.53C223.472 533.599 11 161 11 161C11 161 204.245 220.397 609.907 177.628Z" fill="url(#paint4_linear)"/>
<path d="M36 34C36 34 193.88 51.0735 600 51.0735C1006.12 51.0735 1164 34 1164 34V593C1164 593 1013.57 572.765 600 572.765C186.433 572.765 36 593 36 593V34Z" fill="url(#paint5_linear)"/>
<path d="M514.886 415H521.286L527.726 394.08H521.846L519.686 402C519.166 403.84 518.606 406.44 518.086 408.88C517.566 406.44 516.966 403.84 516.486 402L514.326 394.08H508.446L514.886 415ZM533.564 391.32C535.324 391.32 536.804 389.88 536.804 388.16C536.804 386.36 535.284 385.04 533.564 385.04C531.844 385.04 530.324 386.36 530.324 388.16C530.324 389.92 531.804 391.32 533.564 391.32ZM530.724 415H536.444V394.08H530.724V415ZM540.862 415H556.382L556.782 410.32H548.102L556.222 397.92V394.08H541.182V398.76H549.342L540.862 411.12V415ZM560.993 415H566.673V401.64C566.673 399.76 567.713 398.4 569.513 398.4C570.473 398.4 571.473 398.6 572.353 398.84L573.433 394.2C572.233 393.8 570.793 393.56 569.473 393.56C564.713 393.56 560.993 396.8 560.993 401.64V415ZM577.902 415H583.622V397.88H586.982V394.08H583.622V387.68L577.902 388.44V394.08H574.502L575.342 397.88H577.902V415ZM597.565 414.24C599.765 415.04 601.925 415.52 604.165 415.52C609.725 415.52 612.445 412.32 612.445 409C612.445 401.6 603.965 402.84 603.965 399.84C603.965 399.08 604.365 398.4 605.885 398.4C607.485 398.4 608.845 398.76 610.365 399.24L611.565 394.56C609.645 393.88 607.845 393.56 605.885 393.56C601.165 393.56 598.165 396.2 598.165 399.84C598.165 407.08 606.685 406 606.685 409.08C606.685 410 605.605 410.68 604.165 410.68C602.285 410.68 600.485 410.32 598.685 409.68L597.565 414.24ZM615.63 406.36C615.63 412.84 619.55 415.52 624.87 415.52C626.91 415.52 628.71 415.2 631.03 414.52L629.79 409.88C628.27 410.32 626.75 410.68 625.19 410.68C622.79 410.68 621.35 409.64 621.35 406.36V402.72C621.35 399.44 622.79 398.4 625.19 398.4C626.75 398.4 628.27 398.76 629.79 399.2L630.99 394.56C628.95 393.92 626.95 393.56 624.87 393.56C619.55 393.56 615.63 396.24 615.63 402.72V406.36ZM635.134 415H640.814V401.64C640.814 399.76 641.854 398.4 643.654 398.4C644.614 398.4 645.614 398.6 646.494 398.84L647.574 394.2C646.374 393.8 644.934 393.56 643.614 393.56C638.854 393.56 635.134 396.8 635.134 401.64V415ZM653.056 391.32C654.816 391.32 656.296 389.88 656.296 388.16C656.296 386.36 654.776 385.04 653.056 385.04C651.336 385.04 649.816 386.36 649.816 388.16C649.816 389.92 651.296 391.32 653.056 391.32ZM650.216 415H655.936V394.08H650.216V415ZM666.194 414.56C667.034 415.04 668.434 415.52 669.754 415.52C673.994 415.52 678.034 412.64 678.034 406.72V402.32C678.034 396.8 673.994 393.56 669.274 393.56C664.514 393.56 660.474 396.8 660.474 402.32V423.44H666.194V414.56ZM666.194 409.96V402.52C666.194 399.76 667.514 398.4 669.274 398.4C670.994 398.4 672.314 399.76 672.314 402.52V406.52C672.314 409.56 670.954 410.68 669.234 410.68C668.194 410.68 667.194 410.36 666.194 409.96ZM683.8 415H689.52V397.88H692.88V394.08H689.52V387.68L683.8 388.44V394.08H680.4L681.24 397.88H683.8V415Z" fill="#636363" style="mix-blend-mode:luminosity"/>
<path d="M419.504 496H429.104V475.44H438.144C448.544 475.44 455.184 467.76 455.184 458.8C455.184 449.76 448.544 441.92 438.144 441.92H419.504V496ZM429.104 467.28V450.24H437.824C442.544 450.24 445.344 453.76 445.344 458.8C445.344 463.84 442.544 467.28 437.824 467.28H429.104ZM461.001 483.2C461.001 491.04 467.881 497.04 476.841 497.04C485.401 497.04 492.681 491.12 492.681 483.2V468.88C492.681 459.44 486.281 453.44 476.681 453.44C472.201 453.44 467.721 454.56 463.481 455.92L465.481 463.52C469.161 462.4 473.001 461.52 476.681 461.52C480.921 461.52 483.241 464.16 483.241 468.88V470.4H476.681C467.401 470.4 461.001 474.72 461.001 483.2ZM470.521 483.04C470.521 480 472.121 477.28 476.601 477.28H483.241V483.2C483.241 486.08 480.841 488.96 476.841 488.96C472.601 488.96 470.521 486 470.521 483.04ZM501.418 502.64L499.018 510C503.978 512.4 509.658 513.92 515.498 513.92C526.938 513.92 533.578 508.88 533.578 501.2C533.578 489.2 512.138 491.6 512.138 488.08C512.138 487.6 512.378 487.2 512.698 486.8C513.738 486.96 514.858 487.04 515.978 487.04C524.858 487.04 531.178 481.12 531.178 472.4V468.16C531.178 465.04 530.298 462.32 528.858 460L533.738 459.76L534.298 453.52L521.818 454.4C520.058 453.76 518.057 453.44 515.898 453.44C507.098 453.44 500.698 459.36 500.698 468.16V472.4C500.698 477.68 503.018 481.92 506.858 484.4C505.418 485.68 504.298 487.52 504.298 489.52C504.298 500.24 523.978 496.32 523.978 501.76C523.978 504.32 521.018 506 515.338 506C510.618 506 505.978 504.64 501.418 502.64ZM515.978 479.12C511.578 479.12 509.898 476.16 509.898 472.4V468.16C509.898 464.4 511.578 461.52 515.898 461.52C520.298 461.52 521.978 464.32 521.978 468.16V472.4C521.978 476.16 520.378 479.12 515.978 479.12ZM540.476 479.44C540.476 490.96 547.676 497.04 558.236 497.04C563.356 497.04 567.036 496.32 571.356 494.72L569.516 487.04C565.836 488.16 562.156 488.96 558.236 488.96C552.876 488.96 549.756 485.92 549.756 479.44V477.92H573.356V469.12C573.356 459.84 565.996 453.44 556.876 453.44C547.836 453.44 540.476 459.44 540.476 470.64V479.44ZM549.756 471.04V469.68C549.756 464.56 552.716 461.52 556.876 461.52C561.196 461.52 563.996 464.8 563.996 469.12V471.04H549.756ZM598.888 493.92C604.248 495.84 609.528 497.04 615.528 497.04C625.048 497.04 633.608 491.76 633.608 481.28C633.608 462.56 610.168 466 610.168 455.44C610.168 451.76 612.488 449.2 617.688 449.2C621.768 449.2 625.608 450.24 629.928 451.84L632.408 444C627.448 442 622.648 440.88 617.688 440.88C607.768 440.88 600.168 446.56 600.168 455.6C600.168 473.36 623.608 470.08 623.608 481.44C623.608 486 620.168 488.72 615.528 488.72C610.488 488.72 605.528 487.44 600.728 485.76L598.888 493.92ZM641.101 478.88C641.101 491.6 648.541 497.04 658.941 497.04C662.941 497.04 666.541 496.4 670.941 495.12L668.941 487.36C665.741 488.24 662.621 488.96 659.341 488.96C653.661 488.96 650.461 486.16 650.461 478.64V471.76C650.461 464.32 653.661 461.52 659.341 461.52C662.621 461.52 665.821 462.24 668.941 463.12L670.861 455.36C666.861 454.16 662.941 453.44 658.941 453.44C648.541 453.44 641.101 458.88 641.101 471.6V478.88ZM680.032 496H689.312V469.2C689.312 464.64 692.112 461.52 696.432 461.52C698.112 461.52 700.112 461.92 701.392 462.24L703.152 454.48C701.232 453.84 698.592 453.44 696.352 453.44C687.152 453.44 680.032 459.68 680.032 469.2V496ZM708.133 478.8C708.133 490.56 715.413 497.04 725.333 497.04C735.333 497.04 742.613 490.56 742.613 478.8V471.68C742.613 459.84 735.333 453.44 725.333 453.44C715.413 453.44 708.133 459.84 708.133 471.6V478.8ZM717.413 478.4V472.08C717.413 464.96 720.133 461.52 725.333 461.52C730.613 461.52 733.333 464.96 733.333 472.08V478.4C733.333 485.52 730.613 488.96 725.333 488.96C720.133 488.96 717.413 485.52 717.413 478.4ZM752.698 496H762.058V436.4L752.698 438V496ZM773.557 496H782.917V436.4L773.557 438V496Z" fill="white"/>
<rect x="410.5" y="148.5" width="379.8" height="203" fill="white" fill-opacity="0.27" stroke="#2B7609" stroke-dasharray="6 6"/>
<rect x="427" y="163.3" width="348.5" height="187" fill="url(#paint6_linear)"/>
<rect x="751.7" y="170.1" width="17" height="85" rx="5" fill="white" fill-opacity="0.28"/>
<path d="M603.664 312.9L596.864 312.9L596.864 328.2L590.914 322.25L586.8 326.364L600.264 339.828L613.728 326.364L609.614 322.25L603.664 328.2L603.664 312.9Z" fill="white" fill-opacity="0.5"/>
</g>
<defs>
<linearGradient id="paint0_linear" x1="1430.63" y1="579.384" x2="792.3" y2="1369.05" gradientUnits="userSpaceOnUse">
<stop offset="0.0110497" stop-color="#7FFFD1"/>
<stop offset="1" stop-color="#B6DAFC"/>
</linearGradient>
<linearGradient id="paint1_linear" x1="-438" y1="1.8899" x2="-14.9925" y2="-730.772" gradientUnits="userSpaceOnUse">
<stop stop-color="#FF59DB"/>
<stop offset="1" stop-color="#7A78DE"/>
</linearGradient>
<linearGradient id="paint2_linear" x1="-421.47" y1="369.365" x2="1465.57" y2="230.242" gradientUnits="userSpaceOnUse">
<stop stop-color="#7332A7"/>
<stop offset="1" stop-color="#D03E72"/>
</linearGradient>
<linearGradient id="paint3_linear" x1="-185.665" y1="230.51" x2="1438.83" y2="369.182" gradientUnits="userSpaceOnUse">
<stop stop-color="#B028D2"/>
<stop offset="1" stop-color="#91171F"/>
</linearGradient>
<linearGradient id="paint4_linear" x1="-186.201" y1="230.58" x2="1438.9" y2="369.315" gradientUnits="userSpaceOnUse">
<stop stop-color="#F028F0"/>
<stop offset="1" stop-color="#640124"/>
</linearGradient>
<linearGradient id="paint5_linear" x1="36" y1="48.5826" x2="482.827" y2="436.797" gradientUnits="userSpaceOnUse">
<stop stop-color="#B6E78C"/>
<stop offset="1" stop-color="#2DCFE6"/>
</linearGradient>
<linearGradient id="paint6_linear" x1="427" y1="163.3" x2="798.962" y2="252.915" gradientUnits="userSpaceOnUse">
<stop stop-color="#20A760"/>
<stop offset="0.1875" stop-color="#238A98"/>
<stop offset="0.828125" stop-color="#03ABC2"/>
<stop offset="1" stop-color="#048B45"/>
</linearGradient>
<clipPath id="clip0">
<rect width="1200" height="627" fill="white"/>
</clipPath>
</defs>
</svg>
