<svg width="202" height="89" viewBox="0 0 202 89" fill="none" xmlns="http://www.w3.org/2000/svg">
<path d="M37.4039 61.824C40.8759 63.112 43.8439 63.728 47.0359 63.728C54.8759 63.728 59.2999 58.576 59.2999 50.456V25.536L52.5799 25.144V50.288C52.5799 54.712 51.0119 57.904 46.8119 57.904C44.1239 57.904 41.7159 57.288 38.9719 56.336L37.4039 61.824Z" fill="white"/>
<path d="M65.3181 61.544C69.0701 62.888 72.7661 63.728 76.9661 63.728C83.6301 63.728 89.6221 60.032 89.6221 52.696C89.6221 39.592 73.2141 42 73.2141 34.608C73.2141 32.032 74.8381 30.24 78.4781 30.24C81.3341 30.24 84.0221 30.968 87.0461 32.088L88.7821 26.6C85.3101 25.2 81.9501 24.416 78.4781 24.416C71.5341 24.416 66.2141 28.392 66.2141 34.72C66.2141 47.152 82.6221 44.856 82.6221 52.808C82.6221 56 80.2141 57.904 76.9661 57.904C73.4381 57.904 69.9661 57.008 66.6061 55.832L65.3181 61.544Z" fill="white"/>
<path d="M95.1478 48.328C95.1478 58.688 101.644 63.728 109.652 63.728C117.66 63.728 124.156 58.688 124.156 48.328V39.928C124.156 29.568 117.66 24.416 109.652 24.416C101.644 24.416 95.1478 29.568 95.1478 39.928V48.328ZM101.868 47.824V40.32C101.868 33.096 105.116 30.24 109.652 30.24C114.132 30.24 117.38 33.096 117.38 40.32V47.824C117.38 55.16 114.132 57.904 109.652 57.904C105.116 57.904 101.868 55.16 101.868 47.824Z" fill="white"/>
<path d="M131.757 63H138.477V44.408C138.477 42.784 138.421 40.768 138.253 38.64L152.925 63H158.525V25.144H151.749V44.128C151.749 45.696 151.805 47.656 151.917 49.728L137.189 25.144H131.757V63Z" fill="white"/>
<path d="M30.5435 79.75C23.0615 79.75 19.8795 77.514 19.8795 70.978V57.82C19.8795 51.886 17.6435 47.328 12.8275 44.49C17.9875 41.48 19.8795 37.2659 19.8795 31.0739V17.658C19.8795 11.0359 23.0615 8.88595 30.5435 8.88595V0.199951C17.9015 0.199951 10.2475 5.44595 10.2475 17.4V31.0739C10.2475 37.8679 7.75348 40.7059 0.271484 40.7059V48.188C7.75348 48.188 10.2475 51.112 10.2475 57.82V71.15C10.2475 83.104 17.9015 88.35 30.5435 88.35V79.75Z" fill="white"/>
<path d="M171.531 88.35C184.087 88.35 191.741 83.104 191.741 71.15V57.82C191.741 51.112 194.321 48.188 201.803 48.188V40.7059C194.321 40.7059 191.741 37.8679 191.741 31.0739V17.4C191.741 5.44595 184.087 0.199951 171.531 0.199951V8.88595C179.013 8.88595 182.109 11.0359 182.109 17.658V31.0739C182.109 37.2659 184.001 41.48 189.161 44.49C184.345 47.328 182.109 51.886 182.109 57.82V70.978C182.109 77.514 179.013 79.75 171.531 79.75V88.35Z" fill="white"/>
</svg>
