<?xml version="1.0" standalone="no"?>
<!DOCTYPE svg PUBLIC "-//W3C//DTD SVG 1.1//EN" "http://www.w3.org/Graphics/SVG/1.1/DTD/svg11.dtd" >
<svg>
<metadata>
Created by FontForge 20090914 at Sun Apr 19 12:26:17 2020
 By www-data
Copyright (c) 2009 by DA. All rights reserved.
</metadata>
<defs>
<font id="Russia-Bold" horiz-adv-x="584" >
  <font-face 
    font-family="Russia"
    font-weight="700"
    font-stretch="normal"
    units-per-em="1000"
    panose-1="2 11 8 3 4 0 0 2 0 4"
    ascent="760"
    descent="-240"
    x-height="523"
    cap-height="676"
    bbox="-25 -236 1233 916"
    underline-thickness="20"
    underline-position="-133"
    unicode-range="U+0020-U+FB04"
  />
<missing-glyph horiz-adv-x="500" 
d="M17 0v764h418v-764h-418zM83 63h286v638h-286v-638z" />
    <glyph glyph-name="f_f" unicode="ff" horiz-adv-x="704" 
d="M576 0h-142v428h-208v-428h-142v428h-68v95h68v57c0 52 18.167 92.5 54.5 121.5s78.833 43.5 127.5 43.5c32.667 0 68 -6 106 -18l-28 -115c-26 8 -49 12 -69 12c-32.667 0 -49 -14.667 -49 -44v-57h208v57c0 52 18.167 92.5 54.5 121.5s78.833 43.5 127.5 43.5
c32.667 0 68 -6 106 -18l-28 -115c-26 8 -49 12 -69 12c-32.667 0 -49 -14.667 -49 -44v-57h112l-22 -95h-90v-428z" />
    <glyph glyph-name="fi" unicode="fi" horiz-adv-x="627" 
d="M490 592c-22 0 -41 7.66699 -57 23s-24 34 -24 56s8 40.5 24 55.5s35 22.5 57 22.5s41 -7.5 57 -22.5s24 -33.5 24 -55.5c0 -21.333 -8 -39.833 -24 -55.5s-35 -23.5 -57 -23.5zM84 0v428h-68v95h68v57c0 52 18.167 92.5 54.5 121.5s78.833 43.5 127.5 43.5
c32.667 0 68 -6 106 -18l-28 -115c-26 8 -49 12 -69 12c-32.667 0 -49 -14.667 -49 -44v-57h112l-22 -95h-90v-428h-142zM419 0v523h143v-523h-143z" />
    <glyph glyph-name="fl" unicode="fl" horiz-adv-x="627" 
d="M419 0v725l143 20v-745h-143zM84 0v428h-68v95h68v57c0 52 18.167 92.5 54.5 121.5s78.833 43.5 127.5 43.5c32.667 0 68 -6 106 -18l-28 -115c-26 8 -49 12 -69 12c-32.667 0 -49 -14.667 -49 -44v-57h112l-22 -95h-90v-428h-142z" />
    <glyph glyph-name="f_f_i" unicode="ffi" horiz-adv-x="977" 
d="M576 0h-142v428h-208v-428h-142v428h-68v95h68v57c0 52 18.167 92.5 54.5 121.5s78.833 43.5 127.5 43.5c32.667 0 68 -6 106 -18l-28 -115c-26 8 -49 12 -69 12c-32.667 0 -49 -14.667 -49 -44v-57h208v57c0 52 18.167 92.5 54.5 121.5s78.833 43.5 127.5 43.5
c32.667 0 68 -6 106 -18l-28 -115c-26 8 -49 12 -69 12c-32.667 0 -49 -14.667 -49 -44v-57h112l-22 -95h-90v-428zM921 660c0 -21.333 -8 -39.833 -24 -55.5s-35 -23.5 -57 -23.5s-41 7.66699 -57 23s-24 34 -24 56s8 40.5 24 55.5s35 22.5 57 22.5s41 -7.5 57 -22.5
s24 -33.5 24 -55.5zM912 0h-143v523h143v-523z" />
    <glyph glyph-name="f_f_l" unicode="ffl" horiz-adv-x="977" 
d="M912 0h-143v725l143 20v-745zM576 0h-142v428h-208v-428h-142v428h-68v95h68v57c0 52 18.167 92.5 54.5 121.5s78.833 43.5 127.5 43.5c32.667 0 68 -6 106 -18l-28 -115c-26 8 -49 12 -69 12c-32.667 0 -49 -14.667 -49 -44v-57h208v57c0 52 18.167 92.5 54.5 121.5
s78.833 43.5 127.5 43.5c32.667 0 68 -6 106 -18l-28 -115c-26 8 -49 12 -69 12c-32.667 0 -49 -14.667 -49 -44v-57h112l-22 -95h-90v-428z" />
    <glyph glyph-name="f_y" unicode="fy" horiz-adv-x="854" 
d="M412 188l-35 240h-151v-428h-142v428h-68v95h68v57c0 52 18.167 92.5 54.5 121.5s78.833 43.5 127.5 43.5c32.667 0 68 -6 106 -18l-28 -115c-26 8 -49 12 -69 12c-32.667 0 -49 -14.667 -49 -44v-57h280l47 -325c8 -51.333 27.667 -77 59 -77h24l50 402h143l-99 -734
h-140l29 211h-12c-111.333 0 -176.333 62.667 -195 188z" />
    <glyph glyph-name="t_y" unicode="ty" horiz-adv-x="841" 
d="M399 188l-35 240h-125v-428h-143v428h-64l-21 95h85v141l143 19v-160h254l47 -325c8 -51.333 27.667 -77 59 -77h24l50 402h143l-99 -734h-140l29 211h-12c-111.333 0 -176.333 62.667 -195 188z" />
    <glyph glyph-name="t_t" unicode="tt" horiz-adv-x="682" 
d="M581 0h-143v428h-199v-428h-143v428h-64l-21 95h85v141l143 19v-160h199v141l143 19v-160h84v-95h-84v-428z" />
    <glyph glyph-name="f_t" unicode="ft" horiz-adv-x="693" 
d="M592 0h-143v428h-223v-428h-142v428h-68v95h68v57c0 52 18.167 92.5 54.5 121.5s78.833 43.5 127.5 43.5c32.667 0 68 -6 106 -18l-28 -115c-26 8 -49 12 -69 12c-32.667 0 -49 -14.667 -49 -44v-57h223v141l143 19v-160h84v-95h-84v-428z" />
    <glyph glyph-name=".notdef" horiz-adv-x="500" 
d="M17 0v764h418v-764h-418zM83 63h286v638h-286v-638z" />
    <glyph glyph-name="space" unicode=" " horiz-adv-x="220" 
 />
    <glyph glyph-name="exclam" unicode="!" horiz-adv-x="275" 
d="M204 215h-133l-7 451l147 20zM137 -8c-22 0 -41.335 8.16895 -58.002 24.502s-25 36.166 -25 59.499s8.33301 42.833 25 58.5s36 23.5 58 23.5c22.667 0 42.334 -7.83301 59.001 -23.5s25 -35.167 25 -58.5c0 -22.667 -8.16699 -42.334 -24.5 -59.001
s-36.166 -25 -59.499 -25z" />
    <glyph glyph-name="quotedbl" unicode="&#x22;" horiz-adv-x="424" 
d="M351 474h-99l-10 258h118zM173 474h-98l-11 258h118z" />
    <glyph glyph-name="numbersign" unicode="#" horiz-adv-x="589" 
d="M429 0h-124l18 181h-94l-18 -181h-124l18 181h-70v123h83l10 102h-70v123h83l18 180h124l-18 -180h94l18 180h124l-18 -180h70v-123h-83l-10 -102h69v-123h-82zM336 304l10 102h-94l-10 -102h94z" />
    <glyph glyph-name="dollar" unicode="$" horiz-adv-x="518" 
d="M307 -124h-101v112c-58.667 4 -119.334 17.667 -182.001 41l28 122c70.667 -26 135 -39 193 -39c25.333 0 45.5 7 60.5 21s22.5 32.333 22.5 55c0 22 -9.83301 40.333 -29.5 55s-43.5 27 -71.5 37s-56 21.667 -84 35s-51.833 33.833 -71.5 61.5
s-29.5 61.834 -29.5 102.501c0 48 15.5 88.167 46.5 120.5s71.833 53.5 122.5 63.5v117h101v-114c41.333 -4 91.333 -17 150 -39l-38 -117c-58.667 22.667 -108 34 -148 34c-32 0 -54.333 -5.33301 -67 -16s-19 -26.334 -19 -47.001c0 -15.333 5.33301 -28.5 16 -39.5
s24.334 -20.167 41.001 -27.5s35.167 -14.5 55.5 -21.5s40.666 -15.667 60.999 -26s38.833 -22.5 55.5 -36.5s30.334 -33 41.001 -57s16 -52 16 -84c0 -52.667 -15.667 -95.667 -47 -129s-72 -55.333 -122 -66v-118z" />
    <glyph glyph-name="percent" unicode="%" horiz-adv-x="900" 
d="M372 524v-67c0 -49.333 -15 -88.833 -45 -118.5s-68.667 -44.5 -116 -44.5c-46.667 0 -85.167 14.833 -115.5 44.5s-45.5 69.167 -45.5 118.5v67c0 49.333 15.167 89.166 45.5 119.499s68.833 45.5 115.5 45.5c47.333 0 86 -15.167 116 -45.5s45 -70.166 45 -119.499z
M344 0h-106l317 676h104zM271 459v63c0 48.667 -20 73 -60 73c-38 0 -57 -24.333 -57 -73v-63c0 -49.333 19 -74 57 -74c40 0 60 24.667 60 74zM850 218v-66c0 -49.333 -15.167 -89.166 -45.5 -119.499s-69.166 -45.5 -116.499 -45.5s-86 15.167 -116 45.5
s-45 70.166 -45 119.499v66c0 50 15 90 45 120s68.667 45 116 45s86.166 -15 116.499 -45s45.5 -70 45.5 -120zM747 154v62c0 24.667 -5.33301 43.334 -16 56.001s-25 19 -43 19c-17.333 0 -31.333 -6.33301 -42 -19s-16 -31.334 -16 -56.001v-62
c0 -48.667 19.333 -73 58 -73c18 0 32.333 6 43 18s16 30.333 16 55z" />
    <glyph glyph-name="ampersand" unicode="&#x26;" horiz-adv-x="566" 
d="M364 195l0.000976562 212h183v-113h-47v-99c0 -60 -20.333 -109.667 -61 -149s-95 -59 -163 -59c-68.667 0 -124.5 19.833 -167.5 59.5s-64.5 89.167 -64.5 148.5c0 66 25.667 117.333 77 154c-44.667 33.333 -67 80.333 -67 141c0 58.667 21 106.5 63 143.5
s96.667 55.5 164 55.5c43.333 0 96.666 -12 159.999 -36l-42 -114c-42.667 18 -80.667 27 -114 27c-30 0 -52 -7.16699 -66 -21.5s-21 -32.5 -21 -54.5c0 -22.667 6.5 -42.167 19.5 -58.5s32.833 -24.5 59.5 -24.5h53v-113h-57c-26.667 0 -47.5 -10 -62.5 -30
s-22.5 -43 -22.5 -69c0 -24.667 7.83301 -45 23.5 -61s37.167 -24 64.5 -24c28 0 49.667 8 65 24s23 36.333 23 61z" />
    <glyph glyph-name="quotesingle" unicode="'" horiz-adv-x="246" 
d="M173 475h-98l-11 257h118z" />
    <glyph glyph-name="parenleft" unicode="(" horiz-adv-x="334" 
d="M321 -116v-120c-167.333 0 -251 75 -251 225v593c0 150 83.667 225 251 225v-120c-44 0 -74 -8.33301 -90 -25s-24 -44 -24 -82v-589c0 -38 8 -65.333 24 -82s46 -25 90 -25z" />
    <glyph glyph-name="parenright" unicode=")" horiz-adv-x="334" 
d="M13 -236v120c44 0 74 8.33301 90 25s24 44 24 82v589c0 38 -8 65.333 -24 82s-46 25 -90 25v120c167.333 0 251 -75 251 -225v-593c0 -150 -83.667 -225 -251 -225z" />
    <glyph glyph-name="asterisk" unicode="*" horiz-adv-x="502" 
d="M389 391l-86 55l6 -102h-116l5 102l-86 -55l-58 100l92 47l-92 47l58 100l86 -56l-5 103h116l-6 -103l86 56l59 -100l-92 -47l92 -47z" />
    <glyph glyph-name="plus" unicode="+" horiz-adv-x="571" 
d="M517 218h-172v-172h-118v172h-173v118h173v172h118v-172h172v-118z" />
    <glyph glyph-name="comma" unicode="," horiz-adv-x="271" 
d="M138 -139l-97 17l48 273h131z" />
    <glyph glyph-name="hyphen" unicode="-" horiz-adv-x="499" 
d="M429 211h-359v118h359v-118z" />
    <glyph glyph-name="period" unicode="." horiz-adv-x="274" 
d="M137 -11c-22.667 0 -42.167 8.33301 -58.5 25s-24.5 36.667 -24.5 60s8.16699 42.833 24.5 58.5s35.833 23.5 58.5 23.5s42.167 -7.83301 58.5 -23.5s24.5 -35.167 24.5 -58.5s-8.16699 -43.333 -24.5 -60s-35.833 -25 -58.5 -25z" />
    <glyph glyph-name="slash" unicode="/" horiz-adv-x="397" 
d="M167 -63h-124l186 795h125z" />
    <glyph glyph-name="zero" unicode="0" horiz-adv-x="598" 
d="M548 413l0.000976562 -149.001c0 -90.667 -23.5 -159.5 -70.5 -206.5s-106.5 -70.5 -178.5 -70.5c-72.667 0 -132.334 23.5 -179.001 70.5s-70 115.833 -70 206.5v149c0 90.667 23.167 159.334 69.5 206.001s106.166 70 179.499 70c72.667 0 132.334 -23.5 179.001 -70.5
s70 -115.5 70 -205.5zM406.001 263.999v149c0 103.333 -35.667 155 -107 155s-107 -51.667 -107 -155v-149c0 -104 35.667 -156 107 -156s107 52 107 156z" />
    <glyph glyph-name="one" unicode="1" horiz-adv-x="405" 
d="M332 0h-142v548l-150 -23v122l292 42v-689z" />
    <glyph glyph-name="two" unicode="2" horiz-adv-x="524" 
d="M477 0l-441 -0.000976562v78c0 38.667 7.33301 74.5 22 107.5s33 59.833 55 80.5s45.833 40.834 71.5 60.501s49.5 36.667 71.5 51s40.333 30.833 55 49.5s22 38 22 58c0 24.667 -7.66699 44.667 -23 60s-37.333 23 -66 23c-42.667 0 -92.667 -14 -150 -42l-49 108
c69.333 36.667 138 55 206 55c66 0 120.333 -18.833 163 -56.5s64 -86.834 64 -147.501c0 -34.667 -9.83301 -67.667 -29.5 -99s-43.667 -58.166 -72 -80.499l-84.5 -63.5c-28 -20 -51.833 -40.667 -71.5 -62s-29.5 -42.333 -29.5 -63h286v-117z" />
    <glyph glyph-name="three" unicode="3" horiz-adv-x="518" 
d="M17 25l35.001 112.999c56.667 -20 108.334 -30 155.001 -30c35.333 0 64.166 9.33301 86.499 28s33.5 43 33.5 73c0 58 -33.333 87 -100 87h-86l-21 109l164 154h-243l-18 117h411l9 -117l-163 -154c51.333 -1.33301 96.166 -20.5 134.499 -57.5
s57.5 -83.167 57.5 -138.5c0 -67.333 -25.667 -121.166 -77 -161.499s-113 -60.5 -185 -60.5c-56.667 0 -121 12.667 -193 38z" />
    <glyph glyph-name="four" unicode="4" horiz-adv-x="566" 
d="M443 1l-136 -10v142h-248l-17 110l131 433h132l-125 -426h127v207l136 23v-230h93v-117h-93v-132z" />
    <glyph glyph-name="five" unicode="5" horiz-adv-x="525" 
d="M26 21l28 117.999c69.333 -20.667 126 -31 170 -31c32 0 59.167 10 81.5 30s33.5 48.333 33.5 85c0 64.667 -42.667 97 -128 97h-146l12 356h387l-21 -117h-240l-6 -124h27c79.333 0 142.5 -17.833 189.5 -53.5s70.5 -88.167 70.5 -157.5
c0 -50.667 -13.167 -94.667 -39.5 -132s-58.333 -64.166 -96 -80.499s-77.5 -24.5 -119.5 -24.5c-62 0 -129.667 11.333 -203 34z" />
    <glyph glyph-name="six" unicode="6" horiz-adv-x="571" 
d="M50 218l-0.000976562 215.999c0 72.667 22 133.334 66 182.001s105.333 73 184 73c50 0 106.333 -10 169 -30l-31 -117c-50 17.333 -96 26 -138 26c-30.667 0 -56.167 -10.833 -76.5 -32.5s-30.5 -49.834 -30.5 -84.501v-23c34 26.667 72.667 40 116 40
c66 0 119.167 -21.5 159.5 -64.5s60.5 -102.167 60.5 -177.5c0 -74 -23.167 -132.333 -69.5 -175s-103.166 -64 -170.499 -64c-66.667 0 -123.167 20.833 -169.5 62.5s-69.5 97.834 -69.5 168.501zM191.999 319.999l-0.000976562 -103c0 -30.667 8.5 -56.5 25.5 -77.5
s40.5 -31.5 70.5 -31.5c30.667 0 54.334 11.167 71.001 33.5s25 50.5 25 84.5c0 89.333 -32 134 -96 134c-36.667 0 -68.667 -13.333 -96 -40z" />
    <glyph glyph-name="seven" unicode="7" horiz-adv-x="518" 
d="M318 0l-147 0.000976562c0 235.333 53.333 421.666 160 558.999h-301l-12 117h466v-116c-63.333 -76 -106.833 -155.667 -130.5 -239s-35.5 -190.333 -35.5 -321z" />
    <glyph glyph-name="eight" unicode="8" horiz-adv-x="581" 
d="M424 360c74 -44 111 -103.001 111 -177.001c0 -59.333 -25.833 -106.833 -77.5 -142.5s-107.5 -53.5 -167.5 -53.5c-62.667 0 -119 17.667 -169 53s-75 83.333 -75 144c0 66.667 36 120.334 108 161.001c-58.667 40 -88 92 -88 156c0 51.333 20.5 95.5 61.5 132.5
s95.167 55.5 162.5 55.5c58.667 0 111 -17.5 157 -52.5s69 -80.167 69 -135.5s-30.667 -102.333 -92 -141zM303 416.999c45.333 24.667 67.999 53.333 67.999 86c0 20 -7.66699 35.833 -23 47.5s-34.666 17.5 -57.999 17.5s-42.333 -5.83301 -57 -17.5s-22 -27.5 -22 -47.5
c0 -18 7.66699 -33.5 23 -46.5s38.333 -26.167 69 -39.5zM273.999 284.998c-55.333 -30 -82.999 -63.667 -82.999 -101c0 -21.333 9.66699 -39.333 29 -54s42.666 -22 69.999 -22s50.833 7.5 70.5 22.5s29.5 32.833 29.5 53.5c0 22 -9.5 40.167 -28.5 54.5
s-48.167 29.833 -87.5 46.5z" />
    <glyph glyph-name="nine" unicode="9" horiz-adv-x="567" 
d="M374 225l0.000976562 23.001c-34 -26.667 -72.667 -40 -116 -40c-65.333 0 -118.333 21.5 -159 64.5s-61 102.167 -61 177.5c0 74 23.167 132.333 69.5 175s103.5 64 171.5 64c66.667 0 123 -20.833 169 -62.5s69 -97.834 69 -168.501v-216
c0 -72.667 -22 -133.334 -66 -182.001s-105 -73 -183 -73c-50.667 0 -107.334 10 -170.001 30l32 117c50 -17.333 96 -26 138 -26c30.667 0 56 10.833 76 32.5s30 49.834 30 84.501zM375.001 356.001l-0.000976562 103c0 30.667 -8.33301 56.5 -25 77.5s-40 31.5 -70 31.5
c-30.667 0 -54.5 -11.167 -71.5 -33.5s-25.5 -50.5 -25.5 -84.5c0 -89.333 32.333 -134 97 -134c34.667 0 66.334 13.333 95.001 40z" />
    <glyph glyph-name="colon" unicode=":" horiz-adv-x="274" 
d="M137 298c-22.667 0 -42.167 8.33301 -58.5 25s-24.5 36.334 -24.5 59.001c0 23.333 8.16699 43 24.5 59s35.833 24 58.5 24s42.167 -8 58.5 -24s24.5 -35.667 24.5 -59c0 -22.667 -8.16699 -42.334 -24.5 -59.001s-35.833 -25 -58.5 -25zM137 -11
c-22.667 0 -42.167 8.33301 -58.5 25s-24.5 36.667 -24.5 60s8.16699 42.833 24.5 58.5s35.833 23.5 58.5 23.5s42.167 -7.83301 58.5 -23.5s24.5 -35.167 24.5 -58.5s-8.16699 -43.333 -24.5 -60s-35.833 -25 -58.5 -25z" />
    <glyph glyph-name="semicolon" unicode=";" horiz-adv-x="276" 
d="M137 298c-22.667 0 -42.334 8.33301 -59.001 25s-25 36.334 -25 59.001c0 23.333 8.33301 43 25 59s36.334 24 59.001 24s42.167 -8 58.5 -24s24.5 -35.667 24.5 -59c0 -22.667 -8.16699 -42.334 -24.5 -59.001s-35.833 -25 -58.5 -25zM133 -163l-97 17l48 273h131z" />
    <glyph glyph-name="less" unicode="&#x3c;" horiz-adv-x="541" 
d="M411 -19l-357 300l357 300l76 -90l-249 -210l249 -210z" />
    <glyph glyph-name="equal" unicode="=" horiz-adv-x="571" 
d="M517 324h-463v119h463v-119zM517 116h-463v118h463v-118z" />
    <glyph glyph-name="greater" unicode="&#x3e;" horiz-adv-x="541" 
d="M487 281l-356 -300l-77 90l250 210l-250 210l77 90z" />
    <glyph glyph-name="question" unicode="?" horiz-adv-x="450" 
d="M285 216l-134 20.002v43c0 24.667 6.16699 49.167 18.5 73.5s25.833 44.166 40.5 59.499s28.167 32.333 40.5 51s18.5 35.667 18.5 51c0 17.333 -5.66699 31.166 -17 41.499s-26.333 15.5 -45 15.5c-32.667 0 -70 -14.667 -112 -44l-58 98c56.667 42.667 114 64 172 64
c54 0 100.333 -16 139 -48s58 -74.333 58 -127c0 -23.333 -6.33301 -46.833 -19 -70.5s-26.5 -43.5 -41.5 -59.5s-28.833 -33.5 -41.5 -52.5s-19 -35.833 -19 -50.5v-65zM218 -10.998c-23.333 0 -43.168 8.16895 -59.501 24.502s-24.5 36.166 -24.5 59.499
s8.33301 42.833 25 58.5s36.334 23.5 59.001 23.5c22 0 41.333 -8 58 -24s25 -35.333 25 -58s-8.16699 -42.334 -24.5 -59.001s-35.833 -25 -58.5 -25z" />
    <glyph glyph-name="at" unicode="@" horiz-adv-x="889" 
d="M649 -4l41 -86.001c-82.667 -57.333 -174 -86 -274 -86c-110 0 -198 35 -264 105s-99 157 -99 261c0 81.333 17 156.333 51 225s84.667 124.5 152 167.5s144.666 64.5 231.999 64.5c103.333 0 186.333 -34 249 -102s94 -156.667 94 -266c0 -29.333 -1 -52 -3 -68h-207
l-7 -57c-5.33301 -44.667 -26.5 -81.5 -63.5 -110.5s-80.5 -43.5 -130.5 -43.5c-47.333 0 -85.833 12.833 -115.5 38.5s-44.5 59.167 -44.5 100.5c0 49.333 17.833 87 53.5 113s82.167 39 139.5 39h56l2 13c2.66699 16.667 0.166992 31.334 -7.5 44.001s-21.167 19 -40.5 19
c-37.333 0 -79.666 -7.33301 -126.999 -22l-15 97c58 19.333 109.333 29 154 29c48.667 0 88.667 -15.667 120 -47s44 -71.333 38 -120l-2 -13h99c0 78 -23.833 140.833 -71.5 188.5s-109.834 71.5 -186.501 71.5c-93.333 0 -169.666 -33.5 -228.999 -100.5
s-89 -150.833 -89 -251.5c0 -84 24.333 -151.5 73 -202.5s114 -76.5 196 -76.5c70.667 0 146 25.333 226 76zM492 153.999l6.99902 57.001h-57c-18 0 -32 -5.33301 -42 -16s-15 -25.334 -15 -44.001c0 -14 4 -25.333 12 -34s19.667 -13 35 -13
c16.667 0 30.334 5.16699 41.001 15.5s17 21.833 19 34.5z" />
    <glyph glyph-name="A" unicode="A" horiz-adv-x="616" 
d="M20 0l203 676h170l203 -676h-149l-45 163h-188l-45 -163h-149zM247 282l122.001 0.000976562l-35 128c-8 27.333 -16.667 65.666 -26 114.999c-6.66699 -36 -15.334 -74.333 -26.001 -115z" />
    <glyph glyph-name="B" unicode="B" horiz-adv-x="583" 
d="M296 0l-226.001 0.00195312v676h221c70.667 0 127 -17.667 169 -53s63 -81 63 -137c0 -60.667 -28.333 -104.334 -85 -131.001c73.333 -26.667 110 -76.334 110 -149.001c0 -58 -23.667 -106.833 -71 -146.5s-107.666 -59.5 -180.999 -59.5zM216.999 406.002h62.999
c30 0 53.167 6.83301 69.5 20.5s24.5 31.167 24.5 52.5c0 22 -7.16699 39.5 -21.5 52.5s-36.166 19.5 -65.499 19.5h-70v-145zM216.998 125.002h77.999c32 0 57.333 7.66699 76 23s28 34.666 28 57.999c0 24.667 -8.16699 44.334 -24.5 59.001s-40.166 22 -71.499 22h-86
v-162z" />
    <glyph glyph-name="C" unicode="C" horiz-adv-x="569" 
d="M496 139l28 -121c-64 -20.667 -129 -31 -195 -31c-82.667 0 -149.334 23.833 -200.001 71.5s-76 116.5 -76 206.5v146c0 90 25.333 158.833 76 206.5s117.334 71.5 200.001 71.5c66 0 131 -10.333 195 -31l-28 -120c-56 17.333 -111.333 26 -166 26
c-86.667 0 -130 -55 -130 -165v-121c0 -58.667 11.167 -101 33.5 -127s54.5 -39 96.5 -39c58.667 0 114 9 166 27z" />
    <glyph glyph-name="D" unicode="D" horiz-adv-x="635" 
d="M326 0h-256v630c104.667 39.333 190 59 256 59c72.667 0 133.5 -22.833 182.5 -68.5s73.5 -108.5 73.5 -188.5v-182c0 -81.333 -22.5 -143.333 -67.5 -186s-107.833 -64 -188.5 -64zM435 261l-0.000976562 159c0 48 -9.66699 84 -29 108s-46 36 -80 36
c-35.333 0 -71.666 -6.33301 -108.999 -19v-420h109c39.333 0 67.333 10 84 30s25 55.333 25 106z" />
    <glyph glyph-name="E" unicode="E" horiz-adv-x="533" 
d="M70 0v676h404v-125h-257v-150h216l-6 -120h-210v-156h266v-125h-413z" />
    <glyph glyph-name="F" unicode="F" horiz-adv-x="523" 
d="M70 0v676h403v-125h-256v-150h208l-7 -120h-201v-281h-147z" />
    <glyph glyph-name="G" unicode="G" horiz-adv-x="616" 
d="M53 265v146c0 90 25.333 158.833 76 206.5s117.334 71.5 200.001 71.5c58.667 0 130.334 -13.333 215.001 -40l-32 -119c-70.667 22 -131.334 33 -182.001 33c-42 0 -74.167 -12.667 -96.5 -38s-33.5 -67 -33.5 -125v-120c0 -59.333 11.167 -102 33.5 -128
s54.5 -39 96.5 -39c32 0 63.333 3.33301 94 10v148h-69v103h206v-345c-82 -28 -159.333 -42 -232 -42c-82.667 0 -149.334 23.833 -200.001 71.5s-76 116.5 -76 206.5z" />
    <glyph glyph-name="H" unicode="H" horiz-adv-x="642" 
d="M70 0v676h147v-271h208v271h147v-676h-147v283h-208v-283h-147z" />
    <glyph glyph-name="I" unicode="I" horiz-adv-x="287" 
d="M70 0v676h147v-676h-147z" />
    <glyph glyph-name="J" unicode="J" horiz-adv-x="484" 
d="M15 23l35.001 116.999c54 -18.667 101 -28 141 -28c57.333 0 86 40.333 86 121v443l147 -7v-439c0 -75.333 -19.833 -134.666 -59.5 -177.999s-95.834 -65 -168.501 -65c-52.667 0 -113 12 -181 36z" />
    <glyph glyph-name="K" unicode="K" horiz-adv-x="610" 
d="M70 0v676h147v-250l175 250h172l-217 -295l248 -381h-174l-163 260l-41 -56v-204h-147z" />
    <glyph glyph-name="L" unicode="L" horiz-adv-x="512" 
d="M70 0v676h147v-551h270l-6 -125h-411z" />
    <glyph glyph-name="M" unicode="M" horiz-adv-x="828" 
d="M35 0l72 676h167l116 -327c5.33301 -15.333 13.333 -44.333 24 -87c7.33301 32.667 15.333 61.667 24 87l116 327h167l72 -676h-146l-29 346c-2 23.333 -4.33301 66.333 -7 129c-12 -51.333 -24 -94 -36 -128l-83 -233h-156l-83 233c-14 40 -26.333 83 -37 129
c-1.33301 -52.667 -3.33301 -96 -6 -130l-29 -346h-146z" />
    <glyph glyph-name="N" unicode="N" horiz-adv-x="635" 
d="M70 0v676h119l232 -386c-2 38 -3 72.333 -3 103v283h147v-676h-120l-232 384c2.66699 -34.667 4 -70 4 -106v-278h-147z" />
    <glyph glyph-name="O" unicode="O" horiz-adv-x="641" 
d="M53 266v143.001c0 89.333 25.167 158.333 75.5 207s114.166 73 191.499 73c78 0 142.167 -24.333 192.5 -73s75.5 -117.667 75.5 -207v-143c0 -90 -25.167 -159 -75.5 -207s-114.5 -72 -192.5 -72c-77.333 0 -141.166 24.167 -191.499 72.5s-75.5 117.166 -75.5 206.499z
M320 112.001c80.667 0 121 55 121 165v122c0 110 -40.333 165 -121 165c-80 0 -120 -55 -120 -165v-122c0 -110 40 -165 120 -165z" />
    <glyph glyph-name="P" unicode="P" horiz-adv-x="558" 
d="M70 0l0.000976562 675.998h241c66 0 119.5 -21.167 160.5 -63.5s61.5 -93.166 61.5 -152.499s-20.333 -109.666 -61 -150.999s-94.334 -62 -161.001 -62h-94v-247h-147zM217.001 368.998h89c23.333 0 42.166 8.33301 56.499 25s21.5 38.667 21.5 66
s-7.16699 49.333 -21.5 66s-33.166 25 -56.499 25h-89v-182z" />
    <glyph glyph-name="Q" unicode="Q" horiz-adv-x="641" 
d="M53 266v143c0 89.333 25.167 158.333 75.5 207s114.166 73 191.499 73c78 0 142.167 -24.333 192.5 -73s75.5 -117.667 75.5 -207v-143c0 -123.333 -47.333 -207.666 -142 -252.999l52 -138l-108 -62l-65 174h-5c-77.333 0 -141.166 24.167 -191.499 72.5
s-75.5 117.166 -75.5 206.499zM320 112c80.667 0 121 55 121 165v122c0 110 -40.333 165 -121 165c-80 0 -120 -55 -120 -165v-122c0 -110 40 -165 120 -165z" />
    <glyph glyph-name="R" unicode="R" horiz-adv-x="571" 
d="M70 0v675.998h241c66 0 119.5 -21.167 160.5 -63.5s61.5 -93.166 61.5 -152.499c0 -41.333 -10.5 -78.666 -31.5 -111.999s-50.5 -58.333 -88.5 -75l128 -273h-164l-110 252h-50v-252h-147zM217 368.998h86.999c24 0 43.5 8.33301 58.5 25s22.5 38.667 22.5 66
c0 26.667 -7.66699 48.5 -23 65.5s-34.666 25.5 -57.999 25.5h-87v-182z" />
    <glyph glyph-name="S" unicode="S" horiz-adv-x="522" 
d="M35 29l28.001 121.998c70.667 -26 133.667 -39 189 -39c25.333 0 45.5 7 60.5 21s22.5 32.333 22.5 55c0 22 -9.66699 41 -29 57s-42.833 30 -70.5 42s-55.334 25.667 -83.001 41s-51.167 37.5 -70.5 66.5s-29 63.833 -29 104.5c0 57.333 21.667 103.333 65 138
s97.666 52 162.999 52c58 0 122 -14 192 -42l-38 -117c-56.667 22.667 -108 34 -154 34c-50.667 0 -76 -21 -76 -63c0 -20 9.66699 -37.5 29 -52.5s42.833 -28.333 70.5 -40s55.334 -25.167 83.001 -40.5s51.167 -38.166 70.5 -68.499s29 -67.166 29 -110.499
c0 -64 -22.833 -113.667 -68.5 -149s-101.167 -53 -166.5 -53c-68 0 -140.333 14 -217 42z" />
    <glyph glyph-name="T" unicode="T" horiz-adv-x="525" 
d="M189 0v551h-164v125h475v-125h-164v-551h-147z" />
    <glyph glyph-name="U" unicode="U" horiz-adv-x="640" 
d="M65 226l-0.00195312 449.998h147v-438c0 -39.333 9.83301 -70.166 29.5 -92.499s45.834 -33.5 78.501 -33.5s58.834 11.333 78.501 34s29.5 53.334 29.5 92.001v438h147v-450c0 -69.333 -24.833 -126.5 -74.5 -171.5s-109.834 -67.5 -180.501 -67.5
c-71.333 0 -131.666 22.333 -180.999 67s-74 102 -74 172z" />
    <glyph glyph-name="V" unicode="V" horiz-adv-x="616" 
d="M223 0l-203 676h149l113 -410c7.33301 -26 16 -66 26 -120c10 54 18.667 94 26 120l113 410h149l-203 -676h-170z" />
    <glyph glyph-name="W" unicode="W" horiz-adv-x="849" 
d="M145 0l-109.999 676h150l42 -343c3.33301 -26.667 7 -76.667 11 -150c12.667 68.667 24 118.334 34 149.001l73 235h157l75 -235c11.333 -36 22.666 -84.667 33.999 -146c4 72 7.66699 121 11 147l42 343h150l-110 -676h-163l-96 318c-6.66699 23.333 -13.667 55 -21 95
c-5.33301 -36.667 -12 -68.334 -20 -95.001l-96 -318h-163z" />
    <glyph glyph-name="X" unicode="X" horiz-adv-x="594" 
d="M15 0l196 352l-175 324h163l98 -187l103 187h159l-175 -321l196 -355h-169l-113 216l-118 -216h-165z" />
    <glyph glyph-name="Y" unicode="Y" horiz-adv-x="579" 
d="M216 0v257l-201 419h158l116 -268l117 268h158l-201 -419v-257h-147z" />
    <glyph glyph-name="Z" unicode="Z" horiz-adv-x="564" 
d="M40 0v97l277 454h-271v125h455v-97l-280 -454h303l-13 -125h-471z" />
    <glyph glyph-name="bracketleft" unicode="[" horiz-adv-x="294" 
d="M278 -235h-208v1042h208v-113h-72v-815h72v-114z" />
    <glyph glyph-name="backslash" unicode="\" horiz-adv-x="398" 
d="M355 -63h-125l-187 795h124z" />
    <glyph glyph-name="bracketright" unicode="]" horiz-adv-x="294" 
d="M224 -235h-208v114h72v815h-72v113h208v-1042z" />
    <glyph glyph-name="asciicircum" unicode="^" horiz-adv-x="632" 
d="M565 418l-121 -54l-128 251l-128 -251l-120 54l185 314h127z" />
    <glyph glyph-name="underscore" unicode="_" horiz-adv-x="500" 
d="M500 -191h-500v118h500v-118z" />
    <glyph glyph-name="grave" unicode="`" horiz-adv-x="407" 
d="M298 574l-223 84l38 95l221 -96z" />
    <glyph glyph-name="a" unicode="a" horiz-adv-x="498" 
d="M38 167c0 53.333 18.3311 93.666 54.998 120.999s86.334 41 149.001 41h65v12c0 24 -5.66699 42.333 -17 55s-27.333 19 -48 19c-41.333 0 -89.666 -8.66699 -144.999 -26l-31 113c73.333 22.667 132 34 176 34c62 0 112.167 -18 150.5 -54s57.5 -83 57.5 -141v-174
c0 -51.333 -20.333 -94.166 -61 -128.499s-89 -51.5 -145 -51.5c-58.667 0 -107.667 17 -147 51s-59 77 -59 129zM182.998 168c0 -16 5.00098 -30 15.001 -42s25.333 -18 46 -18c19.333 0 34.666 6.16699 45.999 18.5s17 25.833 17 40.5v62h-66
c-38.667 0 -58 -20.333 -58 -61z" />
    <glyph glyph-name="b" unicode="b" horiz-adv-x="535" 
d="M48 206v520l143 19v-233c28 16 57.667 24 89 24c57.333 0 106.166 -19.167 146.499 -57.5s60.5 -92.5 60.5 -162.5v-110c0 -66.667 -21.167 -119.834 -63.5 -159.501s-94.166 -59.5 -155.499 -59.5c-62 0 -114.167 19.833 -156.5 59.5s-63.5 92.834 -63.5 159.501z
M191 211c0 -33.333 7.16699 -58.833 21.5 -76.5s32.833 -26.5 55.5 -26.5s41 8.83301 55 26.5s21 43.167 21 76.5v100c0 69.333 -25.667 104 -77 104c-20.667 0 -46 -6 -76 -18v-186z" />
    <glyph glyph-name="c" unicode="c" horiz-adv-x="476" 
d="M48 216v90.998c0 77.333 20.833 134.833 62.5 172.5s97.834 56.5 168.501 56.5c48.667 0 99.667 -8.33301 153 -25l-30 -116c-46 13.333 -84.333 20 -115 20c-32 0 -56 -8.16699 -72 -24.5s-24 -44.166 -24 -83.499v-91c0 -39.333 8 -67.166 24 -83.499
s40 -24.5 72 -24.5c30.667 0 69 6.66699 115 20l31 -116c-56.667 -16.667 -108 -25 -154 -25c-70.667 0 -126.834 18.833 -168.501 56.5s-62.5 95.167 -62.5 172.5z" />
    <glyph glyph-name="d" unicode="d" horiz-adv-x="534" 
d="M48 206l-0.000976562 110c0 70 20.167 124.167 60.5 162.5s89.166 57.5 146.499 57.5c30.667 0 60 -8 88 -24v220h143v-526c0 -66.667 -21.167 -119.834 -63.5 -159.501s-94.166 -59.5 -155.499 -59.5s-113.166 19.833 -155.499 59.5s-63.5 92.834 -63.5 159.501z
M189.999 211c0 -33.333 7.16699 -58.833 21.5 -76.5s32.833 -26.5 55.5 -26.5s41 8.83301 55 26.5s21 43.167 21 76.5v186c-28.667 12 -53.667 18 -75 18c-52 0 -78 -34.667 -78 -104v-100z" />
    <glyph glyph-name="e" unicode="e" horiz-adv-x="518" 
d="M48 213v102c0 69.333 20.167 123.5 60.5 162.5s91.166 58.5 152.499 58.5c60 0 110.667 -19 152 -57s62 -86.333 62 -145v-114h-285v-7c0 -70 30.667 -105 92 -105c44 0 91.667 8.33301 143 25l28 -115c-56 -20.667 -113 -31 -171 -31
c-71.333 0 -128.166 19.667 -170.499 59s-63.5 95 -63.5 167zM190 320h142v14c0 23.333 -6.33301 42.666 -19 57.999s-30 23 -52 23c-20.667 0 -37.667 -7.66699 -51 -23s-20 -34.666 -20 -57.999v-14z" />
    <glyph glyph-name="f" unicode="f" horiz-adv-x="354" 
d="M84 0v428h-68v95h68v57c0 52 18.167 92.5 54.5 121.5s78.833 43.5 127.5 43.5c32.667 0 68 -6 106 -18l-28 -115c-26 8 -49 12 -69 12c-32.667 0 -49 -14.667 -49 -44v-57h112l-22 -95h-90v-428h-142z" />
    <glyph glyph-name="g" unicode="g" horiz-adv-x="500" 
d="M55 -65c64 -28 122.333 -42 175 -42c63.333 0 95 13.333 95 40c0 10 -12.5 18 -37.5 24s-52.333 10.833 -82 14.5s-57 14.5 -82 32.5s-37.5 42.667 -37.5 74c0 26 10.667 49 32 69c-49.333 35.333 -74 85.666 -74 150.999v48c0 56 18.667 101.667 56 137
s84.666 53 141.999 53c26.667 0 51.667 -4 75 -12l162 12l-9 -91l-54 -2c16.667 -29.333 25 -61.666 25 -96.999v-48c0 -56 -18.5 -101.5 -55.5 -136.5s-84.5 -52.5 -142.5 -52.5c-14 0 -27.667 1 -41 3c-1.33301 -4 -2 -7.33301 -2 -10c0 -7.33301 14 -14 42 -20
s59 -11.833 93 -17.5s65 -19 93 -40s42 -48.5 42 -82.5c0 -52.667 -21.167 -93.5 -63.5 -122.5s-100.166 -43.5 -173.499 -43.5c-71.333 0 -142 17 -212 51zM243 227c38.667 0 58 23.667 58 71v48c0 46 -19.667 69 -59 69c-38.667 0 -58 -23 -58 -69v-48
c0 -47.333 19.667 -71 59 -71z" />
    <glyph glyph-name="h" unicode="h" horiz-adv-x="555" 
d="M65 0l0.000976562 732.001h143v-220c29.333 16 59 24 89 24c57.333 0 104.666 -17.333 141.999 -52s56 -87 56 -157v-327h-143v319c0 35.333 -5.66699 60.166 -17 74.499s-28.333 21.5 -51 21.5c-20.667 0 -46 -6 -76 -18v-397h-143z" />
    <glyph glyph-name="i" unicode="i" horiz-adv-x="273" 
d="M136 592c-22 0 -41 7.66699 -57 23s-24 34 -24 56s8 40.5 24 55.5s35 22.5 57 22.5s41 -7.5 57 -22.5s24 -33.5 24 -55.5c0 -21.333 -8 -39.833 -24 -55.5s-35 -23.5 -57 -23.5zM65 0v523h143v-523h-143z" />
    <glyph glyph-name="j" unicode="j" horiz-adv-x="273" 
d="M136 592c-22 0 -41 7.66699 -57 23s-24 34 -24 56s8 40.5 24 55.5s35 22.5 57 22.5s41 -7.5 57 -22.5s24 -33.5 24 -55.5c0 -21.333 -8 -39.833 -24 -55.5s-35 -23.5 -57 -23.5zM65 -222v745h143v-725z" />
    <glyph glyph-name="k" unicode="k" horiz-adv-x="500" 
d="M65 0v732h143v-404l48 16c17.333 6 29.666 24 36.999 54l31 125h139l-41 -158c-7.33301 -29.333 -15.666 -52.5 -24.999 -69.5s-22.333 -30.5 -39 -40.5l132 -255h-158l-98 207l-26 -9v-198h-143z" />
    <glyph glyph-name="l" unicode="l" horiz-adv-x="273" 
d="M65 0v725l143 20v-745h-143z" />
    <glyph glyph-name="m" unicode="m" horiz-adv-x="793" 
d="M60 0v321c0 68.667 19.333 121.667 58 159s87.334 56 146.001 56c56 0 100 -22.333 132 -67c32 44.667 76.333 67 133 67c59.333 0 108.166 -18.5 146.499 -55.5s57.5 -90.167 57.5 -159.5v-321h-143v311c0 69.333 -20.333 104 -61 104s-61 -40.333 -61 -121v-294h-143
v294c0 80.667 -20.333 121 -61 121s-61 -34.667 -61 -104v-311h-143z" />
    <glyph glyph-name="n" unicode="n" horiz-adv-x="549" 
d="M60 0v316c0 69.333 20.333 123.333 61 162s92 58 154 58c61.333 0 112.333 -19.333 153 -58s61 -92.667 61 -162v-316h-143v311c0 34 -6.16699 59.833 -18.5 77.5s-29.833 26.5 -52.5 26.5s-40.5 -8.83301 -53.5 -26.5s-19.5 -43.5 -19.5 -77.5v-311h-142z" />
    <glyph glyph-name="o" unicode="o" horiz-adv-x="542" 
d="M48 216v91c0 70 20.667 125.667 62 167s95 62 161 62s119.667 -20.667 161 -62s62 -97 62 -167v-91c0 -70 -20.667 -125.667 -62 -167s-95 -62 -161 -62s-119.667 20.667 -161 62s-62 97 -62 167zM190 221c0 -75.333 27 -113 81 -113s81 37.667 81 113v81
c0 75.333 -27 113 -81 113s-81 -37.667 -81 -113v-81z" />
    <glyph glyph-name="p" unicode="p" horiz-adv-x="535" 
d="M191 11v-222h-143v528c0 66.667 21.167 119.834 63.5 159.501s94.5 59.5 156.5 59.5c61.333 0 113.166 -19.833 155.499 -59.5s63.5 -92.834 63.5 -159.501v-110c0 -70 -20.167 -124.167 -60.5 -162.5s-89.166 -57.5 -146.499 -57.5c-31.333 0 -61 8 -89 24zM191 126
c30 -12 55.333 -18 76 -18c51.333 0 77 34.667 77 104v100c0 33.333 -7 58.833 -21 76.5s-32.333 26.5 -55 26.5s-41.167 -8.83301 -55.5 -26.5s-21.5 -43.167 -21.5 -76.5v-186z" />
    <glyph glyph-name="q" unicode="q" horiz-adv-x="535" 
d="M48 207v110c0 66.667 21.167 119.834 63.5 159.501s94.166 59.5 155.499 59.5c62 0 114.167 -19.833 156.5 -59.5s63.5 -92.834 63.5 -159.501v-522l-143 -19v235c-29.333 -16 -59 -24 -89 -24c-57.333 0 -106.166 19.167 -146.499 57.5s-60.5 92.5 -60.5 162.5zM191 212
c0 -69.333 25.667 -104 77 -104c20.667 0 46 6 76 18v186c0 33.333 -7.16699 58.833 -21.5 76.5s-32.833 26.5 -55.5 26.5s-41 -8.83301 -55 -26.5s-21 -43.167 -21 -76.5v-100z" />
    <glyph glyph-name="r" unicode="r" horiz-adv-x="372" 
d="M60 0l0.000976562 334c0 59.333 20.167 107.833 60.5 145.5s90.833 56.5 151.5 56.5c34 0 67 -5.33301 99 -16l-27 -116c-26.667 7.33301 -50.334 11 -71.001 11c-22 0 -39.333 -7.5 -52 -22.5s-19 -34.5 -19 -58.5v-334h-142z" />
    <glyph glyph-name="s" unicode="s" horiz-adv-x="432" 
d="M28 19l27.998 113.998c46.667 -16.667 92.334 -25 137.001 -25c18 0 33 3.83301 45 11.5s18 17.167 18 28.5c0 14 -7.33301 25.833 -22 35.5s-32.334 18.834 -53.001 27.501s-41.5 18.667 -62.5 30s-38.833 28.833 -53.5 52.5s-22 52.167 -22 85.5
c0 46 17.667 83.667 53 113s82 44 140 44c47.333 0 94.666 -8.33301 141.999 -25l-30 -117c-44.667 14 -82 21 -112 21c-32 0 -48 -12 -48 -36c0 -13.333 7.33301 -24.666 22 -33.999s32.334 -18 53.001 -26s41.334 -17.667 62.001 -29s38.334 -29 53.001 -53s22 -53 22 -87
c0 -44.667 -18 -83 -54 -115s-87 -48 -153 -48c-51.333 0 -106.333 10.667 -165 32z" />
    <glyph glyph-name="t" unicode="t" horiz-adv-x="340" 
d="M96 0v428h-64l-21 95h85v141l143 19v-160h84v-95h-84v-428h-143z" />
    <glyph glyph-name="u" unicode="u" horiz-adv-x="549" 
d="M60 207l-0.000976562 316h142v-311c0 -34 6.33301 -59.833 19 -77.5s30.334 -26.5 53.001 -26.5c48 0 72 34.667 72 104v311h143v-316c0 -69.333 -20.5 -123.333 -61.5 -162s-92.167 -58 -153.5 -58c-62 0 -113.167 19.333 -153.5 58s-60.5 92.667 -60.5 162z" />
    <glyph glyph-name="v" unicode="v" horiz-adv-x="502" 
d="M171 0l-160.999 523h147l54 -198c12 -46.667 25.333 -104 40 -172c17.333 82.667 30.666 140 39.999 172l54 198h147l-161 -523h-160z" />
    <glyph glyph-name="w" unicode="w" horiz-adv-x="795" 
d="M65 180l-24.998 343h142l24 -333c3.33301 -53.333 24 -80 62 -80c18.667 0 33.167 7.66699 43.5 23s15.5 34.666 15.5 57.999v298h139v-298c0 -23.333 5.16699 -42.666 15.5 -57.999s24.833 -23 43.5 -23c37.333 0 58.333 26.667 63 80l25 333h142l-27 -343
c-4.66699 -60.667 -25 -108 -61 -142s-82.667 -51 -140 -51c-58.667 0 -102.334 23 -131.001 69c-28.667 -46 -72.334 -69 -131.001 -69c-56 0 -102.167 17.333 -138.5 52s-56.833 81.667 -61.5 141z" />
    <glyph glyph-name="x" unicode="x" horiz-adv-x="502" 
d="M10 0l159 268l-146 255h157l72 -130l75 130h153l-146 -251l159 -272h-161l-81 147l-84 -147h-157z" />
    <glyph glyph-name="y" unicode="y" horiz-adv-x="510" 
d="M68 188l-48 335h142l47 -325c8 -51.333 27.667 -77 59 -77h24l50 402h143l-99 -734h-140l29 211h-12c-111.333 0 -176.333 62.667 -195 188z" />
    <glyph glyph-name="z" unicode="z" horiz-adv-x="488" 
d="M45 0v97l212 309h-204v117h376v-96l-203 -310h217l-10 -117h-388z" />
    <glyph glyph-name="braceleft" unicode="{" horiz-adv-x="418" 
d="M409 -112l-0.000976562 -119.996c-168 0 -252 68.333 -252 205v160c0 35.333 -7.83301 61.166 -23.5 77.499s-45.5 24.5 -89.5 24.5v100c44 0 73.833 8.16699 89.5 24.5s23.5 42.166 23.5 77.499v166c0 136.667 84 205 252 205v-120c-44.667 0 -75.167 -6.5 -91.5 -19.5
s-24.5 -35.5 -24.5 -67.5v-164c0 -36.667 -6.16699 -66.834 -18.5 -90.501s-34.166 -44.167 -65.499 -61.5c56 -32.667 84 -83.334 84 -152.001v-158c0 -32 8.16699 -54.5 24.5 -67.5s46.833 -19.5 91.5 -19.5z" />
    <glyph glyph-name="bar" unicode="|" horiz-adv-x="268" 
d="M202 -200h-136v932h136v-932z" />
    <glyph glyph-name="braceright" unicode="}" horiz-adv-x="418" 
d="M9 -232l-0.000976562 119.996c44.667 0 75.167 6.5 91.5 19.5s24.5 35.5 24.5 67.5v158c0 68.667 28 119.334 84 152.001c-31.333 17.333 -53.166 37.833 -65.499 61.5s-18.5 53.834 -18.5 90.501v164c0 32 -8.16699 54.5 -24.5 67.5s-46.833 19.5 -91.5 19.5v120
c168 0 252 -68.333 252 -205v-166c0 -35.333 7.83301 -61.166 23.5 -77.499s45.5 -24.5 89.5 -24.5v-100c-44 0 -73.833 -8.16699 -89.5 -24.5s-23.5 -42.166 -23.5 -77.499v-160c0 -136.667 -84 -205 -252 -205z" />
    <glyph glyph-name="asciitilde" unicode="~" horiz-adv-x="610" 
d="M454 365l85.001 -77c-22.667 -34 -46 -61 -70 -81s-51.667 -30 -83 -30c-23.333 0 -45.333 6.5 -66 19.5s-39 26 -55 39s-29.667 19.5 -41 19.5c-24 0 -46.667 -17.667 -68 -53l-85 77c22.667 34 46 61 70 81s52.333 30 85 30c22 0 43.167 -6.5 63.5 -19.5
s38.666 -26 54.999 -39s30.166 -19.5 41.499 -19.5c22.667 0 45.334 17.667 68.001 53z" />
    <glyph glyph-name="uni00A0" unicode="&#xa0;" horiz-adv-x="220" 
 />
    <glyph glyph-name="exclamdown" unicode="&#xa1;" horiz-adv-x="275" 
d="M221 502c0 -23.333 -8.33301 -42.835 -25 -58.502s-36 -23.5 -58 -23.5c-22.667 0 -42.334 7.83301 -59.001 23.5s-25 35.167 -25 58.5c0 22.667 8.33301 42.334 25 59.001s36.334 25 59.001 25c22 0 41.333 -8.16699 58 -24.5s25 -36.166 25 -59.499zM211 -88.002
l-147 -20l7 471h133z" />
    <glyph glyph-name="cent" unicode="&#xa2;" horiz-adv-x="487" 
d="M328 -124l-100.997 -0.00195312v115c-54.667 8.66699 -97.834 31.667 -129.501 69s-47.5 89.333 -47.5 156v91c0 66.667 15.667 118.667 47 156s74.666 60.333 129.999 69v115h101v-114c31.333 -2.66699 66.666 -10 105.999 -22l-30 -116c-46 13.333 -84.333 20 -115 20
c-32 0 -56 -8.16699 -72 -24.5s-24 -44.166 -24 -83.499v-91c0 -39.333 8 -67.166 24 -83.499s40 -24.5 72 -24.5c30.667 0 69 6.66699 115 20l31 -116c-39.333 -12 -75 -19.333 -107 -22v-114z" />
    <glyph glyph-name="sterling" unicode="&#xa3;" horiz-adv-x="506" 
d="M466 0h-406v100c43.333 54.667 65 99 65 133c0 9.33301 -0.666992 22.666 -2 39.999h-65v81h50c-16.667 65.333 -25 110 -25 134c0 63.333 20.833 112.666 62.5 147.999s93.834 53 156.501 53c51.333 0 107.666 -13.333 168.999 -40l-40 -110
c-43.333 18 -83.333 27 -120 27c-54 0 -81 -29 -81 -87c0 -23.333 7.66699 -65 23 -125h158v-81h-143c1.33301 -17.333 2 -30.666 2 -39.999c0 -21.333 -6 -43.166 -18 -65.499s-26.333 -40.833 -43 -55.5h257v-112z" />
    <glyph glyph-name="currency" unicode="&#xa4;" horiz-adv-x="597" 
d="M440 42l-64.002 64.001c-25.333 -10.667 -50.666 -16 -75.999 -16c-29.333 0 -55 5.33301 -77 16l-64 -64l-99 97l65 65c-10.667 24.667 -16 50 -16 76c0 27.333 5.33301 52.666 16 75.999l-65 64l99 98l64 -64c24.667 10.667 50.334 16 77.001 16
c25.333 0 50.333 -5.33301 75 -16l65 64l97 -98l-63 -63c10.667 -25.333 16 -51 16 -77s-5.33301 -51.667 -16 -77l63 -64zM369.998 280.001c0 19.333 -6.83301 35.833 -20.5 49.5s-30.167 20.5 -49.5 20.5s-35.833 -6.83301 -49.5 -20.5s-20.5 -30.167 -20.5 -49.5
s6.83301 -35.833 20.5 -49.5s30.167 -20.5 49.5 -20.5s35.833 6.83301 49.5 20.5s20.5 30.167 20.5 49.5z" />
    <glyph glyph-name="yen" unicode="&#xa5;" horiz-adv-x="546" 
d="M465 92h-119v-92h-145v92h-119v80h119v69h-119v81h86l-167 354h147l125 -291l125 291h147l-166 -354h86v-81h-119v-69h119v-80z" />
    <glyph glyph-name="brokenbar" unicode="&#xa6;" horiz-adv-x="268" 
d="M202 380h-136v352h136v-352zM202 -200h-136v350h136v-350z" />
    <glyph glyph-name="section" unicode="&#xa7;" horiz-adv-x="567" 
d="M57 -101l24.998 120.001c60.667 -22 113.334 -33 158.001 -33c52 0 78 20 78 60c0 16.667 -6 31.334 -18 44.001s-27.167 22.667 -45.5 30s-38 16.666 -59 27.999s-40.667 23.333 -59 36s-33.5 31 -45.5 55s-18 52 -18 84c0 49.333 17.333 89.666 52 120.999
c-8 20 -12 43.667 -12 71c0 52.667 19.667 94.834 59 126.501s88.333 47.5 147 47.5c54.667 0 116 -12.667 184 -38l-34 -117c-50 20 -95.333 30 -136 30c-45.333 0 -68 -16 -68 -48c0 -13.333 6 -26 18 -38s27.167 -22.167 45.5 -30.5s38 -18.666 59 -30.999
s40.667 -25.333 59 -39s33.5 -32.5 45.5 -56.5s18 -51.333 18 -82c0 -50.667 -17.333 -92.334 -52 -125.001c8 -22 12 -44.333 12 -67c0 -58.667 -22.167 -104.334 -66.5 -137.001s-96.5 -49 -156.5 -49c-49.333 0 -112.666 12.667 -189.999 38zM227.998 343.001
c-2 -4.66699 -3.00195 -10.998 -3.00195 -18.998c0 -11.333 4.33301 -22 13 -32s17.667 -17.667 27 -23l45 -24.5l46 -24.5c1.33301 6.66699 2 12.667 2 18c0 10.667 -2.16699 20.167 -6.5 28.5s-11.666 16.166 -21.999 23.499s-19.333 13.166 -27 17.499
s-20.167 10.333 -37.5 18s-29.666 13.5 -36.999 17.5z" />
    <glyph glyph-name="dieresis" unicode="&#xa8;" horiz-adv-x="460" 
d="M390 663c0 -18 -6.33301 -33.167 -19 -45.5s-28 -18.5 -46 -18.5c-17.333 0 -32.333 6.16699 -45 18.5s-19 27.5 -19 45.5s6.33301 33.5 19 46.5s27.667 19.5 45 19.5c18 0 33.333 -6.5 46 -19.5s19 -28.5 19 -46.5zM200 663c0 -18 -6.33301 -33.167 -19 -45.5
s-28 -18.5 -46 -18.5c-17.333 0 -32.5 6.16699 -45.5 18.5s-19.5 27.5 -19.5 45.5s6.5 33.5 19.5 46.5s28.167 19.5 45.5 19.5c18 0 33.333 -6.5 46 -19.5s19 -28.5 19 -46.5z" />
    <glyph glyph-name="copyright" unicode="&#xa9;" horiz-adv-x="742" 
d="M371 -13c-96.667 0 -173.834 31.833 -231.501 95.5s-86.5 143.5 -86.5 239.5s28.833 175.833 86.5 239.5s134.834 95.5 231.501 95.5s173.834 -31.833 231.501 -95.5s86.5 -143.5 86.5 -239.5s-28.833 -175.833 -86.5 -239.5s-134.834 -95.5 -231.501 -95.5zM371 63
c72 0 129 24.167 171 72.5s63 110.5 63 186.5s-21 138.167 -63 186.5s-99 72.5 -171 72.5s-129 -24.167 -171 -72.5s-63 -110.5 -63 -186.5s21 -138.167 63 -186.5s99 -72.5 171 -72.5zM456 227l18 -69c-38 -12 -73.333 -18 -106 -18c-44 0 -80.167 13.333 -108.5 40
s-42.5 63 -42.5 109v66c0 46 14.167 82.333 42.5 109s64.5 40 108.5 40c32.667 0 68 -6 106 -18l-18 -69c-30.667 8.66699 -60 13 -88 13c-22 0 -38 -6.66699 -48 -20s-15 -34.333 -15 -63v-50c0 -55.333 21 -83 63 -83c28 0 57.333 4.33301 88 13z" />
    <glyph glyph-name="ordfeminine" unicode="&#xaa;" horiz-adv-x="374" 
d="M334 538v-120c0 -36.667 -14.5 -67.334 -43.5 -92.001s-63.5 -37 -103.5 -37c-42 0 -77 12.333 -105 37s-42 55.334 -42 92.001c0 38 13.167 66.5 39.5 85.5s61.833 28.5 106.5 28.5h38v11c0 26 -12.667 39 -38 39c-27.333 0 -62 -6 -104 -18l-25 87
c51.333 16.667 94.333 25 129 25c43.333 0 78.833 -13 106.5 -39s41.5 -59 41.5 -99zM224 418v41h-32c-27.333 0 -41 -13.333 -41 -40c0 -12 3.5 -21 10.5 -27s15.5 -9 25.5 -9c11.333 0 20.333 3.66699 27 11s10 15.333 10 24z" />
    <glyph glyph-name="guillemotleft" unicode="&#xab;" horiz-adv-x="551" 
d="M507 149l-96 -70l-149 202l149 202l96 -70l-97 -131zM299 149l-95 -70l-150 202l150 202l95 -70l-96 -131z" />
    <glyph glyph-name="logicalnot" unicode="&#xac;" horiz-adv-x="571" 
d="M517 50h-117v160h-346v118h463v-278z" />
    <glyph glyph-name="uni00AD" unicode="&#xad;" horiz-adv-x="499" 
d="M429 211h-359v118h359v-118z" />
    <glyph glyph-name="registered" unicode="&#xae;" horiz-adv-x="742" 
d="M371 -13c-96.667 0 -173.834 31.833 -231.501 95.5s-86.5 143.5 -86.5 239.5s28.833 175.833 86.5 239.5s134.834 95.5 231.501 95.5s173.834 -31.833 231.501 -95.5s86.5 -143.5 86.5 -239.5s-28.833 -175.833 -86.5 -239.5s-134.834 -95.5 -231.501 -95.5zM371 63
c72 0 129 24.167 171 72.5s63 110.5 63 186.5s-21 138.167 -63 186.5s-99 72.5 -171 72.5s-129 -24.167 -171 -72.5s-63 -110.5 -63 -186.5s21 -138.167 63 -186.5s99 -72.5 171 -72.5zM514 148h-95l-51 117h-30v-117h-88v350h130c36 0 64.833 -11 86.5 -33
s32.5 -50 32.5 -84c0 -48 -17 -81.333 -51 -100zM338 339l36 -0.000976562c12 0 21.5 3.83301 28.5 11.5s10.5 17.834 10.5 30.501s-3.5 23 -10.5 31s-17.167 12 -30.5 12h-34v-85z" />
    <glyph glyph-name="macron" unicode="&#xaf;" horiz-adv-x="409" 
d="M332 618h-254v90h254v-90z" />
    <glyph glyph-name="degree" unicode="&#xb0;" horiz-adv-x="364" 
d="M182 485c-35.333 0 -65.5 12.5 -90.5 37.5s-37.5 55.833 -37.5 92.5c0 34 12.667 63.5 38 88.5s55.333 37.5 90 37.5s64.667 -12.667 90 -38s38 -55.333 38 -90c0 -35.333 -12.667 -65.5 -38 -90.5s-55.333 -37.5 -90 -37.5zM182 570c12 0 22.166 4.16699 30.499 12.5
s12.5 18.5 12.5 30.5s-4.16699 22.167 -12.5 30.5s-18.833 12.5 -31.5 12.5c-11.333 0 -21.166 -4.16699 -29.499 -12.5s-12.5 -18.5 -12.5 -30.5s4.16699 -22.167 12.5 -30.5s18.5 -12.5 30.5 -12.5z" />
    <glyph glyph-name="plusminus" unicode="&#xb1;" horiz-adv-x="571" 
d="M517 210h-172v-157h-118v157h-173v118h173v157h118v-157h172v-118zM517 -103h-463v117h463v-117z" />
    <glyph glyph-name="acute" unicode="&#xb4;" horiz-adv-x="407" 
d="M333 658l-223 -84l-36 83l221 96z" />
    <glyph glyph-name="mu" unicode="&#xb5;" horiz-adv-x="554" 
d="M207 -211h-142v734h142v-321c0 -30.667 6.5 -54 19.5 -70s30.5 -24 52.5 -24c48 0 72 34.667 72 104v311h143v-316c0 -69.333 -20.5 -123.333 -61.5 -162s-92.167 -58 -153.5 -58c-23.333 0 -47.333 3.33301 -72 10v-208z" />
    <glyph glyph-name="paragraph" unicode="&#xb6;" horiz-adv-x="636" 
d="M584 -119l-136 -0.000976562v665h-64v-665h-136v387h-16c-51.333 0 -95.5 20.333 -132.5 61s-55.5 88.334 -55.5 143.001c0 56 18.833 104 56.5 144s85.5 60 143.5 60h340v-795z" />
    <glyph glyph-name="periodcentered" unicode="&#xb7;" horiz-adv-x="284" 
d="M214 281c0 -20 -7 -36.667 -21 -50s-31 -20 -51 -20c-19.333 0 -36 6.66699 -50 20s-21 30 -21 50s7 37 21 51s30.667 21 50 21c20 0 37 -7 51 -21s21 -31 21 -51z" />
    <glyph glyph-name="cedilla" unicode="&#xb8;" horiz-adv-x="313" 
d="M136 -75l-0.000976562 75h106v-88c0 -42 -13 -73 -39 -93s-56.667 -30 -92 -30c-28.667 0 -56.667 4 -84 12l13 96c24.667 -5.33301 45.334 -8 62.001 -8c22.667 0 34 12 34 36z" />
    <glyph glyph-name="ordmasculine" unicode="&#xba;" horiz-adv-x="398" 
d="M358 514v-63c0 -48.667 -14.833 -87.834 -44.5 -117.501s-67.834 -44.5 -114.501 -44.5s-84.834 14.833 -114.501 44.5s-44.5 68.834 -44.5 117.501v63c0 48.667 14.833 87.834 44.5 117.501s67.834 44.5 114.501 44.5s84.834 -14.833 114.501 -44.5
s44.5 -68.834 44.5 -117.501zM248 454v57c0 47.333 -16.333 71 -49 71c-33.333 0 -50 -23.667 -50 -71v-57c0 -47.333 16.667 -71 50 -71c32.667 0 49 23.667 49 71z" />
    <glyph glyph-name="guillemotright" unicode="&#xbb;" horiz-adv-x="551" 
d="M347 79l-95 70l96 131l-96 133l95 70l150 -202zM140 79l-96 70l97 131l-97 133l96 70l149 -202z" />
    <glyph glyph-name="questiondown" unicode="&#xbf;" horiz-adv-x="450" 
d="M309 500c0 -23.333 -8.33105 -42.835 -24.998 -58.502s-36.334 -23.5 -59.001 -23.5c-22 0 -41.333 8 -58 24s-25 35.333 -25 58s8.16699 42.334 24.5 59.001s35.833 25 58.5 25c23.333 0 43.166 -8.16699 59.499 -24.5s24.5 -36.166 24.5 -59.499zM348.002 45.998
l58 -98.002c-56.667 -42.667 -114 -64 -172 -64c-54 0 -100.333 16 -139 48s-58 74.333 -58 127c0 23.333 6.33301 46.833 19 70.5s26.5 43.5 41.5 59.5s28.833 33.5 41.5 52.5s19 35.833 19 50.5v65l134 -20v-43c0 -24.667 -6.16699 -49.167 -18.5 -73.5
s-25.833 -44.166 -40.5 -59.499s-28.167 -32.333 -40.5 -51s-18.5 -35.667 -18.5 -51c0 -17.333 5.66699 -31.166 17 -41.499s26.333 -15.5 45 -15.5c32.667 0 70 14.667 112 44z" />
    <glyph glyph-name="Agrave" unicode="&#xc0;" horiz-adv-x="616" 
d="M401 712l-223 84l38 95l221 -96zM20 0l203 676h170l203 -676h-149l-45 163h-188l-45 -163h-149zM247 282l122.001 0.000976562l-35 128c-8 27.333 -16.667 65.666 -26 114.999c-6.66699 -36 -15.334 -74.333 -26.001 -115z" />
    <glyph glyph-name="Aacute" unicode="&#xc1;" horiz-adv-x="616" 
d="M437 796l-223 -84l-36 83l221 96zM20 0l203 676h170l203 -676h-149l-45 163h-188l-45 -163h-149zM247 282l122.001 0.000976562l-35 128c-8 27.333 -16.667 65.666 -26 114.999c-6.66699 -36 -15.334 -74.333 -26.001 -115z" />
    <glyph glyph-name="Acircumflex" unicode="&#xc2;" horiz-adv-x="616" 
d="M406 718l-97 61l-98 -61l-53 81l150 85l151 -85zM20 0l203 676h170l203 -676h-149l-45 163h-188l-45 -163h-149zM247 282l122.001 0.000976562l-35 128c-8 27.333 -16.667 65.666 -26 114.999c-6.66699 -36 -15.334 -74.333 -26.001 -115z" />
    <glyph glyph-name="Atilde" unicode="&#xc3;" horiz-adv-x="616" 
d="M409 856l53 -62c-8 -18 -20.5 -33.333 -37.5 -46s-37.833 -19 -62.5 -19c-16.667 0 -36.334 7.5 -59.001 22.5s-39.667 22.5 -51 22.5c-18.667 0 -34.334 -9.66699 -47.001 -29l-53 62c8 18 20.5 33.333 37.5 46s37.833 19 62.5 19c16.667 0 36.334 -7.5 59.001 -22.5
s39.667 -22.5 51 -22.5c18.667 0 34.334 9.66699 47.001 29zM20 0l203 676h170l203 -676h-149l-45 163h-188l-45 -163h-149zM247 282l122.001 0.000976562l-35 128c-8 27.333 -16.667 65.666 -26 114.999c-6.66699 -36 -15.334 -74.333 -26.001 -115z" />
    <glyph glyph-name="Adieresis" unicode="&#xc4;" horiz-adv-x="616" 
d="M467 801c0 -18 -6.33301 -33.167 -19 -45.5s-28 -18.5 -46 -18.5c-17.333 0 -32.333 6.16699 -45 18.5s-19 27.5 -19 45.5s6.33301 33.5 19 46.5s27.667 19.5 45 19.5c18 0 33.333 -6.5 46 -19.5s19 -28.5 19 -46.5zM277 801c0 -18 -6.33301 -33.167 -19 -45.5
s-28 -18.5 -46 -18.5c-17.333 0 -32.5 6.16699 -45.5 18.5s-19.5 27.5 -19.5 45.5s6.5 33.5 19.5 46.5s28.167 19.5 45.5 19.5c18 0 33.333 -6.5 46 -19.5s19 -28.5 19 -46.5zM20 0l203 676h170l203 -676h-149l-45 163h-188l-45 -163h-149zM247 282l122.001 0.000976562
l-35 128c-8 27.333 -16.667 65.666 -26 114.999c-6.66699 -36 -15.334 -74.333 -26.001 -115z" />
    <glyph glyph-name="Aring" unicode="&#xc5;" horiz-adv-x="616" 
d="M308 712c-28.667 0 -53 10.167 -73 30.5s-30 44.5 -30 72.5c0 27.333 10 51 30 71s44.333 30 73 30c27.333 0 51 -10 71 -30s30 -43.667 30 -71c0 -28 -10 -52.167 -30 -72.5s-43.667 -30.5 -71 -30.5zM308 784c8.66699 0 15.834 3 21.501 9s8.5 13.333 8.5 22
s-2.83301 15.834 -8.5 21.501s-12.834 8.5 -21.501 8.5s-16 -2.83301 -22 -8.5s-9 -12.834 -9 -21.501s3 -16 9 -22s13.333 -9 22 -9zM20 0l203 676h170l203 -676h-149l-45 163h-188l-45 -163h-149zM247 282l122.001 0.000976562l-35 128
c-8 27.333 -16.667 65.666 -26 114.999c-6.66699 -36 -15.334 -74.333 -26.001 -115z" />
    <glyph glyph-name="AE" unicode="&#xc6;" horiz-adv-x="911" 
d="M487 0l-13 163h-203l-89 -163h-162l388 675h423l9 -125h-257l14 -149h230l-12 -120h-209l11 -156h260l9 -125h-399zM449 486l-112 -204h128z" />
    <glyph glyph-name="Ccedilla" unicode="&#xc7;" horiz-adv-x="569" 
d="M286 -75l-0.00195312 64c-70.667 8 -127.167 35.5 -169.5 82.5s-63.5 111.5 -63.5 193.5v146c0 90 25.333 158.833 76 206.5s117.334 71.5 200.001 71.5c66 0 131 -10.333 195 -31l-28 -120c-56 17.333 -111.333 26 -166 26c-86.667 0 -130 -55 -130 -165v-121
c0 -58.667 11.167 -101 33.5 -127s54.5 -39 96.5 -39c58.667 0 114 9 166 27l28 -121c-38 -12.667 -82 -22 -132 -28v-78c0 -42 -13 -73 -39 -93s-56.667 -30 -92 -30c-28.667 0 -56.667 4 -84 12l13 96c24.667 -5.33301 45.334 -8 62.001 -8c22.667 0 34 12 34 36z" />
    <glyph glyph-name="Egrave" unicode="&#xc8;" horiz-adv-x="533" 
d="M374 712l-223 84l38 95l221 -96zM70 0v676h404v-125h-257v-150h216l-6 -120h-210v-156h266v-125h-413z" />
    <glyph glyph-name="Eacute" unicode="&#xc9;" horiz-adv-x="533" 
d="M395 796l-223 -84l-36 83l221 96zM70 0v676h404v-125h-257v-150h216l-6 -120h-210v-156h266v-125h-413z" />
    <glyph glyph-name="Ecircumflex" unicode="&#xca;" horiz-adv-x="533" 
d="M373 718l-97 61l-98 -61l-53 81l150 85l151 -85zM70 0v676h404v-125h-257v-150h216l-6 -120h-210v-156h266v-125h-413z" />
    <glyph glyph-name="Edieresis" unicode="&#xcb;" horiz-adv-x="533" 
d="M435 801c0 -18 -6.33301 -33.167 -19 -45.5s-28 -18.5 -46 -18.5c-17.333 0 -32.333 6.16699 -45 18.5s-19 27.5 -19 45.5s6.33301 33.5 19 46.5s27.667 19.5 45 19.5c18 0 33.333 -6.5 46 -19.5s19 -28.5 19 -46.5zM245 801c0 -18 -6.33301 -33.167 -19 -45.5
s-28 -18.5 -46 -18.5c-17.333 0 -32.5 6.16699 -45.5 18.5s-19.5 27.5 -19.5 45.5s6.5 33.5 19.5 46.5s28.167 19.5 45.5 19.5c18 0 33.333 -6.5 46 -19.5s19 -28.5 19 -46.5zM70 0v676h404v-125h-257v-150h216l-6 -120h-210v-156h266v-125h-413z" />
    <glyph glyph-name="Igrave" unicode="&#xcc;" horiz-adv-x="287" 
d="M236 712l-223 84l38 95l221 -96zM70 0v676h147v-676h-147z" />
    <glyph glyph-name="Iacute" unicode="&#xcd;" horiz-adv-x="287" 
d="M272 796l-223 -84l-36 83l221 96zM70 0v676h147v-676h-147z" />
    <glyph glyph-name="Icircumflex" unicode="&#xce;" horiz-adv-x="287" 
d="M240 718l-97 61l-98 -61l-53 81l150 85l151 -85zM70 0v676h147v-676h-147z" />
    <glyph glyph-name="Idieresis" unicode="&#xcf;" horiz-adv-x="287" 
d="M303 801c0 -18 -6.33301 -33.167 -19 -45.5s-28 -18.5 -46 -18.5c-17.333 0 -32.333 6.16699 -45 18.5s-19 27.5 -19 45.5s6.33301 33.5 19 46.5s27.667 19.5 45 19.5c18 0 33.333 -6.5 46 -19.5s19 -28.5 19 -46.5zM113 801c0 -18 -6.33301 -33.167 -19 -45.5
s-28 -18.5 -46 -18.5c-17.333 0 -32.5 6.16699 -45.5 18.5s-19.5 27.5 -19.5 45.5s6.5 33.5 19.5 46.5s28.167 19.5 45.5 19.5c18 0 33.333 -6.5 46 -19.5s19 -28.5 19 -46.5zM70 0v676h147v-676h-147z" />
    <glyph glyph-name="Eth" unicode="&#xd0;" horiz-adv-x="635" 
d="M326 0h-256v289h-63v95h63v246c104.667 39.333 190 59 256 59c72.667 0 133.5 -22.833 182.5 -68.5s73.5 -108.5 73.5 -188.5v-182c0 -81.333 -22.5 -143.333 -67.5 -186s-107.833 -64 -188.5 -64zM435 261l-0.000976562 159c0 48 -9.66699 84 -29 108s-46 36 -80 36
c-35.333 0 -71.666 -6.33301 -108.999 -19v-161h111v-95h-111v-164h109c39.333 0 67.333 10 84 30s25 55.333 25 106z" />
    <glyph glyph-name="Ntilde" unicode="&#xd1;" horiz-adv-x="635" 
d="M418 856l53 -62c-8 -18 -20.5 -33.333 -37.5 -46s-37.833 -19 -62.5 -19c-16.667 0 -36.334 7.5 -59.001 22.5s-39.667 22.5 -51 22.5c-18.667 0 -34.334 -9.66699 -47.001 -29l-53 62c8 18 20.5 33.333 37.5 46s37.833 19 62.5 19c16.667 0 36.334 -7.5 59.001 -22.5
s39.667 -22.5 51 -22.5c18.667 0 34.334 9.66699 47.001 29zM70 0v676h119l232 -386c-2 38 -3 72.333 -3 103v283h147v-676h-120l-232 384c2.66699 -34.667 4 -70 4 -106v-278h-147z" />
    <glyph glyph-name="Ograve" unicode="&#xd2;" horiz-adv-x="641" 
d="M413 712l-223 84l38 95l221 -96zM53 266v143.001c0 89.333 25.167 158.333 75.5 207s114.166 73 191.499 73c78 0 142.167 -24.333 192.5 -73s75.5 -117.667 75.5 -207v-143c0 -90 -25.167 -159 -75.5 -207s-114.5 -72 -192.5 -72
c-77.333 0 -141.166 24.167 -191.499 72.5s-75.5 117.166 -75.5 206.499zM200 399.001v-122c0 -110 40 -165 120 -165c80.667 0 121 55 121 165v122c0 110 -40.333 165 -121 165c-80 0 -120 -55 -120 -165z" />
    <glyph glyph-name="Oacute" unicode="&#xd3;" horiz-adv-x="641" 
d="M444 796l-223 -84l-36 83l221 96zM53 266v143.001c0 89.333 25.167 158.333 75.5 207s114.166 73 191.499 73c78 0 142.167 -24.333 192.5 -73s75.5 -117.667 75.5 -207v-143c0 -90 -25.167 -159 -75.5 -207s-114.5 -72 -192.5 -72
c-77.333 0 -141.166 24.167 -191.499 72.5s-75.5 117.166 -75.5 206.499zM200 399.001v-122c0 -110 40 -165 120 -165c80.667 0 121 55 121 165v122c0 110 -40.333 165 -121 165c-80 0 -120 -55 -120 -165z" />
    <glyph glyph-name="Ocircumflex" unicode="&#xd4;" horiz-adv-x="641" 
d="M417 718l-97 61l-98 -61l-53 81l150 85l151 -85zM53 266v143.001c0 89.333 25.167 158.333 75.5 207s114.166 73 191.499 73c78 0 142.167 -24.333 192.5 -73s75.5 -117.667 75.5 -207v-143c0 -90 -25.167 -159 -75.5 -207s-114.5 -72 -192.5 -72
c-77.333 0 -141.166 24.167 -191.499 72.5s-75.5 117.166 -75.5 206.499zM200 399.001v-122c0 -110 40 -165 120 -165c80.667 0 121 55 121 165v122c0 110 -40.333 165 -121 165c-80 0 -120 -55 -120 -165z" />
    <glyph glyph-name="Otilde" unicode="&#xd5;" horiz-adv-x="641" 
d="M422 856l53 -62c-8 -18 -20.5 -33.333 -37.5 -46s-37.833 -19 -62.5 -19c-16.667 0 -36.334 7.5 -59.001 22.5s-39.667 22.5 -51 22.5c-18.667 0 -34.334 -9.66699 -47.001 -29l-53 62c8 18 20.5 33.333 37.5 46s37.833 19 62.5 19c16.667 0 36.334 -7.5 59.001 -22.5
s39.667 -22.5 51 -22.5c18.667 0 34.334 9.66699 47.001 29zM53 266v143.001c0 89.333 25.167 158.333 75.5 207s114.166 73 191.499 73c78 0 142.167 -24.333 192.5 -73s75.5 -117.667 75.5 -207v-143c0 -90 -25.167 -159 -75.5 -207s-114.5 -72 -192.5 -72
c-77.333 0 -141.166 24.167 -191.499 72.5s-75.5 117.166 -75.5 206.499zM200 399.001v-122c0 -110 40 -165 120 -165c80.667 0 121 55 121 165v122c0 110 -40.333 165 -121 165c-80 0 -120 -55 -120 -165z" />
    <glyph glyph-name="Odieresis" unicode="&#xd6;" horiz-adv-x="641" 
d="M480 801c0 -18 -6.33301 -33.167 -19 -45.5s-28 -18.5 -46 -18.5c-17.333 0 -32.333 6.16699 -45 18.5s-19 27.5 -19 45.5s6.33301 33.5 19 46.5s27.667 19.5 45 19.5c18 0 33.333 -6.5 46 -19.5s19 -28.5 19 -46.5zM290 801c0 -18 -6.33301 -33.167 -19 -45.5
s-28 -18.5 -46 -18.5c-17.333 0 -32.5 6.16699 -45.5 18.5s-19.5 27.5 -19.5 45.5s6.5 33.5 19.5 46.5s28.167 19.5 45.5 19.5c18 0 33.333 -6.5 46 -19.5s19 -28.5 19 -46.5zM53 266v143.001c0 89.333 25.167 158.333 75.5 207s114.166 73 191.499 73
c78 0 142.167 -24.333 192.5 -73s75.5 -117.667 75.5 -207v-143c0 -90 -25.167 -159 -75.5 -207s-114.5 -72 -192.5 -72c-77.333 0 -141.166 24.167 -191.499 72.5s-75.5 117.166 -75.5 206.499zM200 399.001v-122c0 -110 40 -165 120 -165c80.667 0 121 55 121 165v122
c0 110 -40.333 165 -121 165c-80 0 -120 -55 -120 -165z" />
    <glyph glyph-name="multiply" unicode="&#xd7;" horiz-adv-x="519" 
d="M382 65l-122 121l-122 -122l-84 85l122 122l-121 122l83 83l122 -122l122 121l82 -82l-121 -122l122 -122z" />
    <glyph glyph-name="Oslash" unicode="&#xd8;" horiz-adv-x="641" 
d="M173 -65l-81.999 40.001l40 82c-52 50 -78 119.667 -78 209v143c0 89.333 25.167 158.333 75.5 207s114.166 73 191.499 73c38.667 0 75 -6.66699 109 -20l35 72l82 -40l-39 -80c54 -50.667 81 -121.334 81 -212.001v-143c0 -90 -25.167 -159 -75.5 -207
s-114.5 -72 -192.5 -72c-40 0 -77.333 6.66699 -112 20zM206.001 210.001l167.001 343c-14.667 7.33301 -32.334 11 -53.001 11c-80 0 -120 -55 -120 -165v-122c0 -26 2 -48.333 6 -67zM441.002 277.001l-0.000976562 122c0 26 -2.66699 49.667 -8 71l-169 -347
c14.667 -7.33301 33.334 -11 56.001 -11c80.667 0 121 55 121 165z" />
    <glyph glyph-name="Ugrave" unicode="&#xd9;" horiz-adv-x="640" 
d="M412 712l-223 84l38 95l221 -96zM65 226l-0.00195312 449.998h147v-438c0 -39.333 9.83301 -70.166 29.5 -92.499s45.834 -33.5 78.501 -33.5s58.834 11.333 78.501 34s29.5 53.334 29.5 92.001v438h147v-450c0 -69.333 -24.833 -126.5 -74.5 -171.5
s-109.834 -67.5 -180.501 -67.5c-71.333 0 -131.666 22.333 -180.999 67s-74 102 -74 172z" />
    <glyph glyph-name="Uacute" unicode="&#xda;" horiz-adv-x="640" 
d="M448 796l-223 -84l-36 83l221 96zM65 226l-0.00195312 449.998h147v-438c0 -39.333 9.83301 -70.166 29.5 -92.499s45.834 -33.5 78.501 -33.5s58.834 11.333 78.501 34s29.5 53.334 29.5 92.001v438h147v-450c0 -69.333 -24.833 -126.5 -74.5 -171.5
s-109.834 -67.5 -180.501 -67.5c-71.333 0 -131.666 22.333 -180.999 67s-74 102 -74 172z" />
    <glyph glyph-name="Ucircumflex" unicode="&#xdb;" horiz-adv-x="640" 
d="M416 718l-97 61l-98 -61l-53 81l150 85l151 -85zM65 226l-0.00195312 449.998h147v-438c0 -39.333 9.83301 -70.166 29.5 -92.499s45.834 -33.5 78.501 -33.5s58.834 11.333 78.501 34s29.5 53.334 29.5 92.001v438h147v-450c0 -69.333 -24.833 -126.5 -74.5 -171.5
s-109.834 -67.5 -180.501 -67.5c-71.333 0 -131.666 22.333 -180.999 67s-74 102 -74 172z" />
    <glyph glyph-name="Udieresis" unicode="&#xdc;" horiz-adv-x="640" 
d="M479 801c0 -18 -6.33301 -33.167 -19 -45.5s-28 -18.5 -46 -18.5c-17.333 0 -32.333 6.16699 -45 18.5s-19 27.5 -19 45.5s6.33301 33.5 19 46.5s27.667 19.5 45 19.5c18 0 33.333 -6.5 46 -19.5s19 -28.5 19 -46.5zM289 801c0 -18 -6.33301 -33.167 -19 -45.5
s-28 -18.5 -46 -18.5c-17.333 0 -32.5 6.16699 -45.5 18.5s-19.5 27.5 -19.5 45.5s6.5 33.5 19.5 46.5s28.167 19.5 45.5 19.5c18 0 33.333 -6.5 46 -19.5s19 -28.5 19 -46.5zM65 226l-0.00195312 449.998h147v-438c0 -39.333 9.83301 -70.166 29.5 -92.499
s45.834 -33.5 78.501 -33.5s58.834 11.333 78.501 34s29.5 53.334 29.5 92.001v438h147v-450c0 -69.333 -24.833 -126.5 -74.5 -171.5s-109.834 -67.5 -180.501 -67.5c-71.333 0 -131.666 22.333 -180.999 67s-74 102 -74 172z" />
    <glyph glyph-name="Yacute" unicode="&#xdd;" horiz-adv-x="579" 
d="M418 796l-223 -84l-36 83l221 96zM216 0v257l-201 419h158l116 -268l117 268h158l-201 -419v-257h-147z" />
    <glyph glyph-name="Thorn" unicode="&#xde;" horiz-adv-x="558" 
d="M311 115l-93.999 -0.00195312v-115h-147v676h147v-132h94c66 0 119.5 -21.167 160.5 -63.5s61.5 -93.166 61.5 -152.499s-20.333 -109.666 -61 -150.999s-94.334 -62 -161.001 -62zM217.001 236.998h89c23.333 0 42.166 8.33301 56.499 25s21.5 38.667 21.5 66
s-7.16699 49.333 -21.5 66s-33.166 25 -56.499 25h-89v-182z" />
    <glyph glyph-name="germandbls" unicode="&#xdf;" horiz-adv-x="636" 
d="M226 555l-0.00292969 -554.997h-142v428h-68v95h68v45c0 54 16.5 97 49.5 129s78.5 48 136.5 48c61.333 0 110 -14.5 146 -43.5s54 -72.167 54 -129.5c0 -30 -6.66699 -57 -20 -81s-26.5 -45.167 -39.5 -63.5s-19.5 -35.166 -19.5 -50.499
c0 -13.333 7.33301 -24.666 22 -33.999s32.334 -17.833 53.001 -25.5s41.334 -17.167 62.001 -28.5s38.334 -28.833 53.001 -52.5s22 -52.5 22 -86.5c0 -44.667 -17.667 -83 -53 -115s-85.333 -48 -150 -48c-50.667 0 -104.667 10.667 -162 32l27 114
c46.667 -16.667 91.667 -25 135 -25c18 0 33.333 3.83301 46 11.5s19 17.167 19 28.5c0 14 -7 25.833 -21 35.5s-30.833 18.667 -50.5 27s-39.5 18.166 -59.5 29.499s-37 28.666 -51 51.999s-21 51.666 -21 84.999c0 24.667 3.83301 47.167 11.5 67.5s16 36.166 25 47.499
s17.333 23.666 25 36.999s11.5 26 11.5 38c0 38 -19 57 -57 57c-34.667 0 -52 -23 -52 -69z" />
    <glyph glyph-name="agrave" unicode="&#xe0;" horiz-adv-x="498" 
d="M335 574l-223 84l38 95l221 -96zM38 167c0 53.333 18.3311 93.666 54.998 120.999s86.334 41 149.001 41h65v12c0 24 -5.66699 42.333 -17 55s-27.333 19 -48 19c-41.333 0 -89.666 -8.66699 -144.999 -26l-31 113c73.333 22.667 132 34 176 34
c62 0 112.167 -18 150.5 -54s57.5 -83 57.5 -141v-174c0 -51.333 -20.333 -94.166 -61 -128.499s-89 -51.5 -145 -51.5c-58.667 0 -107.667 17 -147 51s-59 77 -59 129zM182.998 168c0 -16 5.00098 -30 15.001 -42s25.333 -18 46 -18c19.333 0 34.666 6.16699 45.999 18.5
s17 25.833 17 40.5v62h-66c-38.667 0 -58 -20.333 -58 -61z" />
    <glyph glyph-name="aacute" unicode="&#xe1;" horiz-adv-x="498" 
d="M360 658l-223 -84l-36 83l221 96zM38 167c0 53.333 18.3311 93.666 54.998 120.999s86.334 41 149.001 41h65v12c0 24 -5.66699 42.333 -17 55s-27.333 19 -48 19c-41.333 0 -89.666 -8.66699 -144.999 -26l-31 113c73.333 22.667 132 34 176 34
c62 0 112.167 -18 150.5 -54s57.5 -83 57.5 -141v-174c0 -51.333 -20.333 -94.166 -61 -128.499s-89 -51.5 -145 -51.5c-58.667 0 -107.667 17 -147 51s-59 77 -59 129zM182.998 168c0 -16 5.00098 -30 15.001 -42s25.333 -18 46 -18c19.333 0 34.666 6.16699 45.999 18.5
s17 25.833 17 40.5v62h-66c-38.667 0 -58 -20.333 -58 -61z" />
    <glyph glyph-name="acircumflex" unicode="&#xe2;" horiz-adv-x="498" 
d="M340 580l-97 61l-98 -61l-53 81l150 85l151 -85zM38 167c0 53.333 18.3311 93.666 54.998 120.999s86.334 41 149.001 41h65v12c0 24 -5.66699 42.333 -17 55s-27.333 19 -48 19c-41.333 0 -89.666 -8.66699 -144.999 -26l-31 113c73.333 22.667 132 34 176 34
c62 0 112.167 -18 150.5 -54s57.5 -83 57.5 -141v-174c0 -51.333 -20.333 -94.166 -61 -128.499s-89 -51.5 -145 -51.5c-58.667 0 -107.667 17 -147 51s-59 77 -59 129zM182.998 168c0 -16 5.00098 -30 15.001 -42s25.333 -18 46 -18c19.333 0 34.666 6.16699 45.999 18.5
s17 25.833 17 40.5v62h-66c-38.667 0 -58 -20.333 -58 -61z" />
    <glyph glyph-name="atilde" unicode="&#xe3;" horiz-adv-x="498" 
d="M346 718l53 -62c-8 -18 -20.5 -33.333 -37.5 -46s-37.833 -19 -62.5 -19c-16.667 0 -36.334 7.5 -59.001 22.5s-39.667 22.5 -51 22.5c-18.667 0 -34.334 -9.66699 -47.001 -29l-53 62c8 18 20.5 33.333 37.5 46s37.833 19 62.5 19c16.667 0 36.334 -7.5 59.001 -22.5
s39.667 -22.5 51 -22.5c18.667 0 34.334 9.66699 47.001 29zM38 167c0 53.333 18.3311 93.666 54.998 120.999s86.334 41 149.001 41h65v12c0 24 -5.66699 42.333 -17 55s-27.333 19 -48 19c-41.333 0 -89.666 -8.66699 -144.999 -26l-31 113c73.333 22.667 132 34 176 34
c62 0 112.167 -18 150.5 -54s57.5 -83 57.5 -141v-174c0 -51.333 -20.333 -94.166 -61 -128.499s-89 -51.5 -145 -51.5c-58.667 0 -107.667 17 -147 51s-59 77 -59 129zM182.998 168c0 -16 5.00098 -30 15.001 -42s25.333 -18 46 -18c19.333 0 34.666 6.16699 45.999 18.5
s17 25.833 17 40.5v62h-66c-38.667 0 -58 -20.333 -58 -61z" />
    <glyph glyph-name="adieresis" unicode="&#xe4;" horiz-adv-x="498" 
d="M406 663c0 -18 -6.33301 -33.167 -19 -45.5s-28 -18.5 -46 -18.5c-17.333 0 -32.333 6.16699 -45 18.5s-19 27.5 -19 45.5s6.33301 33.5 19 46.5s27.667 19.5 45 19.5c18 0 33.333 -6.5 46 -19.5s19 -28.5 19 -46.5zM216 663c0 -18 -6.33301 -33.167 -19 -45.5
s-28 -18.5 -46 -18.5c-17.333 0 -32.5 6.16699 -45.5 18.5s-19.5 27.5 -19.5 45.5s6.5 33.5 19.5 46.5s28.167 19.5 45.5 19.5c18 0 33.333 -6.5 46 -19.5s19 -28.5 19 -46.5zM38 167c0 53.333 18.3311 93.666 54.998 120.999s86.334 41 149.001 41h65v12
c0 24 -5.66699 42.333 -17 55s-27.333 19 -48 19c-41.333 0 -89.666 -8.66699 -144.999 -26l-31 113c73.333 22.667 132 34 176 34c62 0 112.167 -18 150.5 -54s57.5 -83 57.5 -141v-174c0 -51.333 -20.333 -94.166 -61 -128.499s-89 -51.5 -145 -51.5
c-58.667 0 -107.667 17 -147 51s-59 77 -59 129zM182.998 168c0 -16 5.00098 -30 15.001 -42s25.333 -18 46 -18c19.333 0 34.666 6.16699 45.999 18.5s17 25.833 17 40.5v62h-66c-38.667 0 -58 -20.333 -58 -61z" />
    <glyph glyph-name="aring" unicode="&#xe5;" horiz-adv-x="498" 
d="M248 574c-28.667 0 -53 10.167 -73 30.5s-30 44.5 -30 72.5c0 27.333 10 51 30 71s44.333 30 73 30c27.333 0 51 -10 71 -30s30 -43.667 30 -71c0 -28 -10 -52.167 -30 -72.5s-43.667 -30.5 -71 -30.5zM248 646c8.66699 0 15.834 3 21.501 9s8.5 13.333 8.5 22
s-2.83301 15.834 -8.5 21.501s-12.834 8.5 -21.501 8.5s-16 -2.83301 -22 -8.5s-9 -12.834 -9 -21.501s3 -16 9 -22s13.333 -9 22 -9zM38 167c0 53.333 18.3311 93.666 54.998 120.999s86.334 41 149.001 41h65v12c0 24 -5.66699 42.333 -17 55s-27.333 19 -48 19
c-41.333 0 -89.666 -8.66699 -144.999 -26l-31 113c73.333 22.667 132 34 176 34c62 0 112.167 -18 150.5 -54s57.5 -83 57.5 -141v-174c0 -51.333 -20.333 -94.166 -61 -128.499s-89 -51.5 -145 -51.5c-58.667 0 -107.667 17 -147 51s-59 77 -59 129zM182.998 168
c0 -16 5.00098 -30 15.001 -42s25.333 -18 46 -18c19.333 0 34.666 6.16699 45.999 18.5s17 25.833 17 40.5v62h-66c-38.667 0 -58 -20.333 -58 -61z" />
    <glyph glyph-name="ae" unicode="&#xe6;" horiz-adv-x="776" 
d="M683 133l28 -114.999c-56 -20.667 -113 -31 -171 -31c-66 0 -119.333 16.667 -160 50c-38 -33.333 -83.333 -50 -136 -50c-58.667 0 -107.667 17 -147 51s-59 77 -59 129c0 53.333 18.333 93.666 55 120.999s86.334 41 149.001 41h65v12c0 24 -5.66699 42.333 -17 55
s-27.333 19 -48 19c-40.667 0 -88.667 -8.66699 -144 -26l-32 113c69.333 22.667 128 34 176 34c55.333 0 101.666 -15.333 138.999 -46c38 30.667 84 46 138 46c60 0 110.667 -19 152 -57s62 -86.333 62 -145v-114h-285v-7c0 -70 30.667 -105 92 -105
c44 0 91.667 8.33301 143 25zM590 320.001v14c0 23.333 -6.33301 42.666 -19 57.999s-30 23 -52 23c-20.667 0 -37.667 -7.66699 -51 -23s-20 -34.666 -20 -57.999v-14h142zM308 213.001v16.001h-67c-38.667 0 -58 -20.333 -58 -61c0 -16 5 -30 15 -42s25.333 -18 46 -18
c33.333 0 57.333 10.667 72 32c-5.33301 23.333 -8 47.666 -8 72.999z" />
    <glyph glyph-name="ccedilla" unicode="&#xe7;" horiz-adv-x="476" 
d="M223 -75l-0.00195312 66.998c-54.667 8.66699 -97.5 31.5 -128.5 68.5s-46.5 88.833 -46.5 155.5v91c0 77.333 20.833 134.833 62.5 172.5s97.834 56.5 168.501 56.5c48.667 0 99.667 -8.33301 153 -25l-30 -116c-46 13.333 -84.333 20 -115 20
c-32 0 -56 -8.16699 -72 -24.5s-24 -44.166 -24 -83.499v-91c0 -39.333 8 -67.166 24 -83.499s40 -24.5 72 -24.5c30.667 0 69 6.66699 115 20l31 -116c-38 -12 -72.667 -19.333 -104 -22v-78c0 -42 -13 -73 -39 -93s-56.667 -30 -92 -30c-28.667 0 -56.667 4 -84 12l13 96
c24.667 -5.33301 45.334 -8 62.001 -8c22.667 0 34 12 34 36z" />
    <glyph glyph-name="egrave" unicode="&#xe8;" horiz-adv-x="518" 
d="M353 574l-223 84l38 95l221 -96zM48 213v102c0 69.333 20.167 123.5 60.5 162.5s91.166 58.5 152.499 58.5c60 0 110.667 -19 152 -57s62 -86.333 62 -145v-114h-285v-7c0 -70 30.667 -105 92 -105c44 0 91.667 8.33301 143 25l28 -115c-56 -20.667 -113 -31 -171 -31
c-71.333 0 -128.166 19.667 -170.499 59s-63.5 95 -63.5 167zM190 320h142v14c0 23.333 -6.33301 42.666 -19 57.999s-30 23 -52 23c-20.667 0 -37.667 -7.66699 -51 -23s-20 -34.666 -20 -57.999v-14z" />
    <glyph glyph-name="eacute" unicode="&#xe9;" horiz-adv-x="518" 
d="M378 658l-223 -84l-36 83l221 96zM48 213v102c0 69.333 20.167 123.5 60.5 162.5s91.166 58.5 152.499 58.5c60 0 110.667 -19 152 -57s62 -86.333 62 -145v-114h-285v-7c0 -70 30.667 -105 92 -105c44 0 91.667 8.33301 143 25l28 -115c-56 -20.667 -113 -31 -171 -31
c-71.333 0 -128.166 19.667 -170.499 59s-63.5 95 -63.5 167zM190 320h142v14c0 23.333 -6.33301 42.666 -19 57.999s-30 23 -52 23c-20.667 0 -37.667 -7.66699 -51 -23s-20 -34.666 -20 -57.999v-14z" />
    <glyph glyph-name="ecircumflex" unicode="&#xea;" horiz-adv-x="518" 
d="M357 580l-97 61l-98 -61l-53 81l150 85l151 -85zM48 213v102c0 69.333 20.167 123.5 60.5 162.5s91.166 58.5 152.499 58.5c60 0 110.667 -19 152 -57s62 -86.333 62 -145v-114h-285v-7c0 -70 30.667 -105 92 -105c44 0 91.667 8.33301 143 25l28 -115
c-56 -20.667 -113 -31 -171 -31c-71.333 0 -128.166 19.667 -170.499 59s-63.5 95 -63.5 167zM190 320h142v14c0 23.333 -6.33301 42.666 -19 57.999s-30 23 -52 23c-20.667 0 -37.667 -7.66699 -51 -23s-20 -34.666 -20 -57.999v-14z" />
    <glyph glyph-name="edieresis" unicode="&#xeb;" horiz-adv-x="518" 
d="M419 663c0 -18 -6.33301 -33.167 -19 -45.5s-28 -18.5 -46 -18.5c-17.333 0 -32.333 6.16699 -45 18.5s-19 27.5 -19 45.5s6.33301 33.5 19 46.5s27.667 19.5 45 19.5c18 0 33.333 -6.5 46 -19.5s19 -28.5 19 -46.5zM229 663c0 -18 -6.33301 -33.167 -19 -45.5
s-28 -18.5 -46 -18.5c-17.333 0 -32.5 6.16699 -45.5 18.5s-19.5 27.5 -19.5 45.5s6.5 33.5 19.5 46.5s28.167 19.5 45.5 19.5c18 0 33.333 -6.5 46 -19.5s19 -28.5 19 -46.5zM48 213v102c0 69.333 20.167 123.5 60.5 162.5s91.166 58.5 152.499 58.5
c60 0 110.667 -19 152 -57s62 -86.333 62 -145v-114h-285v-7c0 -70 30.667 -105 92 -105c44 0 91.667 8.33301 143 25l28 -115c-56 -20.667 -113 -31 -171 -31c-71.333 0 -128.166 19.667 -170.499 59s-63.5 95 -63.5 167zM190 320h142v14
c0 23.333 -6.33301 42.666 -19 57.999s-30 23 -52 23c-20.667 0 -37.667 -7.66699 -51 -23s-20 -34.666 -20 -57.999v-14z" />
    <glyph glyph-name="igrave" unicode="&#xec;" horiz-adv-x="273" 
d="M228 574l-223 84l38 95l221 -96zM208 0h-143v523h143v-523z" />
    <glyph glyph-name="iacute" unicode="&#xed;" horiz-adv-x="273" 
d="M266 658l-223 -84l-36 83l221 96zM208 0h-143v523h143v-523z" />
    <glyph glyph-name="icircumflex" unicode="&#xee;" horiz-adv-x="273" 
d="M233 580l-97 61l-98 -61l-53 81l150 85l151 -85zM208 0h-143v523h143v-523z" />
    <glyph glyph-name="idieresis" unicode="&#xef;" horiz-adv-x="273" 
d="M295 663c0 -18 -6.33301 -33.167 -19 -45.5s-28 -18.5 -46 -18.5c-17.333 0 -32.333 6.16699 -45 18.5s-19 27.5 -19 45.5s6.33301 33.5 19 46.5s27.667 19.5 45 19.5c18 0 33.333 -6.5 46 -19.5s19 -28.5 19 -46.5zM105 663c0 -18 -6.33301 -33.167 -19 -45.5
s-28 -18.5 -46 -18.5c-17.333 0 -32.5 6.16699 -45.5 18.5s-19.5 27.5 -19.5 45.5s6.5 33.5 19.5 46.5s28.167 19.5 45.5 19.5c18 0 33.333 -6.5 46 -19.5s19 -28.5 19 -46.5zM208 0h-143v523h143v-523z" />
    <glyph glyph-name="eth" unicode="&#xf0;" horiz-adv-x="542" 
d="M48 206l0.000976562 73.001c0 70 20.833 124.167 62.5 162.5s91.167 57.5 148.5 57.5c40.667 0 74 -7.33301 100 -22v36c0 56.667 -17.333 91.667 -52 105l-28 -85l-86 28l20 61c-32.667 -4 -62.334 -10.333 -89.001 -19l-26 106
c65.333 19.333 116.333 29.666 153 30.999l27 80l86 -28l-20 -62c100 -26.667 150 -99.667 150 -219v-305c0 -66.667 -21.667 -119.834 -65 -159.501s-96 -59.5 -158 -59.5s-114.667 19.833 -158 59.5s-65 92.834 -65 159.501zM190.001 274.001l0.00195312 -63
c0 -33.333 7.66699 -58.833 23 -76.5s34.666 -26.5 57.999 -26.5s42.666 8.83301 57.999 26.5s23 43.167 23 76.5v151c-25.333 10.667 -52 16 -80 16c-24 0 -43.667 -8.33301 -59 -25s-23 -43 -23 -79z" />
    <glyph glyph-name="ntilde" unicode="&#xf1;" horiz-adv-x="549" 
d="M376 718l53 -62c-8 -18 -20.5 -33.333 -37.5 -46s-37.833 -19 -62.5 -19c-16.667 0 -36.334 7.5 -59.001 22.5s-39.667 22.5 -51 22.5c-18.667 0 -34.334 -9.66699 -47.001 -29l-53 62c8 18 20.5 33.333 37.5 46s37.833 19 62.5 19c16.667 0 36.334 -7.5 59.001 -22.5
s39.667 -22.5 51 -22.5c18.667 0 34.334 9.66699 47.001 29zM60 0v316c0 69.333 20.333 123.333 61 162s92 58 154 58c61.333 0 112.333 -19.333 153 -58s61 -92.667 61 -162v-316h-143v311c0 34 -6.16699 59.833 -18.5 77.5s-29.833 26.5 -52.5 26.5
s-40.5 -8.83301 -53.5 -26.5s-19.5 -43.5 -19.5 -77.5v-311h-142z" />
    <glyph glyph-name="ograve" unicode="&#xf2;" horiz-adv-x="542" 
d="M364 574l-223 84l38 95l221 -96zM48 216v91c0 70 20.667 125.667 62 167s95 62 161 62s119.667 -20.667 161 -62s62 -97 62 -167v-91c0 -70 -20.667 -125.667 -62 -167s-95 -62 -161 -62s-119.667 20.667 -161 62s-62 97 -62 167zM190 221c0 -75.333 27 -113 81 -113
s81 37.667 81 113v81c0 75.333 -27 113 -81 113s-81 -37.667 -81 -113v-81z" />
    <glyph glyph-name="oacute" unicode="&#xf3;" horiz-adv-x="542" 
d="M401 658l-223 -84l-36 83l221 96zM48 216v91c0 70 20.667 125.667 62 167s95 62 161 62s119.667 -20.667 161 -62s62 -97 62 -167v-91c0 -70 -20.667 -125.667 -62 -167s-95 -62 -161 -62s-119.667 20.667 -161 62s-62 97 -62 167zM190 221c0 -75.333 27 -113 81 -113
s81 37.667 81 113v81c0 75.333 -27 113 -81 113s-81 -37.667 -81 -113v-81z" />
    <glyph glyph-name="ocircumflex" unicode="&#xf4;" horiz-adv-x="542" 
d="M369 580l-97 61l-98 -61l-53 81l150 85l151 -85zM48 216v91c0 70 20.667 125.667 62 167s95 62 161 62s119.667 -20.667 161 -62s62 -97 62 -167v-91c0 -70 -20.667 -125.667 -62 -167s-95 -62 -161 -62s-119.667 20.667 -161 62s-62 97 -62 167zM190 221
c0 -75.333 27 -113 81 -113s81 37.667 81 113v81c0 75.333 -27 113 -81 113s-81 -37.667 -81 -113v-81z" />
    <glyph glyph-name="otilde" unicode="&#xf5;" horiz-adv-x="542" 
d="M373 718l53 -62c-8 -18 -20.5 -33.333 -37.5 -46s-37.833 -19 -62.5 -19c-16.667 0 -36.334 7.5 -59.001 22.5s-39.667 22.5 -51 22.5c-18.667 0 -34.334 -9.66699 -47.001 -29l-53 62c8 18 20.5 33.333 37.5 46s37.833 19 62.5 19c16.667 0 36.334 -7.5 59.001 -22.5
s39.667 -22.5 51 -22.5c18.667 0 34.334 9.66699 47.001 29zM48 216v91c0 70 20.667 125.667 62 167s95 62 161 62s119.667 -20.667 161 -62s62 -97 62 -167v-91c0 -70 -20.667 -125.667 -62 -167s-95 -62 -161 -62s-119.667 20.667 -161 62s-62 97 -62 167zM190 221
c0 -75.333 27 -113 81 -113s81 37.667 81 113v81c0 75.333 -27 113 -81 113s-81 -37.667 -81 -113v-81z" />
    <glyph glyph-name="odieresis" unicode="&#xf6;" horiz-adv-x="542" 
d="M431 663c0 -18 -6.33301 -33.167 -19 -45.5s-28 -18.5 -46 -18.5c-17.333 0 -32.333 6.16699 -45 18.5s-19 27.5 -19 45.5s6.33301 33.5 19 46.5s27.667 19.5 45 19.5c18 0 33.333 -6.5 46 -19.5s19 -28.5 19 -46.5zM241 663c0 -18 -6.33301 -33.167 -19 -45.5
s-28 -18.5 -46 -18.5c-17.333 0 -32.5 6.16699 -45.5 18.5s-19.5 27.5 -19.5 45.5s6.5 33.5 19.5 46.5s28.167 19.5 45.5 19.5c18 0 33.333 -6.5 46 -19.5s19 -28.5 19 -46.5zM48 216v91c0 70 20.667 125.667 62 167s95 62 161 62s119.667 -20.667 161 -62s62 -97 62 -167
v-91c0 -70 -20.667 -125.667 -62 -167s-95 -62 -161 -62s-119.667 20.667 -161 62s-62 97 -62 167zM190 221c0 -75.333 27 -113 81 -113s81 37.667 81 113v81c0 75.333 -27 113 -81 113s-81 -37.667 -81 -113v-81z" />
    <glyph glyph-name="oslash" unicode="&#xf8;" horiz-adv-x="542" 
d="M156 -70l-76.999 38.999l36 74c-44.667 42.667 -67 100.334 -67 173.001v91c0 70 20.667 125.667 62 167s95 62 161 62c27.333 0 53.666 -4 78.999 -12l36 74l77 -39l-38 -78c46 -42.667 69 -100.667 69 -174v-91c0 -70 -20.667 -125.667 -62 -167s-95 -62 -161 -62
c-30 0 -57 4.33301 -81 13zM191.001 197.999l104 214.001c-7.33301 2 -15.333 3 -24 3c-54 0 -81 -37.667 -81 -113v-81c0 -10.667 0.333008 -18.334 1 -23.001zM352.001 221v81c0 12 -0.333008 21 -1 27l-107 -218c8 -2 17 -3 27 -3c54 0 81 37.667 81 113z" />
    <glyph glyph-name="ugrave" unicode="&#xf9;" horiz-adv-x="549" 
d="M368 574l-223 84l38 95l221 -96zM60 207l-0.000976562 316h142v-311c0 -34 6.33301 -59.833 19 -77.5s30.334 -26.5 53.001 -26.5c48 0 72 34.667 72 104v311h143v-316c0 -69.333 -20.5 -123.333 -61.5 -162s-92.167 -58 -153.5 -58c-62 0 -113.167 19.333 -153.5 58
s-60.5 92.667 -60.5 162z" />
    <glyph glyph-name="uacute" unicode="&#xfa;" horiz-adv-x="549" 
d="M390 658l-223 -84l-36 83l221 96zM60 207l-0.000976562 316h142v-311c0 -34 6.33301 -59.833 19 -77.5s30.334 -26.5 53.001 -26.5c48 0 72 34.667 72 104v311h143v-316c0 -69.333 -20.5 -123.333 -61.5 -162s-92.167 -58 -153.5 -58c-62 0 -113.167 19.333 -153.5 58
s-60.5 92.667 -60.5 162z" />
    <glyph glyph-name="ucircumflex" unicode="&#xfb;" horiz-adv-x="549" 
d="M372 580l-97 61l-98 -61l-53 81l150 85l151 -85zM60 207l-0.000976562 316h142v-311c0 -34 6.33301 -59.833 19 -77.5s30.334 -26.5 53.001 -26.5c48 0 72 34.667 72 104v311h143v-316c0 -69.333 -20.5 -123.333 -61.5 -162s-92.167 -58 -153.5 -58
c-62 0 -113.167 19.333 -153.5 58s-60.5 92.667 -60.5 162z" />
    <glyph glyph-name="udieresis" unicode="&#xfc;" horiz-adv-x="549" 
d="M434 663c0 -18 -6.33301 -33.167 -19 -45.5s-28 -18.5 -46 -18.5c-17.333 0 -32.333 6.16699 -45 18.5s-19 27.5 -19 45.5s6.33301 33.5 19 46.5s27.667 19.5 45 19.5c18 0 33.333 -6.5 46 -19.5s19 -28.5 19 -46.5zM244 663c0 -18 -6.33301 -33.167 -19 -45.5
s-28 -18.5 -46 -18.5c-17.333 0 -32.5 6.16699 -45.5 18.5s-19.5 27.5 -19.5 45.5s6.5 33.5 19.5 46.5s28.167 19.5 45.5 19.5c18 0 33.333 -6.5 46 -19.5s19 -28.5 19 -46.5zM60 207l-0.000976562 316h142v-311c0 -34 6.33301 -59.833 19 -77.5s30.334 -26.5 53.001 -26.5
c48 0 72 34.667 72 104v311h143v-316c0 -69.333 -20.5 -123.333 -61.5 -162s-92.167 -58 -153.5 -58c-62 0 -113.167 19.333 -153.5 58s-60.5 92.667 -60.5 162z" />
    <glyph glyph-name="yacute" unicode="&#xfd;" horiz-adv-x="510" 
d="M382 658l-223 -84l-36 83l221 96zM68 188l-48 335h142l47 -325c8 -51.333 27.667 -77 59 -77h24l50 402h143l-99 -734h-140l29 211h-12c-111.333 0 -176.333 62.667 -195 188z" />
    <glyph glyph-name="thorn" unicode="&#xfe;" horiz-adv-x="552" 
d="M208 -209l-143 0.000976562v941h143v-208c24 8 49.667 12 77 12c61.333 0 113.166 -19.833 155.499 -59.5s63.5 -92.834 63.5 -159.501v-110c0 -70 -20.167 -124.167 -60.5 -162.5s-89.166 -57.5 -146.499 -57.5c-31.333 0 -61 8 -89 24v-220zM361 212.001v100
c0 33.333 -7 58.833 -21 76.5s-32.333 26.5 -55 26.5c-22 0 -40.333 -8 -55 -24s-22 -39 -22 -69v-196c30 -12 55.333 -18 76 -18c51.333 0 77 34.667 77 104z" />
    <glyph glyph-name="ydieresis" unicode="&#xff;" horiz-adv-x="510" 
d="M420 663c0 -18 -6.33301 -33.167 -19 -45.5s-28 -18.5 -46 -18.5c-17.333 0 -32.333 6.16699 -45 18.5s-19 27.5 -19 45.5s6.33301 33.5 19 46.5s27.667 19.5 45 19.5c18 0 33.333 -6.5 46 -19.5s19 -28.5 19 -46.5zM230 663c0 -18 -6.33301 -33.167 -19 -45.5
s-28 -18.5 -46 -18.5c-17.333 0 -32.5 6.16699 -45.5 18.5s-19.5 27.5 -19.5 45.5s6.5 33.5 19.5 46.5s28.167 19.5 45.5 19.5c18 0 33.333 -6.5 46 -19.5s19 -28.5 19 -46.5zM68 188l-48 335h142l47 -325c8 -51.333 27.667 -77 59 -77h24l50 402h143l-99 -734h-140l29 211
h-12c-111.333 0 -176.333 62.667 -195 188z" />
    <glyph glyph-name="Amacron" unicode="&#x100;" horiz-adv-x="616" 
d="M434 756h-254v90h254v-90zM20 0l203 676h170l203 -676h-149l-45 163h-188l-45 -163h-149zM247 282l122.001 0.000976562l-35 128c-8 27.333 -16.667 65.666 -26 114.999c-6.66699 -36 -15.334 -74.333 -26.001 -115z" />
    <glyph glyph-name="amacron" unicode="&#x101;" horiz-adv-x="498" 
d="M371 618h-254v90h254v-90zM38 167c0 53.333 18.3311 93.666 54.998 120.999s86.334 41 149.001 41h65v12c0 24 -5.66699 42.333 -17 55s-27.333 19 -48 19c-41.333 0 -89.666 -8.66699 -144.999 -26l-31 113c73.333 22.667 132 34 176 34c62 0 112.167 -18 150.5 -54
s57.5 -83 57.5 -141v-174c0 -51.333 -20.333 -94.166 -61 -128.499s-89 -51.5 -145 -51.5c-58.667 0 -107.667 17 -147 51s-59 77 -59 129zM182.998 168c0 -16 5.00098 -30 15.001 -42s25.333 -18 46 -18c19.333 0 34.666 6.16699 45.999 18.5s17 25.833 17 40.5v62h-66
c-38.667 0 -58 -20.333 -58 -61z" />
    <glyph glyph-name="Abreve" unicode="&#x102;" horiz-adv-x="616" 
d="M354 874l89.999 0.00195312c-0.666992 -40.667 -14.5 -75 -41.5 -103s-59.167 -42 -96.5 -42s-69.166 14 -95.499 42s-39.833 62.333 -40.5 103h89c0.666992 -16.667 5.5 -30.834 14.5 -42.501s19.833 -17.5 32.5 -17.5c14 0 25.5 5.66699 34.5 17
s13.5 25.666 13.5 42.999zM19.999 0.00195312l203 676h170l203 -676h-149l-45 163h-188l-45 -163h-149zM246.999 282.002l122.001 0.000976562l-35 128c-8 27.333 -16.667 65.666 -26 114.999c-6.66699 -36 -15.334 -74.333 -26.001 -115z" />
    <glyph glyph-name="abreve" unicode="&#x103;" horiz-adv-x="498" 
d="M283 736l89.999 0.00195312c-0.666992 -40.667 -14.5 -75 -41.5 -103s-59.167 -42 -96.5 -42s-69.166 14 -95.499 42s-39.833 62.333 -40.5 103h89c0.666992 -16.667 5.5 -30.834 14.5 -42.501s19.833 -17.5 32.5 -17.5c14 0 25.5 5.66699 34.5 17
s13.5 25.666 13.5 42.999zM37.999 167.002c0 53.333 18.3311 93.666 54.998 120.999s86.334 41 149.001 41h65v12c0 24 -5.66699 42.333 -17 55s-27.333 19 -48 19c-41.333 0 -89.666 -8.66699 -144.999 -26l-31 113c73.333 22.667 132 34 176 34
c62 0 112.167 -18 150.5 -54s57.5 -83 57.5 -141v-174c0 -51.333 -20.333 -94.166 -61 -128.499s-89 -51.5 -145 -51.5c-58.667 0 -107.667 17 -147 51s-59 77 -59 129zM182.997 168.002c0 -16 5.00098 -30 15.001 -42s25.333 -18 46 -18
c19.333 0 34.666 6.16699 45.999 18.5s17 25.833 17 40.5v62h-66c-38.667 0 -58 -20.333 -58 -61z" />
    <glyph glyph-name="Aogonek" unicode="&#x104;" horiz-adv-x="616" 
d="M20 0l202.999 676.001h170l203 -676c-22 -15.333 -40.167 -32.833 -54.5 -52.5s-21.5 -37.834 -21.5 -54.501c0 -18 9.66699 -27 29 -27c12 0 23 2 33 6l14 -85c-17.333 -7.33301 -38.666 -11 -63.999 -11c-39.333 0 -68.833 9.16699 -88.5 27.5
s-29.5 43.166 -29.5 74.499c0 46.667 23.333 87.334 70 122.001h-37l-45 163h-188l-45 -163h-149zM246.999 282.001l122.001 0.000976562l-35 128c-8 27.333 -16.667 65.666 -26 114.999c-6.66699 -36 -15.334 -74.333 -26.001 -115z" />
    <glyph glyph-name="aogonek" unicode="&#x105;" horiz-adv-x="498" 
d="M305 -128l13.9971 -85c-17.333 -7.33301 -38.666 -11 -63.999 -11c-39.333 0 -68.833 9.16699 -88.5 27.5s-29.5 43.166 -29.5 74.499c0 42.667 19.667 80.667 59 114c-46.667 8.66699 -84.667 28.834 -114 60.501s-44 69.834 -44 114.501
c0 53.333 18.333 93.666 55 120.999s86.334 41 149.001 41h65v12c0 24 -5.66699 42.333 -17 55s-27.333 19 -48 19c-41.333 0 -89.666 -8.66699 -144.999 -26l-31 113c73.333 22.667 132 34 176 34c62 0 112.167 -18 150.5 -54s57.5 -83 57.5 -141v-174
c0 -38.667 -12.333 -73.167 -37 -103.5s-56.667 -51.833 -96 -64.5c-21.333 -16 -39 -33.5 -53 -52.5s-21 -36.833 -21 -53.5c0 -18 9.66699 -27 29 -27c12 0 23 2 33 6zM182.997 168c0 -16 5.00098 -30 15.001 -42s25.333 -18 46 -18c19.333 0 34.666 6.16699 45.999 18.5
s17 25.833 17 40.5v62h-66c-38.667 0 -58 -20.333 -58 -61z" />
    <glyph glyph-name="Cacute" unicode="&#x106;" horiz-adv-x="569" 
d="M429 796l-223 -84l-36 83l221 96zM496 139l28 -121c-64 -20.667 -129 -31 -195 -31c-82.667 0 -149.334 23.833 -200.001 71.5s-76 116.5 -76 206.5v146c0 90 25.333 158.833 76 206.5s117.334 71.5 200.001 71.5c66 0 131 -10.333 195 -31l-28 -120
c-56 17.333 -111.333 26 -166 26c-86.667 0 -130 -55 -130 -165v-121c0 -58.667 11.167 -101 33.5 -127s54.5 -39 96.5 -39c58.667 0 114 9 166 27z" />
    <glyph glyph-name="cacute" unicode="&#x107;" horiz-adv-x="476" 
d="M372 665l-223 -84l-36 83l221 96zM48 216v90.998c0 77.333 20.833 134.833 62.5 172.5s97.834 56.5 168.501 56.5c48.667 0 99.667 -8.33301 153 -25l-30 -116c-46 13.333 -84.333 20 -115 20c-32 0 -56 -8.16699 -72 -24.5s-24 -44.166 -24 -83.499v-91
c0 -39.333 8 -67.166 24 -83.499s40 -24.5 72 -24.5c30.667 0 69 6.66699 115 20l31 -116c-56.667 -16.667 -108 -25 -154 -25c-70.667 0 -126.834 18.833 -168.501 56.5s-62.5 95.167 -62.5 172.5z" />
    <glyph glyph-name="Ccircumflex" unicode="&#x108;" horiz-adv-x="569" 
d="M404 718l-97 61l-98 -61l-53 81l150 85l151 -85zM496 139l28 -121c-64 -20.667 -129 -31 -195 -31c-82.667 0 -149.334 23.833 -200.001 71.5s-76 116.5 -76 206.5v146c0 90 25.333 158.833 76 206.5s117.334 71.5 200.001 71.5c66 0 131 -10.333 195 -31l-28 -120
c-56 17.333 -111.333 26 -166 26c-86.667 0 -130 -55 -130 -165v-121c0 -58.667 11.167 -101 33.5 -127s54.5 -39 96.5 -39c58.667 0 114 9 166 27z" />
    <glyph glyph-name="ccircumflex" unicode="&#x109;" horiz-adv-x="476" 
d="M356 580l-97 61l-98 -61l-53 81l150 85l151 -85zM48 216v90.998c0 77.333 20.833 134.833 62.5 172.5s97.834 56.5 168.501 56.5c48.667 0 99.667 -8.33301 153 -25l-30 -116c-46 13.333 -84.333 20 -115 20c-32 0 -56 -8.16699 -72 -24.5s-24 -44.166 -24 -83.499v-91
c0 -39.333 8 -67.166 24 -83.499s40 -24.5 72 -24.5c30.667 0 69 6.66699 115 20l31 -116c-56.667 -16.667 -108 -25 -154 -25c-70.667 0 -126.834 18.833 -168.501 56.5s-62.5 95.167 -62.5 172.5z" />
    <glyph glyph-name="Cdotaccent" unicode="&#x10a;" horiz-adv-x="569" 
d="M349 801c0 -18 -6.33301 -33.167 -19 -45.5s-28 -18.5 -46 -18.5c-17.333 0 -32.333 6.16699 -45 18.5s-19 27.5 -19 45.5s6.33301 33.5 19 46.5s27.667 19.5 45 19.5c18 0 33.333 -6.5 46 -19.5s19 -28.5 19 -46.5zM496 139l28 -121c-64 -20.667 -129 -31 -195 -31
c-82.667 0 -149.334 23.833 -200.001 71.5s-76 116.5 -76 206.5v146c0 90 25.333 158.833 76 206.5s117.334 71.5 200.001 71.5c66 0 131 -10.333 195 -31l-28 -120c-56 17.333 -111.333 26 -166 26c-86.667 0 -130 -55 -130 -165v-121c0 -58.667 11.167 -101 33.5 -127
s54.5 -39 96.5 -39c58.667 0 114 9 166 27z" />
    <glyph glyph-name="cdotaccent" unicode="&#x10b;" horiz-adv-x="476" 
d="M317 663c0 -18 -6.33301 -33.167 -19 -45.5s-28 -18.5 -46 -18.5c-17.333 0 -32.333 6.16699 -45 18.5s-19 27.5 -19 45.5s6.33301 33.5 19 46.5s27.667 19.5 45 19.5c18 0 33.333 -6.5 46 -19.5s19 -28.5 19 -46.5zM48 216v90.998c0 77.333 20.833 134.833 62.5 172.5
s97.834 56.5 168.501 56.5c48.667 0 99.667 -8.33301 153 -25l-30 -116c-46 13.333 -84.333 20 -115 20c-32 0 -56 -8.16699 -72 -24.5s-24 -44.166 -24 -83.499v-91c0 -39.333 8 -67.166 24 -83.499s40 -24.5 72 -24.5c30.667 0 69 6.66699 115 20l31 -116
c-56.667 -16.667 -108 -25 -154 -25c-70.667 0 -126.834 18.833 -168.501 56.5s-62.5 95.167 -62.5 172.5z" />
    <glyph glyph-name="Ccaron" unicode="&#x10c;" horiz-adv-x="569" 
d="M465 802l-150 -85l-151 85l53 81l97 -61l98 61zM496 139l28 -121c-64 -20.667 -129 -31 -195 -31c-82.667 0 -149.334 23.833 -200.001 71.5s-76 116.5 -76 206.5v146c0 90 25.333 158.833 76 206.5s117.334 71.5 200.001 71.5c66 0 131 -10.333 195 -31l-28 -120
c-56 17.333 -111.333 26 -166 26c-86.667 0 -130 -55 -130 -165v-121c0 -58.667 11.167 -101 33.5 -127s54.5 -39 96.5 -39c58.667 0 114 9 166 27z" />
    <glyph glyph-name="ccaron" unicode="&#x10d;" horiz-adv-x="476" 
d="M401 664l-150 -85l-151 85l53 81l97 -61l98 61zM48 216v90.998c0 77.333 20.833 134.833 62.5 172.5s97.834 56.5 168.501 56.5c48.667 0 99.667 -8.33301 153 -25l-30 -116c-46 13.333 -84.333 20 -115 20c-32 0 -56 -8.16699 -72 -24.5s-24 -44.166 -24 -83.499v-91
c0 -39.333 8 -67.166 24 -83.499s40 -24.5 72 -24.5c30.667 0 69 6.66699 115 20l31 -116c-56.667 -16.667 -108 -25 -154 -25c-70.667 0 -126.834 18.833 -168.501 56.5s-62.5 95.167 -62.5 172.5z" />
    <glyph glyph-name="Dcaron" unicode="&#x10e;" horiz-adv-x="635" 
d="M467 802l-150 -85l-151 85l53 81l97 -61l98 61zM326 0h-256v630c104.667 39.333 190 59 256 59c72.667 0 133.5 -22.833 182.5 -68.5s73.5 -108.5 73.5 -188.5v-182c0 -81.333 -22.5 -143.333 -67.5 -186s-107.833 -64 -188.5 -64zM435 261l-0.000976562 159
c0 48 -9.66699 84 -29 108s-46 36 -80 36c-35.333 0 -71.666 -6.33301 -108.999 -19v-420h109c39.333 0 67.333 10 84 30s25 55.333 25 106z" />
    <glyph glyph-name="dcaron" unicode="&#x10f;" horiz-adv-x="534" 
d="M635 551h-89v181l118 13zM48 206l-0.000976562 110c0 70 20.167 124.167 60.5 162.5s89.166 57.5 146.499 57.5c30.667 0 60 -8 88 -24v220h143v-526c0 -66.667 -21.167 -119.834 -63.5 -159.501s-94.166 -59.5 -155.499 -59.5s-113.166 19.833 -155.499 59.5
s-63.5 92.834 -63.5 159.501zM189.999 311v-100c0 -33.333 7.16699 -58.833 21.5 -76.5s32.833 -26.5 55.5 -26.5s41 8.83301 55 26.5s21 43.167 21 76.5v186c-28.667 12 -53.667 18 -75 18c-52 0 -78 -34.667 -78 -104z" />
    <glyph glyph-name="Dcroat" unicode="&#x110;" horiz-adv-x="635" 
d="M326 0h-256v289h-63v95h63v246c104.667 39.333 190 59 256 59c72.667 0 133.5 -22.833 182.5 -68.5s73.5 -108.5 73.5 -188.5v-182c0 -81.333 -22.5 -143.333 -67.5 -186s-107.833 -64 -188.5 -64zM435 261l-0.000976562 159c0 48 -9.66699 84 -29 108s-46 36 -80 36
c-35.333 0 -71.666 -6.33301 -108.999 -19v-161h111v-95h-111v-164h109c39.333 0 67.333 10 84 30s25 55.333 25 106z" />
    <glyph glyph-name="dcroat" unicode="&#x111;" horiz-adv-x="534" 
d="M48 206l-0.000976562 110c0 70 20.167 124.167 60.5 162.5s89.166 57.5 146.499 57.5c30.667 0 60 -8 88 -24v75h-80v95h80v50h143v-50h39v-95h-39v-381c0 -66.667 -21.167 -119.834 -63.5 -159.501s-94.166 -59.5 -155.499 -59.5s-113.166 19.833 -155.499 59.5
s-63.5 92.834 -63.5 159.501zM189.999 311v-100c0 -33.333 7.16699 -58.833 21.5 -76.5s32.833 -26.5 55.5 -26.5s41 8.83301 55 26.5s21 43.167 21 76.5v186c-28.667 12 -53.667 18 -75 18c-52 0 -78 -34.667 -78 -104z" />
    <glyph glyph-name="Emacron" unicode="&#x112;" horiz-adv-x="533" 
d="M392 756h-254v90h254v-90zM70 0v676h404v-125h-257v-150h216l-6 -120h-210v-156h266v-125h-413z" />
    <glyph glyph-name="emacron" unicode="&#x113;" horiz-adv-x="518" 
d="M386 618h-254v90h254v-90zM48 213v102c0 69.333 20.167 123.5 60.5 162.5s91.166 58.5 152.499 58.5c60 0 110.667 -19 152 -57s62 -86.333 62 -145v-114h-285v-7c0 -70 30.667 -105 92 -105c44 0 91.667 8.33301 143 25l28 -115c-56 -20.667 -113 -31 -171 -31
c-71.333 0 -128.166 19.667 -170.499 59s-63.5 95 -63.5 167zM190 320h142v14c0 23.333 -6.33301 42.666 -19 57.999s-30 23 -52 23c-20.667 0 -37.667 -7.66699 -51 -23s-20 -34.666 -20 -57.999v-14z" />
    <glyph glyph-name="Ebreve" unicode="&#x114;" horiz-adv-x="533" 
d="M312 874l89.999 0.00195312c-0.666992 -40.667 -14.5 -75 -41.5 -103s-59.167 -42 -96.5 -42s-69.166 14 -95.499 42s-39.833 62.333 -40.5 103h89c0.666992 -16.667 5.5 -30.834 14.5 -42.501s19.833 -17.5 32.5 -17.5c14 0 25.5 5.66699 34.5 17
s13.5 25.666 13.5 42.999zM69.999 0.00195312v676h404v-125h-257v-150h216l-6 -120h-210v-156h266v-125h-413z" />
    <glyph glyph-name="ebreve" unicode="&#x115;" horiz-adv-x="518" 
d="M306 736l89.999 0.00195312c-0.666992 -40.667 -14.5 -75 -41.5 -103s-59.167 -42 -96.5 -42s-69.166 14 -95.499 42s-39.833 62.333 -40.5 103h89c0.666992 -16.667 5.5 -30.834 14.5 -42.501s19.833 -17.5 32.5 -17.5c14 0 25.5 5.66699 34.5 17
s13.5 25.666 13.5 42.999zM47.999 213.002v102c0 69.333 20.167 123.5 60.5 162.5s91.166 58.5 152.499 58.5c60 0 110.667 -19 152 -57s62 -86.333 62 -145v-114h-285v-7c0 -70 30.667 -105 92 -105c44 0 91.667 8.33301 143 25l28 -115c-56 -20.667 -113 -31 -171 -31
c-71.333 0 -128.166 19.667 -170.499 59s-63.5 95 -63.5 167zM189.999 320.002h142v14c0 23.333 -6.33301 42.666 -19 57.999s-30 23 -52 23c-20.667 0 -37.667 -7.66699 -51 -23s-20 -34.666 -20 -57.999v-14z" />
    <glyph glyph-name="Edotaccent" unicode="&#x116;" horiz-adv-x="533" 
d="M343 801c0 -18 -6.33301 -33.167 -19 -45.5s-28 -18.5 -46 -18.5c-17.333 0 -32.333 6.16699 -45 18.5s-19 27.5 -19 45.5s6.33301 33.5 19 46.5s27.667 19.5 45 19.5c18 0 33.333 -6.5 46 -19.5s19 -28.5 19 -46.5zM70 0v676h404v-125h-257v-150h216l-6 -120h-210v-156
h266v-125h-413z" />
    <glyph glyph-name="edotaccent" unicode="&#x117;" horiz-adv-x="518" 
d="M324 663c0 -18 -6.33301 -33.167 -19 -45.5s-28 -18.5 -46 -18.5c-17.333 0 -32.333 6.16699 -45 18.5s-19 27.5 -19 45.5s6.33301 33.5 19 46.5s27.667 19.5 45 19.5c18 0 33.333 -6.5 46 -19.5s19 -28.5 19 -46.5zM48 213v102c0 69.333 20.167 123.5 60.5 162.5
s91.166 58.5 152.499 58.5c60 0 110.667 -19 152 -57s62 -86.333 62 -145v-114h-285v-7c0 -70 30.667 -105 92 -105c44 0 91.667 8.33301 143 25l28 -115c-56 -20.667 -113 -31 -171 -31c-71.333 0 -128.166 19.667 -170.499 59s-63.5 95 -63.5 167zM190 320h142v14
c0 23.333 -6.33301 42.666 -19 57.999s-30 23 -52 23c-20.667 0 -37.667 -7.66699 -51 -23s-20 -34.666 -20 -57.999v-14z" />
    <glyph glyph-name="Eogonek" unicode="&#x118;" horiz-adv-x="533" 
d="M70 0l-0.000976562 676.001h404v-125h-257v-150h216l-6 -120h-210v-156h266v-125c-22 -15.333 -40.167 -32.833 -54.5 -52.5s-21.5 -37.834 -21.5 -54.501c0 -18 9.66699 -27 29 -27c12 0 23 2 33 6l14 -85c-17.333 -7.33301 -38.666 -11 -63.999 -11
c-39.333 0 -68.833 9.16699 -88.5 27.5s-29.5 43.166 -29.5 74.499c0 46.667 23.333 87.334 70 122.001h-301z" />
    <glyph glyph-name="eogonek" unicode="&#x119;" horiz-adv-x="518" 
d="M439 -128l13.999 -84.998c-17.333 -7.33301 -38.666 -11 -63.999 -11c-39.333 0 -68.833 9.16699 -88.5 27.5s-29.5 43.166 -29.5 74.499c0 39.333 15.333 76 46 110c-3.33301 0 -9 -0.166992 -17 -0.5s-14 -0.5 -18 -0.5c-71.333 0 -128.166 19.667 -170.499 59
s-63.5 95 -63.5 167v102c0 69.333 20.167 123.5 60.5 162.5s91.166 58.5 152.499 58.5c60 0 110.667 -19 152 -57s62 -86.333 62 -145v-114h-285v-7c0 -70 30.667 -105 92 -105c44 0 91.667 8.33301 143 25l28 -115c-20.667 -14.667 -38.5 -34.834 -53.5 -60.501
s-22.5 -47.167 -22.5 -64.5c0 -18 9.66699 -27 29 -27c12 0 23 2 33 6zM331.999 320.002v14c0 23.333 -6.33301 42.666 -19 57.999s-30 23 -52 23c-20.667 0 -37.667 -7.66699 -51 -23s-20 -34.666 -20 -57.999v-14h142z" />
    <glyph glyph-name="Ecaron" unicode="&#x11a;" horiz-adv-x="533" 
d="M416 802l-150 -85l-151 85l53 81l97 -61l98 61zM70 0v676h404v-125h-257v-150h216l-6 -120h-210v-156h266v-125h-413z" />
    <glyph glyph-name="ecaron" unicode="&#x11b;" horiz-adv-x="518" 
d="M410 664l-150 -85l-151 85l53 81l97 -61l98 61zM48 213v102c0 69.333 20.167 123.5 60.5 162.5s91.166 58.5 152.499 58.5c60 0 110.667 -19 152 -57s62 -86.333 62 -145v-114h-285v-7c0 -70 30.667 -105 92 -105c44 0 91.667 8.33301 143 25l28 -115
c-56 -20.667 -113 -31 -171 -31c-71.333 0 -128.166 19.667 -170.499 59s-63.5 95 -63.5 167zM190 320h142v14c0 23.333 -6.33301 42.666 -19 57.999s-30 23 -52 23c-20.667 0 -37.667 -7.66699 -51 -23s-20 -34.666 -20 -57.999v-14z" />
    <glyph glyph-name="Gcircumflex" unicode="&#x11c;" horiz-adv-x="616" 
d="M402 718l-97 61l-98 -61l-53 81l150 85l151 -85zM53 265v146c0 90 25.333 158.833 76 206.5s117.334 71.5 200.001 71.5c58.667 0 130.334 -13.333 215.001 -40l-32 -119c-70.667 22 -131.334 33 -182.001 33c-42 0 -74.167 -12.667 -96.5 -38s-33.5 -67 -33.5 -125v-120
c0 -59.333 11.167 -102 33.5 -128s54.5 -39 96.5 -39c32 0 63.333 3.33301 94 10v148h-69v103h206v-345c-82 -28 -159.333 -42 -232 -42c-82.667 0 -149.334 23.833 -200.001 71.5s-76 116.5 -76 206.5z" />
    <glyph glyph-name="gcircumflex" unicode="&#x11d;" horiz-adv-x="500" 
d="M330 580l-97 61l-98 -61l-53 81l150 85l151 -85zM55 -65c64 -28 122.333 -42 175 -42c63.333 0 95 13.333 95 40c0 10 -12.5 18 -37.5 24s-52.333 10.833 -82 14.5s-57 14.5 -82 32.5s-37.5 42.667 -37.5 74c0 26 10.667 49 32 69c-49.333 35.333 -74 85.666 -74 150.999
v48c0 56 18.667 101.667 56 137s84.666 53 141.999 53c26.667 0 51.667 -4 75 -12l162 12l-9 -91l-54 -2c16.667 -29.333 25 -61.666 25 -96.999v-48c0 -56 -18.5 -101.5 -55.5 -136.5s-84.5 -52.5 -142.5 -52.5c-14 0 -27.667 1 -41 3c-1.33301 -4 -2 -7.33301 -2 -10
c0 -7.33301 14 -14 42 -20s59 -11.833 93 -17.5s65 -19 93 -40s42 -48.5 42 -82.5c0 -52.667 -21.167 -93.5 -63.5 -122.5s-100.166 -43.5 -173.499 -43.5c-71.333 0 -142 17 -212 51zM243 227c38.667 0 58 23.667 58 71v48c0 46 -19.667 69 -59 69
c-38.667 0 -58 -23 -58 -69v-48c0 -47.333 19.667 -71 59 -71z" />
    <glyph glyph-name="Gbreve" unicode="&#x11e;" horiz-adv-x="616" 
d="M352 874l89.999 0.00195312c-0.666992 -40.667 -14.5 -75 -41.5 -103s-59.167 -42 -96.5 -42s-69.166 14 -95.499 42s-39.833 62.333 -40.5 103h89c0.666992 -16.667 5.5 -30.834 14.5 -42.501s19.833 -17.5 32.5 -17.5c14 0 25.5 5.66699 34.5 17
s13.5 25.666 13.5 42.999zM52.999 265.002v146c0 90 25.333 158.833 76 206.5s117.334 71.5 200.001 71.5c58.667 0 130.334 -13.333 215.001 -40l-32 -119c-70.667 22 -131.334 33 -182.001 33c-42 0 -74.167 -12.667 -96.5 -38s-33.5 -67 -33.5 -125v-120
c0 -59.333 11.167 -102 33.5 -128s54.5 -39 96.5 -39c32 0 63.333 3.33301 94 10v148h-69v103h206v-345c-82 -28 -159.333 -42 -232 -42c-82.667 0 -149.334 23.833 -200.001 71.5s-76 116.5 -76 206.5z" />
    <glyph glyph-name="gbreve" unicode="&#x11f;" horiz-adv-x="500" 
d="M286 736l89.999 0.00195312c-0.666992 -40.667 -14.5 -75 -41.5 -103s-59.167 -42 -96.5 -42s-69.166 14 -95.499 42s-39.833 62.333 -40.5 103h89c0.666992 -16.667 5.5 -30.834 14.5 -42.501s19.833 -17.5 32.5 -17.5c14 0 25.5 5.66699 34.5 17
s13.5 25.666 13.5 42.999zM54.999 -64.998c64 -28 122.333 -42 175 -42c63.333 0 95 13.333 95 40c0 10 -12.5 18 -37.5 24s-52.333 10.833 -82 14.5s-57 14.5 -82 32.5s-37.5 42.667 -37.5 74c0 26 10.667 49 32 69c-49.333 35.333 -74 85.666 -74 150.999v48
c0 56 18.667 101.667 56 137s84.666 53 141.999 53c26.667 0 51.667 -4 75 -12l162 12l-9 -91l-54 -2c16.667 -29.333 25 -61.666 25 -96.999v-48c0 -56 -18.5 -101.5 -55.5 -136.5s-84.5 -52.5 -142.5 -52.5c-14 0 -27.667 1 -41 3c-1.33301 -4 -2 -7.33301 -2 -10
c0 -7.33301 14 -14 42 -20s59 -11.833 93 -17.5s65 -19 93 -40s42 -48.5 42 -82.5c0 -52.667 -21.167 -93.5 -63.5 -122.5s-100.166 -43.5 -173.499 -43.5c-71.333 0 -142 17 -212 51zM242.999 227.002c38.667 0 58 23.667 58 71v48c0 46 -19.667 69 -59 69
c-38.667 0 -58 -23 -58 -69v-48c0 -47.333 19.667 -71 59 -71z" />
    <glyph glyph-name="Gdotaccent" unicode="&#x120;" horiz-adv-x="616" 
d="M383 801c0 -18 -6.33301 -33.167 -19 -45.5s-28 -18.5 -46 -18.5c-17.333 0 -32.333 6.16699 -45 18.5s-19 27.5 -19 45.5s6.33301 33.5 19 46.5s27.667 19.5 45 19.5c18 0 33.333 -6.5 46 -19.5s19 -28.5 19 -46.5zM53 265v146c0 90 25.333 158.833 76 206.5
s117.334 71.5 200.001 71.5c58.667 0 130.334 -13.333 215.001 -40l-32 -119c-70.667 22 -131.334 33 -182.001 33c-42 0 -74.167 -12.667 -96.5 -38s-33.5 -67 -33.5 -125v-120c0 -59.333 11.167 -102 33.5 -128s54.5 -39 96.5 -39c32 0 63.333 3.33301 94 10v148h-69v103
h206v-345c-82 -28 -159.333 -42 -232 -42c-82.667 0 -149.334 23.833 -200.001 71.5s-76 116.5 -76 206.5z" />
    <glyph glyph-name="gdotaccent" unicode="&#x121;" horiz-adv-x="500" 
d="M303 663c0 -18 -6.33301 -33.167 -19 -45.5s-28 -18.5 -46 -18.5c-17.333 0 -32.333 6.16699 -45 18.5s-19 27.5 -19 45.5s6.33301 33.5 19 46.5s27.667 19.5 45 19.5c18 0 33.333 -6.5 46 -19.5s19 -28.5 19 -46.5zM55 -65c64 -28 122.333 -42 175 -42
c63.333 0 95 13.333 95 40c0 10 -12.5 18 -37.5 24s-52.333 10.833 -82 14.5s-57 14.5 -82 32.5s-37.5 42.667 -37.5 74c0 26 10.667 49 32 69c-49.333 35.333 -74 85.666 -74 150.999v48c0 56 18.667 101.667 56 137s84.666 53 141.999 53c26.667 0 51.667 -4 75 -12
l162 12l-9 -91l-54 -2c16.667 -29.333 25 -61.666 25 -96.999v-48c0 -56 -18.5 -101.5 -55.5 -136.5s-84.5 -52.5 -142.5 -52.5c-14 0 -27.667 1 -41 3c-1.33301 -4 -2 -7.33301 -2 -10c0 -7.33301 14 -14 42 -20s59 -11.833 93 -17.5s65 -19 93 -40s42 -48.5 42 -82.5
c0 -52.667 -21.167 -93.5 -63.5 -122.5s-100.166 -43.5 -173.499 -43.5c-71.333 0 -142 17 -212 51zM243 227c38.667 0 58 23.667 58 71v48c0 46 -19.667 69 -59 69c-38.667 0 -58 -23 -58 -69v-48c0 -47.333 19.667 -71 59 -71z" />
    <glyph glyph-name="Gcommaaccent" unicode="&#x122;" horiz-adv-x="616" 
d="M53 265v146c0 90 25.333 158.833 76 206.5s117.334 71.5 200.001 71.5c58.667 0 130.334 -13.333 215.001 -40l-32 -119c-70.667 22 -131.334 33 -182.001 33c-42 0 -74.167 -12.667 -96.5 -38s-33.5 -67 -33.5 -125v-120c0 -59.333 11.167 -102 33.5 -128
s54.5 -39 96.5 -39c32 0 63.333 3.33301 94 10v148h-69v103h206v-345c-82 -28 -159.333 -42 -232 -42c-82.667 0 -149.334 23.833 -200.001 71.5s-76 116.5 -76 206.5zM324 -224h-93l26 162h123z" />
    <glyph glyph-name="gcommaaccent" unicode="&#x123;" horiz-adv-x="500" 
d="M291 581h-93l26 162h123zM55 -65c64 -28 122.333 -42 175 -42c63.333 0 95 13.333 95 40c0 10 -12.5 18 -37.5 24s-52.333 10.833 -82 14.5s-57 14.5 -82 32.5s-37.5 42.667 -37.5 74c0 26 10.667 49 32 69c-49.333 35.333 -74 85.666 -74 150.999v48
c0 56 18.667 101.667 56 137s84.666 53 141.999 53c26.667 0 51.667 -4 75 -12l162 12l-9 -91l-54 -2c16.667 -29.333 25 -61.666 25 -96.999v-48c0 -56 -18.5 -101.5 -55.5 -136.5s-84.5 -52.5 -142.5 -52.5c-14 0 -27.667 1 -41 3c-1.33301 -4 -2 -7.33301 -2 -10
c0 -7.33301 14 -14 42 -20s59 -11.833 93 -17.5s65 -19 93 -40s42 -48.5 42 -82.5c0 -52.667 -21.167 -93.5 -63.5 -122.5s-100.166 -43.5 -173.499 -43.5c-71.333 0 -142 17 -212 51zM243 227c38.667 0 58 23.667 58 71v48c0 46 -19.667 69 -59 69
c-38.667 0 -58 -23 -58 -69v-48c0 -47.333 19.667 -71 59 -71z" />
    <glyph glyph-name="Hcircumflex" unicode="&#x124;" horiz-adv-x="642" 
d="M418 718l-97 61l-98 -61l-53 81l151 85l150 -85zM70 0v676h147v-271h208v271h147v-676h-147v283h-208v-283h-147z" />
    <glyph glyph-name="hcircumflex" unicode="&#x125;" horiz-adv-x="555" 
d="M233 745l-97 64l-98 -64l-53 81l150 88l151 -88zM495 0l-142.999 0.000976562v319c0 35.333 -5.66699 60.166 -17 74.499s-28.333 21.5 -51 21.5c-20.667 0 -46 -6 -76 -18v-397h-143v732h143v-220c29.333 16 59 24 89 24c57.333 0 104.666 -17.333 141.999 -52
s56 -87 56 -157v-327z" />
    <glyph glyph-name="Hbar" unicode="&#x126;" horiz-adv-x="642" 
d="M572 0h-147v283h-208v-283h-147v474h-40v95h40v107h147v-107h208v107h147v-107h38v-95h-38v-474zM425 405v69h-208v-69h208z" />
    <glyph glyph-name="hbar" unicode="&#x127;" horiz-adv-x="555" 
d="M495 0l-142.999 0.000976562v319c0 35.333 -5.66699 60.166 -17 74.499s-28.333 21.5 -51 21.5c-20.667 0 -46 -6 -76 -18v-397h-143v587h-40v95h40v50h143v-50h79v-95h-79v-75c29.333 16 59 24 89 24c57.333 0 104.666 -17.333 141.999 -52s56 -87 56 -157v-327z" />
    <glyph glyph-name="Itilde" unicode="&#x128;" horiz-adv-x="287" 
d="M245 856l53 -62c-8 -18 -20.5 -33.333 -37.5 -46s-37.833 -19 -62.5 -19c-16.667 0 -36.334 7.5 -59.001 22.5s-39.667 22.5 -51 22.5c-18.667 0 -34.334 -9.66699 -47.001 -29l-53 62c8 18 20.5 33.333 37.5 46s37.833 19 62.5 19c16.667 0 36.334 -7.5 59.001 -22.5
s39.667 -22.5 51 -22.5c18.667 0 34.334 9.66699 47.001 29zM70 0v676h147v-676h-147z" />
    <glyph glyph-name="itilde" unicode="&#x129;" horiz-adv-x="273" 
d="M238 718l53 -62c-8 -18 -20.5 -33.333 -37.5 -46s-37.833 -19 -62.5 -19c-16.667 0 -36.334 7.5 -59.001 22.5s-39.667 22.5 -51 22.5c-18.667 0 -34.334 -9.66699 -47.001 -29l-53 62c8 18 20.5 33.333 37.5 46s37.833 19 62.5 19c16.667 0 36.334 -7.5 59.001 -22.5
s39.667 -22.5 51 -22.5c18.667 0 34.334 9.66699 47.001 29zM208 0h-143v523h143v-523z" />
    <glyph glyph-name="Imacron" unicode="&#x12a;" horiz-adv-x="287" 
d="M270 756h-254v90h254v-90zM70 0v676h147v-676h-147z" />
    <glyph glyph-name="imacron" unicode="&#x12b;" horiz-adv-x="273" 
d="M263 618h-254v90h254v-90zM208 0h-143v523h143v-523z" />
    <glyph glyph-name="Ibreve" unicode="&#x12c;" horiz-adv-x="287" 
d="M190 889l89.999 0.00195312c-0.666992 -40.667 -14.5 -75 -41.5 -103s-59.167 -42 -96.5 -42s-69.166 14 -95.499 42s-39.833 62.333 -40.5 103h89c0.666992 -16.667 5.5 -30.834 14.5 -42.501s19.833 -17.5 32.5 -17.5c14 0 25.5 5.66699 34.5 17
s13.5 25.666 13.5 42.999zM69.999 0.00195312v676h147v-676h-147z" />
    <glyph glyph-name="ibreve" unicode="&#x12d;" horiz-adv-x="273" 
d="M183 736l89.999 0.00195312c-0.666992 -40.667 -14.5 -75 -41.5 -103s-59.167 -42 -96.5 -42s-69.166 14 -95.499 42s-39.833 62.333 -40.5 103h89c0.666992 -16.667 5.5 -30.834 14.5 -42.501s19.833 -17.5 32.5 -17.5c14 0 25.5 5.66699 34.5 17
s13.5 25.666 13.5 42.999zM207.999 0.00195312h-143v523h143v-523z" />
    <glyph glyph-name="Iogonek" unicode="&#x12e;" horiz-adv-x="287" 
d="M70 0l-0.000976562 676.001h147v-676c-22 -15.333 -40.167 -32.833 -54.5 -52.5s-21.5 -37.834 -21.5 -54.501c0 -18 9.66699 -27 29 -27c12 0 23 2 33 6l14 -85c-17.333 -7.33301 -38.666 -11 -63.999 -11c-39.333 0 -68.833 9.16699 -88.5 27.5
s-29.5 43.166 -29.5 74.499c0 46.667 23.333 87.334 70 122.001h-35z" />
    <glyph glyph-name="iogonek" unicode="&#x12f;" horiz-adv-x="273" 
d="M136 592c-22 0 -41 7.66699 -57 23s-24 34 -24 56s8 40.5 24 55.5s35 22.5 57 22.5s41 -7.5 57 -22.5s24 -33.5 24 -55.5c0 -21.333 -8 -39.833 -24 -55.5s-35 -23.5 -57 -23.5zM65 0l-0.000976562 523.001h143v-523c-22 -15.333 -40.167 -32.833 -54.5 -52.5
s-21.5 -37.834 -21.5 -54.501c0 -18 9.66699 -27 29 -27c12 0 23 2 33 6l14 -85c-17.333 -7.33301 -38.666 -11 -63.999 -11c-39.333 0 -68.833 9.16699 -88.5 27.5s-29.5 43.166 -29.5 74.499c0 46.667 23.333 87.334 70 122.001h-31z" />
    <glyph glyph-name="Idotaccent" unicode="&#x130;" horiz-adv-x="287" 
d="M207 801c0 -18 -6.33301 -33.167 -19 -45.5s-28 -18.5 -46 -18.5c-17.333 0 -32.333 6.16699 -45 18.5s-19 27.5 -19 45.5s6.33301 33.5 19 46.5s27.667 19.5 45 19.5c18 0 33.333 -6.5 46 -19.5s19 -28.5 19 -46.5zM70 0v676h147v-676h-147z" />
    <glyph glyph-name="dotlessi" unicode="&#x131;" horiz-adv-x="273" 
d="M208 0h-143v523h143v-523z" />
    <glyph glyph-name="IJ" unicode="&#x132;" horiz-adv-x="771" 
d="M564 233l0.000976562 442.999l147 -7v-439c0 -75.333 -19.833 -134.666 -59.5 -177.999s-95.834 -65 -168.501 -65c-52.667 0 -113 12 -181 36l35 117c54 -18.667 101 -28 141 -28c57.333 0 86 40.333 86 121zM217.001 -0.000976562h-147v676h147v-676z" />
    <glyph glyph-name="ij" unicode="&#x133;" horiz-adv-x="546" 
d="M490 671c0 -21.333 -8 -39.833 -24 -55.5s-35 -23.5 -57 -23.5s-41 7.66699 -57 23s-24 34 -24 56s8 40.5 24 55.5s35 22.5 57 22.5s41 -7.5 57 -22.5s24 -33.5 24 -55.5zM217 671c0 -21.333 -8 -39.833 -24 -55.5s-35 -23.5 -57 -23.5s-41 7.66699 -57 23s-24 34 -24 56
s8 40.5 24 55.5s35 22.5 57 22.5s41 -7.5 57 -22.5s24 -33.5 24 -55.5zM481 -202l-143 -20v745h143v-725zM208 0h-143v523h143v-523z" />
    <glyph glyph-name="Jcircumflex" unicode="&#x134;" horiz-adv-x="484" 
d="M441 718l-97 61l-98 -61l-53 81l150 85l151 -85zM15 23l35.001 116.999c54 -18.667 101 -28 141 -28c57.333 0 86 40.333 86 121v443l147 -7v-439c0 -75.333 -19.833 -134.666 -59.5 -177.999s-95.834 -65 -168.501 -65c-52.667 0 -113 12 -181 36z" />
    <glyph glyph-name="jcircumflex" unicode="&#x135;" horiz-adv-x="273" 
d="M234 575l-97 71l-98 -71l-53 81l150 95l151 -95zM208 -202l-143 -20v745h143v-725z" />
    <glyph glyph-name="Kcommaaccent" unicode="&#x136;" horiz-adv-x="610" 
d="M70 0v676h147v-250l175 250h172l-217 -295l248 -381h-174l-163 260l-41 -56v-204h-147zM307 -224h-93l26 162h123z" />
    <glyph glyph-name="kcommaaccent" unicode="&#x137;" horiz-adv-x="500" 
d="M65 0v732h143v-404l48 16c17.333 6 29.666 24 36.999 54l31 125h139l-41 -158c-7.33301 -29.333 -15.666 -52.5 -24.999 -69.5s-22.333 -30.5 -39 -40.5l132 -255h-162l-97 206l-23 -8v-198h-143zM262 -224h-93l26 162h123z" />
    <glyph glyph-name="Lacute" unicode="&#x139;" horiz-adv-x="512" 
d="M278 796l-223 -84l-36 83l221 96zM70 0v676h147v-551h270l-6 -125h-411z" />
    <glyph glyph-name="lacute" unicode="&#x13a;" horiz-adv-x="273" 
d="M260 820l-223 -84l-36 83l221 96zM208 0h-143v725l143 20v-745z" />
    <glyph glyph-name="Lcommaaccent" unicode="&#x13b;" horiz-adv-x="512" 
d="M70 0v676h147v-551h270l-6 -125h-411zM288 -224h-93l26 162h123z" />
    <glyph glyph-name="lcommaaccent" unicode="&#x13c;" horiz-adv-x="273" 
d="M65 0v725l143 20v-745h-143zM133 -224h-93l26 162h123z" />
    <glyph glyph-name="Lcaron" unicode="&#x13d;" horiz-adv-x="512" 
d="M413 495h-89v181l118 13zM481 0h-411v676h147v-551h270z" />
    <glyph glyph-name="lcaron" unicode="&#x13e;" horiz-adv-x="273" 
d="M362 551h-89v181l118 13zM65 0v725l143 20v-745h-143z" />
    <glyph glyph-name="Ldot" unicode="&#x13f;" horiz-adv-x="512" 
d="M481 0h-411v676h147v-551h270zM418 281c0 -20 -7 -36.667 -21 -50s-31 -20 -51 -20c-19.333 0 -36 6.66699 -50 20s-21 30 -21 50s7 37 21 51s30.667 21 50 21c20 0 37 -7 51 -21s21 -31 21 -51z" />
    <glyph glyph-name="ldot" unicode="&#x140;" horiz-adv-x="398" 
d="M208 0h-143v725l143 20v-745zM401 281c0 -20 -7 -36.667 -21 -50s-31 -20 -51 -20c-19.333 0 -36 6.66699 -50 20s-21 30 -21 50s7 37 21 51s30.667 21 50 21c20 0 37 -7 51 -21s21 -31 21 -51z" />
    <glyph glyph-name="Lslash" unicode="&#x141;" horiz-adv-x="512" 
d="M481 0h-411v263l-38 -14l-28 75l66 24v328h147v-275l71 26l28 -75l-99 -36v-191h270z" />
    <glyph glyph-name="lslash" unicode="&#x142;" horiz-adv-x="273" 
d="M208 0h-143v269l-38 -13l-28 75l66 24v370l143 20v-339l37 14l28 -75l-65 -24v-321z" />
    <glyph glyph-name="Nacute" unicode="&#x143;" horiz-adv-x="635" 
d="M446 796l-223 -84l-36 83l221 96zM70 0v676h119l232 -386c-2 38 -3 72.333 -3 103v283h147v-676h-120l-232 384c2.66699 -34.667 4 -70 4 -106v-278h-147z" />
    <glyph glyph-name="nacute" unicode="&#x144;" horiz-adv-x="549" 
d="M387 658l-223 -84l-36 83l221 96zM60 0v316c0 69.333 20.333 123.333 61 162s92 58 154 58c61.333 0 112.333 -19.333 153 -58s61 -92.667 61 -162v-316h-143v311c0 34 -6.16699 59.833 -18.5 77.5s-29.833 26.5 -52.5 26.5s-40.5 -8.83301 -53.5 -26.5
s-19.5 -43.5 -19.5 -77.5v-311h-142z" />
    <glyph glyph-name="Ncommaaccent" unicode="&#x145;" horiz-adv-x="635" 
d="M70 0v676h119l232 -386c-2 38 -3 72.333 -3 103v283h147v-676h-120l-232 384c2.66699 -34.667 4 -70 4 -106v-278h-147zM332 -224h-93l26 162h123z" />
    <glyph glyph-name="ncommaaccent" unicode="&#x146;" horiz-adv-x="549" 
d="M60 0v316c0 69.333 20.333 123.333 61 162s92 58 154 58c61.333 0 112.333 -19.333 153 -58s61 -92.667 61 -162v-316h-143v311c0 34 -6.16699 59.833 -18.5 77.5s-29.833 26.5 -52.5 26.5s-40.5 -8.83301 -53.5 -26.5s-19.5 -43.5 -19.5 -77.5v-311h-142zM277 -224h-93
l26 162h123z" />
    <glyph glyph-name="Ncaron" unicode="&#x147;" horiz-adv-x="635" 
d="M467 802l-150 -85l-151 85l53 81l97 -61l98 61zM70 0v676h119l232 -386c-2 38 -3 72.333 -3 103v283h147v-676h-120l-232 384c2.66699 -34.667 4 -70 4 -106v-278h-147z" />
    <glyph glyph-name="ncaron" unicode="&#x148;" horiz-adv-x="549" 
d="M425 664l-150 -85l-151 85l53 81l97 -61l98 61zM60 0v316c0 69.333 20.333 123.333 61 162s92 58 154 58c61.333 0 112.333 -19.333 153 -58s61 -92.667 61 -162v-316h-143v311c0 34 -6.16699 59.833 -18.5 77.5s-29.833 26.5 -52.5 26.5s-40.5 -8.83301 -53.5 -26.5
s-19.5 -43.5 -19.5 -77.5v-311h-142z" />
    <glyph glyph-name="Eng" unicode="&#x14a;" horiz-adv-x="635" 
d="M565 -202l-143 -20v260l-209 346c2.66699 -34.667 4 -70 4 -106v-278h-147v676h119l232 -386c-2 38 -3 72.333 -3 103v283h147v-878z" />
    <glyph glyph-name="eng" unicode="&#x14b;" horiz-adv-x="549" 
d="M489 -202l-143 -20v531c0 34 -6.16699 59.833 -18.5 77.5s-29.833 26.5 -52.5 26.5s-40.5 -8.83301 -53.5 -26.5s-19.5 -43.5 -19.5 -77.5v-309h-142v314c0 69.333 20.333 123.333 61 162s92 58 154 58c61.333 0 112.333 -19.333 153 -58s61 -92.667 61 -162v-516z" />
    <glyph glyph-name="Omacron" unicode="&#x14c;" horiz-adv-x="641" 
d="M447 756h-254v90h254v-90zM53 266v143.001c0 89.333 25.167 158.333 75.5 207s114.166 73 191.499 73c78 0 142.167 -24.333 192.5 -73s75.5 -117.667 75.5 -207v-143c0 -90 -25.167 -159 -75.5 -207s-114.5 -72 -192.5 -72c-77.333 0 -141.166 24.167 -191.499 72.5
s-75.5 117.166 -75.5 206.499zM200 399.001v-122c0 -110 40 -165 120 -165c80.667 0 121 55 121 165v122c0 110 -40.333 165 -121 165c-80 0 -120 -55 -120 -165z" />
    <glyph glyph-name="omacron" unicode="&#x14d;" horiz-adv-x="542" 
d="M398 618h-254v90h254v-90zM48 216v91c0 70 20.667 125.667 62 167s95 62 161 62s119.667 -20.667 161 -62s62 -97 62 -167v-91c0 -70 -20.667 -125.667 -62 -167s-95 -62 -161 -62s-119.667 20.667 -161 62s-62 97 -62 167zM190 221c0 -75.333 27 -113 81 -113
s81 37.667 81 113v81c0 75.333 -27 113 -81 113s-81 -37.667 -81 -113v-81z" />
    <glyph glyph-name="Obreve" unicode="&#x14e;" horiz-adv-x="641" 
d="M367 874l89.999 0.00195312c-0.666992 -40.667 -14.5 -75 -41.5 -103s-59.167 -42 -96.5 -42s-69.166 14 -95.499 42s-39.833 62.333 -40.5 103h89c0.666992 -16.667 5.5 -30.834 14.5 -42.501s19.833 -17.5 32.5 -17.5c14 0 25.5 5.66699 34.5 17
s13.5 25.666 13.5 42.999zM52.999 266.002v143.001c0 89.333 25.167 158.333 75.5 207s114.166 73 191.499 73c78 0 142.167 -24.333 192.5 -73s75.5 -117.667 75.5 -207v-143c0 -90 -25.167 -159 -75.5 -207s-114.5 -72 -192.5 -72
c-77.333 0 -141.166 24.167 -191.499 72.5s-75.5 117.166 -75.5 206.499zM199.999 399.003v-122c0 -110 40 -165 120 -165c80.667 0 121 55 121 165v122c0 110 -40.333 165 -121 165c-80 0 -120 -55 -120 -165z" />
    <glyph glyph-name="obreve" unicode="&#x14f;" horiz-adv-x="542" 
d="M318 736l89.999 0.00195312c-0.666992 -40.667 -14.5 -75 -41.5 -103s-59.167 -42 -96.5 -42s-69.166 14 -95.499 42s-39.833 62.333 -40.5 103h89c0.666992 -16.667 5.5 -30.834 14.5 -42.501s19.833 -17.5 32.5 -17.5c14 0 25.5 5.66699 34.5 17
s13.5 25.666 13.5 42.999zM47.999 216.002v91c0 70 20.667 125.667 62 167s95 62 161 62s119.667 -20.667 161 -62s62 -97 62 -167v-91c0 -70 -20.667 -125.667 -62 -167s-95 -62 -161 -62s-119.667 20.667 -161 62s-62 97 -62 167zM189.999 221.002
c0 -75.333 27 -113 81 -113s81 37.667 81 113v81c0 75.333 -27 113 -81 113s-81 -37.667 -81 -113v-81z" />
    <glyph glyph-name="Ohungarumlaut" unicode="&#x150;" horiz-adv-x="641" 
d="M600 809l-174 -102l-49 81l168 110zM362 809l-173 -102l-50 81l168 110zM53 266v143.001c0 89.333 25.167 158.333 75.5 207s114.166 73 191.499 73c78 0 142.167 -24.333 192.5 -73s75.5 -117.667 75.5 -207v-143c0 -90 -25.167 -159 -75.5 -207s-114.5 -72 -192.5 -72
c-77.333 0 -141.166 24.167 -191.499 72.5s-75.5 117.166 -75.5 206.499zM200 399.001v-122c0 -110 40 -165 120 -165c80.667 0 121 55 121 165v122c0 110 -40.333 165 -121 165c-80 0 -120 -55 -120 -165z" />
    <glyph glyph-name="ohungarumlaut" unicode="&#x151;" horiz-adv-x="542" 
d="M542 671l-174 -102l-49 81l168 110zM304 671l-173 -102l-50 81l168 110zM48 216v91c0 70 20.667 125.667 62 167s95 62 161 62s119.667 -20.667 161 -62s62 -97 62 -167v-91c0 -70 -20.667 -125.667 -62 -167s-95 -62 -161 -62s-119.667 20.667 -161 62s-62 97 -62 167z
M190 221c0 -75.333 27 -113 81 -113s81 37.667 81 113v81c0 75.333 -27 113 -81 113s-81 -37.667 -81 -113v-81z" />
    <glyph glyph-name="OE" unicode="&#x152;" horiz-adv-x="901" 
d="M851 0h-440.001c-31.333 -8.66699 -61.666 -13 -90.999 -13c-77.333 0 -141.166 24.167 -191.499 72.5s-75.5 117.166 -75.5 206.499v143c0 89.333 25.167 158.333 75.5 207s114.166 73 191.499 73c29.333 0 59 -4.33301 89 -13h433v-125h-284
c20 -41.333 30 -88.666 30 -141.999v-8h213l-6 -120h-207v-15c0 -52.667 -10 -99.667 -30 -141h293v-125zM440.999 277v122c0 110 -40.333 165 -121 165c-80 0 -120 -55 -120 -165v-122c0 -110 40 -165 120 -165c80.667 0 121 55 121 165z" />
    <glyph glyph-name="oe" unicode="&#x153;" horiz-adv-x="822" 
d="M729 133l28 -115c-56 -20.667 -113 -31 -171 -31c-68.667 0 -123.334 17.667 -164.001 53c-38.667 -35.333 -89 -53 -151 -53c-66 0 -119.667 20.667 -161 62s-62 97 -62 167v91c0 70 20.667 125.667 62 167s95 62 161 62c58.667 0 108.334 -17.333 149.001 -52
c38 34.667 86.333 52 145 52c60 0 110.667 -19 152 -57s62 -86.333 62 -145v-114h-285v-7c0 -70 30.667 -105 92 -105c44 0 91.667 8.33301 143 25zM636 320v14c0 23.333 -6.33301 42.666 -19 57.999s-30 23 -52 23c-20.667 0 -37.667 -7.66699 -51 -23
s-20 -34.666 -20 -57.999v-14h142zM352 221v81c0 75.333 -27 113 -81 113s-81 -37.667 -81 -113v-81c0 -75.333 27 -113 81 -113s81 37.667 81 113z" />
    <glyph glyph-name="Racute" unicode="&#x154;" horiz-adv-x="571" 
d="M414 796l-223 -84l-36 83l221 96zM70 0v675.998h241c66 0 119.5 -21.167 160.5 -63.5s61.5 -93.166 61.5 -152.499c0 -41.333 -10.5 -78.666 -31.5 -111.999s-50.5 -58.333 -88.5 -75l128 -273h-164l-110 252h-50v-252h-147zM217 368.998h86.999
c24 0 43.5 8.33301 58.5 25s22.5 38.667 22.5 66c0 26.667 -7.66699 48.5 -23 65.5s-34.666 25.5 -57.999 25.5h-87v-182z" />
    <glyph glyph-name="racute" unicode="&#x155;" horiz-adv-x="372" 
d="M344 658l-223 -84l-36 83l221 96zM60 0l0.000976562 334c0 59.333 20.167 107.833 60.5 145.5s90.833 56.5 151.5 56.5c34 0 67 -5.33301 99 -16l-27 -116c-26.667 7.33301 -50.334 11 -71.001 11c-22 0 -39.333 -7.5 -52 -22.5s-19 -34.5 -19 -58.5v-334h-142z" />
    <glyph glyph-name="Rcommaaccent" unicode="&#x156;" horiz-adv-x="571" 
d="M70 0v675.998h241c66 0 119.5 -21.167 160.5 -63.5s61.5 -93.166 61.5 -152.499c0 -41.333 -10.5 -78.666 -31.5 -111.999s-50.5 -58.333 -88.5 -75l128 -273h-164l-110 252h-50v-252h-147zM217 368.998h86.999c24 0 43.5 8.33301 58.5 25s22.5 38.667 22.5 66
c0 26.667 -7.66699 48.5 -23 65.5s-34.666 25.5 -57.999 25.5h-87v-182zM291.999 -224.002h-93l26 162h123z" />
    <glyph glyph-name="rcommaaccent" unicode="&#x157;" horiz-adv-x="372" 
d="M60 0l0.000976562 334c0 59.333 20.167 107.833 60.5 145.5s90.833 56.5 151.5 56.5c34 0 67 -5.33301 99 -16l-27 -116c-26.667 7.33301 -50.334 11 -71.001 11c-22 0 -39.333 -7.5 -52 -22.5s-19 -34.5 -19 -58.5v-334h-142zM139.001 -224h-93l26 162h123z" />
    <glyph glyph-name="Rcaron" unicode="&#x158;" horiz-adv-x="571" 
d="M435 802l-150 -85l-151 85l53 81l97 -61l98 61zM70 0v675.998h241c66 0 119.5 -21.167 160.5 -63.5s61.5 -93.166 61.5 -152.499c0 -41.333 -10.5 -78.666 -31.5 -111.999s-50.5 -58.333 -88.5 -75l128 -273h-164l-110 252h-50v-252h-147zM217 368.998h86.999
c24 0 43.5 8.33301 58.5 25s22.5 38.667 22.5 66c0 26.667 -7.66699 48.5 -23 65.5s-34.666 25.5 -57.999 25.5h-87v-182z" />
    <glyph glyph-name="rcaron" unicode="&#x159;" horiz-adv-x="372" 
d="M356 664l-150 -85l-151 85l53 81l97 -61l98 61zM60 0l0.000976562 334c0 59.333 20.167 107.833 60.5 145.5s90.833 56.5 151.5 56.5c34 0 67 -5.33301 99 -16l-27 -116c-26.667 7.33301 -50.334 11 -71.001 11c-22 0 -39.333 -7.5 -52 -22.5s-19 -34.5 -19 -58.5v-334
h-142z" />
    <glyph glyph-name="Sacute" unicode="&#x15a;" horiz-adv-x="522" 
d="M390 796l-223 -84l-36 83l221 96zM35 29l28.001 121.998c70.667 -26 133.667 -39 189 -39c25.333 0 45.5 7 60.5 21s22.5 32.333 22.5 55c0 22 -9.66699 41 -29 57s-42.833 30 -70.5 42s-55.334 25.667 -83.001 41s-51.167 37.5 -70.5 66.5s-29 63.833 -29 104.5
c0 57.333 21.667 103.333 65 138s97.666 52 162.999 52c58 0 122 -14 192 -42l-38 -117c-56.667 22.667 -108 34 -154 34c-50.667 0 -76 -21 -76 -63c0 -20 9.66699 -37.5 29 -52.5s42.833 -28.333 70.5 -40s55.334 -25.167 83.001 -40.5s51.167 -38.166 70.5 -68.499
s29 -67.166 29 -110.499c0 -64 -22.833 -113.667 -68.5 -149s-101.167 -53 -166.5 -53c-68 0 -140.333 14 -217 42z" />
    <glyph glyph-name="sacute" unicode="&#x15b;" horiz-adv-x="432" 
d="M335 658l-223 -84l-36 83l221 96zM28 19l27.998 113.998c46.667 -16.667 92.334 -25 137.001 -25c18 0 33 3.83301 45 11.5s18 17.167 18 28.5c0 14 -7.33301 25.833 -22 35.5s-32.334 18.834 -53.001 27.501s-41.5 18.667 -62.5 30s-38.833 28.833 -53.5 52.5
s-22 52.167 -22 85.5c0 46 17.667 83.667 53 113s82 44 140 44c47.333 0 94.666 -8.33301 141.999 -25l-30 -117c-44.667 14 -82 21 -112 21c-32 0 -48 -12 -48 -36c0 -13.333 7.33301 -24.666 22 -33.999s32.334 -18 53.001 -26s41.334 -17.667 62.001 -29
s38.334 -29 53.001 -53s22 -53 22 -87c0 -44.667 -18 -83 -54 -115s-87 -48 -153 -48c-51.333 0 -106.333 10.667 -165 32z" />
    <glyph glyph-name="Scircumflex" unicode="&#x15c;" horiz-adv-x="522" 
d="M358 718l-97 61l-98 -61l-53 81l150 85l151 -85zM35 29l28.001 121.998c70.667 -26 133.667 -39 189 -39c25.333 0 45.5 7 60.5 21s22.5 32.333 22.5 55c0 22 -9.66699 41 -29 57s-42.833 30 -70.5 42s-55.334 25.667 -83.001 41s-51.167 37.5 -70.5 66.5
s-29 63.833 -29 104.5c0 57.333 21.667 103.333 65 138s97.666 52 162.999 52c58 0 122 -14 192 -42l-38 -117c-56.667 22.667 -108 34 -154 34c-50.667 0 -76 -21 -76 -63c0 -20 9.66699 -37.5 29 -52.5s42.833 -28.333 70.5 -40s55.334 -25.167 83.001 -40.5
s51.167 -38.166 70.5 -68.499s29 -67.166 29 -110.499c0 -64 -22.833 -113.667 -68.5 -149s-101.167 -53 -166.5 -53c-68 0 -140.333 14 -217 42z" />
    <glyph glyph-name="scircumflex" unicode="&#x15d;" horiz-adv-x="432" 
d="M312 580l-97 61l-98 -61l-53 81l150 85l151 -85zM28 19l27.998 113.998c46.667 -16.667 92.334 -25 137.001 -25c18 0 33 3.83301 45 11.5s18 17.167 18 28.5c0 14 -7.33301 25.833 -22 35.5s-32.334 18.834 -53.001 27.501s-41.5 18.667 -62.5 30
s-38.833 28.833 -53.5 52.5s-22 52.167 -22 85.5c0 46 17.667 83.667 53 113s82 44 140 44c47.333 0 94.666 -8.33301 141.999 -25l-30 -117c-44.667 14 -82 21 -112 21c-32 0 -48 -12 -48 -36c0 -13.333 7.33301 -24.666 22 -33.999s32.334 -18 53.001 -26
s41.334 -17.667 62.001 -29s38.334 -29 53.001 -53s22 -53 22 -87c0 -44.667 -18 -83 -54 -115s-87 -48 -153 -48c-51.333 0 -106.333 10.667 -165 32z" />
    <glyph glyph-name="Scedilla" unicode="&#x15e;" horiz-adv-x="522" 
d="M205 -75v63.998c-54 4.66699 -110.667 18 -170 40l28 122c70.667 -26 133.667 -39 189 -39c25.333 0 45.5 7 60.5 21s22.5 32.333 22.5 55c0 22 -9.66699 41 -29 57s-42.833 30 -70.5 42s-55.334 25.667 -83.001 41s-51.167 37.5 -70.5 66.5s-29 63.833 -29 104.5
c0 57.333 21.667 103.333 65 138s97.666 52 162.999 52c58 0 122 -14 192 -42l-38 -117c-56.667 22.667 -108 34 -154 34c-50.667 0 -76 -21 -76 -63c0 -20 9.66699 -37.5 29 -52.5s42.833 -28.333 70.5 -40s55.334 -25.167 83.001 -40.5s51.167 -38.166 70.5 -68.499
s29 -67.166 29 -110.499c0 -54 -16.5 -97.833 -49.5 -131.5s-75.167 -55.167 -126.5 -64.5v-81c0 -42 -13 -73 -39 -93s-56.667 -30 -92 -30c-28.667 0 -56.667 4 -84 12l13 96c24.667 -5.33301 45.334 -8 62.001 -8c22.667 0 34 12 34 36z" />
    <glyph glyph-name="scedilla" unicode="&#x15f;" horiz-adv-x="432" 
d="M170 -75l-0.00292969 62.999c-48.667 3.33301 -96 13.666 -142 30.999l28 114c46.667 -16.667 92.334 -25 137.001 -25c18 0 33 3.83301 45 11.5s18 17.167 18 28.5c0 14 -7.33301 25.833 -22 35.5s-32.334 18.834 -53.001 27.501s-41.5 18.667 -62.5 30
s-38.833 28.833 -53.5 52.5s-22 52.167 -22 85.5c0 46 17.667 83.667 53 113s82 44 140 44c47.333 0 94.666 -8.33301 141.999 -25l-30 -117c-44.667 14 -82 21 -112 21c-32 0 -48 -12 -48 -36c0 -13.333 7.33301 -24.666 22 -33.999s32.334 -18 53.001 -26
s41.334 -17.667 62.001 -29s38.334 -29 53.001 -53s22 -53 22 -87s-10.667 -64.833 -32 -92.5s-52 -47.167 -92 -58.5v-87c0 -42 -13 -73 -39 -93s-56.667 -30 -92 -30c-28.667 0 -56.667 4 -84 12l13 96c24.667 -5.33301 45.334 -8 62.001 -8c22.667 0 34 12 34 36z" />
    <glyph glyph-name="Scaron" unicode="&#x160;" horiz-adv-x="522" 
d="M416 802l-150 -85l-151 85l53 81l97 -61l98 61zM35 29l28.001 121.998c70.667 -26 133.667 -39 189 -39c25.333 0 45.5 7 60.5 21s22.5 32.333 22.5 55c0 22 -9.66699 41 -29 57s-42.833 30 -70.5 42s-55.334 25.667 -83.001 41s-51.167 37.5 -70.5 66.5
s-29 63.833 -29 104.5c0 57.333 21.667 103.333 65 138s97.666 52 162.999 52c58 0 122 -14 192 -42l-38 -117c-56.667 22.667 -108 34 -154 34c-50.667 0 -76 -21 -76 -63c0 -20 9.66699 -37.5 29 -52.5s42.833 -28.333 70.5 -40s55.334 -25.167 83.001 -40.5
s51.167 -38.166 70.5 -68.499s29 -67.166 29 -110.499c0 -64 -22.833 -113.667 -68.5 -149s-101.167 -53 -166.5 -53c-68 0 -140.333 14 -217 42z" />
    <glyph glyph-name="scaron" unicode="&#x161;" horiz-adv-x="432" 
d="M365 664l-150 -85l-151 85l53 81l97 -61l98 61zM28 19l27.998 113.998c46.667 -16.667 92.334 -25 137.001 -25c18 0 33 3.83301 45 11.5s18 17.167 18 28.5c0 14 -7.33301 25.833 -22 35.5s-32.334 18.834 -53.001 27.501s-41.5 18.667 -62.5 30
s-38.833 28.833 -53.5 52.5s-22 52.167 -22 85.5c0 46 17.667 83.667 53 113s82 44 140 44c47.333 0 94.666 -8.33301 141.999 -25l-30 -117c-44.667 14 -82 21 -112 21c-32 0 -48 -12 -48 -36c0 -13.333 7.33301 -24.666 22 -33.999s32.334 -18 53.001 -26
s41.334 -17.667 62.001 -29s38.334 -29 53.001 -53s22 -53 22 -87c0 -44.667 -18 -83 -54 -115s-87 -48 -153 -48c-51.333 0 -106.333 10.667 -165 32z" />
    <glyph glyph-name="Tcommaaccent" unicode="&#x162;" horiz-adv-x="525" 
d="M189 0v551h-164v125h475v-125h-164v-551h-147zM273 -224h-93l26 162h123z" />
    <glyph glyph-name="tcommaaccent" unicode="&#x163;" horiz-adv-x="340" 
d="M96 0v428h-64l-21 95h85v141l143 19v-160h84v-95h-84v-428h-143zM172 -224h-93l26 162h123z" />
    <glyph glyph-name="Tcaron" unicode="&#x164;" horiz-adv-x="525" 
d="M413 802l-150 -85l-151 85l53 81l97 -61l98 61zM189 0v551h-164v125h475v-125h-164v-551h-147z" />
    <glyph glyph-name="tcaron" unicode="&#x165;" horiz-adv-x="337" 
d="M381 571h-89v181l118 13zM236 -1h-140v428h-63l-21 95h84v141l140 19v-160h82v-95h-82v-428z" />
    <glyph glyph-name="Tbar" unicode="&#x166;" horiz-adv-x="525" 
d="M336 0h-147v306h-78v96h78v149h-164v125h475v-125h-164v-149h76v-96h-76v-306z" />
    <glyph glyph-name="tbar" unicode="&#x167;" horiz-adv-x="340" 
d="M239 0h-143v237h-66v95h66v96h-64l-21 95h85v141l143 19v-160h84v-95h-84v-96h84v-95h-84v-237z" />
    <glyph glyph-name="Utilde" unicode="&#x168;" horiz-adv-x="640" 
d="M421 856l53 -62c-8 -18 -20.5 -33.333 -37.5 -46s-37.833 -19 -62.5 -19c-16.667 0 -36.334 7.5 -59.001 22.5s-39.667 22.5 -51 22.5c-18.667 0 -34.334 -9.66699 -47.001 -29l-53 62c8 18 20.5 33.333 37.5 46s37.833 19 62.5 19c16.667 0 36.334 -7.5 59.001 -22.5
s39.667 -22.5 51 -22.5c18.667 0 34.334 9.66699 47.001 29zM65 226l-0.00195312 449.998h147v-438c0 -39.333 9.83301 -70.166 29.5 -92.499s45.834 -33.5 78.501 -33.5s58.834 11.333 78.501 34s29.5 53.334 29.5 92.001v438h147v-450
c0 -69.333 -24.833 -126.5 -74.5 -171.5s-109.834 -67.5 -180.501 -67.5c-71.333 0 -131.666 22.333 -180.999 67s-74 102 -74 172z" />
    <glyph glyph-name="utilde" unicode="&#x169;" horiz-adv-x="549" 
d="M376 718l53 -62c-8 -18 -20.5 -33.333 -37.5 -46s-37.833 -19 -62.5 -19c-16.667 0 -36.334 7.5 -59.001 22.5s-39.667 22.5 -51 22.5c-18.667 0 -34.334 -9.66699 -47.001 -29l-53 62c8 18 20.5 33.333 37.5 46s37.833 19 62.5 19c16.667 0 36.334 -7.5 59.001 -22.5
s39.667 -22.5 51 -22.5c18.667 0 34.334 9.66699 47.001 29zM60 207l-0.000976562 316h142v-311c0 -34 6.33301 -59.833 19 -77.5s30.334 -26.5 53.001 -26.5c48 0 72 34.667 72 104v311h143v-316c0 -69.333 -20.5 -123.333 -61.5 -162s-92.167 -58 -153.5 -58
c-62 0 -113.167 19.333 -153.5 58s-60.5 92.667 -60.5 162z" />
    <glyph glyph-name="Umacron" unicode="&#x16a;" horiz-adv-x="640" 
d="M447 756h-254v90h254v-90zM65 226l-0.00195312 449.998h147v-438c0 -39.333 9.83301 -70.166 29.5 -92.499s45.834 -33.5 78.501 -33.5s58.834 11.333 78.501 34s29.5 53.334 29.5 92.001v438h147v-450c0 -69.333 -24.833 -126.5 -74.5 -171.5
s-109.834 -67.5 -180.501 -67.5c-71.333 0 -131.666 22.333 -180.999 67s-74 102 -74 172z" />
    <glyph glyph-name="umacron" unicode="&#x16b;" horiz-adv-x="549" 
d="M401 618h-254v90h254v-90zM60 207l-0.000976562 316h142v-311c0 -34 6.33301 -59.833 19 -77.5s30.334 -26.5 53.001 -26.5c48 0 72 34.667 72 104v311h143v-316c0 -69.333 -20.5 -123.333 -61.5 -162s-92.167 -58 -153.5 -58c-62 0 -113.167 19.333 -153.5 58
s-60.5 92.667 -60.5 162z" />
    <glyph glyph-name="Ubreve" unicode="&#x16c;" horiz-adv-x="640" 
d="M366 874l89.999 0.00195312c-0.666992 -40.667 -14.5 -75 -41.5 -103s-59.167 -42 -96.5 -42s-69.166 14 -95.499 42s-39.833 62.333 -40.5 103h89c0.666992 -16.667 5.5 -30.834 14.5 -42.501s19.833 -17.5 32.5 -17.5c14 0 25.5 5.66699 34.5 17
s13.5 25.666 13.5 42.999zM64.999 226.002l-0.00195312 449.998h147v-438c0 -39.333 9.83301 -70.166 29.5 -92.499s45.834 -33.5 78.501 -33.5s58.834 11.333 78.501 34s29.5 53.334 29.5 92.001v438h147v-450c0 -69.333 -24.833 -126.5 -74.5 -171.5
s-109.834 -67.5 -180.501 -67.5c-71.333 0 -131.666 22.333 -180.999 67s-74 102 -74 172z" />
    <glyph glyph-name="ubreve" unicode="&#x16d;" horiz-adv-x="549" 
d="M321 736l89.999 0.00195312c-0.666992 -40.667 -14.5 -75 -41.5 -103s-59.167 -42 -96.5 -42s-69.166 14 -95.499 42s-39.833 62.333 -40.5 103h89c0.666992 -16.667 5.5 -30.834 14.5 -42.501s19.833 -17.5 32.5 -17.5c14 0 25.5 5.66699 34.5 17
s13.5 25.666 13.5 42.999zM59.999 207.002l-0.000976562 316h142v-311c0 -34 6.33301 -59.833 19 -77.5s30.334 -26.5 53.001 -26.5c48 0 72 34.667 72 104v311h143v-316c0 -69.333 -20.5 -123.333 -61.5 -162s-92.167 -58 -153.5 -58c-62 0 -113.167 19.333 -153.5 58
s-60.5 92.667 -60.5 162z" />
    <glyph glyph-name="Uring" unicode="&#x16e;" horiz-adv-x="640" 
d="M320 712c-28.667 0 -53 10.167 -73 30.5s-30 44.5 -30 72.5c0 27.333 10 51 30 71s44.333 30 73 30c27.333 0 51 -10 71 -30s30 -43.667 30 -71c0 -28 -10 -52.167 -30 -72.5s-43.667 -30.5 -71 -30.5zM320 784c8.66699 0 15.834 3 21.501 9s8.5 13.333 8.5 22
s-2.83301 15.834 -8.5 21.501s-12.834 8.5 -21.501 8.5s-16 -2.83301 -22 -8.5s-9 -12.834 -9 -21.501s3 -16 9 -22s13.333 -9 22 -9zM65 226l-0.00195312 449.998h147v-438c0 -39.333 9.83301 -70.166 29.5 -92.499s45.834 -33.5 78.501 -33.5s58.834 11.333 78.501 34
s29.5 53.334 29.5 92.001v438h147v-450c0 -69.333 -24.833 -126.5 -74.5 -171.5s-109.834 -67.5 -180.501 -67.5c-71.333 0 -131.666 22.333 -180.999 67s-74 102 -74 172z" />
    <glyph glyph-name="uring" unicode="&#x16f;" horiz-adv-x="549" 
d="M275 574c-28.667 0 -53 10.167 -73 30.5s-30 44.5 -30 72.5c0 27.333 10 51 30 71s44.333 30 73 30c27.333 0 51 -10 71 -30s30 -43.667 30 -71c0 -28 -10 -52.167 -30 -72.5s-43.667 -30.5 -71 -30.5zM275 646c8.66699 0 15.834 3 21.501 9s8.5 13.333 8.5 22
s-2.83301 15.834 -8.5 21.501s-12.834 8.5 -21.501 8.5s-16 -2.83301 -22 -8.5s-9 -12.834 -9 -21.501s3 -16 9 -22s13.333 -9 22 -9zM60 207l-0.000976562 316h142v-311c0 -34 6.33301 -59.833 19 -77.5s30.334 -26.5 53.001 -26.5c48 0 72 34.667 72 104v311h143v-316
c0 -69.333 -20.5 -123.333 -61.5 -162s-92.167 -58 -153.5 -58c-62 0 -113.167 19.333 -153.5 58s-60.5 92.667 -60.5 162z" />
    <glyph glyph-name="Uhungarumlaut" unicode="&#x170;" horiz-adv-x="640" 
d="M569 809l-174 -102l-49 81l168 110zM331 809l-173 -102l-50 81l168 110zM65 226l-0.00195312 449.998h147v-438c0 -39.333 9.83301 -70.166 29.5 -92.499s45.834 -33.5 78.501 -33.5s58.834 11.333 78.501 34s29.5 53.334 29.5 92.001v438h147v-450
c0 -69.333 -24.833 -126.5 -74.5 -171.5s-109.834 -67.5 -180.501 -67.5c-71.333 0 -131.666 22.333 -180.999 67s-74 102 -74 172z" />
    <glyph glyph-name="uhungarumlaut" unicode="&#x171;" horiz-adv-x="549" 
d="M527 671l-174 -102l-49 81l168 110zM289 671l-173 -102l-50 81l168 110zM60 207l-0.000976562 316h142v-311c0 -34 6.33301 -59.833 19 -77.5s30.334 -26.5 53.001 -26.5c48 0 72 34.667 72 104v311h143v-316c0 -69.333 -20.5 -123.333 -61.5 -162
s-92.167 -58 -153.5 -58c-62 0 -113.167 19.333 -153.5 58s-60.5 92.667 -60.5 162z" />
    <glyph glyph-name="Uogonek" unicode="&#x172;" horiz-adv-x="640" 
d="M366 -128l13.9971 -85.001c-17.333 -7.33301 -38.666 -11 -63.999 -11c-39.333 0 -68.833 9.16699 -88.5 27.5s-29.5 43.166 -29.5 74.499c0 43.333 20.333 82 61 116c-56.667 12 -103.167 38.833 -139.5 80.5s-54.5 92.167 -54.5 151.5v450h147v-438
c0 -39.333 9.83301 -70.166 29.5 -92.499s45.834 -33.5 78.501 -33.5s58.834 11.333 78.501 34s29.5 53.334 29.5 92.001v438h147v-450c0 -61.333 -19.5 -113.333 -58.5 -156s-88.5 -69 -148.5 -79c-42.667 -33.333 -64 -66 -64 -98c0 -18 9.66699 -27 29 -27
c12 0 23 2 33 6z" />
    <glyph glyph-name="uogonek" unicode="&#x173;" horiz-adv-x="549" 
d="M323 -128l13.999 -85c-17.333 -7.33301 -38.666 -11 -63.999 -11c-39.333 0 -68.833 9.16699 -88.5 27.5s-29.5 43.166 -29.5 74.499c0 43.333 20.333 82 61 116c-46.667 10.667 -84.334 34.334 -113.001 71.001s-43 84 -43 142v316h142v-311
c0 -34 6.33301 -59.833 19 -77.5s30.334 -26.5 53.001 -26.5c48 0 72 34.667 72 104v311h143v-316c0 -58.667 -15 -106.5 -45 -143.5s-69 -60.5 -117 -70.5c-44 -34.667 -66 -68 -66 -100c0 -18 9.66699 -27 29 -27c12 0 23 2 33 6z" />
    <glyph glyph-name="Wcircumflex" unicode="&#x174;" horiz-adv-x="849" 
d="M521 718l-97 61l-98 -61l-53 81l150 85l151 -85zM145 0l-109.999 676h150l42 -343c3.33301 -26.667 7 -76.667 11 -150c12.667 68.667 24 118.334 34 149.001l73 235h157l75 -235c11.333 -36 22.666 -84.667 33.999 -146c4 72 7.66699 121 11 147l42 343h150l-110 -676
h-163l-96 318c-6.66699 23.333 -13.667 55 -21 95c-5.33301 -36.667 -12 -68.334 -20 -95.001l-96 -318h-163z" />
    <glyph glyph-name="wcircumflex" unicode="&#x175;" horiz-adv-x="795" 
d="M495 580l-97 61l-98 -61l-53 81l150 85l151 -85zM65 180l-24.998 343h142l24 -333c3.33301 -53.333 24 -80 62 -80c18.667 0 33.167 7.66699 43.5 23s15.5 34.666 15.5 57.999v298h139v-298c0 -23.333 5.16699 -42.666 15.5 -57.999s24.833 -23 43.5 -23
c37.333 0 58.333 26.667 63 80l25 333h142l-27 -343c-4.66699 -60.667 -25 -108 -61 -142s-82.667 -51 -140 -51c-58.667 0 -102.334 23 -131.001 69c-28.667 -46 -72.334 -69 -131.001 -69c-56 0 -102.167 17.333 -138.5 52s-56.833 81.667 -61.5 141z" />
    <glyph glyph-name="Ycircumflex" unicode="&#x176;" horiz-adv-x="579" 
d="M386 718l-97 61l-98 -61l-53 81l150 85l151 -85zM216 0v257l-201 419h158l116 -268l117 268h158l-201 -419v-257h-147z" />
    <glyph glyph-name="ycircumflex" unicode="&#x177;" horiz-adv-x="510" 
d="M350 580l-97 61l-98 -61l-53 81l150 85l151 -85zM68 188l-48 335h142l47 -325c8 -51.333 27.667 -77 59 -77h24l50 402h143l-99 -734h-140l29 211h-12c-111.333 0 -176.333 62.667 -195 188z" />
    <glyph glyph-name="Ydieresis" unicode="&#x178;" horiz-adv-x="579" 
d="M449 801c0 -18 -6.33301 -33.167 -19 -45.5s-28 -18.5 -46 -18.5c-17.333 0 -32.333 6.16699 -45 18.5s-19 27.5 -19 45.5s6.33301 33.5 19 46.5s27.667 19.5 45 19.5c18 0 33.333 -6.5 46 -19.5s19 -28.5 19 -46.5zM259 801c0 -18 -6.33301 -33.167 -19 -45.5
s-28 -18.5 -46 -18.5c-17.333 0 -32.5 6.16699 -45.5 18.5s-19.5 27.5 -19.5 45.5s6.5 33.5 19.5 46.5s28.167 19.5 45.5 19.5c18 0 33.333 -6.5 46 -19.5s19 -28.5 19 -46.5zM216 0v257l-201 419h158l116 -268l117 268h158l-201 -419v-257h-147z" />
    <glyph glyph-name="Zacute" unicode="&#x179;" horiz-adv-x="564" 
d="M410 796l-223 -84l-36 83l221 96zM40 0v97l277 460h-271v119h455v-97l-280 -458h303l-13 -121h-471z" />
    <glyph glyph-name="zacute" unicode="&#x17a;" horiz-adv-x="488" 
d="M374 658l-223 -84l-36 83l221 96zM433 0h-388v97l212 309h-204v117h376v-96l-203 -310h217z" />
    <glyph glyph-name="Zdotaccent" unicode="&#x17b;" horiz-adv-x="564" 
d="M345 801c0 -18 -6.33301 -33.167 -19 -45.5s-28 -18.5 -46 -18.5c-17.333 0 -32.333 6.16699 -45 18.5s-19 27.5 -19 45.5s6.33301 33.5 19 46.5s27.667 19.5 45 19.5c18 0 33.333 -6.5 46 -19.5s19 -28.5 19 -46.5zM40 0v97l277 460h-271v119h455v-97l-280 -458h303
l-13 -121h-471z" />
    <glyph glyph-name="zdotaccent" unicode="&#x17c;" horiz-adv-x="488" 
d="M309 663c0 -18 -6.33301 -33.167 -19 -45.5s-28 -18.5 -46 -18.5c-17.333 0 -32.333 6.16699 -45 18.5s-19 27.5 -19 45.5s6.33301 33.5 19 46.5s27.667 19.5 45 19.5c18 0 33.333 -6.5 46 -19.5s19 -28.5 19 -46.5zM433 0h-388v97l212 309h-204v117h376v-96l-203 -310
h217z" />
    <glyph glyph-name="Zcaron" unicode="&#x17d;" horiz-adv-x="564" 
d="M431 802l-150 -85l-151 85l53 81l97 -61l98 61zM40 0v97l277 460h-271v119h455v-97l-280 -458h303l-13 -121h-471z" />
    <glyph glyph-name="zcaron" unicode="&#x17e;" horiz-adv-x="488" 
d="M395 664l-150 -85l-151 85l53 81l97 -61l98 61zM433 0h-388v97l212 309h-204v117h376v-96l-203 -310h217z" />
    <glyph glyph-name="florin" unicode="&#x192;" horiz-adv-x="521" 
d="M145 -38l57 407h-85v95h99l16 112c7.33301 52.667 29.333 93.167 66 121.5s78.334 42.5 125.001 42.5c36.667 0 71.667 -7 105 -21l-35 -115c-26 8.66699 -49.333 13 -70 13c-36 0 -56.667 -19.333 -62 -58l-14 -95h124l-21 -95h-116l-60 -424
c-7.33301 -52.667 -29.333 -93.167 -66 -121.5s-78.334 -42.5 -125.001 -42.5c-37.333 0 -72.333 7 -105 21l35 115c26 -8.66699 49.333 -13 70 -13c36 0 56.667 19.333 62 58z" />
    <glyph glyph-name="Scommaaccent" unicode="&#x218;" horiz-adv-x="522" 
d="M35 29l28.001 121.998c70.667 -26 133.667 -39 189 -39c25.333 0 45.5 7 60.5 21s22.5 32.333 22.5 55c0 22 -9.66699 41 -29 57s-42.833 30 -70.5 42s-55.334 25.667 -83.001 41s-51.167 37.5 -70.5 66.5s-29 63.833 -29 104.5c0 57.333 21.667 103.333 65 138
s97.666 52 162.999 52c58 0 122 -14 192 -42l-38 -117c-56.667 22.667 -108 34 -154 34c-50.667 0 -76 -21 -76 -63c0 -20 9.66699 -37.5 29 -52.5s42.833 -28.333 70.5 -40s55.334 -25.167 83.001 -40.5s51.167 -38.166 70.5 -68.499s29 -67.166 29 -110.499
c0 -64 -22.833 -113.667 -68.5 -149s-101.167 -53 -166.5 -53c-68 0 -140.333 14 -217 42zM276.001 -224.002h-93l26 162h123z" />
    <glyph glyph-name="scommaaccent" unicode="&#x219;" horiz-adv-x="432" 
d="M28 19l27.998 113.998c46.667 -16.667 92.334 -25 137.001 -25c18 0 33 3.83301 45 11.5s18 17.167 18 28.5c0 14 -7.33301 25.833 -22 35.5s-32.334 18.834 -53.001 27.501s-41.5 18.667 -62.5 30s-38.833 28.833 -53.5 52.5s-22 52.167 -22 85.5
c0 46 17.667 83.667 53 113s82 44 140 44c47.333 0 94.666 -8.33301 141.999 -25l-30 -117c-44.667 14 -82 21 -112 21c-32 0 -48 -12 -48 -36c0 -13.333 7.33301 -24.666 22 -33.999s32.334 -18 53.001 -26s41.334 -17.667 62.001 -29s38.334 -29 53.001 -53s22 -53 22 -87
c0 -44.667 -18 -83 -54 -115s-87 -48 -153 -48c-51.333 0 -106.333 10.667 -165 32zM231.998 -224.002h-93l26 162h123z" />
    <glyph glyph-name="circumflex" unicode="&#x2c6;" horiz-adv-x="481" 
d="M338 580l-97 61l-98 -61l-53 81l150 85l151 -85z" />
    <glyph glyph-name="caron" unicode="&#x2c7;" horiz-adv-x="481" 
d="M391 664l-150 -85l-151 85l53 81l97 -61l98 61z" />
    <glyph glyph-name="breve" unicode="&#x2d8;" horiz-adv-x="419" 
d="M257 736l89.999 0.00195312c-0.666992 -40.667 -14.5 -75 -41.5 -103s-59.167 -42 -96.5 -42s-69.166 14 -95.499 42s-39.833 62.333 -40.5 103h89c0.666992 -16.667 5.5 -30.834 14.5 -42.501s19.833 -17.5 32.5 -17.5c14 0 25.5 5.66699 34.5 17
s13.5 25.666 13.5 42.999z" />
    <glyph glyph-name="dotaccent" unicode="&#x2d9;" horiz-adv-x="271" 
d="M200 663c0 -18 -6.33301 -33.167 -19 -45.5s-28 -18.5 -46 -18.5c-17.333 0 -32.333 6.16699 -45 18.5s-19 27.5 -19 45.5s6.33301 33.5 19 46.5s27.667 19.5 45 19.5c18 0 33.333 -6.5 46 -19.5s19 -28.5 19 -46.5z" />
    <glyph glyph-name="ring" unicode="&#x2da;" horiz-adv-x="346" 
d="M174 574c-28.667 0 -53 10.167 -73 30.5s-30 44.5 -30 72.5c0 27.333 10 51 30 71s44.333 30 73 30c27.333 0 51 -10 71 -30s30 -43.667 30 -71c0 -28 -10 -52.167 -30 -72.5s-43.667 -30.5 -71 -30.5zM174 646c8.66699 0 15.834 3 21.501 9s8.5 13.333 8.5 22
s-2.83301 15.834 -8.5 21.501s-12.834 8.5 -21.501 8.5s-16 -2.83301 -22 -8.5s-9 -12.834 -9 -21.501s3 -16 9 -22s13.333 -9 22 -9z" />
    <glyph glyph-name="ogonek" unicode="&#x2db;" horiz-adv-x="316" 
d="M234 -128l13.999 -84.999c-17.333 -7.33301 -38.666 -11 -63.999 -11c-39.333 0 -68.833 9.16699 -88.5 27.5s-29.5 43.166 -29.5 74.499c0 46.667 23.333 87.334 70 122.001h112c-22 -15.333 -40.167 -32.833 -54.5 -52.5s-21.5 -37.834 -21.5 -54.501
c0 -18 9.66699 -27 29 -27c12 0 23 2 33 6z" />
    <glyph glyph-name="tilde" unicode="&#x2dc;" horiz-adv-x="456" 
d="M331 718l53 -62c-8 -18 -20.5 -33.333 -37.5 -46s-37.833 -19 -62.5 -19c-16.667 0 -36.334 7.5 -59.001 22.5s-39.667 22.5 -51 22.5c-18.667 0 -34.334 -9.66699 -47.001 -29l-53 62c8 18 20.5 33.333 37.5 46s37.833 19 62.5 19c16.667 0 36.334 -7.5 59.001 -22.5
s39.667 -22.5 51 -22.5c18.667 0 34.334 9.66699 47.001 29z" />
    <glyph glyph-name="hungarumlaut" unicode="&#x2dd;" horiz-adv-x="617" 
d="M539 671l-174 -102l-49 81l168 110zM301 671l-173 -102l-50 81l168 110z" />
    <glyph glyph-name="Omega" unicode="&#x3a9;" horiz-adv-x="690" 
d="M646 0l-238 -0.000976562v239c30.667 16 55.167 38.333 73.5 67s27.5 58 27.5 88v32c0 44 -14.5 84 -43.5 120s-69.167 54 -120.5 54c-52.667 0 -93 -17.5 -121 -52.5s-42 -75.5 -42 -121.5v-32c0 -30.667 8.83301 -60.5 26.5 -89.5s42.5 -51.167 74.5 -66.5v-238h-239
v100h114v61c-36 26.667 -64 59.334 -84 98.001s-30 80 -30 124v54c0 80 27.333 147.167 82 201.5s127.667 81.5 219 81.5c90.667 0 163.5 -27.833 218.5 -83.5s82.5 -122.167 82.5 -199.5v-54c0 -46 -10 -88.333 -30 -127s-48 -71 -84 -97v-59h114v-100z" />
    <glyph glyph-name="pi" unicode="&#x3c0;" horiz-adv-x="734" 
d="M601 0h-136v405h-196v-405h-136v405h-81v118h631v-118h-82v-405z" />
    <glyph glyph-name="afii10023" unicode="&#x401;" horiz-adv-x="533" 
d="M70 0v676h404v-125h-257v-150h216l-6 -120h-210v-156h266v-125h-413zM435 801c0 -18 -6.33301 -33.167 -19 -45.5s-28 -18.5 -46 -18.5c-17.333 0 -32.333 6.16699 -45 18.5s-19 27.5 -19 45.5s6.33301 33.5 19 46.5s27.667 19.5 45 19.5c18 0 33.333 -6.5 46 -19.5
s19 -28.5 19 -46.5zM245 801c0 -18 -6.33301 -33.167 -19 -45.5s-28 -18.5 -46 -18.5c-17.333 0 -32.5 6.16699 -45.5 18.5s-19.5 27.5 -19.5 45.5s6.5 33.5 19.5 46.5s28.167 19.5 45.5 19.5c18 0 33.333 -6.5 46 -19.5s19 -28.5 19 -46.5z" />
    <glyph glyph-name="afii10051" unicode="&#x402;" horiz-adv-x="722" 
d="M387 -6v122.998c0.666992 0 1.66699 -0.166992 3 -0.5s2.33301 -0.5 3 -0.5c20 -3.33301 34.333 -5 43 -5c28 0 50 7.33301 66 22s24 35.667 24 63v26c0 27.333 -8 48.333 -24 63s-38 22 -66 22c-12 0 -29.333 -2 -52 -6s-38.667 -7.66699 -48 -11v-290h-147v551h-164
v125h475v-125h-164v-137c66 12 116.333 18 151 18c52 0 95.833 -16.167 131.5 -48.5s53.5 -76.166 53.5 -131.499v-86c0 -55.333 -17.833 -99.166 -53.5 -131.499s-79.5 -48.5 -131.5 -48.5c-32 0 -65.333 2.66699 -100 8z" />
    <glyph glyph-name="afii10052" unicode="&#x403;" horiz-adv-x="475" 
d="M70 0v676h390v-125h-243v-551h-147zM397 796l-223 -84l-36 83l221 96z" />
    <glyph glyph-name="afii10053" unicode="&#x404;" horiz-adv-x="569" 
d="M496 137l28 -119c-64 -20.667 -129 -31 -195 -31c-82.667 0 -149.334 23.833 -200.001 71.5s-76 116.5 -76 206.5v146c0 90 25.333 158.833 76 206.5s117.334 71.5 200.001 71.5c66 0 131 -10.333 195 -31l-28 -118c-56 17.333 -111.333 26 -166 26
c-86 0 -129.333 -54 -130 -162h214l-11 -120h-203v-3c0 -114 43.333 -171 130 -171c58.667 0 114 9 166 27z" />
    <glyph glyph-name="afii10054" unicode="&#x405;" horiz-adv-x="522" 
d="M35 29l28.001 121.998c70.667 -26 133.667 -39 189 -39c25.333 0 45.5 7 60.5 21s22.5 32.333 22.5 55c0 22 -9.66699 41 -29 57s-42.833 30 -70.5 42s-55.334 25.667 -83.001 41s-51.167 37.5 -70.5 66.5s-29 63.833 -29 104.5c0 57.333 21.667 103.333 65 138
s97.666 52 162.999 52c58 0 122 -14 192 -42l-38 -117c-56.667 22.667 -108 34 -154 34c-50.667 0 -76 -21 -76 -63c0 -20 9.66699 -37.5 29 -52.5s42.833 -28.333 70.5 -40s55.334 -25.167 83.001 -40.5s51.167 -38.166 70.5 -68.499s29 -67.166 29 -110.499
c0 -64 -22.833 -113.667 -68.5 -149s-101.167 -53 -166.5 -53c-68 0 -140.333 14 -217 42z" />
    <glyph glyph-name="afii10055" unicode="&#x406;" horiz-adv-x="287" 
d="M70 0v676h147v-676h-147z" />
    <glyph glyph-name="afii10056" unicode="&#x407;" horiz-adv-x="287" 
d="M70 0v676h147v-676h-147zM304 801c0 -18 -6.33301 -33.167 -19 -45.5s-28 -18.5 -46 -18.5c-17.333 0 -32.333 6.16699 -45 18.5s-19 27.5 -19 45.5s6.33301 33.5 19 46.5s27.667 19.5 45 19.5c18 0 33.333 -6.5 46 -19.5s19 -28.5 19 -46.5zM114 801
c0 -18 -6.33301 -33.167 -19 -45.5s-28 -18.5 -46 -18.5c-17.333 0 -32.5 6.16699 -45.5 18.5s-19.5 27.5 -19.5 45.5s6.5 33.5 19.5 46.5s28.167 19.5 45.5 19.5c18 0 33.333 -6.5 46 -19.5s19 -28.5 19 -46.5z" />
    <glyph glyph-name="afii10057" unicode="&#x408;" horiz-adv-x="484" 
d="M15 23l35.001 116.999c54 -18.667 101 -28 141 -28c57.333 0 86 40.333 86 121v443h147v-446c0 -75.333 -19.833 -134.666 -59.5 -177.999s-95.834 -65 -168.501 -65c-52.667 0 -113 12 -181 36z" />
    <glyph glyph-name="afii10058" unicode="&#x409;" horiz-adv-x="953" 
d="M455 0v553.999h-154c0 -71.333 -2.33301 -134.666 -7 -189.999s-10.667 -102.5 -18 -141.5s-17.833 -72.167 -31.5 -99.5s-27.667 -49.333 -42 -66s-32.666 -29.834 -54.999 -39.501s-43.833 -16.334 -64.5 -20.001s-46 -6.16699 -76 -7.5l-7 122
c26 4.66699 46.667 11.5 62 20.5s30.166 24.5 44.499 46.5s25 53.333 32 94s12.5 93.5 16.5 158.5s6 146.5 6 244.5h441v-250h104c66.667 0 120.334 -20.667 161.001 -62s61 -91.666 61 -150.999s-20.333 -109.666 -61 -150.999s-94.334 -62 -161.001 -62h-251zM701 303.999
h-99v-182h99c23.333 0 42.166 8.33301 56.499 25s21.5 38.667 21.5 66s-7.16699 49.333 -21.5 66s-33.166 25 -56.499 25z" />
    <glyph glyph-name="afii10059" unicode="&#x40a;" horiz-adv-x="923" 
d="M425 0v284h-208v-284h-147v676h147v-270h208v270h147v-270h104c67.333 0 121.166 -19.167 161.499 -57.5s60.5 -86.833 60.5 -145.5s-20.167 -107.167 -60.5 -145.5s-94.166 -57.5 -161.499 -57.5h-251zM671 284l-99 -0.00195312v-162h99c24 0 43 6.83301 57 20.5
s21 33.834 21 60.501s-7 46.834 -21 60.501s-33 20.5 -57 20.5z" />
    <glyph glyph-name="afii10060" unicode="&#x40b;" horiz-adv-x="722" 
d="M672 252v-252.001h-146v222c0 27.333 -8 48.333 -24 63s-38 22 -66 22c-12 0 -29.333 -2 -52 -6s-38.667 -7.66699 -48 -11v-290h-147v551h-164v125h475v-125h-164v-137c66 12 116.333 18 151 18c52 0 95.833 -16.167 131.5 -48.5s53.5 -76.166 53.5 -131.499z" />
    <glyph glyph-name="afii10061" unicode="&#x40c;" horiz-adv-x="616" 
d="M70 0l-0.000976562 676h147v-275l77 24c20.667 6.66699 35.834 15.167 45.501 25.5s17.167 24.833 22.5 43.5l50 182h146l-60 -228c-14 -52 -39.667 -87.667 -77 -107l175 -341h-173l-137 288l-69 -25v-263h-147zM456.999 796l-223 -84l-36 83l221 96z" />
    <glyph glyph-name="afii10062" unicode="&#x40e;" horiz-adv-x="576" 
d="M124 0l-16 122h147c16.667 0 29.5 6.16699 38.5 18.5s15.833 31.833 20.5 58.5l4 24h-50c-110 0 -175 62.667 -195 188l-43 265h146l42 -255c8 -51.333 27.667 -77 59 -77h63l59 332h147l-87 -487c-22 -126 -87 -189 -195 -189h-140zM341 869l89.999 -10
c-3.33301 -40.667 -17.666 -72.5 -42.999 -95.5s-58 -34.5 -98 -34.5s-72.5 11.5 -97.5 34.5s-38.833 54.833 -41.5 95.5l89 10c2 -16.667 7.66699 -30 17 -40s20.333 -15 33 -15c28.667 0 45.667 18.333 51 55z" />
    <glyph glyph-name="afii10145" unicode="&#x40f;" horiz-adv-x="642" 
d="M70 0v676h147v-554h208v554h147v-676h-184v-111l-134 -20v131h-184z" />
    <glyph glyph-name="afii10017" unicode="&#x410;" horiz-adv-x="616" 
d="M20 0l203 676h170l203 -676h-149l-45 163h-188l-45 -163h-149zM247 282l122.001 0.000976562l-35 128c-8 27.333 -16.667 65.666 -26 114.999c-6.66699 -36 -15.334 -74.333 -26.001 -115z" />
    <glyph glyph-name="afii10018" unicode="&#x411;" horiz-adv-x="578" 
d="M217 554v-131h104c66.667 0 120.334 -20.333 161.001 -61s61 -90.334 61 -149.001c0 -59.333 -20.333 -109.666 -61 -150.999s-94.334 -62 -161.001 -62h-251v676h410v-122h-263zM316 301h-98.999v-179h99c23.333 0 42.166 8.33301 56.499 25s21.5 38.667 21.5 66
s-7 48.833 -21 64.5s-33 23.5 -57 23.5z" />
    <glyph glyph-name="afii10019" unicode="&#x412;" horiz-adv-x="583" 
d="M296 0l-226.001 0.00195312v676h221c70.667 0 127 -17.667 169 -53s63 -81 63 -137c0 -60.667 -28.333 -104.334 -85 -131.001c73.333 -26.667 110 -76.334 110 -149.001c0 -58 -23.667 -106.833 -71 -146.5s-107.666 -59.5 -180.999 -59.5zM216.999 406.002h62.999
c30 0 53.167 6.83301 69.5 20.5s24.5 31.167 24.5 52.5c0 22 -7.16699 39.5 -21.5 52.5s-36.166 19.5 -65.499 19.5h-70v-145zM216.998 125.002h77.999c32 0 57.333 7.66699 76 23s28 34.666 28 57.999c0 24.667 -8.16699 44.334 -24.5 59.001s-40.166 22 -71.499 22h-86
v-162z" />
    <glyph glyph-name="afii10020" unicode="&#x413;" horiz-adv-x="475" 
d="M70 0v676h390v-125h-243v-551h-147z" />
    <glyph glyph-name="afii10021" unicode="&#x414;" horiz-adv-x="697" 
d="M229 122h231v432h-148c-5.33301 -86.667 -16 -172.5 -32 -257.5s-33 -143.167 -51 -174.5zM10 122h59.999c30.667 38 56.334 112.667 77.001 224s31.667 221.333 33 330h427v-554h70v-233l-134 -20v131h-399v-111l-134 -20v253z" />
    <glyph glyph-name="afii10022" unicode="&#x415;" horiz-adv-x="533" 
d="M70 0v676h404v-125h-257v-150h216l-6 -120h-210v-156h266v-125h-413z" />
    <glyph glyph-name="afii10024" unicode="&#x416;" horiz-adv-x="875" 
d="M511 0h-147.003v263l-55 21l-116 -284h-173l154 338c-37.333 20 -62.666 55.667 -75.999 107l-60 231h146l50 -185c5.33301 -18.667 12.833 -33.167 22.5 -43.5s24.834 -18.833 45.501 -25.5l62 -21v275h147v-275l62 21c20.667 6.66699 35.834 15.167 45.501 25.5
s17.167 24.833 22.5 43.5l50 185h146l-60 -231c-14 -52 -39.667 -87.667 -77 -107l155 -338h-173l-117 284l-54 -21v-263z" />
    <glyph glyph-name="afii10025" unicode="&#x417;" horiz-adv-x="542" 
d="M497 209c0 -68 -23.166 -122 -69.499 -162s-104.833 -60 -175.5 -60c-33.333 0 -71.333 3.33301 -114 10s-75.334 15 -98.001 25l28 121c62.667 -22 117.334 -33 164.001 -33c35.333 0 64.166 8.66699 86.499 26s33.5 40 33.5 68c0 27.333 -7 47.833 -21 61.5
s-39.333 20.5 -76 20.5h-93l-7 119h77c62 0 93 29.667 93 89c0 20 -6.66699 37 -20 51s-35 21 -65 21c-44 0 -94.333 -11.333 -151 -34l-35 115c70 28 142.333 42 217 42c64 0 114.667 -16.667 152 -50s56 -77.333 56 -132c0 -32 -8.33301 -62.167 -25 -90.5
s-38 -47.5 -64 -57.5c35.333 -10 62 -28 80 -54s27 -58 27 -96z" />
    <glyph glyph-name="afii10026" unicode="&#x418;" horiz-adv-x="652" 
d="M582 676v-676h-147v288c0 36 1.33301 71.333 4 106l-249 -394h-120v676h147v-293c0 -30.667 -1 -65 -3 -103l249 396h119z" />
    <glyph glyph-name="afii10027" unicode="&#x419;" horiz-adv-x="652" 
d="M582 676v-676h-147v288c0 36 1.33301 71.333 4 106l-249 -394h-120v676h147v-293c0 -30.667 -1 -65 -3 -103l249 396h119zM384 869l89.999 -10c-3.33301 -40.667 -17.666 -72.5 -42.999 -95.5s-58 -34.5 -98 -34.5s-72.5 11.5 -97.5 34.5s-38.833 54.833 -41.5 95.5
l89 10c2 -16.667 7.66699 -30 17 -40s20.333 -15 33 -15c28.667 0 45.667 18.333 51 55z" />
    <glyph glyph-name="afii10028" unicode="&#x41a;" horiz-adv-x="616" 
d="M70 0l-0.000976562 676h147v-275l77 24c20.667 6.66699 35.834 15.167 45.501 25.5s17.167 24.833 22.5 43.5l50 182h146l-60 -228c-14 -52 -39.667 -87.667 -77 -107l175 -341h-173l-137 288l-69 -25v-263h-147z" />
    <glyph glyph-name="afii10029" unicode="&#x41b;" horiz-adv-x="672" 
d="M7 -10l-7 122.001c26 4.66699 46.667 11.5 62 20.5s30.166 24.5 44.499 46.5s25 53.333 32 94s12.5 93.5 16.5 158.5s6 146.5 6 244.5h441v-676h-147v554h-154c0 -71.333 -2.33301 -134.666 -7 -189.999s-10.667 -102.5 -18 -141.5s-17.833 -72.167 -31.5 -99.5
s-27.667 -49.333 -42 -66s-32.666 -29.834 -54.999 -39.501s-43.833 -16.334 -64.5 -20.001s-46 -6.16699 -76 -7.5z" />
    <glyph glyph-name="afii10030" unicode="&#x41c;" horiz-adv-x="828" 
d="M35 0l72 676h167l116 -327c5.33301 -15.333 13.333 -44.333 24 -87c7.33301 32.667 15.333 61.667 24 87l116 327h167l72 -676h-146l-29 346c-2 23.333 -4.33301 66.333 -7 129c-12 -51.333 -24 -94 -36 -128l-83 -233h-156l-83 233c-14 40 -26.333 83 -37 129
c-1.33301 -52.667 -3.33301 -96 -6 -130l-29 -346h-146z" />
    <glyph glyph-name="afii10031" unicode="&#x41d;" horiz-adv-x="642" 
d="M70 0v676h147v-271h208v271h147v-676h-147v283h-208v-283h-147z" />
    <glyph glyph-name="afii10032" unicode="&#x41e;" horiz-adv-x="641" 
d="M53 266v143.001c0 89.333 25.167 158.333 75.5 207s114.166 73 191.499 73c78 0 142.167 -24.333 192.5 -73s75.5 -117.667 75.5 -207v-143c0 -90 -25.167 -159 -75.5 -207s-114.5 -72 -192.5 -72c-77.333 0 -141.166 24.167 -191.499 72.5s-75.5 117.166 -75.5 206.499z
M320 112.001c80.667 0 121 55 121 165v122c0 110 -40.333 165 -121 165c-80 0 -120 -55 -120 -165v-122c0 -110 40 -165 120 -165z" />
    <glyph glyph-name="afii10033" unicode="&#x41f;" horiz-adv-x="642" 
d="M70 0v676h502v-676h-147v554h-208v-554h-147z" />
    <glyph glyph-name="afii10034" unicode="&#x420;" horiz-adv-x="558" 
d="M70 0l0.000976562 675.998h241c66 0 119.5 -21.167 160.5 -63.5s61.5 -93.166 61.5 -152.499s-20.333 -109.666 -61 -150.999s-94.334 -62 -161.001 -62h-94v-247h-147zM217.001 368.998h89c23.333 0 42.166 8.33301 56.499 25s21.5 38.667 21.5 66
s-7.16699 49.333 -21.5 66s-33.166 25 -56.499 25h-89v-182z" />
    <glyph glyph-name="afii10035" unicode="&#x421;" horiz-adv-x="569" 
d="M496 139l28 -121c-64 -20.667 -129 -31 -195 -31c-82.667 0 -149.334 23.833 -200.001 71.5s-76 116.5 -76 206.5v146c0 90 25.333 158.833 76 206.5s117.334 71.5 200.001 71.5c66 0 131 -10.333 195 -31l-28 -120c-56 17.333 -111.333 26 -166 26
c-86.667 0 -130 -55 -130 -165v-121c0 -58.667 11.167 -101 33.5 -127s54.5 -39 96.5 -39c58.667 0 114 9 166 27z" />
    <glyph glyph-name="afii10036" unicode="&#x422;" horiz-adv-x="525" 
d="M189 0v551h-164v125h475v-125h-164v-551h-147z" />
    <glyph glyph-name="afii10037" unicode="&#x423;" horiz-adv-x="576" 
d="M124 0l-16 122h147c16.667 0 29.5 6.16699 38.5 18.5s15.833 31.833 20.5 58.5l4 24h-50c-110 0 -175 62.667 -195 188l-43 265h146l42 -255c8 -51.333 27.667 -77 59 -77h63l59 332h147l-87 -487c-22 -126 -87 -189 -195 -189h-140z" />
    <glyph glyph-name="afii10038" unicode="&#x424;" horiz-adv-x="819" 
d="M483 490v-281c104.667 2.66699 157 49.667 157 141c0 93.333 -52.333 140 -157 140zM336 209v281.001c-104.667 -2.66699 -157 -49.334 -157 -140.001c0 -91.333 52.333 -138.333 157 -141zM30 349.001c0 46.667 8.16699 87.334 24.5 122.001
s39.166 61.834 68.499 81.501s61.5 34.334 96.5 44.001s73.833 14.834 116.5 15.501v77h147v-77c42.667 -0.666992 81.5 -5.83398 116.5 -15.501s67.167 -24.167 96.5 -43.5s52.166 -46.333 68.499 -81s24.5 -75.334 24.5 -122.001s-8.16699 -87.334 -24.5 -122.001
s-39.166 -61.834 -68.499 -81.501s-61.5 -34.334 -96.5 -44.001s-73.833 -14.834 -116.5 -15.501v-97h-147v97c-42.667 0.666992 -81.5 5.83398 -116.5 15.501s-67.167 24.167 -96.5 43.5s-52.166 46.333 -68.499 81s-24.5 75.334 -24.5 122.001z" />
    <glyph glyph-name="afii10039" unicode="&#x425;" horiz-adv-x="594" 
d="M15 0l196 352l-175 324h163l98 -187l103 187h159l-175 -321l196 -355h-169l-113 216l-118 -216h-165z" />
    <glyph glyph-name="afii10040" unicode="&#x426;" horiz-adv-x="662" 
d="M70 0v676h147v-554h208v554h147v-554h70v-233l-134 -20v131h-438z" />
    <glyph glyph-name="afii10041" unicode="&#x427;" horiz-adv-x="603" 
d="M50 424v252.001h146v-222c0 -27.333 8 -48.333 24 -63s38 -22 66 -22c12 0 29.333 2 52 6s38.667 7.66699 48 11v290h147v-676h-147v262c-66 -12 -116.333 -18 -151 -18c-52 0 -95.833 16.167 -131.5 48.5s-53.5 76.166 -53.5 131.499z" />
    <glyph glyph-name="afii10042" unicode="&#x428;" horiz-adv-x="907" 
d="M837 0h-767v676h147v-554h163v554h147v-554h163v554h147v-676z" />
    <glyph glyph-name="afii10043" unicode="&#x429;" horiz-adv-x="917" 
d="M773 0h-703v676h147v-554h163v554h147v-554h163v554h147v-554h70v-233l-134 -20v131z" />
    <glyph glyph-name="afii10044" unicode="&#x42a;" horiz-adv-x="660" 
d="M309 676l-0.000976562 -250h104c66.667 0 120.334 -20.333 161.001 -61s61 -90.334 61 -149.001c0 -59.333 -20.5 -110.166 -61.5 -152.499s-94.5 -63.5 -160.5 -63.5h-251v554h-137v122h284zM407.999 304h-99v-182h99c23.333 0 42.166 8.33301 56.499 25
s21.5 38.667 21.5 66s-7.16699 49.333 -21.5 66s-33.166 25 -56.499 25z" />
    <glyph glyph-name="afii10045" unicode="&#x42b;" horiz-adv-x="817" 
d="M70 0v675.998h147v-250h94c66.667 0 120.334 -20.667 161.001 -62s61 -91.666 61 -150.999s-20.333 -109.666 -61 -150.999s-94.334 -62 -161.001 -62h-241zM306 303.998h-89v-182h89c23.333 0 42.166 8.33301 56.499 25s21.5 38.667 21.5 66s-7.16699 49.333 -21.5 66
s-33.166 25 -56.499 25zM600 -0.00195312v676h147v-676h-147z" />
    <glyph glyph-name="afii10046" unicode="&#x42c;" horiz-adv-x="568" 
d="M70 0v675.998h147v-250h104c66.667 0 120.334 -20.667 161.001 -62s61 -91.666 61 -150.999s-20.333 -109.666 -61 -150.999s-94.334 -62 -161.001 -62h-251zM316 303.998h-99v-182h99c23.333 0 42.166 8.33301 56.499 25s21.5 38.667 21.5 66s-7.16699 49.333 -21.5 66
s-33.166 25 -56.499 25z" />
    <glyph glyph-name="afii10047" unicode="&#x42d;" horiz-adv-x="569" 
d="M45 18l28 119c52 -18 107.333 -27 166 -27c86.667 0 130 57 130 171v3h-203l-11 120h214c-0.666992 108 -44 162 -130 162c-54.667 0 -110 -8.66699 -166 -26l-28 118c64 20.667 129 31 195 31c82.667 0 149.334 -23.833 200.001 -71.5s76 -116.5 76 -206.5v-146
c0 -90 -25.333 -158.833 -76 -206.5s-117.334 -71.5 -200.001 -71.5c-66 0 -131 10.333 -195 31z" />
    <glyph glyph-name="afii10048" unicode="&#x42e;" horiz-adv-x="871" 
d="M313 266l0.000976562 17h-96v-283h-147v676h147v-271h96v4c0 90 23.5 159.167 70.5 207.5s107.5 72.5 181.5 72.5c74.667 0 135.5 -24.167 182.5 -72.5s70.5 -117.5 70.5 -207.5v-143c0 -90 -23.5 -159 -70.5 -207s-107.833 -72 -182.5 -72s-135.334 24 -182.001 72
s-70 117 -70 207zM565.001 112c34.667 0 61 12.6689 79 38.002s27 67.666 27 126.999v122c0 110 -35.333 165 -106 165c-34.667 0 -60.834 -12.833 -78.501 -38.5s-26.5 -67.834 -26.5 -126.501v-122c0 -60 8.83301 -102.5 26.5 -127.5s43.834 -37.5 78.501 -37.5z" />
    <glyph glyph-name="afii10049" unicode="&#x42f;" horiz-adv-x="575" 
d="M505 676v-676h-147v247h-56l-108 -247h-164l126 268c-37.333 16.667 -66.333 42.334 -87 77.001s-31 73 -31 115c0 59.333 20.5 110.166 61.5 152.499s94.5 63.5 160.5 63.5h245zM267 369h90.999v182h-91c-23.333 0 -42.666 -8.5 -57.999 -25.5s-23 -38.833 -23 -65.5
c0 -27.333 7.5 -49.333 22.5 -66s34.5 -25 58.5 -25z" />
    <glyph glyph-name="afii10065" unicode="&#x430;" horiz-adv-x="510" 
d="M38 167c0 53.333 18.3311 93.668 54.998 121.001s86.334 41 149.001 41h65v12c0 24 -5.66699 42.333 -17 55s-27.333 19 -48 19c-41.333 0 -89.666 -8.66699 -144.999 -26l-31 113c73.333 22.667 132 34 176 34c62 0 112.167 -18 150.5 -54s57.5 -83 57.5 -141v-174v-167
h-123l-9 29c-21.333 -28 -54.666 -42 -99.999 -42c-56.667 0 -100.834 16.667 -132.501 50s-47.5 76.666 -47.5 129.999zM182.998 168.002c0 -16 5.00098 -30 15.001 -42s25.333 -18 46 -18c19.333 0 34.666 6.16699 45.999 18.5s17 25.833 17 40.5v62h-66
c-38.667 0 -58 -20.333 -58 -61z" />
    <glyph glyph-name="afii10066" unicode="&#x431;" horiz-adv-x="554" 
d="M195 483c30.667 22 67.668 33.001 111.001 33.001c56.667 0 104.167 -18.333 142.5 -55s57.5 -89 57.5 -157v-88c0 -70 -20.667 -125.667 -62 -167s-95 -62 -161 -62s-119.667 20.667 -161 62s-62 97 -62 167v232c0 45.333 5.66699 84.333 17 117
s28.166 58.667 50.499 78s46.5 34.333 72.5 45s57 19 93 25l196 32v-117l-186 -32c-72 -12.667 -108 -50.334 -108 -113.001zM202.001 221.001c0 -75.333 27 -113 81 -113s81 37.667 81 113v61c0 75.333 -27 113 -81 113s-81 -37.667 -81 -113v-61z" />
    <glyph glyph-name="afii10067" unicode="&#x432;" horiz-adv-x="540" 
d="M335 171c0 16.667 -5.50098 30.5 -16.501 41.5s-27.5 16.5 -49.5 16.5h-66v-116h66c20.667 0 36.834 5.83301 48.501 17.5s17.5 25.167 17.5 40.5zM280.999 523c60 0 106.5 -11.835 139.5 -35.502s49.5 -59.167 49.5 -106.5c0 -49.333 -23 -84.666 -69 -105.999
c59.333 -21.333 89 -61.666 89 -120.999c0 -52 -20.667 -90.667 -62 -116s-94 -38 -158 -38h-210v341v182h221zM202.999 325.998h51.001c23.333 0 41.666 4.83301 54.999 14.5s20 22.5 20 38.5c0 32.667 -23.333 49 -70 49h-56v-102z" />
    <glyph glyph-name="afii10068" unicode="&#x433;" horiz-adv-x="390" 
d="M60 0v523h321v-118h-179v-405h-142z" />
    <glyph glyph-name="afii10069" unicode="&#x434;" horiz-adv-x="589" 
d="M10 118h56.001l51 217c14 60 35.667 106.333 65 139s72.666 49 129.999 49h202v-405h56v-206l-120 -17v105h-320v-88l-120 -17v223zM263.001 325l-49 -207h157v287h-39c-34 0 -57 -26.667 -69 -80z" />
    <glyph glyph-name="afii10070" unicode="&#x435;" horiz-adv-x="518" 
d="M48 213v102c0 69.333 20.167 123.5 60.5 162.5s91.166 58.5 152.499 58.5c60 0 110.667 -19 152 -57s62 -86.333 62 -145v-114h-285v-7c0 -70 30.667 -105 92 -105c44 0 91.667 8.33301 143 25l28 -115c-56 -20.667 -113 -31 -171 -31
c-71.333 0 -128.166 19.667 -170.499 59s-63.5 95 -63.5 167zM190 320h142v14c0 23.333 -6.33301 42.666 -19 57.999s-30 23 -52 23c-20.667 0 -37.667 -7.66699 -51 -23s-20 -34.666 -20 -57.999v-14z" />
    <glyph glyph-name="afii10072" unicode="&#x436;" horiz-adv-x="747" 
d="M445 0h-143v198l-35 9l-98 -207h-158l132 255c-16.667 10 -29.667 23.5 -39 40.5s-17.666 40.167 -24.999 69.5l-41 158h139l31 -125c7.33301 -30 19.666 -48 36.999 -54l57 -16v195h143v-195l57 16c17.333 6 29.666 24 36.999 54l31 125h139l-41 -158
c-7.33301 -29.333 -15.666 -52.5 -24.999 -69.5s-22.333 -30.5 -39 -40.5l132 -255h-158l-98 207l-35 -9v-198z" />
    <glyph glyph-name="afii10073" unicode="&#x437;" horiz-adv-x="481" 
d="M433 165c0 -56 -18.666 -99.668 -55.999 -131.001s-89.333 -47 -156 -47c-26 0 -57.833 2.83301 -95.5 8.5s-66.167 12.834 -85.5 21.501l25 116c48.667 -17.333 94 -26 136 -26c25.333 0 46 4.66699 62 14s24 22.666 24 39.999s-4.66699 30.333 -14 39s-26 13 -50 13
h-75l-9 109h67c40.667 0 61 18 61 54c0 11.333 -5 20.833 -15 28.5s-25 11.5 -45 11.5c-36.667 0 -78.667 -9 -126 -27l-31 111c62 24 127.333 36 196 36c55.333 0 98.166 -12.833 128.499 -38.5s45.5 -58.834 45.5 -99.501c0 -28.667 -7 -53.167 -21 -73.5
s-30.333 -34.166 -49 -41.499c23.333 -7.33301 43 -22.166 59 -44.499s24 -46.833 24 -73.5z" />
    <glyph glyph-name="afii10074" unicode="&#x438;" horiz-adv-x="570" 
d="M505 523v-523h-141v193c0 18 1.66699 52 5 102l-184 -295h-120v523h141v-197c0 -17.333 -1.66699 -50.333 -5 -99l185 296h119z" />
    <glyph glyph-name="afii10075" unicode="&#x439;" horiz-adv-x="570" 
d="M505 523v-523h-141v193c0 18 1.66699 52 5 102l-184 -295h-120v523h141v-197c0 -17.333 -1.66699 -50.333 -5 -99l185 296h119zM332 736l90 -10c-0.666992 -40 -14.167 -71.667 -40.5 -95s-58.833 -35 -97.5 -35c-38 0 -70 11.667 -96 35s-39.333 55 -40 95l89 10
c2 -16.667 7.16699 -30 15.5 -40s18.833 -15 31.5 -15c26.667 0 42.667 18.333 48 55z" />
    <glyph glyph-name="afii10076" unicode="&#x43a;" horiz-adv-x="520" 
d="M65 0v523h143v-195l67 16c17.333 6 29.666 24 36.999 54l31 125h139l-41 -158c-7.33301 -29.333 -15.666 -52.5 -24.999 -69.5s-22.333 -30.5 -39 -40.5l132 -255h-158l-98 207l-45 -9v-198h-143z" />
    <glyph glyph-name="afii10077" unicode="&#x43b;" horiz-adv-x="537" 
d="M17 0l68.001 335c12 59.333 33.167 105.5 63.5 138.5s74.166 49.5 131.499 49.5h192v-523h-143v405h-29c-34.667 0 -57.667 -26.667 -69 -80l-67 -325h-147z" />
    <glyph glyph-name="afii10078" unicode="&#x43c;" horiz-adv-x="710" 
d="M88 523h179l88 -279l89 279h179l52 -523h-145l-27 327l-77 -239h-141l-78 240l-27 -328h-145z" />
    <glyph glyph-name="afii10079" unicode="&#x43d;" horiz-adv-x="559" 
d="M351 523h143v-523h-143v213h-143v-213h-143v523h143v-192h143v192z" />
    <glyph glyph-name="afii10080" unicode="&#x43e;" horiz-adv-x="542" 
d="M48 216v91c0 70 20.667 125.667 62 167s95 62 161 62s119.667 -20.667 161 -62s62 -97 62 -167v-91c0 -70 -20.667 -125.667 -62 -167s-95 -62 -161 -62s-119.667 20.667 -161 62s-62 97 -62 167zM190 221c0 -75.333 27 -113 81 -113s81 37.667 81 113v81
c0 75.333 -27 113 -81 113s-81 -37.667 -81 -113v-81z" />
    <glyph glyph-name="afii10081" unicode="&#x43f;" horiz-adv-x="558" 
d="M208 405v-405h-143v523h428v-523h-143v405h-142z" />
    <glyph glyph-name="afii10082" unicode="&#x440;" horiz-adv-x="552" 
d="M208 126c30 -12 55.333 -18 76 -18c51.333 0 77 34.667 77 104v100c0 33.333 -7 58.833 -21 76.5s-32.333 26.5 -55 26.5s-41.167 -8.83301 -55.5 -26.5s-21.5 -43.167 -21.5 -76.5v-186zM319 536c54.667 0 99.165 -19.5 133.498 -58.5s51.5 -92.5 51.5 -160.5v-110
c0 -70 -20.167 -124.167 -60.5 -162.5s-89.166 -57.5 -146.499 -57.5c-31.333 0 -61 8 -89 24v-222h-143v734h117l15 -45c15.333 19.333 31.833 33.833 49.5 43.5s41.834 14.5 72.501 14.5z" />
    <glyph glyph-name="afii10083" unicode="&#x441;" horiz-adv-x="466" 
d="M48 216v90.998c0 77.333 20.833 134.833 62.5 172.5s97.834 56.5 168.501 56.5c48.667 0 99.667 -8.33301 153 -25l-30 -116c-46 13.333 -84.333 20 -115 20c-32 0 -56 -8.16699 -72 -24.5s-24 -44.166 -24 -83.499v-91c0 -39.333 8 -67.166 24 -83.499
s40 -24.5 72 -24.5c30.667 0 69 6.66699 115 20l31 -116c-56.667 -16.667 -108 -25 -154 -25c-70.667 0 -126.834 18.833 -168.501 56.5s-62.5 95.167 -62.5 172.5z" />
    <glyph glyph-name="afii10084" unicode="&#x442;" horiz-adv-x="443" 
d="M150 0v405h-125v118h393v-118h-125v-405h-143z" />
    <glyph glyph-name="afii10085" unicode="&#x443;" horiz-adv-x="515" 
d="M73 188l-48 335h142l47 -325c8 -51.333 27.667 -77 59 -77h24l50 402h143l-99 -734h-140l29 211h-12c-111.333 0 -176.333 62.667 -195 188z" />
    <glyph glyph-name="afii10086" unicode="&#x444;" horiz-adv-x="791" 
d="M600 212v100c0 36.667 -5.5 63 -16.5 79s-27.833 24 -50.5 24c-14 0 -36 -6 -66 -18v-271c30 -12 52 -18 66 -18c44.667 0 67 34.667 67 104zM191 312v-100c0 -69.333 22.333 -104 67 -104c14 0 36 6 66 18v271c-30 12 -52 18 -66 18c-22.667 0 -39.5 -8 -50.5 -24
s-16.5 -42.333 -16.5 -79zM467 -211h-142.999v222c-28 -16 -60 -24 -96 -24c-54.667 0 -98.334 18.667 -131.001 56s-49 92 -49 164v109c0 70 18.167 124.167 54.5 162.5s79.833 57.5 130.5 57.5c32.667 0 63 -8 91 -24v213l143 20v-233c28 16 59.333 24 94 24
c49.333 0 92 -19.167 128 -57.5s54 -92.5 54 -162.5v-109c0 -71.333 -16.833 -125.833 -50.5 -163.5s-78.167 -56.5 -133.5 -56.5c-33.333 0 -64 8 -92 24v-222z" />
    <glyph glyph-name="afii10087" unicode="&#x445;" horiz-adv-x="502" 
d="M10 0l159 268l-146 255h157l72 -130l75 130h153l-146 -251l159 -272h-161l-81 147l-84 -147h-157z" />
    <glyph glyph-name="afii10088" unicode="&#x446;" horiz-adv-x="568" 
d="M208 523v-405h142v405h143v-405h56v-211l-120 -17v110h-364v523h143z" />
    <glyph glyph-name="afii10089" unicode="&#x447;" horiz-adv-x="527" 
d="M48 315v208h139v-165c0 -44 21.667 -66 65 -66c22.667 0 45 4.66699 67 14v217h143v-523h-143v190c-52.667 -9.33301 -93.667 -14 -123 -14c-40.667 0 -75.5 12.667 -104.5 38s-43.5 59 -43.5 101z" />
    <glyph glyph-name="afii10090" unicode="&#x448;" horiz-adv-x="791" 
d="M726 523v-523h-661v523h143v-405h116v405h143v-405h116v405h143z" />
    <glyph glyph-name="afii10091" unicode="&#x449;" horiz-adv-x="801" 
d="M583 523h143v-405h56v-211l-120 -17v110h-597v523h143v-405h116v405h143v-405h116v405z" />
    <glyph glyph-name="afii10092" unicode="&#x44a;" horiz-adv-x="568" 
d="M540 175c0 -56 -19.168 -99.167 -57.501 -129.5s-87.833 -45.5 -148.5 -45.5h-216v413h-98v110h241v-185h75c62.667 0 112.334 -13.5 149.001 -40.5s55 -67.833 55 -122.5zM394.999 171c0 39.333 -19.333 59 -58 59h-76v-117h73c40.667 0 61 19.333 61 58z" />
    <glyph glyph-name="afii10093" unicode="&#x44b;" horiz-adv-x="740" 
d="M532 0v523h143v-523h-143zM487 175c0 -56 -19.168 -99.167 -57.501 -129.5s-87.833 -45.5 -148.5 -45.5h-216v523h143v-185h75c62.667 0 112.334 -13.5 149.001 -40.5s55 -67.833 55 -122.5zM341.999 171c0 39.333 -19.333 59 -58 59h-76v-117h73
c40.667 0 61 19.333 61 58z" />
    <glyph glyph-name="afii10094" unicode="&#x44c;" horiz-adv-x="515" 
d="M487 175c0 -56 -19.168 -99.167 -57.501 -129.5s-87.833 -45.5 -148.5 -45.5h-216v523h143v-185h75c62.667 0 112.334 -13.5 149.001 -40.5s55 -67.833 55 -122.5zM341.999 171c0 39.333 -19.333 59 -58 59h-76v-117h73c40.667 0 61 19.333 61 58z" />
    <glyph glyph-name="afii10095" unicode="&#x44d;" horiz-adv-x="466" 
d="M418 307l0.000976562 -91c0 -77.333 -20.833 -134.833 -62.5 -172.5s-97.834 -56.5 -168.501 -56.5c-46 0 -97.333 8.33301 -154 25l31 113c46 -13.333 84.333 -20 115 -20c63.333 0 95.333 36.333 96 109h-136l-10 116h145c-6.66699 58.667 -38.334 88 -95.001 88
c-30.667 0 -69 -6.66699 -115 -20l-30 113c53.333 16.667 104.333 25 153 25c70.667 0 126.834 -18.833 168.501 -56.5s62.5 -95.167 62.5 -172.5z" />
    <glyph glyph-name="afii10096" unicode="&#x44e;" horiz-adv-x="772" 
d="M65 523h143.001v-192h81c4.66699 63.333 26.667 113.333 66 150s89.666 55 150.999 55c65.333 0 118 -20.5 158 -61.5s60 -96.833 60 -167.5v-91c0 -70.667 -20 -126.5 -60 -167.5s-92.667 -61.5 -158 -61.5c-64.667 0 -117 20.333 -157 61s-60.333 95.667 -61 165h-80
v-213h-143v523zM430.001 221c0 -37.333 5.5 -65.5 16.5 -84.5s30.833 -28.5 59.5 -28.5s48.5 9.5 59.5 28.5s16.5 47.167 16.5 84.5v81c0 37.333 -5.5 65.5 -16.5 84.5s-30.833 28.5 -59.5 28.5s-48.5 -9.5 -59.5 -28.5s-16.5 -47.167 -16.5 -84.5v-81z" />
    <glyph glyph-name="afii10097" unicode="&#x44f;" horiz-adv-x="510" 
d="M38 353c0 55.333 19 97.499 57 126.499s87.667 43.5 149 43.5h206v-523h-143v188h-45l-76 -188h-158l97 210c-58 26.667 -87 74.334 -87 143.001zM183 351.999c0 -42.667 19.333 -64 58 -64h66v127h-63c-20.667 0 -36 -6 -46 -18s-15 -27 -15 -45z" />
    <glyph glyph-name="afii10071" unicode="&#x451;" horiz-adv-x="518" 
d="M48 213v102c0 69.333 20.167 123.5 60.5 162.5s91.166 58.5 152.499 58.5c60 0 110.667 -19 152 -57s62 -86.333 62 -145v-114h-285v-7c0 -70 30.667 -105 92 -105c44 0 91.667 8.33301 143 25l28 -115c-56 -20.667 -113 -31 -171 -31
c-71.333 0 -128.166 19.667 -170.499 59s-63.5 95 -63.5 167zM190 320h142v14c0 23.333 -6.33301 42.666 -19 57.999s-30 23 -52 23c-20.667 0 -37.667 -7.66699 -51 -23s-20 -34.666 -20 -57.999v-14zM419 663c0 -18 -6.33301 -33.167 -19 -45.5s-28 -18.5 -46 -18.5
c-17.333 0 -32.333 6.16699 -45 18.5s-19 27.5 -19 45.5s6.33301 33.5 19 46.5s27.667 19.5 45 19.5c18 0 33.333 -6.5 46 -19.5s19 -28.5 19 -46.5zM229 663c0 -18 -6.33301 -33.167 -19 -45.5s-28 -18.5 -46 -18.5c-17.333 0 -32.5 6.16699 -45.5 18.5
s-19.5 27.5 -19.5 45.5s6.5 33.5 19.5 46.5s28.167 19.5 45.5 19.5c18 0 33.333 -6.5 46 -19.5s19 -28.5 19 -46.5z" />
    <glyph glyph-name="afii10099" unicode="&#x452;" horiz-adv-x="555" 
d="M352 -222l0.000976562 541.001c0 35.333 -5.66699 60.166 -17 74.499s-28.333 21.5 -51 21.5c-20.667 0 -46 -6 -76 -18v-397h-143v587h-40v95h40v50h143v-50h79v-95h-79v-75c29.333 16 59 24 89 24c57.333 0 104.666 -17.333 141.999 -52s56 -87 56 -157v-529z" />
    <glyph glyph-name="afii10100" unicode="&#x453;" horiz-adv-x="390" 
d="M60 0v523h321v-118h-179v-405h-142zM345 658l-223 -84l-36 83l221 96z" />
    <glyph glyph-name="afii10101" unicode="&#x454;" horiz-adv-x="466" 
d="M48 216l0.000976562 91c0 77.333 20.833 134.833 62.5 172.5s97.834 56.5 168.501 56.5c48.667 0 99.667 -8.33301 153 -25l-30 -113c-46 13.333 -84.333 20 -115 20c-56.667 0 -88.334 -29.333 -95.001 -88h145l-10 -116h-136c0.666992 -72.667 32.667 -109 96 -109
c30.667 0 69 6.66699 115 20l31 -113c-56.667 -16.667 -108 -25 -154 -25c-70.667 0 -126.834 18.833 -168.501 56.5s-62.5 95.167 -62.5 172.5z" />
    <glyph glyph-name="afii10102" unicode="&#x455;" horiz-adv-x="432" 
d="M28 19l27.998 113.998c46.667 -16.667 92.334 -25 137.001 -25c18 0 33 3.83301 45 11.5s18 17.167 18 28.5c0 14 -7.33301 25.833 -22 35.5s-32.334 18.834 -53.001 27.501s-41.5 18.667 -62.5 30s-38.833 28.833 -53.5 52.5s-22 52.167 -22 85.5
c0 46 17.667 83.667 53 113s82 44 140 44c47.333 0 94.666 -8.33301 141.999 -25l-30 -117c-44.667 14 -82 21 -112 21c-32 0 -48 -12 -48 -36c0 -13.333 7.33301 -24.666 22 -33.999s32.334 -18 53.001 -26s41.334 -17.667 62.001 -29s38.334 -29 53.001 -53s22 -53 22 -87
c0 -44.667 -18 -83 -54 -115s-87 -48 -153 -48c-51.333 0 -106.333 10.667 -165 32z" />
    <glyph glyph-name="afii10103" unicode="&#x456;" horiz-adv-x="273" 
d="M136 592c-22 0 -41 7.66699 -57 23s-24 34 -24 56s8 40.5 24 55.5s35 22.5 57 22.5s41 -7.5 57 -22.5s24 -33.5 24 -55.5c0 -21.333 -8 -39.833 -24 -55.5s-35 -23.5 -57 -23.5zM65 0v523h143v-523h-143z" />
    <glyph glyph-name="afii10104" unicode="&#x457;" horiz-adv-x="273" 
d="M297 663c0 -18 -6.33301 -33.167 -19 -45.5s-28 -18.5 -46 -18.5c-17.333 0 -32.333 6.16699 -45 18.5s-19 27.5 -19 45.5s6.33301 33.5 19 46.5s27.667 19.5 45 19.5c18 0 33.333 -6.5 46 -19.5s19 -28.5 19 -46.5zM107 663c0 -18 -6.33301 -33.167 -19 -45.5
s-28 -18.5 -46 -18.5c-17.333 0 -32.5 6.16699 -45.5 18.5s-19.5 27.5 -19.5 45.5s6.5 33.5 19.5 46.5s28.167 19.5 45.5 19.5c18 0 33.333 -6.5 46 -19.5s19 -28.5 19 -46.5zM208 0h-143v523h143v-523z" />
    <glyph glyph-name="afii10105" unicode="&#x458;" horiz-adv-x="273" 
d="M136 592c-22 0 -41 7.66699 -57 23s-24 34 -24 56s8 40.5 24 55.5s35 22.5 57 22.5s41 -7.5 57 -22.5s24 -33.5 24 -55.5c0 -21.333 -8 -39.833 -24 -55.5s-35 -23.5 -57 -23.5zM65 -222v745h143v-725z" />
    <glyph glyph-name="afii10106" unicode="&#x459;" horiz-adv-x="779" 
d="M751 175c0 -56 -19.167 -99.167 -57.5 -129.5s-87.833 -45.5 -148.5 -45.5h-216v405h-29c-34.667 0 -57.667 -26.667 -69 -80l-67 -325h-147l68 335c12 59.333 33.167 105.5 63.5 138.5s74.166 49.5 131.499 49.5h192v-185h75c62.667 0 112.334 -13.5 149.001 -40.5
s55 -67.833 55 -122.5zM606 171c0 39.333 -19.333 59 -58 59h-76v-117h73c40.667 0 61 19.333 61 58z" />
    <glyph glyph-name="afii10107" unicode="&#x45a;" horiz-adv-x="801" 
d="M773 175c0 -56 -19.168 -99.167 -57.501 -129.5s-87.833 -45.5 -148.5 -45.5h-216v220h-143v-220h-143v523h143v-185h143v185h143v-185h75c62.667 0 112.334 -13.5 149.001 -40.5s55 -67.833 55 -122.5zM627.999 171c0 39.333 -19.333 59 -58 59h-76v-117h73
c40.667 0 61 19.333 61 58z" />
    <glyph glyph-name="afii10108" unicode="&#x45b;" horiz-adv-x="555" 
d="M495 0l-142.999 0.000976562v319c0 35.333 -5.66699 60.166 -17 74.499s-28.333 21.5 -51 21.5c-20.667 0 -46 -6 -76 -18v-397h-143v587h-40v95h40v50h143v-50h79v-95h-79v-75c29.333 16 59 24 89 24c57.333 0 104.666 -17.333 141.999 -52s56 -87 56 -157v-327z" />
    <glyph glyph-name="afii10109" unicode="&#x45c;" horiz-adv-x="520" 
d="M65 0v523h143v-195l67 16c17.333 6 29.666 24 36.999 54l31 125h139l-41 -158c-7.33301 -29.333 -15.666 -52.5 -24.999 -69.5s-22.333 -30.5 -39 -40.5l132 -255h-158l-98 207l-45 -9v-198h-143zM409 658l-223 -84l-36 83l221 96z" />
    <glyph glyph-name="afii10110" unicode="&#x45e;" horiz-adv-x="515" 
d="M73 188l-48 335h142l47 -325c8 -51.333 27.667 -77 59 -77h24l50 402h143l-99 -734h-140l29 211h-12c-111.333 0 -176.333 62.667 -195 188zM309 736l90 -10c-0.666992 -40 -14.167 -71.667 -40.5 -95s-58.833 -35 -97.5 -35c-38 0 -70 11.667 -96 35s-39.333 55 -40 95
l89 10c2 -16.667 7.16699 -30 15.5 -40s18.833 -15 31.5 -15c26.667 0 42.667 18.333 48 55z" />
    <glyph glyph-name="afii10193" unicode="&#x45f;" horiz-adv-x="558" 
d="M208 523v-405h142v405h143v-523h-154v-93l-120 -17v110h-154v523h143z" />
    <glyph glyph-name="afii10050" unicode="&#x490;" horiz-adv-x="475" 
d="M70 0v676h256v84l134 20v-229h-243v-551h-147z" />
    <glyph glyph-name="afii10098" unicode="&#x491;" horiz-adv-x="390" 
d="M381 405h-179v-405h-142v523h201v79l120 17v-214z" />
    <glyph glyph-name="Wgrave" unicode="&#x1e80;" horiz-adv-x="849" 
d="M517 712l-223 84l38 95l221 -96zM145 0l-109.999 676h150l42 -343c3.33301 -26.667 7 -76.667 11 -150c12.667 68.667 24 118.334 34 149.001l73 235h157l75 -235c11.333 -36 22.666 -84.667 33.999 -146c4 72 7.66699 121 11 147l42 343h150l-110 -676h-163l-96 318
c-6.66699 23.333 -13.667 55 -21 95c-5.33301 -36.667 -12 -68.334 -20 -95.001l-96 -318h-163z" />
    <glyph glyph-name="wgrave" unicode="&#x1e81;" horiz-adv-x="795" 
d="M491 574l-223 84l38 95l221 -96zM65 180l-24.998 343h142l24 -333c3.33301 -53.333 24 -80 62 -80c18.667 0 33.167 7.66699 43.5 23s15.5 34.666 15.5 57.999v298h139v-298c0 -23.333 5.16699 -42.666 15.5 -57.999s24.833 -23 43.5 -23c37.333 0 58.333 26.667 63 80
l25 333h142l-27 -343c-4.66699 -60.667 -25 -108 -61 -142s-82.667 -51 -140 -51c-58.667 0 -102.334 23 -131.001 69c-28.667 -46 -72.334 -69 -131.001 -69c-56 0 -102.167 17.333 -138.5 52s-56.833 81.667 -61.5 141z" />
    <glyph glyph-name="Wacute" unicode="&#x1e82;" horiz-adv-x="849" 
d="M553 796l-223 -84l-36 83l221 96zM145 0l-109.999 676h150l42 -343c3.33301 -26.667 7 -76.667 11 -150c12.667 68.667 24 118.334 34 149.001l73 235h157l75 -235c11.333 -36 22.666 -84.667 33.999 -146c4 72 7.66699 121 11 147l42 343h150l-110 -676h-163l-96 318
c-6.66699 23.333 -13.667 55 -21 95c-5.33301 -36.667 -12 -68.334 -20 -95.001l-96 -318h-163z" />
    <glyph glyph-name="wacute" unicode="&#x1e83;" horiz-adv-x="795" 
d="M527 658l-223 -84l-36 83l221 96zM65 180l-24.998 343h142l24 -333c3.33301 -53.333 24 -80 62 -80c18.667 0 33.167 7.66699 43.5 23s15.5 34.666 15.5 57.999v298h139v-298c0 -23.333 5.16699 -42.666 15.5 -57.999s24.833 -23 43.5 -23c37.333 0 58.333 26.667 63 80
l25 333h142l-27 -343c-4.66699 -60.667 -25 -108 -61 -142s-82.667 -51 -140 -51c-58.667 0 -102.334 23 -131.001 69c-28.667 -46 -72.334 -69 -131.001 -69c-56 0 -102.167 17.333 -138.5 52s-56.833 81.667 -61.5 141z" />
    <glyph glyph-name="Wdieresis" unicode="&#x1e84;" horiz-adv-x="849" 
d="M584 801c0 -18 -6.33301 -33.167 -19 -45.5s-28 -18.5 -46 -18.5c-17.333 0 -32.333 6.16699 -45 18.5s-19 27.5 -19 45.5s6.33301 33.5 19 46.5s27.667 19.5 45 19.5c18 0 33.333 -6.5 46 -19.5s19 -28.5 19 -46.5zM394 801c0 -18 -6.33301 -33.167 -19 -45.5
s-28 -18.5 -46 -18.5c-17.333 0 -32.5 6.16699 -45.5 18.5s-19.5 27.5 -19.5 45.5s6.5 33.5 19.5 46.5s28.167 19.5 45.5 19.5c18 0 33.333 -6.5 46 -19.5s19 -28.5 19 -46.5zM145 0l-109.999 676h150l42 -343c3.33301 -26.667 7 -76.667 11 -150
c12.667 68.667 24 118.334 34 149.001l73 235h157l75 -235c11.333 -36 22.666 -84.667 33.999 -146c4 72 7.66699 121 11 147l42 343h150l-110 -676h-163l-96 318c-6.66699 23.333 -13.667 55 -21 95c-5.33301 -36.667 -12 -68.334 -20 -95.001l-96 -318h-163z" />
    <glyph glyph-name="wdieresis" unicode="&#x1e85;" horiz-adv-x="795" 
d="M557 663c0 -18 -6.33301 -33.167 -19 -45.5s-28 -18.5 -46 -18.5c-17.333 0 -32.333 6.16699 -45 18.5s-19 27.5 -19 45.5s6.33301 33.5 19 46.5s27.667 19.5 45 19.5c18 0 33.333 -6.5 46 -19.5s19 -28.5 19 -46.5zM367 663c0 -18 -6.33301 -33.167 -19 -45.5
s-28 -18.5 -46 -18.5c-17.333 0 -32.5 6.16699 -45.5 18.5s-19.5 27.5 -19.5 45.5s6.5 33.5 19.5 46.5s28.167 19.5 45.5 19.5c18 0 33.333 -6.5 46 -19.5s19 -28.5 19 -46.5zM65 180l-24.998 343h142l24 -333c3.33301 -53.333 24 -80 62 -80
c18.667 0 33.167 7.66699 43.5 23s15.5 34.666 15.5 57.999v298h139v-298c0 -23.333 5.16699 -42.666 15.5 -57.999s24.833 -23 43.5 -23c37.333 0 58.333 26.667 63 80l25 333h142l-27 -343c-4.66699 -60.667 -25 -108 -61 -142s-82.667 -51 -140 -51
c-58.667 0 -102.334 23 -131.001 69c-28.667 -46 -72.334 -69 -131.001 -69c-56 0 -102.167 17.333 -138.5 52s-56.833 81.667 -61.5 141z" />
    <glyph glyph-name="Ygrave" unicode="&#x1ef2;" horiz-adv-x="579" 
d="M382 712l-223 84l38 95l221 -96zM216 0v257l-201 419h158l116 -268l117 268h158l-201 -419v-257h-147z" />
    <glyph glyph-name="ygrave" unicode="&#x1ef3;" horiz-adv-x="510" 
d="M360 574l-223 84l38 95l221 -96zM68 188l-48 335h142l47 -325c8 -51.333 27.667 -77 59 -77h24l50 402h143l-99 -734h-140l29 211h-12c-111.333 0 -176.333 62.667 -195 188z" />
    <glyph glyph-name="endash" unicode="&#x2013;" horiz-adv-x="500" 
d="M500 211h-500v118h500v-118z" />
    <glyph glyph-name="emdash" unicode="&#x2014;" horiz-adv-x="1000" 
d="M1000 211h-1000v118h1000v-118z" />
    <glyph glyph-name="quoteleft" unicode="&#x2018;" horiz-adv-x="271" 
d="M191 481h-124l72 252l92 -15z" />
    <glyph glyph-name="quoteright" unicode="&#x2019;" horiz-adv-x="273" 
d="M160 481l-92 15l40 237h124z" />
    <glyph glyph-name="quotesinglbase" unicode="&#x201a;" horiz-adv-x="271" 
d="M148 -101l-92 15l40 237h124z" />
    <glyph glyph-name="quotedblleft" unicode="&#x201c;" horiz-adv-x="459" 
d="M368 481h-124l72 252l92 -15zM183 481h-124l72 252l92 -15z" />
    <glyph glyph-name="quotedblright" unicode="&#x201d;" horiz-adv-x="459" 
d="M338 481l-92 15l40 237h124zM153 481l-92 15l40 237h124z" />
    <glyph glyph-name="quotedblbase" unicode="&#x201e;" horiz-adv-x="447" 
d="M324 -101l-92 15l40 237h124zM148 -101l-92 15l40 237h124z" />
    <glyph glyph-name="dagger" unicode="&#x2020;" horiz-adv-x="434" 
d="M287 0h-136v400h-95v110h95v146h136v-146h95v-110h-95v-400z" />
    <glyph glyph-name="daggerdbl" unicode="&#x2021;" horiz-adv-x="434" 
d="M287 0h-136v158h-95v110h95v120h-95v110h95v158h136v-158h95v-110h-95v-120h95v-110h-95v-158z" />
    <glyph glyph-name="bullet" unicode="&#x2022;" horiz-adv-x="460" 
d="M230 125c-42.667 0 -79.334 15.167 -110.001 45.5s-46 67.166 -46 110.499s15.333 80.166 46 110.499s67.334 45.5 110.001 45.5s79.334 -15.167 110.001 -45.5s46 -67.166 46 -110.499s-15.333 -80.166 -46 -110.499s-67.334 -45.5 -110.001 -45.5z" />
    <glyph glyph-name="ellipsis" unicode="&#x2026;" horiz-adv-x="816" 
d="M679 -11c-22.667 0 -42.334 8.33301 -59.001 25s-25 36.667 -25 60s8.33301 42.833 25 58.5s36.334 23.5 59.001 23.5s42.167 -7.83301 58.5 -23.5s24.5 -35.167 24.5 -58.5s-8.16699 -43.333 -24.5 -60s-35.833 -25 -58.5 -25zM408 -11
c-22.667 0 -42.167 8.33301 -58.5 25s-24.5 36.667 -24.5 60s8.16699 42.833 24.5 58.5s35.833 23.5 58.5 23.5s42.167 -7.83301 58.5 -23.5s24.5 -35.167 24.5 -58.5s-8.16699 -43.333 -24.5 -60s-35.833 -25 -58.5 -25zM138 -11c-22.667 0 -42.334 8.33301 -59.001 25
s-25 36.667 -25 60s8.33301 42.833 25 58.5s36.334 23.5 59.001 23.5s42.167 -7.83301 58.5 -23.5s24.5 -35.167 24.5 -58.5s-8.16699 -43.333 -24.5 -60s-35.833 -25 -58.5 -25z" />
    <glyph glyph-name="perthousand" unicode="&#x2030;" horiz-adv-x="1283" 
d="M372 524v-67c0 -49.333 -15 -88.833 -45 -118.5s-68.667 -44.5 -116 -44.5c-46.667 0 -85.167 14.833 -115.5 44.5s-45.5 69.167 -45.5 118.5v67c0 49.333 15.167 89.166 45.5 119.499s68.833 45.5 115.5 45.5c47.333 0 86 -15.167 116 -45.5s45 -70.166 45 -119.499z
M344 0h-106l317 676h104zM271 459v63c0 48.667 -20 73 -60 73c-38 0 -57 -24.333 -57 -73v-63c0 -49.333 19 -74 57 -74c40 0 60 24.667 60 74zM1233 218v-66c0 -49.333 -15.167 -89.166 -45.5 -119.499s-69.166 -45.5 -116.499 -45.5s-86 15.167 -116 45.5
s-45 70.166 -45 119.499v66c0 50 15 90 45 120s68.667 45 116 45s86.166 -15 116.499 -45s45.5 -70 45.5 -120zM850 218v-66c0 -49.333 -15.167 -89.166 -45.5 -119.499s-69.166 -45.5 -116.499 -45.5s-86 15.167 -116 45.5s-45 70.166 -45 119.499v66c0 50 15 90 45 120
s68.667 45 116 45s86.166 -15 116.499 -45s45.5 -70 45.5 -120zM1130 154v62c0 24.667 -5.33301 43.334 -16 56.001s-25 19 -43 19c-17.333 0 -31.333 -6.33301 -42 -19s-16 -31.334 -16 -56.001v-62c0 -48.667 19.333 -73 58 -73c18 0 32.333 6 43 18s16 30.333 16 55z
M747 154v62c0 24.667 -5.33301 43.334 -16 56.001s-25 19 -43 19c-17.333 0 -31.333 -6.33301 -42 -19s-16 -31.334 -16 -56.001v-62c0 -48.667 19.333 -73 58 -73c18 0 32.333 6 43 18s16 30.333 16 55z" />
    <glyph glyph-name="guilsinglleft" unicode="&#x2039;" horiz-adv-x="343" 
d="M294 149l-95 -70l-150 202l150 202l95 -70l-96 -131z" />
    <glyph glyph-name="guilsinglright" unicode="&#x203a;" horiz-adv-x="343" 
d="M144 79l-95 70l96 131l-96 133l95 70l150 -202z" />
    <glyph glyph-name="Euro" unicode="&#x20ac;" horiz-adv-x="544" 
d="M497 130l26 -120.999c-56 -14.667 -110 -22 -162 -22c-72 0 -132.5 21.667 -181.5 65s-74.5 102 -76.5 176h-66v72h66v76h-66v72h66c2 73.333 27.5 131.833 76.5 175.5s109.5 65.5 181.5 65.5c52 0 106 -7.33301 162 -22l-26 -121c-52.667 12.667 -97.667 19 -135 19
c-32.667 0 -59.167 -10.5 -79.5 -31.5s-31.5 -49.5 -33.5 -85.5h183l-14 -72h-169v-76h153l-14 -72h-139c2 -36.667 13 -65.334 33 -86.001s46.667 -31 80 -31c37.333 0 82.333 6.33301 135 19z" />
    <glyph glyph-name="afii61352" unicode="&#x2116;" horiz-adv-x="979" 
d="M70 0v676h119l232 -386c-2 38 -3 72.333 -3 103v283h147v-676h-120l-232 384c2.66699 -34.667 4 -70 4 -106v-278h-147zM929 428v-59c0 -43.333 -13.167 -78 -39.5 -104s-60.166 -39 -101.499 -39s-75.166 13 -101.499 39s-39.5 60.667 -39.5 104v59
c0 43.333 13.167 78.333 39.5 105s60.166 40 101.499 40s75.166 -13.333 101.499 -40s39.5 -61.667 39.5 -105zM841 371v55c0 42.667 -17.667 64 -53 64c-33.333 0 -50 -21.333 -50 -64v-55c0 -43.333 16.667 -65 50 -65c35.333 0 53 21.667 53 65zM909 107h-241v87h241v-87
z" />
    <glyph glyph-name="trademark" unicode="&#x2122;" horiz-adv-x="776" 
d="M706 371h-95l-13 127l-33 -89h-82l-33 89l-13 -127h-95l41 305h91l50 -149l50 149h91zM246 371h-94v223h-82v82h259l-7 -82h-76v-223z" />
    <glyph glyph-name="Delta" unicode="&#x2206;" horiz-adv-x="777" 
d="M753 0h-729l293 702h144zM561 118l-172 417l-173 -417h345z" />
    <glyph glyph-name="product" unicode="&#x220f;" horiz-adv-x="790" 
d="M657 -131h-136v689h-250v-689h-137v689h-80v118h685v-118h-82v-689z" />
    <glyph glyph-name="summation" unicode="&#x2211;" horiz-adv-x="688" 
d="M621 -126h-536v109l263 292l-263 291v110h536v-118h-350l256 -283l-255 -283h349v-118z" />
    <glyph glyph-name="radical" unicode="&#x221a;" horiz-adv-x="640" 
d="M406 0l-158 0.000976562l-132 428h-90l-21 95h232l51 -198c20 -80.667 33 -135 39 -163c24 99.333 37.333 153.666 40 162.999l119 407h149z" />
    <glyph glyph-name="integral" unicode="&#x222b;" horiz-adv-x="413" 
d="M139 -40l0.00195312 613c0 52.667 17.167 93.667 51.5 123s75.166 44 122.499 44c29.333 0 64.666 -6.66699 105.999 -20l-26 -118c-31.333 10 -55.333 15 -72 15c-31.333 0 -47 -18.667 -47 -56v-613c0 -52.667 -17 -93.667 -51 -123s-74.667 -44 -122 -44
c-29.333 0 -65 6.66699 -107 20l27 118c28 -10 51.667 -15 71 -15c31.333 0 47 18.667 47 56z" />
    <glyph glyph-name="approxequal" unicode="&#x2248;" horiz-adv-x="610" 
d="M454 485l85.001 -77c-22.667 -34 -46 -61 -70 -81s-51.667 -30 -83 -30c-23.333 0 -45.333 6.5 -66 19.5s-39 26 -55 39s-29.667 19.5 -41 19.5c-24 0 -46.667 -17.667 -68 -53l-85 77c22.667 34 46 61 70 81s52.333 30 85 30c22 0 43.167 -6.5 63.5 -19.5
s38.666 -26 54.999 -39s30.166 -19.5 41.499 -19.5c22.667 0 45.334 17.667 68.001 53zM454.001 245l85.001 -77c-22.667 -34 -46 -61 -70 -81s-51.667 -30 -83 -30c-23.333 0 -45.333 6.5 -66 19.5s-39 26 -55 39s-29.667 19.5 -41 19.5c-24 0 -46.667 -17.667 -68 -53
l-85 77c22.667 34 46 61 70 81s52.333 30 85 30c22 0 43.167 -6.5 63.5 -19.5s38.666 -26 54.999 -39s30.166 -19.5 41.499 -19.5c22.667 0 45.334 17.667 68.001 53z" />
    <glyph glyph-name="notequal" unicode="&#x2260;" horiz-adv-x="571" 
d="M517 119h-228l-52 -143l-109 39l38 104h-112v118h155l30 84h-185v119h229l51 141l109 -38l-38 -103h112v-119h-155l-30 -84h185v-118z" />
    <glyph glyph-name="lessequal" unicode="&#x2264;" horiz-adv-x="533" 
d="M419 16l-365 208v93l365 209l60 -118l-256 -137l256 -137zM464 -122h-410v117h410v-117z" />
    <glyph glyph-name="greaterequal" unicode="&#x2265;" horiz-adv-x="533" 
d="M479 224l-365 -208l-60 118l256 137l-256 137l60 118l365 -209v-93zM479 -122h-410v117h410v-117z" />
    <glyph glyph-name="lozenge" unicode="&#x25ca;" horiz-adv-x="679" 
d="M336 -7l-312 341l312 340l311 -341zM214 335l122 -135l122 133l-122 134z" />
    <glyph glyph-name="afii10068.002" unicode="&#xe001;" horiz-adv-x="390" 
d="M60 0v324c0 61.333 18.667 109.833 56 145.5s84.333 53.5 141 53.5h124v-118h-107c-24 0 -42 -7.16699 -54 -21.5s-18 -31.833 -18 -52.5v-331h-142z" />
    <glyph glyph-name="afii10069.001" unicode="&#xe002;" horiz-adv-x="554" 
d="M271 -13c-62 0 -114.666 19.833 -157.999 59.5s-65 92.834 -65 159.501v93c0 70 20.833 124.167 62.5 162.5s91.167 57.5 148.5 57.5c40.667 0 74 -7.33301 100 -22v16c0 42.667 -8.83301 72 -26.5 88s-44.834 24 -81.501 24c-36 0 -78.333 -7.33301 -127 -22l-26 106
c70 20.667 124.333 31 163 31c70.667 0 127.167 -18.833 169.5 -56.5s63.5 -95.167 63.5 -172.5v-305c0 -66.667 -21.667 -119.834 -65 -159.501s-96 -59.5 -158 -59.5zM271.001 108c23.333 0 42.668 8.83301 58.001 26.5s23 43.167 23 76.5v171
c-25.333 10.667 -52 16 -80 16c-24 0 -43.667 -8.33301 -59 -25s-23 -43 -23 -79v-83c0 -33.333 7.66699 -58.833 23 -76.5s34.666 -26.5 57.999 -26.5z" />
    <glyph glyph-name="afii10024.001" unicode="&#xe003;" horiz-adv-x="875" 
d="M511 0h-147v295l-176 -295h-173l217 359l-204 317h171l165 -275v275h147v-275l165 275h171l-204 -317l217 -359h-173l-176 295v-295z" />
    <glyph glyph-name="afii10028.001" unicode="&#xe004;" horiz-adv-x="611" 
d="M70 0v676h147v-275l195 275h171l-234 -317l247 -359h-173l-206 295v-295h-147z" />
    <glyph glyph-name="apple" unicode="&#xf8ff;" horiz-adv-x="0" 
 />
    <glyph glyph-name=".null" horiz-adv-x="0" 
 />
    <glyph glyph-name="nonmarkingreturn" horiz-adv-x="333" 
 />
    <glyph glyph-name="cyrbreve" horiz-adv-x="419" 
d="M257 736l90 -10c-0.666992 -40 -14.167 -71.667 -40.5 -95s-58.833 -35 -97.5 -35c-38 0 -70 11.667 -96 35s-39.333 55 -40 95l89 10c2 -16.667 7.16699 -30 15.5 -40s18.833 -15 31.5 -15c26.667 0 42.667 18.333 48 55z" />
    <glyph glyph-name="five.onum" horiz-adv-x="525" 
d="M26 -82l28 117.999c69.333 -20.667 126 -31 170 -31c32 0 59.167 10 81.5 30s33.5 48.333 33.5 85c0 64.667 -42.667 97 -128 97h-146l12 356h387l-21 -117h-240l-6 -124h27c79.333 0 142.5 -17.833 189.5 -53.5s70.5 -88.167 70.5 -157.5
c0 -50.667 -13.167 -94.667 -39.5 -132s-58.333 -64.166 -96 -80.499s-77.5 -24.5 -119.5 -24.5c-62 0 -129.667 11.333 -203 34z" />
    <glyph glyph-name="five.smcp" horiz-adv-x="477" 
d="M28 17l27.998 117c64 -18 114 -27 150 -27c24.667 0 45.334 7.5 62.001 22.5s25 35.5 25 61.5c0 46.667 -33.667 70 -101 70h-130l11 313h348l-18 -115h-206l-5 -85h12c70.667 0 127.334 -15.167 170.001 -45.5s64 -75.833 64 -136.5
c0 -65.333 -22.833 -115.833 -68.5 -151.5s-98.167 -53.5 -157.5 -53.5c-54.667 0 -116 10 -184 30z" />
    <glyph glyph-name="fiveonum.tnum" 
d="M63 -82l28 117.999c69.333 -20.667 126 -31 170 -31c32 0 59.167 10 81.5 30s33.5 48.333 33.5 85c0 64.667 -42.667 97 -128 97h-146l12 356h387l-21 -117h-240l-6 -124h27c79.333 0 142.5 -17.833 189.5 -53.5s70.5 -88.167 70.5 -157.5
c0 -50.667 -13.167 -94.667 -39.5 -132s-58.333 -64.166 -96 -80.499s-77.5 -24.5 -119.5 -24.5c-62 0 -129.667 11.333 -203 34z" />
    <glyph glyph-name="fivesmcp.tnum" horiz-adv-x="511" 
d="M45 17l27.998 117c64 -18 114 -27 150 -27c24.667 0 45.334 7.5 62.001 22.5s25 35.5 25 61.5c0 46.667 -33.667 70 -101 70h-130l11 313h348l-18 -115h-206l-5 -85h12c70.667 0 127.334 -15.167 170.001 -45.5s64 -75.833 64 -136.5
c0 -65.333 -22.833 -115.833 -68.5 -151.5s-98.167 -53.5 -157.5 -53.5c-54.667 0 -116 10 -184 30z" />
    <glyph glyph-name="four.onum" horiz-adv-x="566" 
d="M443 -102l-136 -10v142h-248l-17 110l131 433h132l-125 -426h127v207l136 23v-230h93v-117h-93v-132z" />
    <glyph glyph-name="four.tnum" 
d="M446 1l-136 -10v142h-248l-17 110l131 433h132l-125 -426h127v207l136 23v-230h93v-117h-93v-132z" />
    <glyph glyph-name="fouronum.tnum" 
d="M446 -102l-136 -10v142h-248l-17 110l131 433h132l-125 -426h127v207l136 23v-230h93v-117h-93v-132z" />
    <glyph glyph-name="foursmcp.tnum" horiz-adv-x="511" 
d="M397 1l-135 -9v113h-211l-17 108l112 361h131l-106 -354h91v171l135 23v-194h79v-115h-79v-104z" />
    <glyph glyph-name="ycircumflex.smcp" horiz-adv-x="524" 
d="M360 630l-97 61l-98 -61l-53 81l150 85l151 -85zM191 0v218l-173 356h156l88 -212l88 212h156l-172 -356v-218h-143z" />
    <glyph glyph-name="two.onum" horiz-adv-x="493" 
d="M437 0h-400.996v62c0 36 6.33301 68.833 19 98.5s28.667 53.5 48 71.5s40.166 35.333 62.499 52s43.166 30.5 62.499 41.5s35.333 23.667 48 38s19 28.833 19 43.5c0 17.333 -5.83301 31.333 -17.5 42s-28.834 16 -51.501 16c-44 0 -90 -13.333 -138 -40l-49 105
c61.333 37.333 125 56 191 56c60 0 110 -16.5 150 -49.5s60 -76.167 60 -129.5c0 -29.333 -8.33301 -57.166 -25 -83.499s-37 -48.833 -61 -67.5s-47.833 -35.834 -71.5 -51.501s-43.834 -31 -60.501 -46s-25 -28.833 -25 -41.5h250z" />
    <glyph glyph-name="dcaron.smcp" horiz-adv-x="571" 
d="M421 714l-150 -85l-151 85l53 81l97 -61l98 61zM292 0l-227.002 0.000976562v535c92 34.667 167.667 52 227 52c64.667 0 118.834 -19.833 162.501 -59.5s65.5 -93.834 65.5 -162.501v-149c0 -70 -20.167 -123.5 -60.5 -160.5s-96.166 -55.5 -167.499 -55.5z
M376.998 227.001v126c0 75.333 -28.333 113 -85 113c-30 0 -58 -4.33301 -84 -13v-332h84c31.333 0 53.333 7.66699 66 23s19 43 19 83z" />
    <glyph glyph-name="dcroat.smcp" horiz-adv-x="571" 
d="M292 0l-227.002 0.000976562v238h-55v90h55v207c92 34.667 167.667 52 227 52c64.667 0 118.834 -19.833 162.501 -59.5s65.5 -93.834 65.5 -162.501v-149c0 -70 -20.167 -123.5 -60.5 -160.5s-96.166 -55.5 -167.499 -55.5zM376.998 227.001v126
c0 75.333 -28.333 113 -85 113c-30 0 -58 -4.33301 -84 -13v-125h87v-90h-87v-117h84c31.333 0 53.333 7.66699 66 23s19 43 19 83z" />
    <glyph glyph-name="gbreve.smcp" horiz-adv-x="554" 
d="M331 786l89.999 0.00195312c-0.666992 -40.667 -14.5 -75 -41.5 -103s-59.167 -42 -96.5 -42s-69.166 14 -95.499 42s-39.833 62.333 -40.5 103h89c0.666992 -16.667 5.5 -30.834 14.5 -42.501s19.833 -17.5 32.5 -17.5c14 0 25.5 5.66699 34.5 17
s13.5 25.666 13.5 42.999zM368.999 114.002v110h-58v98h191v-298c-74 -24.667 -143 -37 -207 -37c-72.667 0 -131.5 20.5 -176.5 61.5s-67.5 100.5 -67.5 178.5v120c0 78 22.5 137.5 67.5 178.5s103.833 61.5 176.5 61.5c50 0 114 -12 192 -36l-31 -114
c-64 19.333 -117.333 29 -160 29c-34 0 -59.5 -9.83301 -76.5 -29.5s-25.5 -53.167 -25.5 -100.5v-94c0 -48.667 8.5 -83.167 25.5 -103.5s42.5 -30.5 76.5 -30.5c28 0 52.333 2 73 6z" />
    <glyph glyph-name="gcircumflex.smcp" horiz-adv-x="554" 
d="M379 630l-97 61l-98 -61l-53 81l150 85l151 -85zM369 114v110h-58v98h191v-298c-74 -24.667 -143 -37 -207 -37c-72.667 0 -131.5 20.5 -176.5 61.5s-67.5 100.5 -67.5 178.5v120c0 78 22.5 137.5 67.5 178.5s103.833 61.5 176.5 61.5c50 0 114 -12 192 -36l-31 -114
c-64 19.333 -117.333 29 -160 29c-34 0 -59.5 -9.83301 -76.5 -29.5s-25.5 -53.167 -25.5 -100.5v-94c0 -48.667 8.5 -83.167 25.5 -103.5s42.5 -30.5 76.5 -30.5c28 0 52.333 2 73 6z" />
    <glyph glyph-name="gcommaaccent.smcp" horiz-adv-x="554" 
d="M369 114v110h-58v98h191v-298c-74 -24.667 -143 -37 -207 -37c-72.667 0 -131.5 20.5 -176.5 61.5s-67.5 100.5 -67.5 178.5v120c0 78 22.5 137.5 67.5 178.5s103.833 61.5 176.5 61.5c50 0 114 -12 192 -36l-31 -114c-64 19.333 -117.333 29 -160 29
c-34 0 -59.5 -9.83301 -76.5 -29.5s-25.5 -53.167 -25.5 -100.5v-94c0 -48.667 8.5 -83.167 25.5 -103.5s42.5 -30.5 76.5 -30.5c28 0 52.333 2 73 6zM305 -224h-93l26 162h123z" />
    <glyph glyph-name="grave.smcp" horiz-adv-x="407" 
d="M298 624l-223 84l38 95l221 -96z" />
    <glyph glyph-name="h.smcp" horiz-adv-x="576" 
d="M511 0h-143v234h-160v-234h-143v574h143v-224h160v224h143v-574z" />
    <glyph glyph-name="hbar.smcp" horiz-adv-x="576" 
d="M511 0h-143v234h-160v-234h-143v398h-35v90h35v86h143v-86h160v86h143v-86h33v-90h-33v-398zM368 350v48h-160v-48h160z" />
    <glyph glyph-name="hungarumlaut.smcp" horiz-adv-x="617" 
d="M539 721l-174 -102l-49 81l168 110zM301 721l-173 -102l-50 81l168 110z" />
    <glyph glyph-name="i.smcp" horiz-adv-x="273" 
d="M208 0h-143v574h143v-574z" />
    <glyph glyph-name="iacute.smcp" horiz-adv-x="273" 
d="M266 708l-223 -84l-36 83l221 96zM208 0h-143v574h143v-574z" />
    <glyph glyph-name="six.onum" horiz-adv-x="571" 
d="M50 218l-0.000976562 215.999c0 72.667 22 133.334 66 182.001s105.333 73 184 73c50 0 106.333 -10 169 -30l-31 -117c-50 17.333 -96 26 -138 26c-30.667 0 -56.167 -10.833 -76.5 -32.5s-30.5 -49.834 -30.5 -84.501v-23c34 26.667 72.667 40 116 40
c66 0 119.167 -21.5 159.5 -64.5s60.5 -102.167 60.5 -177.5c0 -74 -23.167 -132.333 -69.5 -175s-103.166 -64 -170.499 -64c-66.667 0 -123.167 20.833 -169.5 62.5s-69.5 97.834 -69.5 168.501zM191.999 319.999l-0.000976562 -103c0 -30.667 8.5 -56.5 25.5 -77.5
s40.5 -31.5 70.5 -31.5c30.667 0 54.334 11.167 71.001 33.5s25 50.5 25 84.5c0 89.333 -32 134 -96 134c-36.667 0 -68.667 -13.333 -96 -40z" />
    <glyph glyph-name="dollar.smcp" horiz-adv-x="470" 
d="M281 -105l-94.9971 0.00195312v94c-50 3.33301 -103.667 15.666 -161 36.999l27 117c62 -22.667 119 -34 171 -34c20 0 35.333 5 46 15s16 23 16 39s-8.33301 29.5 -25 40.5s-36.834 20.667 -60.501 29s-47.5 18.333 -71.5 30s-44.333 29.167 -61 52.5s-25 52.333 -25 87
c0 38 12.5 71.667 37.5 101s61.5 48.666 109.5 57.999v101h95v-97c33.333 -4 77.666 -15.667 132.999 -35l-37 -112c-50.667 20 -93.334 30 -128.001 30c-26 0 -43.667 -3.66699 -53 -11s-14 -18.333 -14 -33s8.33301 -27 25 -37s36.834 -19 60.501 -27
s47.5 -17.667 71.5 -29s44.333 -29.5 61 -54.5s25 -55.833 25 -92.5c0 -40.667 -12.333 -76.167 -37 -106.5s-61.334 -50.833 -110.001 -61.5v-101z" />
    <glyph glyph-name="icircumflex.smcp" horiz-adv-x="273" 
d="M234 630l-97 61l-98 -61l-53 81l150 85l151 -85zM208 0h-143v574h143v-574z" />
    <glyph glyph-name="idieresis.smcp" horiz-adv-x="273" 
d="M296 713c0 -18 -6.33301 -33.167 -19 -45.5s-28 -18.5 -46 -18.5c-17.333 0 -32.333 6.16699 -45 18.5s-19 27.5 -19 45.5s6.33301 33.5 19 46.5s27.667 19.5 45 19.5c18 0 33.333 -6.5 46 -19.5s19 -28.5 19 -46.5zM106 713c0 -18 -6.33301 -33.167 -19 -45.5
s-28 -18.5 -46 -18.5c-17.333 0 -32.5 6.16699 -45.5 18.5s-19.5 27.5 -19.5 45.5s6.5 33.5 19.5 46.5s28.167 19.5 45.5 19.5c18 0 33.333 -6.5 46 -19.5s19 -28.5 19 -46.5zM208 0h-143v574h143v-574z" />
    <glyph glyph-name="igrave.smcp" horiz-adv-x="273" 
d="M230 624l-223 84l38 95l221 -96zM208 0h-143v574h143v-574z" />
    <glyph glyph-name="ij.smcp" horiz-adv-x="696" 
d="M497 202v372.001l143 -6v-369c0 -64.667 -17.5 -115.834 -52.5 -153.501s-85.5 -56.5 -151.5 -56.5c-45.333 0 -99.333 10.667 -162 32l34 112c48.667 -16 90 -24 124 -24c43.333 0 65 31 65 93zM208 0.000976562h-143v574h143v-574z" />
    <glyph glyph-name="imacron.smcp" horiz-adv-x="273" 
d="M263 668h-254v90h254v-90zM208 0h-143v574h143v-574z" />
    <glyph glyph-name="j.smcp" horiz-adv-x="439" 
d="M240 201v373l143 -6v-370c0 -65.333 -17.5 -116.833 -52.5 -154.5s-85.5 -56.5 -151.5 -56.5c-44 0 -98 10.667 -162 32l34 113c48.667 -16 90 -24 124 -24c43.333 0 65 31 65 93z" />
    <glyph glyph-name="jcircumflex.smcp" horiz-adv-x="439" 
d="M406 630l-97 61l-98 -61l-53 81l150 85l151 -85zM240 201v373l143 -6v-370c0 -65.333 -17.5 -116.833 -52.5 -154.5s-85.5 -56.5 -151.5 -56.5c-44 0 -98 10.667 -162 32l34 113c48.667 -16 90 -24 124 -24c43.333 0 65 31 65 93z" />
    <glyph glyph-name="k.smcp" horiz-adv-x="552" 
d="M535 0h-170l-131 209l-26 -31v-178h-143v574h143v-184l133 184h168l-189 -248z" />
    <glyph glyph-name="l.smcp" horiz-adv-x="463" 
d="M432 0h-367v574h143v-453h229z" />
    <glyph glyph-name="lacute.smcp" horiz-adv-x="463" 
d="M268 708l-223 -84l-36 83l221 96zM432 0h-367v574h143v-453h229z" />
    <glyph glyph-name="lcaron.smcp" horiz-adv-x="463" 
d="M384 393h-89v181l118 13zM432 0h-367v574h143v-453h229z" />
    <glyph glyph-name="eogonek.smcp" horiz-adv-x="482" 
d="M420 -128l13.999 -84.999c-17.333 -7.33301 -38.666 -11 -63.999 -11c-39.333 0 -68.833 9.16699 -88.5 27.5s-29.5 43.166 -29.5 74.499c0 46.667 23.333 87.334 70 122.001h-257v574h361v-121h-218v-106h182l-5 -115h-177v-111h226v-121
c-22 -15.333 -40.167 -32.833 -54.5 -52.5s-21.5 -37.834 -21.5 -54.501c0 -18 9.66699 -27 29 -27c12 0 23 2 33 6z" />
    <glyph glyph-name="ldot.smcp" horiz-adv-x="463" 
d="M432 0h-367v574h143v-453h229zM426 281c0 -20 -7 -36.667 -21 -50s-31 -20 -51 -20c-19.333 0 -36 6.66699 -50 20s-21 30 -21 50s7 37 21 51s30.667 21 50 21c20 0 37 -7 51 -21s21 -31 21 -51z" />
    <glyph glyph-name="lslash.smcp" horiz-adv-x="463" 
d="M432 0h-367v217l-29 -10l-26 70l55 19v278h143v-227l55 20l27 -70l-82 -29v-147h229z" />
    <glyph glyph-name="m.smcp" horiz-adv-x="740" 
d="M35 0l59.999 573.998h161l93 -263c4.66699 -13.333 11.667 -38 21 -74c4.66699 24 11.334 48.667 20.001 74l93 263h161l61 -574h-141l-20 259c-0.666992 12 -1.5 32.333 -2.5 61s-1.83301 48 -2.5 58c-9.33301 -41.333 -20.666 -80.666 -33.999 -117.999l-61 -168h-149
l-61 168c-12.667 36.667 -24 76.334 -34 119.001c-0.666992 -42 -2.33398 -82 -5.00098 -120l-19 -259h-141z" />
    <glyph glyph-name="macron.smcp" horiz-adv-x="409" 
d="M332 668h-254v90h254v-90z" />
    <glyph glyph-name="n.smcp" horiz-adv-x="570" 
d="M505 0h-116l-185 292c2.66699 -30 4 -60.667 4 -92v-200h-143v574h116l184 -292c-2 33.333 -3 63 -3 89v203h143v-574z" />
    <glyph glyph-name="eacute.smcp" horiz-adv-x="482" 
d="M374 708l-223 -84l-36 83l221 96zM434 0h-369v574h361v-121h-218v-106h182l-5 -115h-177v-111h226v-121z" />
    <glyph glyph-name="w.smcp" horiz-adv-x="760" 
d="M129 0l-93 573.999h145l28 -256c4 -35.333 7 -81.666 9 -138.999c10 54 21 100 33 138l52 163h150l54 -163c14 -42 25.333 -87 34 -135c4.66699 81.333 7.66699 126.666 9 135.999l28 256h146l-94 -574h-157l-75 248c-8 26 -14.333 53.333 -19 82
c-4 -31.333 -9.66699 -58.666 -17 -81.999l-77 -248h-156z" />
    <glyph glyph-name="ncommaaccent.smcp" horiz-adv-x="570" 
d="M505 0h-116l-185 292c2.66699 -30 4 -60.667 4 -92v-200h-143v574h116l184 -292c-2 33.333 -3 63 -3 89v203h143v-574zM301 -224h-93l26 162h123z" />
    <glyph glyph-name="nine.onum" horiz-adv-x="574" 
d="M381 122v23.001c-34 -26.667 -72.667 -40 -116 -40c-65.333 0 -118.333 21.5 -159 64.5s-61 102.167 -61 177.5c0 74 23.167 132.333 69.5 175s103.5 64 171.5 64c66.667 0 123 -20.833 169 -62.5s69 -97.834 69 -168.501v-216c0 -72.667 -22 -133.334 -66 -182.001
s-105 -73 -183 -73c-50 0 -106.667 10 -170 30l32 117c50 -17.333 96 -26 138 -26c30.667 0 56 10.833 76 32.5s30 49.834 30 84.501zM382 253.001l-0.000976562 103c0 30.667 -8.33301 56.5 -25 77.5s-40 31.5 -70 31.5c-30.667 0 -54.5 -11.167 -71.5 -33.5
s-25.5 -50.5 -25.5 -84.5c0 -89.333 32.333 -134 97 -134c34.667 0 66.334 13.333 95.001 40z" />
    <glyph glyph-name="nine.smcp" horiz-adv-x="516" 
d="M325 188l-0.00195312 18.998c-26 -22.667 -57 -34 -93 -34c-58 0 -104.667 18.5 -140 55.5s-53 87.5 -53 151.5s20.833 114.5 62.5 151.5s92.834 55.5 153.501 55.5c59.333 0 109.666 -18.167 150.999 -54.5s62 -85.166 62 -146.499v-179
c0 -62 -19.667 -114.167 -59 -156.5s-93.666 -63.5 -162.999 -63.5c-44 0 -95.667 9 -155 27l33 116c42.667 -15.333 83.334 -23 122.001 -23c21.333 0 39.833 7.33301 55.5 22s23.5 34.334 23.5 59.001zM325.998 311.998v75.001c0 23.333 -6.16699 42.666 -18.5 57.999
s-29.5 23 -51.5 23c-23.333 0 -41.333 -8.33301 -54 -25s-19 -37.667 -19 -63c0 -68 24.333 -102 73 -102c26.667 0 50 11.333 70 34z" />
    <glyph glyph-name="y.smcp" horiz-adv-x="524" 
d="M191 0v218l-173 356h156l88 -212l88 212h156l-172 -356v-218h-143z" />
    <glyph glyph-name="nine.tnum" 
d="M388 225l0.000976562 23.001c-34 -26.667 -72.667 -40 -116 -40c-65.333 0 -118.333 21.5 -159 64.5s-61 102.167 -61 177.5c0 74 23.167 132.333 69.5 175s103.5 64 171.5 64c66.667 0 123 -20.833 169 -62.5s69 -97.834 69 -168.501v-216
c0 -72.667 -22 -133.334 -66 -182.001s-105 -73 -183 -73c-50.667 0 -107.334 10 -170.001 30l32 117c50 -17.333 96 -26 138 -26c30.667 0 56 10.833 76 32.5s30 49.834 30 84.501zM389.001 356.001l-0.000976562 103c0 30.667 -8.33301 56.5 -25 77.5s-40 31.5 -70 31.5
c-30.667 0 -54.5 -11.167 -71.5 -33.5s-25.5 -50.5 -25.5 -84.5c0 -89.333 32.333 -134 97 -134c34.667 0 66.334 13.333 95.001 40z" />
    <glyph glyph-name="nineonum.tnum" 
d="M388 122l0.000976562 23.001c-34 -26.667 -72.667 -40 -116 -40c-65.333 0 -118.333 21.5 -159 64.5s-61 102.167 -61 177.5c0 74 23.167 132.333 69.5 175s103.5 64 171.5 64c66.667 0 123 -20.833 169 -62.5s69 -97.834 69 -168.501v-216
c0 -72.667 -22 -133.334 -66 -182.001s-105 -73 -183 -73c-50.667 0 -107.334 10 -170.001 30l32 117c50 -17.333 96 -26 138 -26c30.667 0 56 10.833 76 32.5s30 49.834 30 84.501zM389.001 253.001l-0.000976562 103c0 30.667 -8.33301 56.5 -25 77.5s-40 31.5 -70 31.5
c-30.667 0 -54.5 -11.167 -71.5 -33.5s-25.5 -50.5 -25.5 -84.5c0 -89.333 32.333 -134 97 -134c34.667 0 66.334 13.333 95.001 40z" />
    <glyph glyph-name="ninesmcp.tnum" horiz-adv-x="511" 
d="M326 188l-0.000976562 18.998c-26 -22.667 -57 -34 -93 -34c-58 0 -104.667 18.5 -140 55.5s-53 87.5 -53 151.5s20.833 114.5 62.5 151.5s92.834 55.5 153.501 55.5c59.333 0 109.666 -18.167 150.999 -54.5s62 -85.166 62 -146.499v-179
c0 -62 -19.667 -114.167 -59 -156.5s-93.666 -63.5 -162.999 -63.5c-44.667 0 -96.334 9 -155.001 27l33 116c42.667 -15.333 83.334 -23 122.001 -23c21.333 0 39.833 7.33301 55.5 22s23.5 34.334 23.5 59.001zM326.999 311.998v75.001
c0 23.333 -6.16699 42.666 -18.5 57.999s-29.5 23 -51.5 23c-23.333 0 -41.333 -8.33301 -54 -25s-19 -37.667 -19 -63c0 -68 24.333 -102 73 -102c26.667 0 50 11.333 70 34z" />
    <glyph glyph-name="four.smcp" horiz-adv-x="513" 
d="M405 1l-135 -9v113h-211l-17 108l112 361h131l-106 -354h91v171l135 23v-194h79v-115h-79v-104z" />
    <glyph glyph-name="agrave.smcp" horiz-adv-x="556" 
d="M372 624l-223 84l38 95l221 -96zM22 0l173 574h166l173 -574h-146l-36 132h-149l-35 -132h-146zM234 246l87.999 -0.000976562l-22 82c-8 30 -15.333 66.333 -22 109c-9.33301 -53.333 -16.666 -89.666 -21.999 -108.999z" />
    <glyph glyph-name="numbersign.onum" horiz-adv-x="589" 
d="M429 0h-124l18 181h-94l-18 -181h-124l18 181h-70v123h83l10 102h-70v123h83l18 180h124l-18 -180h94l18 180h124l-18 -180h70v-123h-83l-10 -102h69v-123h-82zM336 304l10 102h-94l-10 -102h94z" />
    <glyph glyph-name="edieresis.smcp" horiz-adv-x="482" 
d="M404 713c0 -18 -6.33301 -33.167 -19 -45.5s-28 -18.5 -46 -18.5c-17.333 0 -32.333 6.16699 -45 18.5s-19 27.5 -19 45.5s6.33301 33.5 19 46.5s27.667 19.5 45 19.5c18 0 33.333 -6.5 46 -19.5s19 -28.5 19 -46.5zM214 713c0 -18 -6.33301 -33.167 -19 -45.5
s-28 -18.5 -46 -18.5c-17.333 0 -32.5 6.16699 -45.5 18.5s-19.5 27.5 -19.5 45.5s6.5 33.5 19.5 46.5s28.167 19.5 45.5 19.5c18 0 33.333 -6.5 46 -19.5s19 -28.5 19 -46.5zM434 0h-369v574h361v-121h-218v-106h182l-5 -115h-177v-111h226v-121z" />
    <glyph glyph-name="yen.tnum" 
d="M484 92h-119v-92h-145v92h-119v80h119v69h-119v81h86l-167 354h147l125 -291l125 291h147l-166 -354h86v-81h-119v-69h119v-80z" />
    <glyph glyph-name="numbersign.tnum" 
d="M427 0h-124l18 181h-94l-18 -181h-124l18 181h-70v123h83l10 102h-70v123h83l18 180h124l-18 -180h94l18 180h124l-18 -180h70v-123h-83l-10 -102h69v-123h-82zM334 304l10 102h-94l-10 -102h94z" />
    <glyph glyph-name="numbersignonum.tnum" 
d="M427 0h-124l18 181h-94l-18 -181h-124l18 181h-70v123h83l10 102h-70v123h83l18 180h124l-18 -180h94l18 180h124l-18 -180h70v-123h-83l-10 -102h69v-123h-82zM334 304l10 102h-94l-10 -102h94z" />
    <glyph glyph-name="amacron.smcp" horiz-adv-x="556" 
d="M405 668h-254v90h254v-90zM22 0l173 574h166l173 -574h-146l-36 132h-149l-35 -132h-146zM234 246l87.999 -0.000976562l-22 82c-8 30 -15.333 66.333 -22 109c-9.33301 -53.333 -16.666 -89.666 -21.999 -108.999z" />
    <glyph glyph-name="gdotaccent.smcp" horiz-adv-x="554" 
d="M343 713c0 -18 -6.33301 -33.167 -19 -45.5s-28 -18.5 -46 -18.5c-17.333 0 -32.333 6.16699 -45 18.5s-19 27.5 -19 45.5s6.33301 33.5 19 46.5s27.667 19.5 45 19.5c18 0 33.333 -6.5 46 -19.5s19 -28.5 19 -46.5zM369 114v110h-58v98h191v-298
c-74 -24.667 -143 -37 -207 -37c-72.667 0 -131.5 20.5 -176.5 61.5s-67.5 100.5 -67.5 178.5v120c0 78 22.5 137.5 67.5 178.5s103.833 61.5 176.5 61.5c50 0 114 -12 192 -36l-31 -114c-64 19.333 -117.333 29 -160 29c-34 0 -59.5 -9.83301 -76.5 -29.5
s-25.5 -53.167 -25.5 -100.5v-94c0 -48.667 8.5 -83.167 25.5 -103.5s42.5 -30.5 76.5 -30.5c28 0 52.333 2 73 6z" />
    <glyph glyph-name="o.smcp" horiz-adv-x="576" 
d="M525 346v-118c0 -77.333 -22.333 -136.833 -67 -178.5s-101.667 -62.5 -171 -62.5c-68.667 0 -125.167 20.833 -169.5 62.5s-66.5 101.167 -66.5 178.5v118c0 76.667 22.333 136 67 178s101 63 169 63c69.333 0 126.333 -21 171 -63s67 -101.333 67 -178zM382 239
l-0.000976562 97c0 86.667 -31.667 130 -95 130c-62 0 -93 -43.333 -93 -130v-97c0 -48.667 7.83301 -82.667 23.5 -102s38.834 -29 69.501 -29c30 0 53.333 9.83301 70 29.5s25 53.5 25 101.5z" />
    <glyph glyph-name="ampersand.smcp" horiz-adv-x="505" 
d="M485 245l-38.0029 0.000976562v-77c0 -52 -18 -95.167 -54 -129.5s-84 -51.5 -144 -51.5c-61.333 0 -111.166 17.333 -149.499 52s-57.5 77.667 -57.5 129c0 54 21.333 96 64 126c-36.667 28 -55 67.667 -55 119s18.833 93.166 56.5 125.499s86.5 48.5 146.5 48.5
c40 0 87 -11 141 -33l-41 -108c-37.333 15.333 -69.666 23 -96.999 23c-23.333 0 -40.166 -5.33301 -50.499 -16s-15.5 -24 -15.5 -40c0 -16.667 4.66699 -31.667 14 -45s24 -20 44 -20h38v-103h-41c-20.667 0 -36.5 -7.16699 -47.5 -21.5s-16.5 -32.833 -16.5 -55.5
c0 -18 6 -33 18 -45s28.333 -18 49 -18c48.667 0 73 21 73 63v180h163v-103z" />
    <glyph glyph-name="oacute.smcp" horiz-adv-x="576" 
d="M398 708l-223 -84l-36 83l221 96zM525 346v-118c0 -77.333 -22.333 -136.833 -67 -178.5s-101.667 -62.5 -171 -62.5c-68.667 0 -125.167 20.833 -169.5 62.5s-66.5 101.167 -66.5 178.5v118c0 76.667 22.333 136 67 178s101 63 169 63c69.333 0 126.333 -21 171 -63
s67 -101.333 67 -178zM382 239l-0.000976562 97c0 86.667 -31.667 130 -95 130c-62 0 -93 -43.333 -93 -130v-97c0 -48.667 7.83301 -82.667 23.5 -102s38.834 -29 69.501 -29c30 0 53.333 9.83301 70 29.5s25 53.5 25 101.5z" />
    <glyph glyph-name="zacute.smcp" horiz-adv-x="511" 
d="M382 708l-223 -84l-36 83l221 96zM457 0h-416v91l229 369h-224v114h403v-92l-230 -366h251z" />
    <glyph glyph-name="obreve.smcp" horiz-adv-x="576" 
d="M335 786l89.999 0.00195312c-0.666992 -40.667 -14.5 -75 -41.5 -103s-59.167 -42 -96.5 -42s-69.166 14 -95.499 42s-39.833 62.333 -40.5 103h89c0.666992 -16.667 5.5 -30.834 14.5 -42.501s19.833 -17.5 32.5 -17.5c14 0 25.5 5.66699 34.5 17
s13.5 25.666 13.5 42.999zM524.999 346.002v-118c0 -77.333 -22.333 -136.833 -67 -178.5s-101.667 -62.5 -171 -62.5c-68.667 0 -125.167 20.833 -169.5 62.5s-66.5 101.167 -66.5 178.5v118c0 76.667 22.333 136 67 178s101 63 169 63c69.333 0 126.333 -21 171 -63
s67 -101.333 67 -178zM381.999 239.002l-0.000976562 97c0 86.667 -31.667 130 -95 130c-62 0 -93 -43.333 -93 -130v-97c0 -48.667 7.83301 -82.667 23.5 -102s38.834 -29 69.501 -29c30 0 53.333 9.83301 70 29.5s25 53.5 25 101.5z" />
    </font>
</defs>
</svg>
