<?xml version="1.0" standalone="no"?>
<!DOCTYPE svg PUBLIC "-//W3C//DTD SVG 1.1//EN" "http://www.w3.org/Graphics/SVG/1.1/DTD/svg11.dtd" >
<svg>
<metadata>
Created by FontForge 20090914 at Sun Apr 19 12:26:25 2020
 By www-data
Copyright (c) 2010 by DA. All rights reserved.
</metadata>
<defs>
<font id="Russia-Medium" horiz-adv-x="580" >
  <font-face 
    font-family="Russia Medium"
    font-weight="500"
    font-stretch="normal"
    units-per-em="1000"
    panose-1="2 11 6 3 4 0 0 2 0 4"
    ascent="760"
    descent="-240"
    x-height="518.999"
    cap-height="676"
    bbox="-26.999 -228 1210 914"
    underline-thickness="20"
    underline-position="-153"
    unicode-range="U+0020-U+FB04"
  />
<missing-glyph horiz-adv-x="500" 
d="M24 0v764h418v-764h-418zM90 63h286v638h-286v-638z" />
    <glyph glyph-name="f_f" unicode="ff" horiz-adv-x="675" 
d="M541 0h-116v438h-220v-438h-116v438h-69v81h69v68c0 50 17 88.833 51 116.5s74 41.5 120 41.5c28.667 0 59.667 -5 93 -15l-23 -96c-22 6.66699 -43 10 -63 10c-19.333 0 -34.5 -5 -45.5 -15s-16.5 -24 -16.5 -42v-68h220v68c0 50 17 88.833 51 116.5s74 41.5 120 41.5
c28.667 0 59.667 -5 93 -15l-23 -96c-22 6.66699 -43 10 -63 10c-19.333 0 -34.5 -5 -45.5 -15s-16.5 -24 -16.5 -42v-68h121l-22 -81h-99v-438z" />
    <glyph glyph-name="fi" unicode="fi" horiz-adv-x="600" 
d="M89 0v438h-69v81h69v66c0 50 17 89.167 51 117.5s74 42.5 120 42.5c28.667 0 59.667 -5 93 -15l-23 -96c-22 6.66699 -43 10 -63 10c-19.333 0 -34.5 -5.16699 -45.5 -15.5s-16.5 -24.833 -16.5 -43.5v-66h121l-22 -81h-99v-438h-116zM469 597
c-19.333 0 -35.833 6.66699 -49.5 20s-20.5 29.333 -20.5 48c0 19.333 7 35.333 21 48s30.333 19 49 19s35 -6.33301 49 -19s21 -28.667 21 -48c0 -18.667 -6.83301 -34.667 -20.5 -48s-30.167 -20 -49.5 -20zM411 0v519h117v-519h-117z" />
    <glyph glyph-name="fl" unicode="fl" horiz-adv-x="600" 
d="M411 0v725l117 20v-745h-117zM89 0v438h-69v81h69v66c0 50 17 89.167 51 117.5s74 42.5 120 42.5c28.667 0 59.667 -5 93 -15l-23 -96c-22 6.66699 -43 10 -63 10c-19.333 0 -34.5 -5.16699 -45.5 -15.5s-16.5 -24.833 -16.5 -43.5v-66h121l-22 -81h-99v-438h-116z" />
    <glyph glyph-name="f_f_i" unicode="ffi" horiz-adv-x="936" 
d="M541 0h-116v438h-220v-438h-116v438h-69v81h69v68c0 50 17 88.833 51 116.5s74 41.5 120 41.5c28.667 0 59.667 -5 93 -15l-23 -96c-22 6.66699 -43 10 -63 10c-19.333 0 -34.5 -5 -45.5 -15s-16.5 -24 -16.5 -42v-68h220v68c0 50 17 88.833 51 116.5s74 41.5 120 41.5
c28.667 0 59.667 -5 93 -15l-23 -96c-22 6.66699 -43 10 -63 10c-19.333 0 -34.5 -5 -45.5 -15s-16.5 -24 -16.5 -42v-68h121l-22 -81h-99v-438zM874 658c0 -18.667 -6.83301 -34.667 -20.5 -48s-29.834 -20 -48.501 -20c-19.333 0 -35.833 6.66699 -49.5 20
s-20.5 29.333 -20.5 48s6.83301 34.5 20.5 47.5s30.167 19.5 49.5 19.5c18.667 0 34.834 -6.5 48.501 -19.5s20.5 -28.833 20.5 -47.5zM864 0h-117v519h117v-519z" />
    <glyph glyph-name="f_f_l" unicode="ffl" horiz-adv-x="936" 
d="M864 0h-117v725l117 20v-745zM541 0h-116v438h-220v-438h-116v438h-69v81h69v66c0 50 17 89.167 51 117.5s74 42.5 120 42.5c28.667 0 59.667 -5 93 -15l-23 -96c-22 6.66699 -43 10 -63 10c-19.333 0 -34.5 -5.16699 -45.5 -15.5s-16.5 -24.833 -16.5 -43.5v-66h220v68
c0 50 17 88.833 51 116.5s74 41.5 120 41.5c28.667 0 59.667 -5 93 -15l-23 -96c-22 6.66699 -43 10 -63 10c-19.333 0 -34.5 -5 -45.5 -15s-16.5 -24 -16.5 -42v-68h121l-22 -81h-99v-438z" />
    <glyph glyph-name="f_t" unicode="ft" horiz-adv-x="663" 
d="M553 0h-117v438h-231v-438h-116v438h-69v81h69v68c0 50 17 88.833 51 116.5s74 41.5 120 41.5c28.667 0 59.667 -5 93 -15l-23 -96c-22 6.66699 -43 10 -63 10c-19.333 0 -34.5 -5 -45.5 -15s-16.5 -24 -16.5 -42v-68h231v144l117 19v-163h92v-81h-92v-438z" />
    <glyph glyph-name="t_t" unicode="tt" horiz-adv-x="650" 
d="M541 0h-118v438h-208v-438h-118v438h-64l-22 81h86v144l118 19v-163h208v144l118 19v-163h92v-81h-92v-438z" />
    <glyph glyph-name="f_y" unicode="fy" horiz-adv-x="832" 
d="M404 184l-36 253.999h-163v-438h-116v438h-69v81h69v68c0 50 17 88.833 51 116.5s74 41.5 120 41.5c28.667 0 59.667 -5 93 -15l-23 -96c-22 6.66699 -43 10 -63 10c-19.333 0 -34.5 -5 -45.5 -15s-16.5 -24 -16.5 -42v-68h269l46 -325
c4.66699 -31.333 13 -54.666 25 -69.999s29.333 -23 52 -23h37l52 418h117l-96 -730h-115l28 211h-27c-108 -0 -171 61.333 -189 184z" />
    <glyph glyph-name="t_y" unicode="ty" horiz-adv-x="818" 
d="M391 184l-36 253.999h-140v-438h-118v438h-64l-22 81h86v144l118 19v-163h246l46 -325c4.66699 -31.333 13 -54.666 25 -69.999s29.333 -23 52 -23h37l52 418h117l-96 -730h-115l28 211h-27c-108 -0 -171 61.333 -189 184z" />
    <glyph glyph-name=".notdef" horiz-adv-x="500" 
d="M24 0v764h418v-764h-418zM90 63h286v638h-286v-638z" />
    <glyph glyph-name="space" unicode=" " horiz-adv-x="230" 
 />
    <glyph glyph-name="exclam" unicode="!" horiz-adv-x="264" 
d="M187 215h-109l-7 451l123 20zM132 -8c-19.333 0 -36 7 -50 21s-21 30.667 -21 50c0 20 7 36.667 21 50s30.667 20 50 20s36 -6.66699 50 -20s21 -30 21 -50c0 -19.333 -7 -36 -21 -50s-30.667 -21 -50 -21z" />
    <glyph glyph-name="quotedbl" unicode="&#x22;" horiz-adv-x="396" 
d="M319 488h-81l-10 244h101zM159 488h-81l-10 244h100z" />
    <glyph glyph-name="numbersign" unicode="#" horiz-adv-x="574" 
d="M413 0h-103l19 189h-118l-19 -189h-103l19 189h-70v102h81l12 128h-70v102h81l18 188h103l-18 -188h118l18 188h103l-18 -188h70v-102h-81l-12 -128h69v-102h-80zM340 291l12 128h-118l-12 -128h118z" />
    <glyph glyph-name="dollar" unicode="$" horiz-adv-x="511" 
d="M297 -124h-89.001v112c-60 4 -119 16.667 -177 38l23 102c70.667 -24.667 133.334 -37 188.001 -37c29.333 0 53.5 8.16699 72.5 24.5s28.5 38.5 28.5 66.5c0 26 -10.167 47.333 -30.5 64s-45 30.334 -74 41.001s-58 22.5 -87 35.5s-53.667 33.167 -74 60.5
s-30.5 61.333 -30.5 102c0 47.333 15.5 87 46.5 119s71.833 52 122.5 60v116h88v-113c44 -4.66699 92.667 -17 146 -37l-31 -98c-60 22 -109.667 33 -149 33c-67.333 0 -101 -26 -101 -78c0 -18 5.5 -33.333 16.5 -46s25.167 -23 42.5 -31s36.5 -15.833 57.5 -23.5
s42 -16.667 63 -27s40.167 -22.333 57.5 -36s31.5 -32.334 42.5 -56.001s16.5 -51.5 16.5 -83.5c0 -52 -15.5 -94.5 -46.5 -127.5s-71.5 -54.167 -121.5 -63.5v-117z" />
    <glyph glyph-name="percent" unicode="%" horiz-adv-x="889" 
d="M371 528v-67c0 -48.667 -14.667 -87.5 -44 -116.5s-67 -43.5 -113 -43.5s-83.667 14.5 -113 43.5s-44 67.833 -44 116.5v67c0 48 14.833 86.833 44.5 116.5s67.167 44.5 112.5 44.5s82.833 -14.833 112.5 -44.5s44.5 -68.5 44.5 -116.5zM329 0h-92l319 676h91zM284 463
v63c0 54.667 -23.333 82 -70 82c-45.333 0 -68 -27.333 -68 -82v-63c0 -55.333 22.667 -83 68 -83c46.667 0 70 27.667 70 83zM832 215l-0.000976562 -67c0 -48 -14.833 -86.833 -44.5 -116.5s-67.5 -44.5 -113.5 -44.5c-45.333 0 -82.666 14.667 -111.999 44
s-44 68.333 -44 117v67c0 48.667 14.5 87.667 43.5 117s66.5 44 112.5 44s83.833 -14.667 113.5 -44s44.5 -68.333 44.5 -117zM743.999 150v63c0 55.333 -23.333 83 -70 83c-20.667 0 -37.167 -6.83301 -49.5 -20.5s-18.5 -34.5 -18.5 -62.5v-63
c0 -54.667 22.667 -82 68 -82c46.667 0 70 27.333 70 82z" />
    <glyph glyph-name="ampersand" unicode="&#x26;" horiz-adv-x="570" 
d="M380 190l-0.00195312 210.002h164v-96h-52v-114c0 -58.667 -19.5 -107.167 -58.5 -145.5s-91.833 -57.5 -158.5 -57.5c-67.333 0 -121.5 19.333 -162.5 58s-61.5 87 -61.5 145c0 70 28 123.667 84 161c-50 33.333 -75 81.666 -75 144.999c0 56.667 20.167 103 60.5 139
s93.166 54 158.499 54c44.667 0 95.667 -10.667 153 -32l-35 -96c-42 16.667 -80 25 -114 25s-59.667 -8.33301 -77 -25s-26 -38.334 -26 -65.001c0 -27.333 8 -50.166 24 -68.499s40 -27.5 72 -27.5h51v-96h-55c-31.333 0 -56.166 -11.333 -74.499 -34
s-27.5 -49.334 -27.5 -80.001c0 -29.333 9.33301 -53.333 28 -72s44.334 -28 77.001 -28s58.334 9.16699 77.001 27.5s28 42.5 28 72.5z" />
    <glyph glyph-name="quotesingle" unicode="'" horiz-adv-x="236" 
d="M159 489h-81l-10 243h100z" />
    <glyph glyph-name="parenleft" unicode="(" horiz-adv-x="328" 
d="M312 -127v-101c-156.667 0 -235 71 -235 213v601c0 142 78.333 213 235 213v-101c-43.333 0 -74.5 -8.83301 -93.5 -26.5s-28.5 -47.167 -28.5 -88.5v-595c0 -41.333 9.5 -70.833 28.5 -88.5s50.167 -26.5 93.5 -26.5z" />
    <glyph glyph-name="parenright" unicode=")" horiz-adv-x="327" 
d="M15 -228v101c43.333 0 74.5 8.83301 93.5 26.5s28.5 47.167 28.5 88.5v595c0 41.333 -9.5 70.833 -28.5 88.5s-50.167 26.5 -93.5 26.5v101c156.667 0 235 -71 235 -213v-601c0 -142 -78.333 -213 -235 -213z" />
    <glyph glyph-name="asterisk" unicode="*" horiz-adv-x="496" 
d="M386 408l-96 61l6 -114h-96l5 114l-96 -61l-48 83l102 52l-102 53l48 83l96 -62l-5 115h96l-6 -115l96 62l49 -83l-102 -53l102 -52z" />
    <glyph glyph-name="plus" unicode="+" horiz-adv-x="568" 
d="M507 228h-173v-173h-99v173h-174v99h174v173h99v-173h173v-99z" />
    <glyph glyph-name="comma" unicode="," horiz-adv-x="263" 
d="M127 -143l-81 14l46 255h112z" />
    <glyph glyph-name="hyphen" unicode="-" horiz-adv-x="494" 
d="M418 223h-341v99h341v-99z" />
    <glyph glyph-name="period" unicode="." horiz-adv-x="263" 
d="M132 -11c-19.333 0 -36 7.16699 -50 21.5s-21 31.166 -21 50.499c0 20 7 36.667 21 50s30.667 20 50 20c18.667 0 35 -6.83301 49 -20.5s21 -30.167 21 -49.5s-7 -36.166 -21 -50.499s-30.333 -21.5 -49 -21.5z" />
    <glyph glyph-name="slash" unicode="/" horiz-adv-x="386" 
d="M151 -63h-103l187 795h103z" />
    <glyph glyph-name="zero" unicode="0" horiz-adv-x="592" 
d="M537 415v-153c0 -90.667 -22.667 -159.167 -68 -205.5s-103 -69.5 -173 -69.5c-70.667 0 -128.5 23.167 -173.5 69.5s-67.5 114.833 -67.5 205.5v153c0 90.667 22.5 159 67.5 205s102.833 69 173.5 69s128.5 -23 173.5 -69s67.5 -114.333 67.5 -205zM420 262v153
c0 115.333 -41.333 173 -124 173s-124 -57.667 -124 -173v-153c0 -116 41.333 -174 124 -174s124 58 124 174z" />
    <glyph glyph-name="one" unicode="1" horiz-adv-x="395" 
d="M314 0h-116v570l-154 -26v102l270 42v-688z" />
    <glyph glyph-name="two" unicode="2" horiz-adv-x="525" 
d="M468 0l-424 -0.00195312v71c0 40 7.5 76.5 22.5 109.5s33.833 60 56.5 81s47.167 41.5 73.5 61.5s50.833 37.333 73.5 52s41.5 32 56.5 52s22.5 40.667 22.5 62c0 28.667 -8.83301 52.334 -26.5 71.001s-43.167 28 -76.5 28c-44 0 -94.667 -13.667 -152 -41l-40 91
c66 34 131.333 51 196 51c64 0 116.5 -18.333 157.5 -55s61.5 -84.667 61.5 -144c0 -35.333 -10.333 -68.333 -31 -99s-45.5 -57.167 -74.5 -79.5l-87.5 -65c-29.333 -21 -54.333 -44.167 -75 -69.5s-31 -51.666 -31 -78.999h298v-98z" />
    <glyph glyph-name="three" unicode="3" horiz-adv-x="510" 
d="M25 21l30 95c52.667 -18.667 102.667 -28 150 -28c40 0 72.833 10.833 98.5 32.5s38.5 50.5 38.5 86.5c0 30.667 -9.66699 55.667 -29 75s-50 29 -92 29h-80l-18 93l174 174h-251l-15 98h391l9 -98l-174 -174c56.667 -1.33301 104.834 -20 144.501 -56
s59.5 -83 59.5 -141c0 -66.667 -24.667 -120 -74 -160s-109.333 -60 -180 -60c-56.667 0 -117.334 11.333 -182.001 34z" />
    <glyph glyph-name="four" unicode="4" horiz-adv-x="559" 
d="M427 1l-113 -10v151h-254l-15 93l134 441h110l-128 -435h153v213l113 18v-231h95v-99h-95v-141z" />
    <glyph glyph-name="five" unicode="5" horiz-adv-x="517" 
d="M30 19l23.001 97.999c64 -19.333 119.333 -29 166 -29c35.333 0 66.166 11.167 92.499 33.5s39.5 54.833 39.5 97.5c0 75.333 -47 113 -141 113h-142l12 344h370l-20 -98h-245l-6 -150h43c77.333 0 138.166 -17.5 182.499 -52.5s66.5 -86.833 66.5 -155.5
c0 -50 -12.833 -93.167 -38.5 -129.5s-56.667 -62.666 -93 -78.999s-75.166 -24.5 -116.499 -24.5c-60.667 0 -125 10.667 -193 32z" />
    <glyph glyph-name="six" unicode="6" horiz-adv-x="562" 
d="M55 214v223c0 72 21.167 132 63.5 180s101.5 72 177.5 72c47.333 0 101 -9.33301 161 -28l-26 -98c-50 16.667 -95 25 -135 25c-37.333 0 -67.333 -13 -90 -39s-34 -59.667 -34 -101v-29c38.667 26.667 81 40 127 40c64 0 116.333 -21 157 -63s61 -100 61 -174
c0 -73.333 -22.333 -130.833 -67 -172.5s-99.667 -62.5 -165 -62.5c-64.667 0 -119.167 20.333 -163.5 61s-66.5 96 -66.5 166zM172 327l-0.000976562 -114c0 -35.333 9.83301 -65 29.5 -89s47.167 -36 82.5 -36c36 0 63.833 12.667 83.5 38s29.5 57.333 29.5 96
c0 44 -9.33301 79.167 -28 105.5s-47 39.5 -85 39.5c-41.333 0 -78.666 -13.333 -111.999 -40z" />
    <glyph glyph-name="seven" unicode="7" horiz-adv-x="504" 
d="M294 0h-121c0 238 57.667 430.667 173 578h-316l-10 98h453v-97c-65.333 -79.333 -111.5 -161.5 -138.5 -246.5s-40.5 -195.833 -40.5 -332.5z" />
    <glyph glyph-name="eight" unicode="8" horiz-adv-x="574" 
d="M400 359c38.667 -20.667 68.834 -45 90.501 -73s32.5 -64 32.5 -108c0 -58 -24.333 -104.333 -73 -139s-103.334 -52 -164.001 -52c-62 0 -116.833 17.333 -164.5 52s-71.5 81 -71.5 139c0 40.667 10.833 74 32.5 100s51.5 49 89.5 69c-67.333 42 -101 95.667 -101 161
c0 50 19.5 92.667 58.5 128s91.167 53 156.5 53c58.667 0 109.667 -16.833 153 -50.5s65 -77.167 65 -130.5c0 -34 -9 -62.5 -27 -85.5s-43.667 -44.167 -77 -63.5zM297 407c28.667 14 50.5 28.832 65.5 44.499s22.5 34.834 22.5 57.501c0 24.667 -9.16699 44 -27.5 58
s-42.166 21 -71.499 21c-28.667 0 -51.834 -7.16699 -69.501 -21.5s-26.5 -33.5 -26.5 -57.5c0 -23.333 9 -42.5 27 -57.5s44.667 -29.833 80 -44.5zM274 296.999c-33.333 -16.667 -59 -34.002 -77 -52.002s-27 -40 -27 -66s11.167 -47.667 33.5 -65s49.833 -26 82.5 -26
c32 0 59.667 8.5 83 25.5s35 38.833 35 65.5s-10.833 48.334 -32.5 65.001s-54.167 34.334 -97.5 53.001z" />
    <glyph glyph-name="nine" unicode="9" horiz-adv-x="557" 
d="M385 228v29c-38.667 -26.667 -81 -40 -127 -40c-64 0 -116.333 21 -157 63s-61 100 -61 174c0 73.333 22.333 130.833 67 172.5s99.667 62.5 165 62.5c64.667 0 119.167 -20.333 163.5 -61s66.5 -96 66.5 -166v-223c0 -72 -21.167 -132 -63.5 -180s-101.5 -72 -177.5 -72
c-47.333 0 -101 9.33301 -161 28l26 98c51.333 -16.667 96.333 -25 135 -25c38 0 68.167 13 90.5 39s33.5 59.667 33.5 101zM385 349l0.000976562 114c0 35.333 -9.83301 65 -29.5 89s-47.167 36 -82.5 36c-36 0 -63.833 -12.667 -83.5 -38s-29.5 -57.333 -29.5 -96
c0 -44 9.33301 -79.167 28 -105.5s47 -39.5 85 -39.5c41.333 0 78.666 13.333 111.999 40z" />
    <glyph glyph-name="colon" unicode=":" horiz-adv-x="263" 
d="M132 309c-19.333 0 -36 7.16699 -50 21.5s-21 31.166 -21 50.499c0 20 6.83301 36.667 20.5 50s30.5 20 50.5 20c18.667 0 35 -6.83301 49 -20.5s21 -30.167 21 -49.5s-7 -36.166 -21 -50.499s-30.333 -21.5 -49 -21.5zM132 -11c-19.333 0 -36 7.16699 -50 21.5
s-21 31.166 -21 50.499c0 20 6.83301 36.667 20.5 50s30.5 20 50.5 20c18.667 0 35 -6.83301 49 -20.5s21 -30.167 21 -49.5s-7 -36.166 -21 -50.499s-30.333 -21.5 -49 -21.5z" />
    <glyph glyph-name="semicolon" unicode=";" horiz-adv-x="270" 
d="M136 309c-19.333 0 -36 7.16699 -50 21.5s-21 31.166 -21 50.499c0 20 7 36.667 21 50s30.667 20 50 20s36 -6.66699 50 -20s21 -30 21 -50c0 -19.333 -7 -36.166 -21 -50.499s-30.667 -21.5 -50 -21.5zM124 -159l-81 14l46 255h111z" />
    <glyph glyph-name="less" unicode="&#x3c;" horiz-adv-x="528" 
d="M403 -6l-342 286l342 286l64 -75l-251 -211l251 -210z" />
    <glyph glyph-name="equal" unicode="=" horiz-adv-x="567" 
d="M506 334h-445v99h445v-99zM506 126h-445v98h445v-98z" />
    <glyph glyph-name="greater" unicode="&#x3e;" horiz-adv-x="528" 
d="M467 280l-342 -286l-64 76l251 210l-251 211l64 75z" />
    <glyph glyph-name="question" unicode="?" horiz-adv-x="448" 
d="M272 199l-111.002 20v51c0 25.333 6.33301 50.5 19 75.5s26.834 45.667 42.501 62s29.834 34.5 42.501 54.5s19 38.667 19 56c0 21.333 -7 38.5 -21 51.5s-32.667 19.5 -56 19.5c-34.667 0 -72.667 -14.333 -114 -43l-49 84c55.333 39.333 110 59 164 59
c52 0 96.5 -15.333 133.5 -46s55.5 -72.334 55.5 -125.001c0 -24 -6.5 -48.167 -19.5 -72.5s-27.333 -44.833 -43 -61.5s-30 -35.167 -43 -55.5s-19.5 -39.166 -19.5 -56.499v-73zM216.998 -11c-19.333 0 -36.166 7 -50.499 21s-21.5 30.667 -21.5 50
c0 20 7.16699 36.667 21.5 50s31.166 20 50.499 20c18.667 0 35 -6.83301 49 -20.5s21 -30.167 21 -49.5s-6.83301 -36 -20.5 -50s-30.167 -21 -49.5 -21z" />
    <glyph glyph-name="at" unicode="@" horiz-adv-x="885" 
d="M641 -16l36.002 -72.999c-80.667 -56 -169 -84 -265 -84c-107.333 0 -192.833 34.333 -256.5 103s-95.5 154.667 -95.5 258c0 81.333 16.667 156 50 224s82.833 123.167 148.5 165.5s141.167 63.5 226.5 63.5c102 0 184 -34 246 -102s93 -155.667 93 -263
c0 -26 -1 -47 -3 -63h-210l-8 -65c-5.33301 -42 -25.666 -77.167 -60.999 -105.5s-77 -42.5 -125 -42.5c-45.333 0 -82.333 12.333 -111 37s-43 56.667 -43 96c0 48 17.167 85 51.5 111s78.833 39 133.5 39h71l3 19c2.66699 21.333 -1 39.666 -11 54.999s-26.667 23 -50 23
c-34.667 0 -75.334 -7 -122.001 -21l-12 81c52.667 18 100.667 27 144 27c49.333 0 88.666 -15.5 117.999 -46.5s40.333 -70.5 33 -118.5l-3 -19h119c0 80.667 -24.333 147 -73 199s-112.667 78 -192 78c-97.333 0 -176.333 -35.667 -237 -107s-91 -157.333 -91 -258
c0 -85.333 24.667 -154.5 74 -207.5s115.666 -79.5 198.999 -79.5c72.667 0 147 25.333 223 76zM502.002 148.001l7.99902 65.002h-71c-22.667 0 -40.5 -5.83301 -53.5 -17.5s-19.5 -28.834 -19.5 -51.501c0 -16.667 5.33301 -30.334 16 -41.001s25.667 -16 45 -16
c20.667 0 37.834 6 51.501 18s21.5 26.333 23.5 43z" />
    <glyph glyph-name="A" unicode="A" horiz-adv-x="607" 
d="M25 0l209 676h139l209 -676h-122l-51 173h-211l-50 -173h-123zM226 272h154.999l-50 168c-9.33301 30.667 -18.333 68 -27 112c-11.333 -50 -20.666 -87.333 -27.999 -112z" />
    <glyph glyph-name="B" unicode="B" horiz-adv-x="576" 
d="M292 0l-215.001 0.000976562v676h213c68.667 0 123 -17 163 -51s60 -78.333 60 -133c0 -61.333 -29 -107 -87 -137c36.667 -13.333 64.5 -33.5 83.5 -60.5s28.5 -58.167 28.5 -93.5c0 -54.667 -22.167 -101.834 -66.5 -141.501s-104.166 -59.5 -179.499 -59.5z
M196.999 397.001l83 -0.000976562c34.667 0 61.667 8 81 24s29 37.333 29 64s-8.66699 47.834 -26 63.501s-43 23.5 -77 23.5h-90v-175zM196.999 104l94 0.000976562c39.333 0 69.833 9 91.5 27s32.5 41.333 32.5 70c0 29.333 -9.66699 52.666 -29 69.999s-48.333 26 -87 26
h-102v-193z" />
    <glyph glyph-name="C" unicode="C" horiz-adv-x="566" 
d="M498 119l23 -101c-64 -20.667 -128.667 -31 -194 -31c-80 0 -144.667 23.5 -194 70.5s-74 115.167 -74 204.5v152c0 89.333 24.667 157.5 74 204.5s114 70.5 194 70.5c61.333 0 126 -10.333 194 -31l-23 -101c-62 18.667 -118.667 28 -170 28
c-99.333 0 -149 -60 -149 -180v-134c0 -120 49.667 -180 149 -180c55.333 0 112 9.33301 170 28z" />
    <glyph glyph-name="D" unicode="D" horiz-adv-x="630" 
d="M324 0l-247 0.00195312v633c100.667 37.333 183 56 247 56c70 0 128.833 -22.333 176.5 -67s71.5 -106.334 71.5 -185.001v-191c0 -80.667 -21.667 -141.834 -65 -183.501s-104.333 -62.5 -183 -62.5zM451 254.002v173c0 52 -11.5 91.333 -34.5 118s-53.833 40 -92.5 40
c-40 0 -82.333 -7.66699 -127 -23v-458h127c44 0 76.167 11.5 96.5 34.5s30.5 61.5 30.5 115.5z" />
    <glyph glyph-name="E" unicode="E" horiz-adv-x="529" 
d="M77 0v676h387v-104h-267v-181h226l-6 -100h-220v-187h276v-104h-396z" />
    <glyph glyph-name="F" unicode="F" horiz-adv-x="516" 
d="M77 0v676h386v-104h-266v-181h218l-7 -100h-211v-291h-120z" />
    <glyph glyph-name="G" unicode="G" horiz-adv-x="611" 
d="M59 262v152c0 89.333 24.667 157.5 74 204.5s114 70.5 194 70.5c58.667 0 127.334 -12.333 206.001 -37l-26 -100c-66.667 21.333 -126.334 32 -179.001 32c-99.333 0 -149 -59.333 -149 -178v-134c0 -120 49.667 -180 149 -180c34 0 70 4.33301 108 13v175h-71v88h185
v-341c-78 -26.667 -152.333 -40 -223 -40c-80 0 -144.667 23.5 -194 70.5s-74 115.167 -74 204.5z" />
    <glyph glyph-name="H" unicode="H" horiz-adv-x="639" 
d="M77 0v676h120v-281h244v281h121v-676h-121v293h-244v-293h-120z" />
    <glyph glyph-name="I" unicode="I" horiz-adv-x="274" 
d="M77 0v676h120v-676h-120z" />
    <glyph glyph-name="J" unicode="J" horiz-adv-x="480" 
d="M22 21l27.998 97.999c54 -18.667 100.667 -28 140 -28c68.667 0 103 45.333 103 136v449l120 -7v-445c0 -73.333 -19.167 -131.166 -57.5 -173.499s-92.166 -63.5 -161.499 -63.5c-53.333 0 -110.666 11.333 -171.999 34z" />
    <glyph glyph-name="K" unicode="K" horiz-adv-x="600" 
d="M77 0v676h120v-293l209 293h140l-218 -299l250 -377h-142l-181 278l-58 -81v-197h-120z" />
    <glyph glyph-name="L" unicode="L" horiz-adv-x="509" 
d="M77 0v676h120v-572h280l-6 -104h-394z" />
    <glyph glyph-name="M" unicode="M" horiz-adv-x="822" 
d="M42 0l76 676h139l128 -350c8 -20 16.667 -49 26 -87c6 27.333 14.333 56.333 25 87l129 350h139l76 -676h-120l-40 401c-4 38.667 -6.33301 76.667 -7 114c-13.333 -50.667 -24.666 -88.334 -33.999 -113.001l-103 -281h-130l-103 281
c-12.667 34.667 -24.334 72.334 -35.001 113.001c-1.33301 -46 -3.33301 -84 -6 -114l-41 -401h-119z" />
    <glyph glyph-name="N" unicode="N" horiz-adv-x="632" 
d="M77 0v676.001h97l263 -439c-2 37.333 -3 70.666 -3 99.999v339h121v-676h-100l-262 435c2.66699 -34 4 -68.333 4 -103v-332h-120z" />
    <glyph glyph-name="O" unicode="O" horiz-adv-x="636" 
d="M59 262v150c0 88.667 24.333 157 73 205s110.667 72 186 72s137.333 -24 186 -72s73 -116.333 73 -205v-150c0 -88.667 -24.333 -156.667 -73 -204s-110.667 -71 -186 -71s-137.333 23.667 -186 71s-73 115.333 -73 204zM179 271c0 -120 46.334 -180 139.001 -180
c92 0 138 60 138 180v134c0 61.333 -12.333 106.666 -37 135.999s-58.334 44 -101.001 44s-76.5 -14.667 -101.5 -44s-37.5 -74.666 -37.5 -135.999v-134z" />
    <glyph glyph-name="P" unicode="P" horiz-adv-x="554" 
d="M77 0v676h233c63.333 0 114.666 -20.5 153.999 -61.5s59 -90.833 59 -149.5c0 -58 -19.667 -107.167 -59 -147.5s-90.666 -60.5 -153.999 -60.5h-113v-257h-120zM197 359h109c29.333 0 52.333 9.66699 69 29s25 45 25 77s-8.33301 57.833 -25 77.5s-39.667 29.5 -69 29.5
h-109v-213z" />
    <glyph glyph-name="Q" unicode="Q" horiz-adv-x="636" 
d="M59 262v150c0 88.667 24.333 157 73 205s110.667 72 186 72s137.333 -24 186 -72s73 -116.333 73 -205v-150c0 -63.333 -13 -116.333 -39 -159s-61.333 -74 -106 -94l50 -133l-91 -55l-62 166h-11c-75.333 0 -137.333 23.667 -186 71s-73 115.333 -73 204zM179 271
c0 -120 46.333 -180 139 -180c42.667 0 76.5 14.5 101.5 43.5s37.5 74.5 37.5 136.5v134c0 61.333 -12.5 106.666 -37.5 135.999s-58.833 44 -101.5 44s-76.5 -14.667 -101.5 -44s-37.5 -74.666 -37.5 -135.999v-134z" />
    <glyph glyph-name="R" unicode="R" horiz-adv-x="565" 
d="M77 0l0.000976562 676h233c63.333 0 114.666 -20.5 153.999 -61.5s59 -90.833 59 -149.5c0 -42 -11.333 -80 -34 -114s-53.667 -58.333 -93 -73l131 -278h-135l-116 262h-79v-262h-120zM197.001 359h108c28.667 0 51.834 9.83301 69.501 29.5s26.5 45.167 26.5 76.5
c0 32 -8.83301 57.833 -26.5 77.5s-40.834 29.5 -69.501 29.5h-108v-213z" />
    <glyph glyph-name="S" unicode="S" horiz-adv-x="514" 
d="M40 26l23 101.998c70.667 -24.667 132.334 -37 185.001 -37c29.333 0 53.5 8.16699 72.5 24.5s28.5 38.5 28.5 66.5c0 22 -7.16699 41.333 -21.5 58s-32.5 29.834 -54.5 39.501s-45.5 21 -70.5 34s-48.5 26.5 -70.5 40.5s-40.167 34 -54.5 60s-21.5 56.333 -21.5 91
c0 55.333 20.667 99.833 62 133.5s93.666 50.5 156.999 50.5c58 0 119.333 -13 184 -39l-31 -98c-59.333 22 -110.333 33 -153 33c-31.333 0 -54.833 -7 -70.5 -21s-23.5 -33 -23.5 -57c0 -20.667 7.16699 -38.667 21.5 -54s32.5 -27.5 54.5 -36.5s45.5 -20 70.5 -33
s48.5 -26.667 70.5 -41s40.167 -35.166 54.5 -62.499s21.5 -59.333 21.5 -96c0 -62.667 -21.833 -111.167 -65.5 -145.5s-97.167 -51.5 -160.5 -51.5c-66 0 -135.333 13 -208 39z" />
    <glyph glyph-name="T" unicode="T" horiz-adv-x="522" 
d="M201 0v572h-173v104h466v-104h-172v-572h-121z" />
    <glyph glyph-name="U" unicode="U" horiz-adv-x="636" 
d="M72 222l0.00292969 454h120v-445c0 -42 11.5 -75.833 34.5 -101.5s53.5 -38.5 91.5 -38.5c37.333 0 67.666 12.833 90.999 38.5s35 59.5 35 101.5v445h120v-454c0 -68.667 -23.833 -125 -71.5 -169s-105.834 -66 -174.501 -66s-126.834 22 -174.501 66
s-71.5 100.333 -71.5 169z" />
    <glyph glyph-name="V" unicode="V" horiz-adv-x="607" 
d="M234 0l-209 676h123l128 -440c6.66699 -22 16 -61 28 -117c8.66699 46 17.667 85 27 117l129 440h122l-209 -676h-139z" />
    <glyph glyph-name="W" unicode="W" horiz-adv-x="837" 
d="M153 0l-115 676.002h123l58 -399c4.66699 -32 8.66699 -75.667 12 -131c15.333 71.333 25.333 114.666 30 129.999l91 293h132l92 -293c5.33301 -18.667 15.333 -61.334 30 -128.001c3.33301 55.333 7.33301 98.333 12 129l58 399h123l-115 -676h-136l-108 353
c-8 26.667 -15.333 57.334 -22 92.001c-7.33301 -40.667 -14.333 -71.334 -21 -92.001l-108 -353h-136z" />
    <glyph glyph-name="X" unicode="X" horiz-adv-x="589" 
d="M22 0l204 352l-182 324h133l117 -214l121 214h130l-181 -320l203 -356h-136l-136 247l-140 -247h-133z" />
    <glyph glyph-name="Y" unicode="Y" horiz-adv-x="570" 
d="M225 0v258l-205 418h129l136 -295l136 295h129l-205 -418v-258h-120z" />
    <glyph glyph-name="Z" unicode="Z" horiz-adv-x="557" 
d="M43 0v84l298 488h-292v104h443v-83l-300 -489h321l-11 -104h-459z" />
    <glyph glyph-name="bracketleft" unicode="[" horiz-adv-x="286" 
d="M269 -227h-192v1026h192v-96h-80v-834h80v-96z" />
    <glyph glyph-name="backslash" unicode="\" horiz-adv-x="387" 
d="M339 -63h-104l-187 795h103z" />
    <glyph glyph-name="bracketright" unicode="]" horiz-adv-x="286" 
d="M209 -227h-192v96h80v834h-80v96h192v-1026z" />
    <glyph glyph-name="asciicircum" unicode="^" horiz-adv-x="615" 
d="M541 427l-99 -45l-134 254l-135 -254l-98 45l179 305h108z" />
    <glyph glyph-name="underscore" unicode="_" horiz-adv-x="500" 
d="M500 -181h-500v99h500v-99z" />
    <glyph glyph-name="grave" unicode="`" horiz-adv-x="399" 
d="M291 579l-213 79l34 84l210 -91z" />
    <glyph glyph-name="a" unicode="a" horiz-adv-x="491" 
d="M42 160c0 51.333 17.668 90.833 53.001 118.5s83 41.5 143 41.5h82v19c0 29.333 -7 52 -21 68s-34.333 24 -61 24c-38.667 0 -85.334 -8.33301 -140.001 -25l-25 95c64.667 20.667 119.667 31 165 31c60 0 108.333 -17.5 145 -52.5s55 -81.833 55 -140.5v-179
c0 -48.667 -19.5 -89.667 -58.5 -123s-85.5 -50 -139.5 -50c-56 0 -103 16.667 -141 50s-57 74.333 -57 123zM161.001 162c0 -20 6.83301 -37.3311 20.5 -51.998s33.167 -22 58.5 -22c24 0 43.333 7.16699 58 21.5s22 31.166 22 50.499v74h-83
c-26 0 -45.167 -6.83301 -57.5 -20.5s-18.5 -30.834 -18.5 -51.501z" />
    <glyph glyph-name="b" unicode="b" horiz-adv-x="530" 
d="M54 204v522l117 19v-243c32 20 66.667 30 104 30c56.667 0 104.5 -18.833 143.5 -56.5s58.5 -91.5 58.5 -161.5v-110c0 -66.667 -20.5 -119.5 -61.5 -158.5s-91.167 -58.5 -150.5 -58.5s-109.333 19.5 -150 58.5s-61 91.833 -61 158.5zM171 209
c0 -39.333 8.66699 -69.333 26 -90s40 -31 68 -31s50.667 10.333 68 31s26 50.667 26 90v100c0 42.667 -8.66699 73.667 -26 93s-40.333 29 -69 29c-27.333 0 -58.333 -9 -93 -27v-195z" />
    <glyph glyph-name="c" unicode="c" horiz-adv-x="474" 
d="M54 214v90.999c0 76.667 20 133.667 60 171s94.333 56 163 56c46 0 95.667 -8 149 -24l-24 -97c-47.333 13.333 -87.333 20 -120 20c-36.667 0 -64.334 -10 -83.001 -30s-28 -52.667 -28 -98v-86c0 -45.333 9.33301 -78.166 28 -98.499s46.334 -30.5 83.001 -30.5
c31.333 0 71.333 6.66699 120 20l25 -97c-55.333 -16 -105.333 -24 -150 -24c-68.667 0 -123 18.667 -163 56s-60 94.333 -60 171z" />
    <glyph glyph-name="d" unicode="d" horiz-adv-x="529" 
d="M54 204v110c0 70 19.5 123.833 58.5 161.5s86.833 56.5 143.5 56.5c36 0 70 -10 102 -30v230h118v-528c0 -66.667 -20.333 -119.5 -61 -158.5s-90.667 -58.5 -150 -58.5s-109.333 19.5 -150 58.5s-61 91.833 -61 158.5zM170 209c0 -39.333 8.83398 -69.333 26.501 -90
s40.5 -31 68.5 -31s50.5 10.333 67.5 31s25.5 50.667 25.5 90v195c-34 18 -64.667 27 -92 27c-28.667 0 -51.834 -9.66699 -69.501 -29s-26.5 -50.333 -26.5 -93v-100z" />
    <glyph glyph-name="e" unicode="e" horiz-adv-x="514" 
d="M54 207l-0.000976562 110c0 67.333 19.333 120 58 158s87.667 57 147 57c58 0 106.833 -18.333 146.5 -55s59.5 -83.667 59.5 -141v-110h-295v-19c0 -79.333 35.333 -119 106 -119c41.333 0 88.333 8 141 24l23 -96c-52 -19.333 -106.667 -29 -164 -29
c-67.333 0 -121.166 19 -161.499 57s-60.5 92.333 -60.5 163zM169.999 312l178 -0.000976562v24c0 27.333 -8.16699 50 -24.5 68s-37.833 27 -64.5 27s-48.167 -9.16699 -64.5 -27.5s-24.5 -43.166 -24.5 -74.499v-17z" />
    <glyph glyph-name="f" unicode="f" horiz-adv-x="339" 
d="M89 0v438h-69v81h69v66c0 50 17 89.167 51 117.5s74 42.5 120 42.5c28.667 0 59.667 -5 93 -15l-23 -96c-22 6.66699 -43 10 -63 10c-19.333 0 -34.5 -5.16699 -45.5 -15.5s-16.5 -24.833 -16.5 -43.5v-66h121l-22 -81h-99v-438h-116z" />
    <glyph glyph-name="g" unicode="g" horiz-adv-x="490" 
d="M56 -83c64 -28 122.001 -42.002 174.001 -42.002c34.667 0 61.334 4.66699 80.001 14s28 22.333 28 39c0 10.667 -6 19.334 -18 26.001s-27.167 11.334 -45.5 14.001s-38.166 6.5 -59.499 11.5s-41.166 10.667 -59.499 17s-33.5 16.833 -45.5 31.5s-18 32.334 -18 53.001
c0 24 10.667 45.333 32 64c-51.333 33.333 -77 83.333 -77 150v53c0 54.667 17.833 99 53.5 133s81.167 51 136.5 51c27.333 0 52 -4 74 -12l156 11l-7 -78l-61 -3c19.333 -31.333 29 -65.333 29 -102v-53c0 -54 -17.667 -98 -53 -132s-81 -51 -137 -51
c-14.667 0 -28.334 1 -41.001 3c-4.66699 -6 -7 -11.333 -7 -16c0 -8 9.16699 -14.5 27.5 -19.5s40.666 -9.83301 66.999 -14.5s52.666 -11.167 78.999 -19.5s48.666 -21.833 66.999 -40.5s27.5 -42 27.5 -70c0 -48.667 -20 -87.334 -60 -116.001s-95.333 -43 -166 -43
c-70 0 -138.667 16.333 -206 49zM238.001 210.998c50 0 75 28 75 84v53c0 55.333 -25.333 83 -76 83c-50 0 -75 -27.667 -75 -83v-53c0 -56 25.333 -84 76 -84z" />
    <glyph glyph-name="h" unicode="h" horiz-adv-x="552" 
d="M72 0l-0.000976562 732h117v-230c33.333 20 68 30 104 30c56.667 0 102.834 -17 138.501 -51s53.5 -86 53.5 -156v-325h-117v318c0 41.333 -7.33301 70.5 -22 87.5s-36 25.5 -64 25.5s-59 -9 -93 -27v-404h-117z" />
    <glyph glyph-name="i" unicode="i" horiz-adv-x="261" 
d="M130 597c-19.333 0 -35.833 6.66699 -49.5 20s-20.5 29.333 -20.5 48c0 19.333 7 35.333 21 48s30.333 19 49 19s35 -6.33301 49 -19s21 -28.667 21 -48c0 -18.667 -6.83301 -34.667 -20.5 -48s-30.167 -20 -49.5 -20zM72 0v519h117v-519h-117z" />
    <glyph glyph-name="j" unicode="j" horiz-adv-x="261" 
d="M131 597c-19.333 0 -35.833 6.66699 -49.5 20s-20.5 29.333 -20.5 48c0 19.333 6.83301 35.333 20.5 48s30.167 19 49.5 19c18.667 0 34.834 -6.33301 48.501 -19s20.5 -28.667 20.5 -48c0 -18.667 -6.83301 -34.667 -20.5 -48s-29.834 -20 -48.501 -20zM72 -222v741h118
v-721z" />
    <glyph glyph-name="k" unicode="k" horiz-adv-x="490" 
d="M72 0v732h117v-421l70 24c20.667 8 35 27.667 43 59l32 125h115l-40 -150c-8 -30 -16.833 -53.5 -26.5 -70.5s-24.167 -30.167 -43.5 -39.5l135 -259h-129l-108 220l-48 -18v-202h-117z" />
    <glyph glyph-name="l" unicode="l" horiz-adv-x="261" 
d="M72 0v725l117 20v-745h-117z" />
    <glyph glyph-name="m" unicode="m" horiz-adv-x="801" 
d="M67 0v323c0 67.333 18.5 119 55.5 155s83.833 54 140.5 54c61.333 0 107 -27.333 137 -82c30.667 54.667 76.667 82 138 82c56.667 0 103.5 -18 140.5 -54s55.5 -87.667 55.5 -155v-323h-117v313c0 78.667 -26.333 118 -79 118s-79 -45 -79 -135v-296h-117v296
c0 44 -6.83301 77.5 -20.5 100.5s-33.167 34.5 -58.5 34.5c-52.667 0 -79 -39.333 -79 -118v-313h-117z" />
    <glyph glyph-name="n" unicode="n" horiz-adv-x="546" 
d="M67 0l0.000976562 318c0 67.333 19.667 119.833 59 157.5s88.666 56.5 147.999 56.5s108.333 -18.833 147 -56.5s58 -90.167 58 -157.5v-318h-117v313c0 38 -7.83301 67.167 -23.5 87.5s-37.167 30.5 -64.5 30.5c-28 0 -50.167 -10.167 -66.5 -30.5
s-24.5 -49.5 -24.5 -87.5v-313h-116z" />
    <glyph glyph-name="o" unicode="o" horiz-adv-x="539" 
d="M54 215l-0.000976562 90c0 71.333 19.833 127 59.5 167s91.5 60 155.5 60c64.667 0 116.834 -20 156.501 -60s59.5 -96 59.5 -168v-89c0 -72 -20 -128 -60 -168s-92 -60 -156 -60s-115.833 20 -155.5 60s-59.5 96 -59.5 168zM169.999 220c0 -88 33 -132 99 -132
c66.667 0 100 44 100 132v79c0 88 -33.333 132 -100 132c-66 0 -99 -44 -99 -132v-79z" />
    <glyph glyph-name="p" unicode="p" horiz-adv-x="530" 
d="M171 17v-228h-117v526c0 66.667 20.333 119.5 61 158.5s90.667 58.5 150 58.5s109.5 -19.5 150.5 -58.5s61.5 -91.833 61.5 -158.5v-110c0 -70 -19.5 -123.833 -58.5 -161.5s-86.833 -56.5 -143.5 -56.5c-37.333 0 -72 10 -104 30zM171 115c34.667 -18 65.667 -27 93 -27
c28.667 0 51.667 9.66699 69 29s26 50.333 26 93v100c0 39.333 -8.66699 69.333 -26 90s-40 31 -68 31s-50.667 -10.333 -68 -31s-26 -50.667 -26 -90v-195z" />
    <glyph glyph-name="q" unicode="q" horiz-adv-x="530" 
d="M54 205l-0.000976562 110c0 66.667 20.333 119.5 61 158.5s90.667 58.5 150 58.5s109.5 -19.5 150.5 -58.5s61.5 -91.833 61.5 -158.5v-520l-118 -19v241c-33.333 -20 -67.666 -30 -102.999 -30c-56.667 0 -104.5 18.833 -143.5 56.5s-58.5 91.5 -58.5 161.5z
M170.999 210c0 -81.333 31.667 -122 95 -122c28 0 59 9 93 27v195c0 39.333 -8.66699 69.333 -26 90s-40 31 -68 31s-50.667 -10.333 -68 -31s-26 -50.667 -26 -90v-100z" />
    <glyph glyph-name="r" unicode="r" horiz-adv-x="364" 
d="M67 0l-0.000976562 335.001c0 58.667 19.333 106.167 58 142.5s87.334 54.5 146.001 54.5c30.667 0 59 -4.33301 85 -13l-22 -97c-24 6 -44.667 9 -62 9c-26.667 0 -48.167 -8.83301 -64.5 -26.5s-24.5 -40.834 -24.5 -69.501v-335h-116z" />
    <glyph glyph-name="s" unicode="s" horiz-adv-x="427" 
d="M35 16l23.0029 95.999c50 -16 95 -24 135 -24c22.667 0 41.167 5.16699 55.5 15.5s21.5 23.166 21.5 38.499c0 17.333 -7.66699 32 -23 44s-33.833 22.333 -55.5 31s-43.334 18.5 -65.001 29.5s-40.167 27.833 -55.5 50.5s-23 50.667 -23 84c0 44 16.667 80.167 50 108.5
s77.666 42.5 132.999 42.5c44.667 0 90.667 -8 138 -24l-26 -98c-44.667 14 -82 21 -112 21c-42 0 -63 -16.667 -63 -50c0 -16 7.66699 -29.5 23 -40.5s33.666 -20.667 54.999 -29s42.833 -18.166 64.5 -29.499s40.167 -28.666 55.5 -51.999s23 -52 23 -86
c0 -42.667 -17 -79.5 -51 -110.5s-82.333 -46.5 -145 -46.5c-51.333 0 -104 9.66699 -158 29z" />
    <glyph glyph-name="t" unicode="t" horiz-adv-x="324" 
d="M97 0v438h-64l-22 81h86v144l118 19v-163h92v-81h-92v-438h-118z" />
    <glyph glyph-name="u" unicode="u" horiz-adv-x="546" 
d="M67 201v318h116v-313c0 -38 8 -67.167 24 -87.5s38 -30.5 66 -30.5c27.333 0 49 10.167 65 30.5s24 49.5 24 87.5v313h117v-318c0 -67.333 -19.667 -119.833 -59 -157.5s-88.333 -56.5 -147 -56.5c-59.333 0 -108.5 18.833 -147.5 56.5s-58.5 90.167 -58.5 157.5z" />
    <glyph glyph-name="v" unicode="v" horiz-adv-x="497" 
d="M182 0l-165 518.999h120l77 -252c11.333 -40 22.666 -87.667 33.999 -143c18.667 78.667 30.334 126.334 35.001 143.001l77 252h120l-165 -519h-133z" />
    <glyph glyph-name="w" unicode="w" horiz-adv-x="787" 
d="M70 176l-25.0029 342.999h117l23 -335c2 -28.667 9.5 -51.5 22.5 -68.5s30.833 -25.5 53.5 -25.5s40.834 9 54.501 27s20.5 41 20.5 69v298h114v-298c0 -28 6.66699 -51 20 -69s31.333 -27 54 -27s40.834 8.5 54.501 25.5s21.5 39.833 23.5 68.5l24 335h116l-26 -343
c-4.66699 -59.333 -24 -105.666 -58 -138.999s-78 -50 -132 -50c-58.667 0 -103 23.667 -133 71c-31.333 -47.333 -76 -71 -134 -71c-53.333 0 -97.166 17 -131.499 51s-53.5 80 -57.5 138z" />
    <glyph glyph-name="x" unicode="x" horiz-adv-x="496" 
d="M16 0l162 268l-148 251h132l86 -150l89 150h128l-149 -248l163 -271h-135l-97 169l-100 -169h-131z" />
    <glyph glyph-name="y" unicode="y" horiz-adv-x="500" 
d="M72 184l-47 334.999h117l46 -325c4.66699 -31.333 13 -54.666 25 -69.999s29.333 -23 52 -23h37l52 418h117l-96 -730h-115l28 211h-27c-108 -0 -171 61.333 -189 184z" />
    <glyph glyph-name="z" unicode="z" horiz-adv-x="480" 
d="M50 0v85l228 336h-221v98h361v-84l-223 -337h235l-10 -98h-370z" />
    <glyph glyph-name="braceleft" unicode="{" horiz-adv-x="412" 
d="M399 -125v-100.001c-157.333 0 -236 66.667 -236 200v155c0 40 -8.66699 68.667 -26 86s-47.333 26 -90 26v87c42.667 0 72.667 8.66699 90 26s26 46 26 86v159c0 133.333 78.667 200 236 200v-101c-44.667 0 -76.5 -7.5 -95.5 -22.5s-28.5 -41.5 -28.5 -79.5v-156
c0 -72 -27.333 -124 -82 -156c54.667 -32 82 -83.667 82 -155v-153c0 -37.333 9.66699 -63.666 29 -78.999s51 -23 95 -23z" />
    <glyph glyph-name="bar" unicode="|" horiz-adv-x="260" 
d="M186 -200h-112v932h112v-932z" />
    <glyph glyph-name="braceright" unicode="}" horiz-adv-x="411" 
d="M13 -225v100.001c44 0 75.5 7.66699 94.5 23s28.5 41.666 28.5 78.999v153c0 71.333 27.333 123 82 155c-54.667 32 -82 84 -82 156v156c0 38 -9.5 64.5 -28.5 79.5s-50.5 22.5 -94.5 22.5v101c156.667 0 235 -66.667 235 -200v-159c0 -40 8.83301 -68.667 26.5 -86
s47.834 -26 90.501 -26v-87c-42.667 0 -72.834 -8.66699 -90.501 -26s-26.5 -46 -26.5 -86v-155c0 -133.333 -78.333 -200 -235 -200z" />
    <glyph glyph-name="asciitilde" unicode="~" horiz-adv-x="589" 
d="M446 349l71 -63c-43.333 -64.667 -90 -97 -140 -97c-22.667 0 -44.5 6.5 -65.5 19.5s-39.667 26 -56 39s-30.833 19.5 -43.5 19.5c-24 0 -47 -16.667 -69 -50l-71 64c43.333 64.667 90.333 97 141 97c22 0 43.333 -6.66699 64 -20s39.5 -26.5 56.5 -39.5
s31.5 -19.5 43.5 -19.5c22 0 45 16.667 69 50z" />
    <glyph glyph-name="uni00A0" unicode="&#xa0;" horiz-adv-x="230" 
 />
    <glyph glyph-name="exclamdown" unicode="&#xa1;" horiz-adv-x="264" 
d="M203 514c0 -19.333 -7.16699 -35.665 -21.5 -48.998s-30.833 -20 -49.5 -20c-19.333 0 -36 6.66699 -50 20s-21 29.666 -21 48.999s7 36.166 21 50.499s30.667 21.5 50 21.5s36 -7 50 -21s21 -31 21 -51zM193 -87.999l-123 -20l7 471h109z" />
    <glyph glyph-name="cent" unicode="&#xa2;" horiz-adv-x="484" 
d="M321 -124l-88.999 0.000976562v114c-54.667 7.33301 -97.834 29.666 -129.501 66.999s-47.5 89.666 -47.5 156.999v91c0 66.667 15.833 118.667 47.5 156s74.834 60 129.501 68v114h89v-114c29.333 -2.66699 64.666 -9.66699 105.999 -21l-23 -97
c-48.667 13.333 -88.667 20 -120 20c-37.333 0 -65.333 -10 -84 -30s-28 -52.667 -28 -98v-86c0 -45.333 9.33301 -78.166 28 -98.499s46.667 -30.5 84 -30.5c31.333 0 71.333 6.66699 120 20l24 -97c-40 -11.333 -75.667 -18.333 -107 -21v-114z" />
    <glyph glyph-name="sterling" unicode="&#xa3;" horiz-adv-x="497" 
d="M452 0l-389.999 0.000976562v86c44.667 56.667 67 107 67 151c0 8.66699 -0.666992 21 -2 37h-68v73h55l-9 34.5c-4.66699 17.667 -7.83398 30.5 -9.50098 38.5s-3.5 18.833 -5.5 32.5s-3 26.5 -3 38.5c0 63.333 19.667 112.166 59 146.499s89.333 51.5 150 51.5
c49.333 0 103 -12 161 -36l-34 -93c-43.333 17.333 -83 26 -119 26c-64 0 -96 -34.333 -96 -103c0 -22.667 8.33301 -68 25 -136h168v-73h-154c1.33301 -16 2 -28.333 2 -37c0 -50.667 -20.667 -98 -62 -142h265v-95z" />
    <glyph glyph-name="currency" unicode="&#xa4;" horiz-adv-x="583" 
d="M436 56l-60.998 61.002c-28 -13.333 -55.667 -20 -83 -20c-30.667 0 -58.334 6.66699 -83.001 20l-61 -61l-81 79l62 62c-13.333 25.333 -20 53 -20 83c0 29.333 6.66699 56.666 20 81.999l-62 62l81 80l61 -62c25.333 13.333 53 20 83 20
c29.333 0 56.666 -6.66699 81.999 -20l62 62l80 -80l-62 -61c14 -26.667 21 -54.334 21 -83.001c0 -27.333 -6.66699 -55 -20 -83l61 -62zM375.002 280.002c0 22.667 -8.16699 42.167 -24.5 58.5s-35.833 24.5 -58.5 24.5s-42.167 -8.16699 -58.5 -24.5
s-24.5 -35.833 -24.5 -58.5s8.16699 -42.167 24.5 -58.5s35.833 -24.5 58.5 -24.5s42.167 8.16699 58.5 24.5s24.5 35.833 24.5 58.5z" />
    <glyph glyph-name="yen" unicode="&#xa5;" horiz-adv-x="531" 
d="M452 101h-126v-101h-119v101h-126v73h126v70h-126v73h96l-173 359h123l139 -310l138 310h124l-173 -359h97v-73h-126v-70h126v-73z" />
    <glyph glyph-name="brokenbar" unicode="&#xa6;" horiz-adv-x="260" 
d="M186 382h-112v350h112v-350zM186 -200h-112v346h112v-346z" />
    <glyph glyph-name="section" unicode="&#xa7;" horiz-adv-x="560" 
d="M62 -98l20 100.998c59.333 -21.333 112.333 -32 159 -32c28 0 50.333 6 67 18s25 30.333 25 55c0 23.333 -8.83301 42.666 -26.5 57.999s-39 28.333 -64 39s-50 22.334 -75 35.001s-46.333 31.834 -64 57.501s-26.5 57.5 -26.5 95.5c0 48.667 17.667 88.667 53 120
c-8.66699 22 -13 46 -13 72c0 50.667 18.667 91.334 56 122.001s84.666 46 141.999 46c52.667 0 110 -11.667 172 -35l-28 -98c-51.333 19.333 -96.333 29 -135 29c-54.667 0 -82 -21 -82 -63c0 -20 8.83301 -37.333 26.5 -52s39 -27.5 64 -38.5s49.833 -23.667 74.5 -38
s45.834 -34.833 63.501 -61.5s26.5 -58.667 26.5 -96c0 -49.333 -17.333 -90.333 -52 -123c8 -22 12 -45 12 -69c0 -56 -20.833 -99.667 -62.5 -131s-91.5 -47 -149.5 -47c-50 0 -111 12 -183 36zM213 364.998c-7.33301 -9.33301 -11.001 -20.6689 -11.001 -34.002
c0 -20.667 7.66699 -37.5 23 -50.5s38.666 -26.667 69.999 -41s54.333 -26.833 69 -37.5c6 10.667 9 21.667 9 33c0 23.333 -7.16699 41.833 -21.5 55.5s-38.166 27.834 -71.499 42.501s-55.666 25.334 -66.999 32.001z" />
    <glyph glyph-name="dieresis" unicode="&#xa8;" horiz-adv-x="455" 
d="M380 660c0 -16 -5.83301 -29.667 -17.5 -41s-25.5 -17 -41.5 -17c-15.333 0 -28.833 5.66699 -40.5 17s-17.5 25 -17.5 41c0 16.667 5.83301 30.834 17.5 42.501s25.167 17.5 40.5 17.5c16.667 0 30.667 -5.83301 42 -17.5s17 -25.834 17 -42.501zM192 660
c0 -16 -5.66699 -29.666 -17 -40.999s-25 -17 -41 -17s-29.833 5.66699 -41.5 17s-17.5 25 -17.5 41s5.83301 30 17.5 42s25.5 18 41.5 18s29.667 -5.83301 41 -17.5s17 -25.834 17 -42.501z" />
    <glyph glyph-name="copyright" unicode="&#xa9;" horiz-adv-x="749" 
d="M374 -13c-96 0 -172.5 31.833 -229.5 95.5s-85.5 143.5 -85.5 239.5s28.5 175.833 85.5 239.5s133.5 95.5 229.5 95.5c96.667 0 173.667 -31.833 231 -95.5s86 -143.5 86 -239.5s-28.667 -175.833 -86 -239.5s-134.333 -95.5 -231 -95.5zM374 56
c75.333 0 134.5 24.833 177.5 74.5s64.5 113.5 64.5 191.5s-21.5 141.833 -64.5 191.5s-102.167 74.5 -177.5 74.5c-74 0 -132.667 -25 -176 -75s-65 -113.667 -65 -191s21.667 -141 65 -191s102 -75 176 -75zM460 219l15 -61c-38 -11.333 -72.667 -17 -104 -17
c-41.333 0 -75.666 12.833 -102.999 38.5s-41 60.5 -41 104.5v76c0 44 13.667 78.833 41 104.5s61.666 38.5 102.999 38.5c33.333 0 68 -5.66699 104 -17l-15 -60c-30 8.66699 -59.333 13 -88 13c-46.667 0 -70 -28.667 -70 -86v-63c0 -56.667 23.333 -85 70 -85
c26.667 0 56 4.66699 88 14z" />
    <glyph glyph-name="ordfeminine" unicode="&#xaa;" horiz-adv-x="370" 
d="M326 540l0.000976562 -123c0 -35.333 -13.833 -65 -41.5 -89s-60.834 -36 -99.501 -36c-40.667 0 -74.5 12 -101.5 36s-40.5 53.667 -40.5 89c0 36.667 12.833 64.5 38.5 83.5s59.834 28.5 102.501 28.5h50v14c0 36 -16.667 54 -50 54c-26.667 0 -60.334 -6 -101.001 -18
l-20 74c46 15.333 86.333 23 121 23c42 0 76.167 -12.5 102.5 -37.5s39.5 -57.833 39.5 -98.5zM234.001 417v47h-46c-34.667 0 -52 -15.333 -52 -46c0 -14 4.5 -25.167 13.5 -33.5s20.833 -12.5 35.5 -12.5s26.5 4.5 35.5 13.5s13.5 19.5 13.5 31.5z" />
    <glyph glyph-name="guillemotleft" unicode="&#xab;" horiz-adv-x="528" 
d="M477 150l-80 -60l-145 190l145 191l80 -60l-100 -130zM286 150l-79 -60l-146 190l146 191l79 -60l-99 -130z" />
    <glyph glyph-name="logicalnot" unicode="&#xac;" horiz-adv-x="567" 
d="M506 55h-98v168h-347v99h445v-267z" />
    <glyph glyph-name="uni00AD" unicode="&#xad;" horiz-adv-x="494" 
d="M418 223h-341v99h341v-99z" />
    <glyph glyph-name="registered" unicode="&#xae;" horiz-adv-x="749" 
d="M374 -13c-96 0 -172.5 31.833 -229.5 95.5s-85.5 143.5 -85.5 239.5s28.5 175.833 85.5 239.5s133.5 95.5 229.5 95.5c96.667 0 173.667 -31.833 231 -95.5s86 -143.5 86 -239.5s-28.667 -175.833 -86 -239.5s-134.333 -95.5 -231 -95.5zM374 56
c75.333 0 134.5 24.833 177.5 74.5s64.5 113.5 64.5 191.5s-21.5 141.833 -64.5 191.5s-102.167 74.5 -177.5 74.5c-74 0 -132.667 -25 -176 -75s-65 -113.667 -65 -191s21.667 -141 65 -191s102 -75 176 -75zM509 148h-80l-56 124h-39v-124h-75v350h123
c35.333 0 63.5 -10.833 84.5 -32.5s31.5 -48.5 31.5 -80.5c0 -48.667 -18.667 -82 -56 -100zM334 336h44c14.667 0 26 4.5 34 13.5s12 20.833 12 35.5c0 14 -4 25.667 -12 35s-19.667 14 -35 14h-43v-98z" />
    <glyph glyph-name="macron" unicode="&#xaf;" horiz-adv-x="417" 
d="M336 621h-254v81h254v-81z" />
    <glyph glyph-name="degree" unicode="&#xb0;" horiz-adv-x="375" 
d="M187 489c-35.333 0 -65.167 12.334 -89.5 37.001s-36.5 55 -36.5 91c0 34 12.5 63.333 37.5 88s54.5 37 88.5 37s63.667 -12.667 89 -38s38 -55 38 -89c0 -34.667 -12.667 -64.334 -38 -89.001s-55 -37 -89 -37zM187.999 565.001c13.333 0 24.833 5 34.5 15
s14.5 22 14.5 36c0 13.333 -4.83301 24.833 -14.5 34.5s-21.5 14.5 -35.5 14.5c-13.333 0 -25 -4.83301 -35 -14.5s-15 -21.167 -15 -34.5c0 -14 5 -26 15 -36s22 -15 36 -15z" />
    <glyph glyph-name="plusminus" unicode="&#xb1;" horiz-adv-x="558" 
d="M497 223h-168v-158h-99v158h-169v99h169v157h99v-157h168v-99zM497 -86h-436v97h436v-97z" />
    <glyph glyph-name="acute" unicode="&#xb4;" horiz-adv-x="399" 
d="M321 658l-213 -79l-30 72l209 91z" />
    <glyph glyph-name="mu" unicode="&#xb5;" horiz-adv-x="551" 
d="M188 -211h-115.999v730h116v-322c0 -35.333 8.16699 -62.333 24.5 -81s38.166 -28 65.499 -28s49 10.167 65 30.5s24 49.5 24 87.5v313h117v-318c0 -67.333 -19.667 -119.833 -59 -157.5s-88.333 -56.5 -147 -56.5c-34 0 -64 7 -90 21v-219z" />
    <glyph glyph-name="paragraph" unicode="&#xb6;" horiz-adv-x="621" 
d="M561 -119l-111.999 -0.000976562v688h-77v-688h-112v399h-26c-50.667 0 -93.834 19.5 -129.501 58.5s-53.5 85.5 -53.5 139.5c0 54.667 18.167 101.334 54.5 140.001s81.833 58 136.5 58h319v-795z" />
    <glyph glyph-name="periodcentered" unicode="&#xb7;" horiz-adv-x="282" 
d="M205 280c0 -17.333 -6.33105 -32 -18.998 -44s-27.667 -18 -45 -18c-16.667 0 -31.334 6 -44.001 18s-19 26.667 -19 44c0 18 6.16699 33.167 18.5 45.5s27.166 18.5 44.499 18.5s32.333 -6.16699 45 -18.5s19 -27.5 19 -45.5z" />
    <glyph glyph-name="cedilla" unicode="&#xb8;" horiz-adv-x="306" 
d="M142 -83v83h91v-94c0 -40 -12.333 -69.5 -37 -88.5s-54 -28.5 -88 -28.5c-26.667 0 -51.667 3.33301 -75 10l11 83c23.333 -4.66699 42 -7 56 -7c28 0 42 14 42 42z" />
    <glyph glyph-name="ordmasculine" unicode="&#xba;" horiz-adv-x="395" 
d="M352 515v-62c0 -50 -14.5 -89.333 -43.5 -118s-66.167 -43 -111.5 -43s-82.333 14.333 -111 43s-43 68 -43 118v63c0 49.333 14.333 88.333 43 117s65.667 43 111 43s82.5 -14.333 111.5 -43s43.5 -68 43.5 -118zM259 456v56c0 56.667 -20.667 85 -62 85
s-62 -28.333 -62 -85v-56c0 -56 20.667 -84 62 -84s62 28 62 84z" />
    <glyph glyph-name="guillemotright" unicode="&#xbb;" horiz-adv-x="528" 
d="M321 90l-80 60l100 130l-100 131l80 60l146 -190zM131 90l-80 60l100 130l-100 131l80 60l145 -190z" />
    <glyph glyph-name="questiondown" unicode="&#xbf;" horiz-adv-x="448" 
d="M296 513c0 -20 -7.16699 -36.667 -21.5 -50s-31.166 -20 -50.499 -20c-18.667 0 -35 6.83301 -49 20.5s-21 30.167 -21 49.5s6.83301 36 20.5 50s30.167 21 49.5 21s36.166 -7 50.499 -21s21.5 -30.667 21.5 -50zM348 27l49.002 -84c-55.333 -39.333 -110 -59 -164 -59
c-52 0 -96.5 15.333 -133.5 46s-55.5 72.334 -55.5 125.001c0 24 6.5 48.167 19.5 72.5s27.333 44.833 43 61.5s30 35.167 43 55.5s19.5 39.166 19.5 56.499v73l111 -20v-51c0 -25.333 -6.33301 -50.5 -19 -75.5s-26.834 -45.667 -42.501 -62s-29.834 -34.5 -42.501 -54.5
s-19 -38.667 -19 -56c0 -21.333 7 -38.5 21 -51.5s32.667 -19.5 56 -19.5c34.667 0 72.667 14.333 114 43z" />
    <glyph glyph-name="Agrave" unicode="&#xc0;" horiz-adv-x="607" 
d="M395 721l-213 79l34 84l209 -91zM25 0l209 676h139l209 -676h-122l-51 173h-211l-50 -173h-123zM226 272h154.999l-50 168c-9.33301 30.667 -18.333 68 -27 112c-11.333 -50 -20.666 -87.333 -27.999 -112z" />
    <glyph glyph-name="Aacute" unicode="&#xc1;" horiz-adv-x="607" 
d="M425 800l-213 -79l-30 72l209 91zM25 0l209 676h139l209 -676h-122l-51 173h-211l-50 -173h-123zM226 272h154.999l-50 168c-9.33301 30.667 -18.333 68 -27 112c-11.333 -50 -20.666 -87.333 -27.999 -112z" />
    <glyph glyph-name="Acircumflex" unicode="&#xc2;" horiz-adv-x="607" 
d="M402 725l-98 63l-98 -63l-46 71l144 83l144 -83zM25 0l209 676h139l209 -676h-122l-51 173h-211l-50 -173h-123zM226 272h154.999l-50 168c-9.33301 30.667 -18.333 68 -27 112c-11.333 -50 -20.666 -87.333 -27.999 -112z" />
    <glyph glyph-name="Atilde" unicode="&#xc3;" horiz-adv-x="607" 
d="M406 850l46 -52c-7.33301 -16 -19 -30.333 -35 -43s-35 -19 -57 -19c-18 0 -38.667 7.66699 -62 23s-40.333 23 -51 23c-18.667 0 -34.334 -9.33301 -47.001 -28l-46 52c18.667 41.333 49.667 62 93 62c17.333 0 37.833 -7.83301 61.5 -23.5s40.834 -23.5 51.501 -23.5
c18 0 33.333 9.66699 46 29zM25 0l209 676h139l209 -676h-122l-51 173h-211l-50 -173h-123zM226 272h154.999l-50 168c-9.33301 30.667 -18.333 68 -27 112c-11.333 -50 -20.666 -87.333 -27.999 -112z" />
    <glyph glyph-name="Adieresis" unicode="&#xc4;" horiz-adv-x="607" 
d="M456 802c0 -16 -5.83301 -29.667 -17.5 -41s-25.5 -17 -41.5 -17c-15.333 0 -28.833 5.66699 -40.5 17s-17.5 25 -17.5 41c0 16.667 5.66699 30.834 17 42.501s25 17.5 41 17.5s29.833 -5.83301 41.5 -17.5s17.5 -25.834 17.5 -42.501zM268 802
c0 -16 -5.66699 -29.667 -17 -41s-25.333 -17 -42 -17c-15.333 0 -28.833 5.66699 -40.5 17s-17.5 25 -17.5 41c0 16.667 5.83301 30.834 17.5 42.501s25.167 17.5 40.5 17.5c16.667 0 30.667 -5.83301 42 -17.5s17 -25.834 17 -42.501zM25 0l209 676h139l209 -676h-122
l-51 173h-211l-50 -173h-123zM226 272h154.999l-50 168c-9.33301 30.667 -18.333 68 -27 112c-11.333 -50 -20.666 -87.333 -27.999 -112z" />
    <glyph glyph-name="Aring" unicode="&#xc5;" horiz-adv-x="607" 
d="M304 721c-26.667 0 -49.667 9.5 -69 28.5s-29 41.833 -29 68.5c0 26 9.66699 48.5 29 67.5s42.333 28.5 69 28.5c26 0 48.5 -9.5 67.5 -28.5s28.5 -41.5 28.5 -67.5c0 -26.667 -9.5 -49.5 -28.5 -68.5s-41.5 -28.5 -67.5 -28.5zM304 786
c8.66699 0 16.167 3.16699 22.5 9.5s9.5 13.833 9.5 22.5c0 9.33301 -3 17 -9 23s-13.667 9 -23 9s-17 -3 -23 -9s-9 -13.667 -9 -23c0 -8.66699 3.16699 -16.167 9.5 -22.5s13.833 -9.5 22.5 -9.5zM25 0l209 676h139l209 -676h-122l-51 173h-211l-50 -173h-123zM226 272
h154.999l-50 168c-9.33301 30.667 -18.333 68 -27 112c-11.333 -50 -20.666 -87.333 -27.999 -112z" />
    <glyph glyph-name="AE" unicode="&#xc6;" horiz-adv-x="901" 
d="M486 0l-13 173h-224l-98 -173h-133l395 675h401l7 -104h-262l15 -180h235l-13 -100h-215l13 -187h267l8 -104h-383zM447 523l-142 -251h160z" />
    <glyph glyph-name="Ccedilla" unicode="&#xc7;" horiz-adv-x="566" 
d="M292 -83v71.999c-70.667 6 -127.167 32.333 -169.5 79s-63.5 111.334 -63.5 194.001v152c0 89.333 24.667 157.5 74 204.5s114 70.5 194 70.5c61.333 0 126 -10.333 194 -31l-23 -101c-62 18.667 -118.667 28 -170 28c-99.333 0 -149 -60 -149 -180v-134
c0 -120 49.667 -180 149 -180c55.333 0 112 9.33301 170 28l23 -101c-46 -14.667 -92 -24 -138 -28v-84c0 -40 -12.333 -69.5 -37 -88.5s-54 -28.5 -88 -28.5c-27.333 0 -52.333 3.33301 -75 10l11 83c22 -4.66699 40.667 -7 56 -7c28 0 42 14 42 42z" />
    <glyph glyph-name="Egrave" unicode="&#xc8;" horiz-adv-x="529" 
d="M367 721l-213 79l34 84l210 -91zM77 0v676h387v-104h-267v-181h226l-6 -100h-220v-187h276v-104h-396z" />
    <glyph glyph-name="Eacute" unicode="&#xc9;" horiz-adv-x="529" 
d="M386 800l-213 -79l-31 72l210 91zM77 0v676h387v-104h-267v-181h226l-6 -100h-220v-187h276v-104h-396z" />
    <glyph glyph-name="Ecircumflex" unicode="&#xca;" horiz-adv-x="529" 
d="M369 725l-98 63l-98 -63l-46 71l143 83l144 -83zM77 0v676h387v-104h-267v-181h226l-6 -100h-220v-187h276v-104h-396z" />
    <glyph glyph-name="Edieresis" unicode="&#xcb;" horiz-adv-x="529" 
d="M426 802c0 -16 -5.83301 -29.667 -17.5 -41s-25.5 -17 -41.5 -17c-15.333 0 -28.833 5.66699 -40.5 17s-17.5 25 -17.5 41c0 16.667 5.66699 30.834 17 42.501s25 17.5 41 17.5s29.833 -5.83301 41.5 -17.5s17.5 -25.834 17.5 -42.501zM238 802
c0 -16 -5.66699 -29.667 -17 -41s-25.333 -17 -42 -17c-15.333 0 -28.833 5.66699 -40.5 17s-17.5 25 -17.5 41c0 16.667 5.83301 30.834 17.5 42.501s25.167 17.5 40.5 17.5c16.667 0 30.667 -5.83301 42 -17.5s17 -25.834 17 -42.501zM77 0v676h387v-104h-267v-181h226
l-6 -100h-220v-187h276v-104h-396z" />
    <glyph glyph-name="Igrave" unicode="&#xcc;" horiz-adv-x="274" 
d="M228 721l-213 79l34 84l209 -91zM77 0v676h120v-676h-120z" />
    <glyph glyph-name="Iacute" unicode="&#xcd;" horiz-adv-x="274" 
d="M258 800l-213 -79l-30 72l209 91zM77 0v676h120v-676h-120z" />
    <glyph glyph-name="Icircumflex" unicode="&#xce;" horiz-adv-x="274" 
d="M234 725l-97 63l-99 -63l-45 71l143 83l144 -83zM77 0v676h120v-676h-120z" />
    <glyph glyph-name="Idieresis" unicode="&#xcf;" horiz-adv-x="274" 
d="M289 802c0 -16 -5.83301 -29.667 -17.5 -41s-25.5 -17 -41.5 -17c-15.333 0 -28.833 5.66699 -40.5 17s-17.5 25 -17.5 41c0 16.667 5.83301 30.834 17.5 42.501s25.167 17.5 40.5 17.5c16.667 0 30.667 -5.83301 42 -17.5s17 -25.834 17 -42.501zM102 802
c0 -16 -5.83301 -29.666 -17.5 -40.999s-25.5 -17 -41.5 -17s-29.833 5.66699 -41.5 17s-17.5 25 -17.5 41s6 30 18 42s25.667 18 41 18c16 0 29.833 -5.83301 41.5 -17.5s17.5 -25.834 17.5 -42.501zM77 0.000976562v676h120v-676h-120z" />
    <glyph glyph-name="Eth" unicode="&#xd0;" horiz-adv-x="630" 
d="M324 0l-247 0.00195312v298h-63v81h63v254c100.667 37.333 183 56 247 56c70 0 128.833 -22.333 176.5 -67s71.5 -106.334 71.5 -185.001v-191c0 -80.667 -21.667 -141.834 -65 -183.501s-104.333 -62.5 -183 -62.5zM451 254.002v173c0 52 -11.5 91.333 -34.5 118
s-53.833 40 -92.5 40c-40 0 -82.333 -7.66699 -127 -23v-183h128v-81h-128v-194h127c44 0 76.167 11.5 96.5 34.5s30.5 61.5 30.5 115.5z" />
    <glyph glyph-name="Ntilde" unicode="&#xd1;" horiz-adv-x="632" 
d="M418 850l46.001 -52c-7.33301 -16 -19 -30.333 -35 -43s-35.333 -19 -58 -19c-17.333 0 -37.833 7.66699 -61.5 23s-40.834 23 -51.501 23c-16.667 0 -32.334 -9.33301 -47.001 -28l-46 52c7.33301 16 19 30.333 35 43s35.333 19 58 19
c17.333 0 37.833 -7.83301 61.5 -23.5s40.834 -23.5 51.501 -23.5c17.333 0 33 9.66699 47 29zM77.001 0v676.001h97l263 -439c-2 37.333 -3 70.666 -3 99.999v339h121v-676h-100l-262 435c2.66699 -34 4 -68.333 4 -103v-332h-120z" />
    <glyph glyph-name="Ograve" unicode="&#xd2;" horiz-adv-x="636" 
d="M408 721l-213 79l34 84l210 -91zM59 262v150c0 88.667 24.333 157 73 205s110.667 72 186 72s137.333 -24 186 -72s73 -116.333 73 -205v-150c0 -88.667 -24.333 -156.667 -73 -204s-110.667 -71 -186 -71s-137.333 23.667 -186 71s-73 115.333 -73 204zM179 405
l0.000976562 -134c0 -120 46.333 -180 139 -180c92 0 138 60 138 180v134c0 61.333 -12.333 106.666 -37 135.999s-58.334 44 -101.001 44s-76.5 -14.667 -101.5 -44s-37.5 -74.666 -37.5 -135.999z" />
    <glyph glyph-name="Oacute" unicode="&#xd3;" horiz-adv-x="636" 
d="M435 800l-213 -79l-30 72l209 91zM59 262v150c0 88.667 24.333 157 73 205s110.667 72 186 72s137.333 -24 186 -72s73 -116.333 73 -205v-150c0 -88.667 -24.333 -156.667 -73 -204s-110.667 -71 -186 -71s-137.333 23.667 -186 71s-73 115.333 -73 204zM179 405
l0.000976562 -134c0 -120 46.333 -180 139 -180c92 0 138 60 138 180v134c0 61.333 -12.333 106.666 -37 135.999s-58.334 44 -101.001 44s-76.5 -14.667 -101.5 -44s-37.5 -74.666 -37.5 -135.999z" />
    <glyph glyph-name="Ocircumflex" unicode="&#xd4;" horiz-adv-x="636" 
d="M415 725l-98 63l-98 -63l-46 71l144 83l144 -83zM59 262v150c0 88.667 24.333 157 73 205s110.667 72 186 72s137.333 -24 186 -72s73 -116.333 73 -205v-150c0 -88.667 -24.333 -156.667 -73 -204s-110.667 -71 -186 -71s-137.333 23.667 -186 71s-73 115.333 -73 204z
M179 405l0.000976562 -134c0 -120 46.333 -180 139 -180c92 0 138 60 138 180v134c0 61.333 -12.333 106.666 -37 135.999s-58.334 44 -101.001 44s-76.5 -14.667 -101.5 -44s-37.5 -74.666 -37.5 -135.999z" />
    <glyph glyph-name="Otilde" unicode="&#xd5;" horiz-adv-x="636" 
d="M421 850l46.001 -52c-7.33301 -16 -19 -30.333 -35 -43s-35.333 -19 -58 -19c-17.333 0 -37.833 7.66699 -61.5 23s-40.834 23 -51.501 23c-16.667 0 -32.334 -9.33301 -47.001 -28l-46 52c7.33301 16 19 30.333 35 43s35.333 19 58 19
c17.333 0 37.833 -7.83301 61.5 -23.5s40.834 -23.5 51.501 -23.5c17.333 0 33 9.66699 47 29zM59.001 262v150c0 88.667 24.333 157 73 205s110.667 72 186 72s137.333 -24 186 -72s73 -116.333 73 -205v-150c0 -88.667 -24.333 -156.667 -73 -204s-110.667 -71 -186 -71
s-137.333 23.667 -186 71s-73 115.333 -73 204zM179.001 405l0.000976562 -134c0 -120 46.333 -180 139 -180c92 0 138 60 138 180v134c0 61.333 -12.333 106.666 -37 135.999s-58.334 44 -101.001 44s-76.5 -14.667 -101.5 -44s-37.5 -74.666 -37.5 -135.999z" />
    <glyph glyph-name="Odieresis" unicode="&#xd6;" horiz-adv-x="636" 
d="M470 802c0 -16 -5.83301 -29.667 -17.5 -41s-25.5 -17 -41.5 -17c-15.333 0 -28.833 5.66699 -40.5 17s-17.5 25 -17.5 41c0 16.667 5.83301 30.834 17.5 42.501s25.167 17.5 40.5 17.5c16.667 0 30.667 -5.83301 42 -17.5s17 -25.834 17 -42.501zM283 802
c0 -16 -5.83301 -29.666 -17.5 -40.999s-25.5 -17 -41.5 -17s-29.833 5.66699 -41.5 17s-17.5 25 -17.5 41s5.83301 30 17.5 42s25.5 18 41.5 18s29.833 -5.83301 41.5 -17.5s17.5 -25.834 17.5 -42.501zM59 262.001v150c0 88.667 24.333 157 73 205s110.667 72 186 72
s137.333 -24 186 -72s73 -116.333 73 -205v-150c0 -88.667 -24.333 -156.667 -73 -204s-110.667 -71 -186 -71s-137.333 23.667 -186 71s-73 115.333 -73 204zM179 405.001l0.000976562 -134c0 -120 46.333 -180 139 -180c92 0 138 60 138 180v134
c0 61.333 -12.333 106.666 -37 135.999s-58.334 44 -101.001 44s-76.5 -14.667 -101.5 -44s-37.5 -74.666 -37.5 -135.999z" />
    <glyph glyph-name="multiply" unicode="&#xd7;" horiz-adv-x="507" 
d="M377 81l-123 122l-123 -123l-70 71l123 123l-122 123l69 69l123 -123l123 123l69 -69l-123 -123l123 -123z" />
    <glyph glyph-name="Oslash" unicode="&#xd8;" horiz-adv-x="636" 
d="M165 -63l-73 36l41 84c-49.333 48 -74 116.333 -74 205v150c0 88.667 24.333 157 73 205s110.667 72 186 72c40 0 77.333 -7.66699 112 -23l35 73l73 -36l-39 -81c52 -50 78 -120 78 -210v-150c0 -88.667 -24.333 -156.667 -73 -204s-110.667 -71 -186 -71
c-42.667 0 -81.667 8 -117 24zM194 181l189 388.999c-19.333 10 -41 15 -65 15c-42.667 0 -76.5 -14.667 -101.5 -44s-37.5 -74.666 -37.5 -135.999v-134c0 -33.333 5 -63.333 15 -90zM456 270.999v134c0 37.333 -5.66699 69 -17 95l-191 -392c18 -11.333 41.333 -17 70 -17
c92 0 138 60 138 180z" />
    <glyph glyph-name="Ugrave" unicode="&#xd9;" horiz-adv-x="636" 
d="M408 721l-213 79l34 84l209 -91zM72 222l0.00292969 454h120v-445c0 -42 11.5 -75.833 34.5 -101.5s53.5 -38.5 91.5 -38.5c37.333 0 67.666 12.833 90.999 38.5s35 59.5 35 101.5v445h120v-454c0 -68.667 -23.833 -125 -71.5 -169s-105.834 -66 -174.501 -66
s-126.834 22 -174.501 66s-71.5 100.333 -71.5 169z" />
    <glyph glyph-name="Uacute" unicode="&#xda;" horiz-adv-x="636" 
d="M438 800l-213 -79l-30 72l209 91zM72 222l0.00292969 454h120v-445c0 -42 11.5 -75.833 34.5 -101.5s53.5 -38.5 91.5 -38.5c37.333 0 67.666 12.833 90.999 38.5s35 59.5 35 101.5v445h120v-454c0 -68.667 -23.833 -125 -71.5 -169s-105.834 -66 -174.501 -66
s-126.834 22 -174.501 66s-71.5 100.333 -71.5 169z" />
    <glyph glyph-name="Ucircumflex" unicode="&#xdb;" horiz-adv-x="636" 
d="M415 725l-98 63l-98 -63l-46 71l143 83l144 -83zM72 222l0.00292969 454h120v-445c0 -42 11.5 -75.833 34.5 -101.5s53.5 -38.5 91.5 -38.5c37.333 0 67.666 12.833 90.999 38.5s35 59.5 35 101.5v445h120v-454c0 -68.667 -23.833 -125 -71.5 -169
s-105.834 -66 -174.501 -66s-126.834 22 -174.501 66s-71.5 100.333 -71.5 169z" />
    <glyph glyph-name="Udieresis" unicode="&#xdc;" horiz-adv-x="636" 
d="M470 802c0 -16 -5.83301 -29.667 -17.5 -41s-25.5 -17 -41.5 -17c-15.333 0 -28.833 5.66699 -40.5 17s-17.5 25 -17.5 41c0 16.667 5.83301 30.834 17.5 42.501s25.167 17.5 40.5 17.5c16.667 0 30.667 -5.83301 42 -17.5s17 -25.834 17 -42.501zM282 802
c0 -16 -5.66699 -29.666 -17 -40.999s-25 -17 -41 -17s-29.833 5.66699 -41.5 17s-17.5 25 -17.5 41s5.83301 30 17.5 42s25.5 18 41.5 18s29.667 -5.83301 41 -17.5s17 -25.834 17 -42.501zM72 222.001l0.00292969 454h120v-445c0 -42 11.5 -75.833 34.5 -101.5
s53.5 -38.5 91.5 -38.5c37.333 0 67.666 12.833 90.999 38.5s35 59.5 35 101.5v445h120v-454c0 -68.667 -23.833 -125 -71.5 -169s-105.834 -66 -174.501 -66s-126.834 22 -174.501 66s-71.5 100.333 -71.5 169z" />
    <glyph glyph-name="Yacute" unicode="&#xdd;" horiz-adv-x="570" 
d="M406 800l-213 -79l-30 72l209 91zM225 0v258l-205 418h129l136 -295l136 295h129l-205 -418v-258h-120z" />
    <glyph glyph-name="Thorn" unicode="&#xde;" horiz-adv-x="554" 
d="M310 124h-113v-124h-120v676h120v-132h113c63.333 0 114.666 -20.5 153.999 -61.5s59 -90.833 59 -149.5c0 -58 -19.667 -107.333 -59 -148s-90.666 -61 -153.999 -61zM197 227h109c29.333 0 52.333 9.66699 69 29s25 45 25 77s-8.33301 57.667 -25 77s-39.667 29 -69 29
h-109v-212z" />
    <glyph glyph-name="germandbls" unicode="&#xdf;" horiz-adv-x="619" 
d="M205 564l0.00195312 -564.002h-117v438h-68v81h68v54c0 54 16.5 96.167 49.5 126.5s75.833 45.5 128.5 45.5c55.333 0 100.5 -14.167 135.5 -42.5s52.5 -70.166 52.5 -125.499c0 -23.333 -4.83301 -45.333 -14.5 -66s-20.334 -37 -32.001 -49
s-22.334 -25.667 -32.001 -41s-14.5 -29.666 -14.5 -42.999c0 -16 7.5 -29.5 22.5 -40.5s33.333 -20.5 55 -28.5s43.334 -17.333 65.001 -28s40 -27.667 55 -51s22.5 -52 22.5 -86c0 -42.667 -16.833 -79.5 -50.5 -110.5s-81.167 -46.5 -142.5 -46.5
c-50.667 0 -102.334 9.66699 -155.001 29l22 96c50 -16 94.333 -24 133 -24c22.667 0 41.334 5.16699 56.001 15.5s22 23.166 22 38.499c0 17.333 -7.33301 31.833 -22 43.5s-32.334 21.667 -53.001 30s-41.5 18 -62.5 29s-38.833 27.667 -53.5 50s-22 50.166 -22 83.499
c0 31.333 7.5 58.833 22.5 82.5s29.833 44.334 44.5 62.001s22 34.834 22 51.501c0 22 -6.5 39.167 -19.5 51.5s-29.833 18.5 -50.5 18.5c-20 0 -36.167 -6.5 -48.5 -19.5s-18.5 -33.167 -18.5 -60.5z" />
    <glyph glyph-name="agrave" unicode="&#xe0;" horiz-adv-x="491" 
d="M329 579l-213 79l34 84l210 -91zM42 160c0 51.333 17.668 90.833 53.001 118.5s83 41.5 143 41.5h82v19c0 29.333 -7 52 -21 68s-34.333 24 -61 24c-38.667 0 -85.334 -8.33301 -140.001 -25l-25 95c64.667 20.667 119.667 31 165 31c60 0 108.333 -17.5 145 -52.5
s55 -81.833 55 -140.5v-179c0 -48.667 -19.5 -89.667 -58.5 -123s-85.5 -50 -139.5 -50c-56 0 -103 16.667 -141 50s-57 74.333 -57 123zM161.001 162c0 -20 6.83301 -37.3311 20.5 -51.998s33.167 -22 58.5 -22c24 0 43.333 7.16699 58 21.5s22 31.166 22 50.499v74h-83
c-26 0 -45.167 -6.83301 -57.5 -20.5s-18.5 -30.834 -18.5 -51.501z" />
    <glyph glyph-name="aacute" unicode="&#xe1;" horiz-adv-x="491" 
d="M350 658l-213 -79l-30 72l209 91zM42 160c0 51.333 17.668 90.833 53.001 118.5s83 41.5 143 41.5h82v19c0 29.333 -7 52 -21 68s-34.333 24 -61 24c-38.667 0 -85.334 -8.33301 -140.001 -25l-25 95c64.667 20.667 119.667 31 165 31c60 0 108.333 -17.5 145 -52.5
s55 -81.833 55 -140.5v-179c0 -48.667 -19.5 -89.667 -58.5 -123s-85.5 -50 -139.5 -50c-56 0 -103 16.667 -141 50s-57 74.333 -57 123zM161.001 162c0 -20 6.83301 -37.3311 20.5 -51.998s33.167 -22 58.5 -22c24 0 43.333 7.16699 58 21.5s22 31.166 22 50.499v74h-83
c-26 0 -45.167 -6.83301 -57.5 -20.5s-18.5 -30.834 -18.5 -51.501z" />
    <glyph glyph-name="acircumflex" unicode="&#xe2;" horiz-adv-x="491" 
d="M336 583l-98 63l-98 -63l-46 71l143 83l144 -83zM42 160c0 51.333 17.668 90.833 53.001 118.5s83 41.5 143 41.5h82v19c0 29.333 -7 52 -21 68s-34.333 24 -61 24c-38.667 0 -85.334 -8.33301 -140.001 -25l-25 95c64.667 20.667 119.667 31 165 31
c60 0 108.333 -17.5 145 -52.5s55 -81.833 55 -140.5v-179c0 -48.667 -19.5 -89.667 -58.5 -123s-85.5 -50 -139.5 -50c-56 0 -103 16.667 -141 50s-57 74.333 -57 123zM161.001 162c0 -20 6.83301 -37.3311 20.5 -51.998s33.167 -22 58.5 -22c24 0 43.333 7.16699 58 21.5
s22 31.166 22 50.499v74h-83c-26 0 -45.167 -6.83301 -57.5 -20.5s-18.5 -30.834 -18.5 -51.501z" />
    <glyph glyph-name="atilde" unicode="&#xe3;" horiz-adv-x="491" 
d="M342 708l46.001 -52c-7.33301 -16 -19 -30.333 -35 -43s-35.333 -19 -58 -19c-17.333 0 -37.833 7.66699 -61.5 23s-40.834 23 -51.501 23c-16.667 0 -32.334 -9.33301 -47.001 -28l-46 52c7.33301 16 19 30.333 35 43s35.333 19 58 19
c17.333 0 37.833 -7.83301 61.5 -23.5s40.834 -23.5 51.501 -23.5c17.333 0 33 9.66699 47 29zM42.001 160c0 51.333 17.668 90.833 53.001 118.5s83 41.5 143 41.5h82v19c0 29.333 -7 52 -21 68s-34.333 24 -61 24c-38.667 0 -85.334 -8.33301 -140.001 -25l-25 95
c64.667 20.667 119.667 31 165 31c60 0 108.333 -17.5 145 -52.5s55 -81.833 55 -140.5v-179c0 -48.667 -19.5 -89.667 -58.5 -123s-85.5 -50 -139.5 -50c-56 0 -103 16.667 -141 50s-57 74.333 -57 123zM161.002 162c0 -20 6.83301 -37.3311 20.5 -51.998
s33.167 -22 58.5 -22c24 0 43.333 7.16699 58 21.5s22 31.166 22 50.499v74h-83c-26 0 -45.167 -6.83301 -57.5 -20.5s-18.5 -30.834 -18.5 -51.501z" />
    <glyph glyph-name="adieresis" unicode="&#xe4;" horiz-adv-x="491" 
d="M391 660c0 -16 -5.83301 -29.667 -17.5 -41s-25.5 -17 -41.5 -17c-15.333 0 -28.833 5.66699 -40.5 17s-17.5 25 -17.5 41c0 16.667 5.83301 30.834 17.5 42.501s25.167 17.5 40.5 17.5c16.667 0 30.667 -5.83301 42 -17.5s17 -25.834 17 -42.501zM203 660
c0 -16 -5.66699 -29.666 -17 -40.999s-25 -17 -41 -17s-29.833 5.66699 -41.5 17s-17.5 25 -17.5 41s6 30 18 42s25.667 18 41 18c16 0 29.667 -5.83301 41 -17.5s17 -25.834 17 -42.501zM42 160.001c0 51.333 17.668 90.833 53.001 118.5s83 41.5 143 41.5h82v19
c0 29.333 -7 52 -21 68s-34.333 24 -61 24c-38.667 0 -85.334 -8.33301 -140.001 -25l-25 95c64.667 20.667 119.667 31 165 31c60 0 108.333 -17.5 145 -52.5s55 -81.833 55 -140.5v-179c0 -48.667 -19.5 -89.667 -58.5 -123s-85.5 -50 -139.5 -50
c-56 0 -103 16.667 -141 50s-57 74.333 -57 123zM161.001 162.001c0 -20 6.83301 -37.3311 20.5 -51.998s33.167 -22 58.5 -22c24 0 43.333 7.16699 58 21.5s22 31.166 22 50.499v74h-83c-26 0 -45.167 -6.83301 -57.5 -20.5s-18.5 -30.834 -18.5 -51.501z" />
    <glyph glyph-name="aring" unicode="&#xe5;" horiz-adv-x="491" 
d="M242 579c-26.667 0 -49.5 9.5 -68.5 28.5s-28.5 41.833 -28.5 68.5c0 26 9.5 48.5 28.5 67.5s41.833 28.5 68.5 28.5c26 0 48.5 -9.5 67.5 -28.5s28.5 -41.5 28.5 -67.5c0 -26.667 -9.5 -49.5 -28.5 -68.5s-41.5 -28.5 -67.5 -28.5zM242 644
c8.66699 0 16.167 3.16699 22.5 9.5s9.5 13.833 9.5 22.5c0 9.33301 -3 17 -9 23s-13.667 9 -23 9s-17 -3 -23 -9s-9 -13.667 -9 -23c0 -8.66699 3.16699 -16.167 9.5 -22.5s13.833 -9.5 22.5 -9.5zM42 160c0 51.333 17.668 90.833 53.001 118.5s83 41.5 143 41.5h82v19
c0 29.333 -7 52 -21 68s-34.333 24 -61 24c-38.667 0 -85.334 -8.33301 -140.001 -25l-25 95c64.667 20.667 119.667 31 165 31c60 0 108.333 -17.5 145 -52.5s55 -81.833 55 -140.5v-179c0 -48.667 -19.5 -89.667 -58.5 -123s-85.5 -50 -139.5 -50
c-56 0 -103 16.667 -141 50s-57 74.333 -57 123zM161.001 162c0 -20 6.83301 -37.3311 20.5 -51.998s33.167 -22 58.5 -22c24 0 43.333 7.16699 58 21.5s22 31.166 22 50.499v74h-83c-26 0 -45.167 -6.83301 -57.5 -20.5s-18.5 -30.834 -18.5 -51.501z" />
    <glyph glyph-name="ae" unicode="&#xe6;" horiz-adv-x="780" 
d="M682 112l23 -95.999c-52.667 -19.333 -107.334 -29 -164.001 -29c-66.667 0 -119.667 18.667 -159 56c-38.667 -37.333 -86 -56 -142 -56s-103 16.667 -141 50s-57 74.333 -57 123c0 51.333 17.667 90.666 53 117.999s83 41 143 41h82v20c0 29.333 -7 52 -21 68
s-34.333 24 -61 24c-39.333 0 -85.666 -8.33301 -138.999 -25l-26 95c60.667 20.667 115.667 31 165 31c61.333 0 109 -18.667 143 -56c36 37.333 83.667 56 143 56c58 0 106.833 -18.333 146.5 -55s59.5 -83.667 59.5 -141v-110h-295v-19c0 -79.333 35.333 -119 106 -119
c41.333 0 88.333 8 141 24zM613 312.001v23.999c0 27.333 -8.16699 50 -24.5 68s-37.833 27 -64.5 27s-48.167 -9.16699 -64.5 -27.5s-24.5 -43.166 -24.5 -74.499v-17h178zM321 207v26h-84c-26 0 -45.167 -6.66699 -57.5 -20s-18.5 -30.333 -18.5 -51
c0 -20 6.83301 -37.333 20.5 -52s33.167 -22 58.5 -22c40.667 0 70.667 14.333 90 43c-6 22 -9 47.333 -9 76z" />
    <glyph glyph-name="ccedilla" unicode="&#xe7;" horiz-adv-x="474" 
d="M235 -83l0.000976562 72.999c-56.667 6.66699 -101 28.5 -133 65.5s-48 89.833 -48 158.5v91c0 76.667 20 133.667 60 171s94.333 56 163 56c46 0 95.667 -8 149 -24l-24 -97c-47.333 13.333 -87.333 20 -120 20c-36.667 0 -64.334 -10 -83.001 -30s-28 -52.667 -28 -98
v-86c0 -45.333 9.33301 -78.166 28 -98.499s46.334 -30.5 83.001 -30.5c31.333 0 71.333 6.66699 120 20l25 -97c-32.667 -10 -66 -17 -100 -21v-84c0 -40 -12.333 -69.5 -37 -88.5s-54.334 -28.5 -89.001 -28.5c-26.667 0 -51.667 3.33301 -75 10l12 83
c22 -4.66699 40.667 -7 56 -7c27.333 0 41 14 41 42z" />
    <glyph glyph-name="egrave" unicode="&#xe8;" horiz-adv-x="514" 
d="M349 579l-213 79l34 84l209 -91zM54 207l-0.000976562 110c0 67.333 19.333 120 58 158s87.667 57 147 57c58 0 106.833 -18.333 146.5 -55s59.5 -83.667 59.5 -141v-110h-295v-19c0 -79.333 35.333 -119 106 -119c41.333 0 88.333 8 141 24l23 -96
c-52 -19.333 -106.667 -29 -164 -29c-67.333 0 -121.166 19 -161.499 57s-60.5 92.333 -60.5 163zM169.999 312l178 -0.000976562v24c0 27.333 -8.16699 50 -24.5 68s-37.833 27 -64.5 27s-48.167 -9.16699 -64.5 -27.5s-24.5 -43.166 -24.5 -74.499v-17z" />
    <glyph glyph-name="eacute" unicode="&#xe9;" horiz-adv-x="514" 
d="M372 658l-213 -79l-31 72l210 91zM54 207l-0.000976562 110c0 67.333 19.333 120 58 158s87.667 57 147 57c58 0 106.833 -18.333 146.5 -55s59.5 -83.667 59.5 -141v-110h-295v-19c0 -79.333 35.333 -119 106 -119c41.333 0 88.333 8 141 24l23 -96
c-52 -19.333 -106.667 -29 -164 -29c-67.333 0 -121.166 19 -161.499 57s-60.5 92.333 -60.5 163zM169.999 312l178 -0.000976562v24c0 27.333 -8.16699 50 -24.5 68s-37.833 27 -64.5 27s-48.167 -9.16699 -64.5 -27.5s-24.5 -43.166 -24.5 -74.499v-17z" />
    <glyph glyph-name="ecircumflex" unicode="&#xea;" horiz-adv-x="514" 
d="M355 583l-97 63l-99 -63l-45 71l143 83l144 -83zM54 207l-0.000976562 110c0 67.333 19.333 120 58 158s87.667 57 147 57c58 0 106.833 -18.333 146.5 -55s59.5 -83.667 59.5 -141v-110h-295v-19c0 -79.333 35.333 -119 106 -119c41.333 0 88.333 8 141 24l23 -96
c-52 -19.333 -106.667 -29 -164 -29c-67.333 0 -121.166 19 -161.499 57s-60.5 92.333 -60.5 163zM169.999 312l178 -0.000976562v24c0 27.333 -8.16699 50 -24.5 68s-37.833 27 -64.5 27s-48.167 -9.16699 -64.5 -27.5s-24.5 -43.166 -24.5 -74.499v-17z" />
    <glyph glyph-name="edieresis" unicode="&#xeb;" horiz-adv-x="514" 
d="M409 660c0 -16 -5.83301 -29.667 -17.5 -41s-25.5 -17 -41.5 -17c-15.333 0 -28.833 5.66699 -40.5 17s-17.5 25 -17.5 41c0 16.667 5.83301 30.834 17.5 42.501s25.167 17.5 40.5 17.5c16.667 0 30.667 -5.83301 42 -17.5s17 -25.834 17 -42.501zM222 660
c0 -16 -5.83301 -29.666 -17.5 -40.999s-25.5 -17 -41.5 -17s-29.833 5.66699 -41.5 17s-17.5 25 -17.5 41s6 30 18 42s25.667 18 41 18c16 0 29.833 -5.83301 41.5 -17.5s17.5 -25.834 17.5 -42.501zM54 207.001l-0.000976562 110c0 67.333 19.333 120 58 158
s87.667 57 147 57c58 0 106.833 -18.333 146.5 -55s59.5 -83.667 59.5 -141v-110h-295v-19c0 -79.333 35.333 -119 106 -119c41.333 0 88.333 8 141 24l23 -96c-52 -19.333 -106.667 -29 -164 -29c-67.333 0 -121.166 19 -161.499 57s-60.5 92.333 -60.5 163z
M169.999 312.001l178 -0.000976562v24c0 27.333 -8.16699 50 -24.5 68s-37.833 27 -64.5 27s-48.167 -9.16699 -64.5 -27.5s-24.5 -43.166 -24.5 -74.499v-17z" />
    <glyph glyph-name="igrave" unicode="&#xec;" horiz-adv-x="261" 
d="M220 579l-213 79l34 84l210 -91zM189 0h-117v519h117v-519z" />
    <glyph glyph-name="iacute" unicode="&#xed;" horiz-adv-x="261" 
d="M252 658l-213 -79l-30 72l209 91zM189 0h-117v519h117v-519z" />
    <glyph glyph-name="icircumflex" unicode="&#xee;" horiz-adv-x="261" 
d="M228 583l-98 63l-98 -63l-46 71l143 83l144 -83zM189 0h-117v519h117v-519z" />
    <glyph glyph-name="idieresis" unicode="&#xef;" horiz-adv-x="261" 
d="M282 660c0 -16 -5.83301 -29.667 -17.5 -41s-25.5 -17 -41.5 -17c-15.333 0 -28.833 5.66699 -40.5 17s-17.5 25 -17.5 41c0 16.667 5.66699 30.834 17 42.501s25 17.5 41 17.5s29.833 -5.83301 41.5 -17.5s17.5 -25.834 17.5 -42.501zM94 660
c0 -16 -5.66699 -29.667 -17 -41s-25.333 -17 -42 -17c-15.333 0 -28.833 5.66699 -40.5 17s-17.5 25 -17.5 41c0 16.667 5.83301 30.834 17.5 42.501s25.167 17.5 40.5 17.5c16.667 0 30.667 -5.83301 42 -17.5s17 -25.834 17 -42.501zM189 0h-117v519h117v-519z" />
    <glyph glyph-name="eth" unicode="&#xf0;" horiz-adv-x="539" 
d="M54 208l-0.000976562 69c0 71.333 19.833 126 59.5 164s88.834 57 147.501 57c45.333 0 83 -9.66699 113 -29v46c0 70.667 -23.667 112 -71 124l-32 -92l-73 25l24 70c-30 -3.33301 -62.333 -10 -97 -20l-21 89c64 18 114 27.667 150 29l29 84l74 -25l-23 -67
c100.667 -24.667 151 -97 151 -217v-307c0 -69.333 -20.5 -123.5 -61.5 -162.5s-92.5 -58.5 -154.5 -58.5c-61.333 0 -112.5 19.5 -153.5 58.5s-61.5 93.167 -61.5 162.5zM169.999 272l0.000976562 -59c0 -42 9.16699 -73.333 27.5 -94s42.166 -31 71.499 -31
s53.333 10.333 72 31s28 52 28 94v158c-31.333 17.333 -64.333 26 -99 26c-30 0 -54.167 -10 -72.5 -30s-27.5 -51.667 -27.5 -95z" />
    <glyph glyph-name="ntilde" unicode="&#xf1;" horiz-adv-x="546" 
d="M376 708l46.001 -52c-7.33301 -16 -19 -30.333 -35 -43s-35.333 -19 -58 -19c-17.333 0 -37.833 7.66699 -61.5 23s-40.834 23 -51.501 23c-16.667 0 -32.334 -9.33301 -47.001 -28l-46 52c7.33301 16 19 30.333 35 43s35.333 19 58 19
c17.333 0 37.833 -7.83301 61.5 -23.5s40.834 -23.5 51.501 -23.5c17.333 0 33 9.66699 47 29zM67.001 0l0.000976562 318c0 67.333 19.667 119.833 59 157.5s88.666 56.5 147.999 56.5s108.333 -18.833 147 -56.5s58 -90.167 58 -157.5v-318h-117v313
c0 38 -7.83301 67.167 -23.5 87.5s-37.167 30.5 -64.5 30.5c-28 0 -50.167 -10.167 -66.5 -30.5s-24.5 -49.5 -24.5 -87.5v-313h-116z" />
    <glyph glyph-name="ograve" unicode="&#xf2;" horiz-adv-x="539" 
d="M360 579l-213 79l34 84l210 -91zM54 215l-0.000976562 90c0 71.333 19.833 127 59.5 167s91.5 60 155.5 60c64.667 0 116.834 -20 156.501 -60s59.5 -96 59.5 -168v-89c0 -72 -20 -128 -60 -168s-92 -60 -156 -60s-115.833 20 -155.5 60s-59.5 96 -59.5 168zM169.999 220
c0 -88 33 -132 99 -132c66.667 0 100 44 100 132v79c0 88 -33.333 132 -100 132c-66 0 -99 -44 -99 -132v-79z" />
    <glyph glyph-name="oacute" unicode="&#xf3;" horiz-adv-x="539" 
d="M391 658l-213 -79l-30 72l209 91zM54 215l-0.000976562 90c0 71.333 19.833 127 59.5 167s91.5 60 155.5 60c64.667 0 116.834 -20 156.501 -60s59.5 -96 59.5 -168v-89c0 -72 -20 -128 -60 -168s-92 -60 -156 -60s-115.833 20 -155.5 60s-59.5 96 -59.5 168z
M169.999 220c0 -88 33 -132 99 -132c66.667 0 100 44 100 132v79c0 88 -33.333 132 -100 132c-66 0 -99 -44 -99 -132v-79z" />
    <glyph glyph-name="ocircumflex" unicode="&#xf4;" horiz-adv-x="539" 
d="M368 583l-98 63l-98 -63l-46 71l143 83l144 -83zM54 215l-0.000976562 90c0 71.333 19.833 127 59.5 167s91.5 60 155.5 60c64.667 0 116.834 -20 156.501 -60s59.5 -96 59.5 -168v-89c0 -72 -20 -128 -60 -168s-92 -60 -156 -60s-115.833 20 -155.5 60
s-59.5 96 -59.5 168zM169.999 220c0 -88 33 -132 99 -132c66.667 0 100 44 100 132v79c0 88 -33.333 132 -100 132c-66 0 -99 -44 -99 -132v-79z" />
    <glyph glyph-name="otilde" unicode="&#xf5;" horiz-adv-x="539" 
d="M373 708l46.001 -52c-7.33301 -16 -19 -30.333 -35 -43s-35.333 -19 -58 -19c-17.333 0 -37.833 7.66699 -61.5 23s-40.834 23 -51.501 23c-16.667 0 -32.334 -9.33301 -47.001 -28l-46 52c7.33301 16 19 30.333 35 43s35.333 19 58 19
c17.333 0 37.833 -7.83301 61.5 -23.5s40.834 -23.5 51.501 -23.5c17.333 0 33 9.66699 47 29zM54.001 215l-0.000976562 90c0 71.333 19.833 127 59.5 167s91.5 60 155.5 60c64.667 0 116.834 -20 156.501 -60s59.5 -96 59.5 -168v-89c0 -72 -20 -128 -60 -168
s-92 -60 -156 -60s-115.833 20 -155.5 60s-59.5 96 -59.5 168zM170 220c0 -88 33 -132 99 -132c66.667 0 100 44 100 132v79c0 88 -33.333 132 -100 132c-66 0 -99 -44 -99 -132v-79z" />
    <glyph glyph-name="odieresis" unicode="&#xf6;" horiz-adv-x="539" 
d="M422 660c0 -16 -5.83301 -29.667 -17.5 -41s-25.5 -17 -41.5 -17c-15.333 0 -28.833 5.66699 -40.5 17s-17.5 25 -17.5 41c0 16.667 5.83301 30.834 17.5 42.501s25.167 17.5 40.5 17.5c16.667 0 30.667 -5.83301 42 -17.5s17 -25.834 17 -42.501zM234 660
c0 -16 -5.66699 -29.666 -17 -40.999s-25 -17 -41 -17s-29.833 5.66699 -41.5 17s-17.5 25 -17.5 41s5.83301 30 17.5 42s25.5 18 41.5 18s29.667 -5.83301 41 -17.5s17 -25.834 17 -42.501zM54 215.001l-0.000976562 90c0 71.333 19.833 127 59.5 167s91.5 60 155.5 60
c64.667 0 116.834 -20 156.501 -60s59.5 -96 59.5 -168v-89c0 -72 -20 -128 -60 -168s-92 -60 -156 -60s-115.833 20 -155.5 60s-59.5 96 -59.5 168zM169.999 220.001c0 -88 33 -132 99 -132c66.667 0 100 44 100 132v79c0 88 -33.333 132 -100 132c-66 0 -99 -44 -99 -132
v-79z" />
    <glyph glyph-name="oslash" unicode="&#xf8;" horiz-adv-x="540" 
d="M152 -68l-69 33.999l36 75c-43.333 41.333 -65 99.333 -65 174v90c0 71.333 20 127 60 167s92 60 156 60c28.667 0 56 -4.66699 82 -14l36 72l68 -34l-37 -77c44.667 -42.667 67 -101 67 -175v-89c0 -71.333 -20 -127.166 -60 -167.499s-92 -60.5 -156 -60.5
c-30 0 -58.333 4.66699 -85 14zM180 164.999l126.999 260c-11.333 4 -23.666 6 -36.999 6c-66 0 -99 -44 -99 -132v-79c0 -22.667 3 -41 9 -55zM368.999 219.999v79c0 24.667 -3.33301 44 -10 58l-128 -263c11.333 -4 24.333 -6 39 -6c66 0 99 44 99 132z" />
    <glyph glyph-name="ugrave" unicode="&#xf9;" horiz-adv-x="546" 
d="M364 579l-213 79l34 84l210 -91zM67 201v318h116v-313c0 -38 8 -67.167 24 -87.5s38 -30.5 66 -30.5c27.333 0 49 10.167 65 30.5s24 49.5 24 87.5v313h117v-318c0 -67.333 -19.667 -119.833 -59 -157.5s-88.333 -56.5 -147 -56.5c-59.333 0 -108.5 18.833 -147.5 56.5
s-58.5 90.167 -58.5 157.5z" />
    <glyph glyph-name="uacute" unicode="&#xfa;" horiz-adv-x="546" 
d="M385 658l-213 -79l-30 72l209 91zM67 201v318h116v-313c0 -38 8 -67.167 24 -87.5s38 -30.5 66 -30.5c27.333 0 49 10.167 65 30.5s24 49.5 24 87.5v313h117v-318c0 -67.333 -19.667 -119.833 -59 -157.5s-88.333 -56.5 -147 -56.5c-59.333 0 -108.5 18.833 -147.5 56.5
s-58.5 90.167 -58.5 157.5z" />
    <glyph glyph-name="ucircumflex" unicode="&#xfb;" horiz-adv-x="546" 
d="M371 583l-98 63l-98 -63l-46 71l144 83l144 -83zM67 201v318h116v-313c0 -38 8 -67.167 24 -87.5s38 -30.5 66 -30.5c27.333 0 49 10.167 65 30.5s24 49.5 24 87.5v313h117v-318c0 -67.333 -19.667 -119.833 -59 -157.5s-88.333 -56.5 -147 -56.5
c-59.333 0 -108.5 18.833 -147.5 56.5s-58.5 90.167 -58.5 157.5z" />
    <glyph glyph-name="udieresis" unicode="&#xfc;" horiz-adv-x="546" 
d="M425 660c0 -16 -5.83301 -29.667 -17.5 -41s-25.5 -17 -41.5 -17c-15.333 0 -28.833 5.66699 -40.5 17s-17.5 25 -17.5 41c0 16.667 5.83301 30.834 17.5 42.501s25.167 17.5 40.5 17.5c16.667 0 30.667 -5.83301 42 -17.5s17 -25.834 17 -42.501zM237 660
c0 -16 -5.66699 -29.666 -17 -40.999s-25 -17 -41 -17s-29.833 5.66699 -41.5 17s-17.5 25 -17.5 41s6 30 18 42s25.667 18 41 18c16 0 29.667 -5.83301 41 -17.5s17 -25.834 17 -42.501zM67 201.001v318h116v-313c0 -38 8 -67.167 24 -87.5s38 -30.5 66 -30.5
c27.333 0 49 10.167 65 30.5s24 49.5 24 87.5v313h117v-318c0 -67.333 -19.667 -119.833 -59 -157.5s-88.333 -56.5 -147 -56.5c-59.333 0 -108.5 18.833 -147.5 56.5s-58.5 90.167 -58.5 157.5z" />
    <glyph glyph-name="yacute" unicode="&#xfd;" horiz-adv-x="500" 
d="M370 658l-213 -79l-31 72l210 91zM72 184l-47 334.999h117l46 -325c4.66699 -31.333 13 -54.666 25 -69.999s29.333 -23 52 -23h37l52 418h117l-96 -730h-115l28 211h-27c-108 -0 -171 61.333 -189 184z" />
    <glyph glyph-name="thorn" unicode="&#xfe;" horiz-adv-x="548" 
d="M189 -210h-117v942h117v-224c28 16 59.333 24 94 24c59.333 0 109.5 -19.5 150.5 -58.5s61.5 -91.833 61.5 -158.5v-110c0 -70 -19.5 -123.833 -58.5 -161.5s-86.833 -56.5 -143.5 -56.5c-37.333 0 -72 10 -104 30v-227zM377 210v100c0 39.333 -8.66699 69.333 -26 90
s-40 31 -68 31c-27.333 0 -49.833 -9.66699 -67.5 -29s-26.5 -47 -26.5 -83v-204c34.667 -18 65.667 -27 93 -27c28.667 0 51.667 9.66699 69 29s26 50.333 26 93z" />
    <glyph glyph-name="ydieresis" unicode="&#xff;" horiz-adv-x="500" 
d="M406 660c0 -16 -5.83301 -29.667 -17.5 -41s-25.5 -17 -41.5 -17c-15.333 0 -28.833 5.66699 -40.5 17s-17.5 25 -17.5 41c0 16.667 5.66699 30.834 17 42.501s25 17.5 41 17.5s29.833 -5.83301 41.5 -17.5s17.5 -25.834 17.5 -42.501zM218 660
c0 -16 -5.66699 -29.667 -17 -41s-25.333 -17 -42 -17c-15.333 0 -28.833 5.66699 -40.5 17s-17.5 25 -17.5 41c0 16.667 5.83301 30.834 17.5 42.501s25.167 17.5 40.5 17.5c16.667 0 30.667 -5.83301 42 -17.5s17 -25.834 17 -42.501zM72 184l-47 334.999h117l46 -325
c4.66699 -31.333 13 -54.666 25 -69.999s29.333 -23 52 -23h37l52 418h117l-96 -730h-115l28 211h-27c-108 -0 -171 61.333 -189 184z" />
    <glyph glyph-name="Amacron" unicode="&#x100;" horiz-adv-x="607" 
d="M430 763h-254v81h254v-81zM25 0l209 676h139l209 -676h-122l-51 173h-211l-50 -173h-123zM226 272h154.999l-50 168c-9.33301 30.667 -18.333 68 -27 112c-11.333 -50 -20.666 -87.333 -27.999 -112z" />
    <glyph glyph-name="amacron" unicode="&#x101;" horiz-adv-x="491" 
d="M365 621h-254v81h254v-81zM42 160c0 51.333 17.668 90.833 53.001 118.5s83 41.5 143 41.5h82v19c0 29.333 -7 52 -21 68s-34.333 24 -61 24c-38.667 0 -85.334 -8.33301 -140.001 -25l-25 95c64.667 20.667 119.667 31 165 31c60 0 108.333 -17.5 145 -52.5
s55 -81.833 55 -140.5v-179c0 -48.667 -19.5 -89.667 -58.5 -123s-85.5 -50 -139.5 -50c-56 0 -103 16.667 -141 50s-57 74.333 -57 123zM161.001 162c0 -20 6.83301 -37.3311 20.5 -51.998s33.167 -22 58.5 -22c24 0 43.333 7.16699 58 21.5s22 31.166 22 50.499v74h-83
c-26 0 -45.167 -6.83301 -57.5 -20.5s-18.5 -30.834 -18.5 -51.501z" />
    <glyph glyph-name="Abreve" unicode="&#x102;" horiz-adv-x="607" 
d="M352 870h79.0029c-0.666992 -38 -13.334 -70 -38.001 -96s-55 -39 -91 -39c-35.333 0 -65.333 13 -90 39s-37.334 58 -38.001 96h79c0.666992 -17.333 5.66699 -31.666 15 -42.999s20.666 -17 33.999 -17c14.667 0 26.667 5.66699 36 17s14 25.666 14 42.999zM25.0029 0
l209 676h139l209 -676h-122l-51 173h-211l-50 -173h-123zM226.003 272h154.999l-50 168c-9.33301 30.667 -18.333 68 -27 112c-11.333 -50 -20.666 -87.333 -27.999 -112z" />
    <glyph glyph-name="abreve" unicode="&#x103;" horiz-adv-x="491" 
d="M281 728l79.002 -0.000976562c-0.666992 -38 -13.334 -70 -38.001 -96s-55 -39 -91 -39c-35.333 0 -65.333 12.833 -90 38.5s-37.334 57.834 -38.001 96.501h79c0 -16.667 4.83301 -30.834 14.5 -42.501s21.167 -17.5 34.5 -17.5c14 0 25.833 5.83301 35.5 17.5
s14.5 25.834 14.5 42.501zM42.002 159.999c0 51.333 17.668 90.833 53.001 118.5s83 41.5 143 41.5h82v19c0 29.333 -7 52 -21 68s-34.333 24 -61 24c-38.667 0 -85.334 -8.33301 -140.001 -25l-25 95c64.667 20.667 119.667 31 165 31c60 0 108.333 -17.5 145 -52.5
s55 -81.833 55 -140.5v-179c0 -48.667 -19.5 -89.667 -58.5 -123s-85.5 -50 -139.5 -50c-56 0 -103 16.667 -141 50s-57 74.333 -57 123zM161.003 161.999c0 -20 6.83301 -37.3311 20.5 -51.998s33.167 -22 58.5 -22c24 0 43.333 7.16699 58 21.5s22 31.166 22 50.499v74
h-83c-26 0 -45.167 -6.83301 -57.5 -20.5s-18.5 -30.834 -18.5 -51.501z" />
    <glyph glyph-name="Aogonek" unicode="&#x104;" horiz-adv-x="607" 
d="M25 0l209.001 676h139l209 -676c-54 -40 -81 -78 -81 -114c0 -21.333 11.333 -32 34 -32c11.333 0 22.666 2 33.999 6l13 -73c-16.667 -7.33301 -36 -11 -58 -11c-36 0 -63.667 9 -83 27s-29 42 -29 72c0 46 24.667 87.667 74 125h-26l-51 173h-211l-50 -173h-123z
M226.001 272h154.999l-50 168c-9.33301 30.667 -18.333 68 -27 112c-11.333 -50 -20.666 -87.333 -27.999 -112z" />
    <glyph glyph-name="aogonek" unicode="&#x105;" horiz-adv-x="491" 
d="M298 -140l14.002 -73c-16.667 -7.33301 -36.334 -11 -59.001 -11c-36 0 -63.5 8.83301 -82.5 26.5s-28.5 41.834 -28.5 72.501c0 40.667 20.333 79 61 115c-47.333 7.33301 -86 26.666 -116 57.999s-45 68.666 -45 111.999c0 51.333 17.667 90.833 53 118.5
s83 41.5 143 41.5h82v19c0 29.333 -7 52 -21 68s-34.333 24 -61 24c-38.667 0 -85.334 -8.33301 -140.001 -25l-25 95c64.667 20.667 119.667 31 165 31c60 0 108.333 -17.5 145 -52.5s55 -81.833 55 -140.5v-179c0 -38 -12 -71.5 -36 -100.5s-55.333 -49.5 -94 -61.5
c-51.333 -39.333 -77 -76.666 -77 -111.999c0 -21.333 11 -32 33 -32c12.667 0 24 2 34 6zM161.002 162c0 -20 6.83301 -37.3311 20.5 -51.998s33.167 -22 58.5 -22c24 0 43.333 7.16699 58 21.5s22 31.166 22 50.499v74h-83c-26 0 -45.167 -6.83301 -57.5 -20.5
s-18.5 -30.834 -18.5 -51.501z" />
    <glyph glyph-name="Cacute" unicode="&#x106;" horiz-adv-x="566" 
d="M425 800l-213 -79l-31 72l210 91zM498 119l23 -101c-64 -20.667 -128.667 -31 -194 -31c-80 0 -144.667 23.5 -194 70.5s-74 115.167 -74 204.5v152c0 89.333 24.667 157.5 74 204.5s114 70.5 194 70.5c61.333 0 126 -10.333 194 -31l-23 -101
c-62 18.667 -118.667 28 -170 28c-99.333 0 -149 -60 -149 -180v-134c0 -120 49.667 -180 149 -180c55.333 0 112 9.33301 170 28z" />
    <glyph glyph-name="cacute" unicode="&#x107;" horiz-adv-x="474" 
d="M366 663l-213 -79l-30 72l209 91zM54 214v90.999c0 76.667 20 133.667 60 171s94.333 56 163 56c46 0 95.667 -8 149 -24l-24 -97c-47.333 13.333 -87.333 20 -120 20c-36.667 0 -64.334 -10 -83.001 -30s-28 -52.667 -28 -98v-86c0 -45.333 9.33301 -78.166 28 -98.499
s46.334 -30.5 83.001 -30.5c31.333 0 71.333 6.66699 120 20l25 -97c-55.333 -16 -105.333 -24 -150 -24c-68.667 0 -123 18.667 -163 56s-60 94.333 -60 171z" />
    <glyph glyph-name="Ccircumflex" unicode="&#x108;" horiz-adv-x="566" 
d="M407 725l-98 63l-98 -63l-46 71l144 83l144 -83zM498 119l23 -101c-64 -20.667 -128.667 -31 -194 -31c-80 0 -144.667 23.5 -194 70.5s-74 115.167 -74 204.5v152c0 89.333 24.667 157.5 74 204.5s114 70.5 194 70.5c61.333 0 126 -10.333 194 -31l-23 -101
c-62 18.667 -118.667 28 -170 28c-99.333 0 -149 -60 -149 -180v-134c0 -120 49.667 -180 149 -180c55.333 0 112 9.33301 170 28z" />
    <glyph glyph-name="ccircumflex" unicode="&#x109;" horiz-adv-x="474" 
d="M354 583l-97 63l-99 -63l-45 71l143 83l144 -83zM54 214v90.999c0 76.667 20 133.667 60 171s94.333 56 163 56c46 0 95.667 -8 149 -24l-24 -97c-47.333 13.333 -87.333 20 -120 20c-36.667 0 -64.334 -10 -83.001 -30s-28 -52.667 -28 -98v-86
c0 -45.333 9.33301 -78.166 28 -98.499s46.334 -30.5 83.001 -30.5c31.333 0 71.333 6.66699 120 20l25 -97c-55.333 -16 -105.333 -24 -150 -24c-68.667 0 -123 18.667 -163 56s-60 94.333 -60 171z" />
    <glyph glyph-name="Cdotaccent" unicode="&#x10a;" horiz-adv-x="566" 
d="M367 803c0 -16 -5.83301 -29.667 -17.5 -41s-25.5 -17 -41.5 -17c-15.333 0 -28.833 5.66699 -40.5 17s-17.5 25 -17.5 41c0 16.667 5.66699 30.834 17 42.501s25 17.5 41 17.5s29.833 -5.83301 41.5 -17.5s17.5 -25.834 17.5 -42.501zM498 119l23 -101
c-64 -20.667 -128.667 -31 -194 -31c-80 0 -144.667 23.5 -194 70.5s-74 115.167 -74 204.5v152c0 89.333 24.667 157.5 74 204.5s114 70.5 194 70.5c61.333 0 126 -10.333 194 -31l-23 -101c-62 18.667 -118.667 28 -170 28c-99.333 0 -149 -60 -149 -180v-134
c0 -120 49.667 -180 149 -180c55.333 0 112 9.33301 170 28z" />
    <glyph glyph-name="cdotaccent" unicode="&#x10b;" horiz-adv-x="474" 
d="M304 660c0 -16 -5.83301 -29.667 -17.5 -41s-25.5 -17 -41.5 -17c-15.333 0 -28.833 5.66699 -40.5 17s-17.5 25 -17.5 41c0 16.667 5.66699 30.834 17 42.501s25 17.5 41 17.5s29.833 -5.83301 41.5 -17.5s17.5 -25.834 17.5 -42.501zM54 214v90.999
c0 76.667 20 133.667 60 171s94.333 56 163 56c46 0 95.667 -8 149 -24l-24 -97c-47.333 13.333 -87.333 20 -120 20c-36.667 0 -64.334 -10 -83.001 -30s-28 -52.667 -28 -98v-86c0 -45.333 9.33301 -78.166 28 -98.499s46.334 -30.5 83.001 -30.5
c31.333 0 71.333 6.66699 120 20l25 -97c-55.333 -16 -105.333 -24 -150 -24c-68.667 0 -123 18.667 -163 56s-60 94.333 -60 171z" />
    <glyph glyph-name="Ccaron" unicode="&#x10c;" horiz-adv-x="566" 
d="M458 807l-144 -83l-144 83l46 72l98 -64l98 64zM498 119l23 -101c-64 -20.667 -128.667 -31 -194 -31c-80 0 -144.667 23.5 -194 70.5s-74 115.167 -74 204.5v152c0 89.333 24.667 157.5 74 204.5s114 70.5 194 70.5c61.333 0 126 -10.333 194 -31l-23 -101
c-62 18.667 -118.667 28 -170 28c-99.333 0 -149 -60 -149 -180v-134c0 -120 49.667 -180 149 -180c55.333 0 112 9.33301 170 28z" />
    <glyph glyph-name="ccaron" unicode="&#x10d;" horiz-adv-x="474" 
d="M395 665l-143 -83l-144 83l46 72l97 -64l99 64zM54 214v90.999c0 76.667 20 133.667 60 171s94.333 56 163 56c46 0 95.667 -8 149 -24l-24 -97c-47.333 13.333 -87.333 20 -120 20c-36.667 0 -64.334 -10 -83.001 -30s-28 -52.667 -28 -98v-86
c0 -45.333 9.33301 -78.166 28 -98.499s46.334 -30.5 83.001 -30.5c31.333 0 71.333 6.66699 120 20l25 -97c-55.333 -16 -105.333 -24 -150 -24c-68.667 0 -123 18.667 -163 56s-60 94.333 -60 171z" />
    <glyph glyph-name="Dcaron" unicode="&#x10e;" horiz-adv-x="630" 
d="M458 807l-143 -83l-144 83l45 72l98 -64l98 64zM324 0l-247 0.00195312v633c100.667 37.333 183 56 247 56c70 0 128.833 -22.333 176.5 -67s71.5 -106.334 71.5 -185.001v-191c0 -80.667 -21.667 -141.834 -65 -183.501s-104.333 -62.5 -183 -62.5zM451 254.002v173
c0 52 -11.5 91.333 -34.5 118s-53.833 40 -92.5 40c-40 0 -82.333 -7.66699 -127 -23v-458h127c44 0 76.167 11.5 96.5 34.5s30.5 61.5 30.5 115.5z" />
    <glyph glyph-name="dcaron" unicode="&#x10f;" horiz-adv-x="529" 
d="M613 551h-76v181l103 12zM54 204v110c0 70 19.5 123.833 58.5 161.5s86.833 56.5 143.5 56.5c36 0 70 -10 102 -30v230h118v-528c0 -66.667 -20.333 -119.5 -61 -158.5s-90.667 -58.5 -150 -58.5s-109.333 19.5 -150 58.5s-61 91.833 -61 158.5zM170 309
l0.000976562 -100c0 -39.333 8.83301 -69.333 26.5 -90s40.5 -31 68.5 -31s50.5 10.333 67.5 31s25.5 50.667 25.5 90v195c-34 18 -64.667 27 -92 27c-28.667 0 -51.834 -9.66699 -69.501 -29s-26.5 -50.333 -26.5 -93z" />
    <glyph glyph-name="Dcroat" unicode="&#x110;" horiz-adv-x="630" 
d="M324 0l-247 0.00195312v298h-63v81h63v254c100.667 37.333 183 56 247 56c70 0 128.833 -22.333 176.5 -67s71.5 -106.334 71.5 -185.001v-191c0 -80.667 -21.667 -141.834 -65 -183.501s-104.333 -62.5 -183 -62.5zM451 254.002v173c0 52 -11.5 91.333 -34.5 118
s-53.833 40 -92.5 40c-40 0 -82.333 -7.66699 -127 -23v-183h128v-81h-128v-194h127c44 0 76.167 11.5 96.5 34.5s30.5 61.5 30.5 115.5z" />
    <glyph glyph-name="dcroat" unicode="&#x111;" horiz-adv-x="529" 
d="M54 204v110c0 70 19.5 123.833 58.5 161.5s86.833 56.5 143.5 56.5c36 0 70 -10 102 -30v93h-92v81h92v56h118v-56h40v-81h-40v-391c0 -66.667 -20.333 -119.5 -61 -158.5s-90.667 -58.5 -150 -58.5s-109.333 19.5 -150 58.5s-61 91.833 -61 158.5zM170 309
l0.000976562 -100c0 -39.333 8.83301 -69.333 26.5 -90s40.5 -31 68.5 -31s50.5 10.333 67.5 31s25.5 50.667 25.5 90v195c-34 18 -64.667 27 -92 27c-28.667 0 -51.834 -9.66699 -69.501 -29s-26.5 -50.333 -26.5 -93z" />
    <glyph glyph-name="Emacron" unicode="&#x112;" horiz-adv-x="529" 
d="M392 763h-254v81h254v-81zM77 0v676h387v-104h-267v-181h226l-6 -100h-220v-187h276v-104h-396z" />
    <glyph glyph-name="emacron" unicode="&#x113;" horiz-adv-x="514" 
d="M384 621h-254v81h254v-81zM54 207l-0.000976562 110c0 67.333 19.333 120 58 158s87.667 57 147 57c58 0 106.833 -18.333 146.5 -55s59.5 -83.667 59.5 -141v-110h-295v-19c0 -79.333 35.333 -119 106 -119c41.333 0 88.333 8 141 24l23 -96
c-52 -19.333 -106.667 -29 -164 -29c-67.333 0 -121.166 19 -161.499 57s-60.5 92.333 -60.5 163zM169.999 312l178 -0.000976562v24c0 27.333 -8.16699 50 -24.5 68s-37.833 27 -64.5 27s-48.167 -9.16699 -64.5 -27.5s-24.5 -43.166 -24.5 -74.499v-17z" />
    <glyph glyph-name="Ebreve" unicode="&#x114;" horiz-adv-x="529" 
d="M313 870l79.002 -0.000976562c-0.666992 -38 -13.334 -70 -38.001 -96s-55 -39 -91 -39c-35.333 0 -65.333 12.833 -90 38.5s-37.334 57.834 -38.001 96.501h79c0 -16.667 4.83301 -30.834 14.5 -42.501s21.167 -17.5 34.5 -17.5c14 0 25.833 5.83301 35.5 17.5
s14.5 25.834 14.5 42.501zM77.002 -0.000976562v676h387v-104h-267v-181h226l-6 -100h-220v-187h276v-104h-396z" />
    <glyph glyph-name="ebreve" unicode="&#x115;" horiz-adv-x="514" 
d="M306 728h79.0029c-0.666992 -38 -13.334 -70 -38.001 -96s-55 -39 -91 -39c-35.333 0 -65.333 13 -90 39s-37.334 58 -38.001 96h79c0.666992 -17.333 5.66699 -31.666 15 -42.999s20.666 -17 33.999 -17c14.667 0 26.667 5.66699 36 17s14 25.666 14 42.999z
M54.0029 207l-0.000976562 110c0 67.333 19.333 120 58 158s87.667 57 147 57c58 0 106.833 -18.333 146.5 -55s59.5 -83.667 59.5 -141v-110h-295v-19c0 -79.333 35.333 -119 106 -119c41.333 0 88.333 8 141 24l23 -96c-52 -19.333 -106.667 -29 -164 -29
c-67.333 0 -121.166 19 -161.499 57s-60.5 92.333 -60.5 163zM170.002 312l178 -0.000976562v24c0 27.333 -8.16699 50 -24.5 68s-37.833 27 -64.5 27s-48.167 -9.16699 -64.5 -27.5s-24.5 -43.166 -24.5 -74.499v-17z" />
    <glyph glyph-name="Edotaccent" unicode="&#x116;" horiz-adv-x="529" 
d="M335 802c0 -16 -5.83301 -29.667 -17.5 -41s-25.5 -17 -41.5 -17c-15.333 0 -28.833 5.66699 -40.5 17s-17.5 25 -17.5 41c0 16.667 5.83301 30.834 17.5 42.501s25.167 17.5 40.5 17.5c16.667 0 30.667 -5.83301 42 -17.5s17 -25.834 17 -42.501zM77 0v676h387v-104
h-267v-181h226l-6 -100h-220v-187h276v-104h-396z" />
    <glyph glyph-name="edotaccent" unicode="&#x117;" horiz-adv-x="514" 
d="M316 660c0 -16 -5.83301 -29.667 -17.5 -41s-25.5 -17 -41.5 -17c-15.333 0 -28.833 5.66699 -40.5 17s-17.5 25 -17.5 41c0 16.667 5.66699 30.834 17 42.501s25 17.5 41 17.5s29.833 -5.83301 41.5 -17.5s17.5 -25.834 17.5 -42.501zM54 207l-0.000976562 110
c0 67.333 19.333 120 58 158s87.667 57 147 57c58 0 106.833 -18.333 146.5 -55s59.5 -83.667 59.5 -141v-110h-295v-19c0 -79.333 35.333 -119 106 -119c41.333 0 88.333 8 141 24l23 -96c-52 -19.333 -106.667 -29 -164 -29c-67.333 0 -121.166 19 -161.499 57
s-60.5 92.333 -60.5 163zM169.999 312l178 -0.000976562v24c0 27.333 -8.16699 50 -24.5 68s-37.833 27 -64.5 27s-48.167 -9.16699 -64.5 -27.5s-24.5 -43.166 -24.5 -74.499v-17z" />
    <glyph glyph-name="Eogonek" unicode="&#x118;" horiz-adv-x="529" 
d="M77 0l0.000976562 675.999h387v-104h-267v-181h226l-6 -100h-220v-187h276v-104c-54 -39.333 -81 -77.333 -81 -114c0 -21.333 11 -32 33 -32c12.667 0 24 2 34 6l14 -73c-16.667 -7.33301 -36.334 -11 -59.001 -11c-36 0 -63.5 8.83301 -82.5 26.5
s-28.5 41.834 -28.5 72.501c0 46 24.667 87.667 74 125h-300z" />
    <glyph glyph-name="eogonek" unicode="&#x119;" horiz-adv-x="514" 
d="M427 -140l13 -73c-16.667 -7.33301 -36 -11 -58 -11c-36 0 -63.667 9 -83 27s-29 42 -29 72c0 39.333 17 77.333 51 114c-18.667 -1.33301 -33.667 -2 -45 -2c-67.333 0 -121.166 19 -161.499 57s-60.5 92.333 -60.5 163v110c0 67.333 19.333 120 58 158
s87.667 57 147 57c58 0 106.833 -18.333 146.5 -55s59.5 -83.667 59.5 -141v-110h-295v-19c0 -79.333 35.333 -119 106 -119c41.333 0 88.333 8 141 24l23 -96c-22 -16 -41 -36.833 -57 -62.5s-24 -48.167 -24 -67.5c0 -21.333 11.333 -32 34 -32
c11.333 0 22.666 2 33.999 6zM348 312v23.999c0 27.333 -8.16699 50 -24.5 68s-37.833 27 -64.5 27s-48.167 -9.16699 -64.5 -27.5s-24.5 -43.166 -24.5 -74.499v-17h178z" />
    <glyph glyph-name="Ecaron" unicode="&#x11a;" horiz-adv-x="529" 
d="M412 807l-143 -83l-144 83l45 72l98 -64l98 64zM77 0v676h387v-104h-267v-181h226l-6 -100h-220v-187h276v-104h-396z" />
    <glyph glyph-name="ecaron" unicode="&#x11b;" horiz-adv-x="514" 
d="M401 665l-143 -83l-144 83l45 72l98 -64l98 64zM54 207l-0.000976562 110c0 67.333 19.333 120 58 158s87.667 57 147 57c58 0 106.833 -18.333 146.5 -55s59.5 -83.667 59.5 -141v-110h-295v-19c0 -79.333 35.333 -119 106 -119c41.333 0 88.333 8 141 24l23 -96
c-52 -19.333 -106.667 -29 -164 -29c-67.333 0 -121.166 19 -161.499 57s-60.5 92.333 -60.5 163zM169.999 312l178 -0.000976562v24c0 27.333 -8.16699 50 -24.5 68s-37.833 27 -64.5 27s-48.167 -9.16699 -64.5 -27.5s-24.5 -43.166 -24.5 -74.499v-17z" />
    <glyph glyph-name="Gcircumflex" unicode="&#x11c;" horiz-adv-x="611" 
d="M405 725l-98 63l-98 -63l-46 71l144 83l144 -83zM59 262v152c0 89.333 24.667 157.5 74 204.5s114 70.5 194 70.5c58.667 0 127.334 -12.333 206.001 -37l-26 -100c-66.667 21.333 -126.334 32 -179.001 32c-99.333 0 -149 -59.333 -149 -178v-134
c0 -120 49.667 -180 149 -180c34 0 70 4.33301 108 13v175h-71v88h185v-341c-78 -26.667 -152.333 -40 -223 -40c-80 0 -144.667 23.5 -194 70.5s-74 115.167 -74 204.5z" />
    <glyph glyph-name="gcircumflex" unicode="&#x11d;" horiz-adv-x="490" 
d="M325 583l-98 63l-98 -63l-46 71l144 83l144 -83zM56 -83c64 -28 122.001 -42.002 174.001 -42.002c34.667 0 61.334 4.66699 80.001 14s28 22.333 28 39c0 10.667 -6 19.334 -18 26.001s-27.167 11.334 -45.5 14.001s-38.166 6.5 -59.499 11.5s-41.166 10.667 -59.499 17
s-33.5 16.833 -45.5 31.5s-18 32.334 -18 53.001c0 24 10.667 45.333 32 64c-51.333 33.333 -77 83.333 -77 150v53c0 54.667 17.833 99 53.5 133s81.167 51 136.5 51c27.333 0 52 -4 74 -12l156 11l-7 -78l-61 -3c19.333 -31.333 29 -65.333 29 -102v-53
c0 -54 -17.667 -98 -53 -132s-81 -51 -137 -51c-14.667 0 -28.334 1 -41.001 3c-4.66699 -6 -7 -11.333 -7 -16c0 -8 9.16699 -14.5 27.5 -19.5s40.666 -9.83301 66.999 -14.5s52.666 -11.167 78.999 -19.5s48.666 -21.833 66.999 -40.5s27.5 -42 27.5 -70
c0 -48.667 -20 -87.334 -60 -116.001s-95.333 -43 -166 -43c-70 0 -138.667 16.333 -206 49zM238.001 210.998c50 0 75 28 75 84v53c0 55.333 -25.333 83 -76 83c-50 0 -75 -27.667 -75 -83v-53c0 -56 25.333 -84 76 -84z" />
    <glyph glyph-name="Gbreve" unicode="&#x11e;" horiz-adv-x="611" 
d="M357 870l79.002 -0.000976562c-0.666992 -38 -13.334 -70 -38.001 -96s-55 -39 -91 -39c-35.333 0 -65.333 12.833 -90 38.5s-37.334 57.834 -38.001 96.501h79c0 -16.667 4.83301 -30.834 14.5 -42.501s21.167 -17.5 34.5 -17.5c14 0 25.833 5.83301 35.5 17.5
s14.5 25.834 14.5 42.501zM59.002 261.999v152c0 89.333 24.667 157.5 74 204.5s114 70.5 194 70.5c58.667 0 127.334 -12.333 206.001 -37l-26 -100c-66.667 21.333 -126.334 32 -179.001 32c-99.333 0 -149 -59.333 -149 -178v-134c0 -120 49.667 -180 149 -180
c34 0 70 4.33301 108 13v175h-71v88h185v-341c-78 -26.667 -152.333 -40 -223 -40c-80 0 -144.667 23.5 -194 70.5s-74 115.167 -74 204.5z" />
    <glyph glyph-name="gbreve" unicode="&#x11f;" horiz-adv-x="490" 
d="M279 728l79.999 0.00292969c-0.666992 -38.667 -13.5 -70.834 -38.5 -96.501s-55.167 -38.5 -90.5 -38.5c-36 0 -66.333 13 -91 39s-37 58 -37 96h78c0.666992 -16.667 5.83398 -30.834 15.501 -42.501s21.167 -17.5 34.5 -17.5c14 0 25.667 5.66699 35 17
s14 25.666 14 42.999zM55.999 -82.9971c64 -28 122.001 -42.002 174.001 -42.002c34.667 0 61.334 4.66699 80.001 14s28 22.333 28 39c0 10.667 -6 19.334 -18 26.001s-27.167 11.334 -45.5 14.001s-38.166 6.5 -59.499 11.5s-41.166 10.667 -59.499 17
s-33.5 16.833 -45.5 31.5s-18 32.334 -18 53.001c0 24 10.667 45.333 32 64c-51.333 33.333 -77 83.333 -77 150v53c0 54.667 17.833 99 53.5 133s81.167 51 136.5 51c27.333 0 52 -4 74 -12l156 11l-7 -78l-61 -3c19.333 -31.333 29 -65.333 29 -102v-53
c0 -54 -17.667 -98 -53 -132s-81 -51 -137 -51c-14.667 0 -28.334 1 -41.001 3c-4.66699 -6 -7 -11.333 -7 -16c0 -8 9.16699 -14.5 27.5 -19.5s40.666 -9.83301 66.999 -14.5s52.666 -11.167 78.999 -19.5s48.666 -21.833 66.999 -40.5s27.5 -42 27.5 -70
c0 -48.667 -20 -87.334 -60 -116.001s-95.333 -43 -166 -43c-70 0 -138.667 16.333 -206 49zM238 211.001c50 0 75 28 75 84v53c0 55.333 -25.333 83 -76 83c-50 0 -75 -27.667 -75 -83v-53c0 -56 25.333 -84 76 -84z" />
    <glyph glyph-name="Gdotaccent" unicode="&#x120;" horiz-adv-x="611" 
d="M373 802c0 -16 -5.83301 -29.667 -17.5 -41s-25.5 -17 -41.5 -17c-15.333 0 -28.833 5.66699 -40.5 17s-17.5 25 -17.5 41c0 16.667 5.83301 30.834 17.5 42.501s25.167 17.5 40.5 17.5c16.667 0 30.667 -5.83301 42 -17.5s17 -25.834 17 -42.501zM59 262v152
c0 89.333 24.667 157.5 74 204.5s114 70.5 194 70.5c58.667 0 127.334 -12.333 206.001 -37l-26 -100c-66.667 21.333 -126.334 32 -179.001 32c-99.333 0 -149 -59.333 -149 -178v-134c0 -120 49.667 -180 149 -180c34 0 70 4.33301 108 13v175h-71v88h185v-341
c-78 -26.667 -152.333 -40 -223 -40c-80 0 -144.667 23.5 -194 70.5s-74 115.167 -74 204.5z" />
    <glyph glyph-name="gdotaccent" unicode="&#x121;" horiz-adv-x="490" 
d="M291 660c0 -16 -5.83301 -29.667 -17.5 -41s-25.5 -17 -41.5 -17c-15.333 0 -28.833 5.66699 -40.5 17s-17.5 25 -17.5 41c0 16.667 5.66699 30.834 17 42.501s25 17.5 41 17.5s29.833 -5.83301 41.5 -17.5s17.5 -25.834 17.5 -42.501zM56 -83
c64 -28 122.001 -42.002 174.001 -42.002c34.667 0 61.334 4.66699 80.001 14s28 22.333 28 39c0 10.667 -6 19.334 -18 26.001s-27.167 11.334 -45.5 14.001s-38.166 6.5 -59.499 11.5s-41.166 10.667 -59.499 17s-33.5 16.833 -45.5 31.5s-18 32.334 -18 53.001
c0 24 10.667 45.333 32 64c-51.333 33.333 -77 83.333 -77 150v53c0 54.667 17.833 99 53.5 133s81.167 51 136.5 51c27.333 0 52 -4 74 -12l156 11l-7 -78l-61 -3c19.333 -31.333 29 -65.333 29 -102v-53c0 -54 -17.667 -98 -53 -132s-81 -51 -137 -51
c-14.667 0 -28.334 1 -41.001 3c-4.66699 -6 -7 -11.333 -7 -16c0 -8 9.16699 -14.5 27.5 -19.5s40.666 -9.83301 66.999 -14.5s52.666 -11.167 78.999 -19.5s48.666 -21.833 66.999 -40.5s27.5 -42 27.5 -70c0 -48.667 -20 -87.334 -60 -116.001s-95.333 -43 -166 -43
c-70 0 -138.667 16.333 -206 49zM238.001 210.998c50 0 75 28 75 84v53c0 55.333 -25.333 83 -76 83c-50 0 -75 -27.667 -75 -83v-53c0 -56 25.333 -84 76 -84z" />
    <glyph glyph-name="Gcommaaccent" unicode="&#x122;" horiz-adv-x="611" 
d="M59 262v152c0 89.333 24.667 157.5 74 204.5s114 70.5 194 70.5c58.667 0 127.334 -12.333 206.001 -37l-26 -100c-66.667 21.333 -126.334 32 -179.001 32c-99.333 0 -149 -59.333 -149 -178v-134c0 -120 49.667 -180 149 -180c34 0 70 4.33301 108 13v175h-71v88h185
v-341c-78 -26.667 -152.333 -40 -223 -40c-80 0 -144.667 23.5 -194 70.5s-74 115.167 -74 204.5zM315 -224h-78l28 161h105z" />
    <glyph glyph-name="gcommaaccent" unicode="&#x123;" horiz-adv-x="490" 
d="M281 580h-78l28 161h105zM56 -83c64 -28 122.001 -42.002 174.001 -42.002c34.667 0 61.334 4.66699 80.001 14s28 22.333 28 39c0 10.667 -6 19.334 -18 26.001s-27.167 11.334 -45.5 14.001s-38.166 6.5 -59.499 11.5s-41.166 10.667 -59.499 17
s-33.5 16.833 -45.5 31.5s-18 32.334 -18 53.001c0 24 10.667 45.333 32 64c-51.333 33.333 -77 83.333 -77 150v53c0 54.667 17.833 99 53.5 133s81.167 51 136.5 51c27.333 0 52 -4 74 -12l156 11l-7 -78l-61 -3c19.333 -31.333 29 -65.333 29 -102v-53
c0 -54 -17.667 -98 -53 -132s-81 -51 -137 -51c-14.667 0 -28.334 1 -41.001 3c-4.66699 -6 -7 -11.333 -7 -16c0 -8 9.16699 -14.5 27.5 -19.5s40.666 -9.83301 66.999 -14.5s52.666 -11.167 78.999 -19.5s48.666 -21.833 66.999 -40.5s27.5 -42 27.5 -70
c0 -48.667 -20 -87.334 -60 -116.001s-95.333 -43 -166 -43c-70 0 -138.667 16.333 -206 49zM238.001 210.998c50 0 75 28 75 84v53c0 55.333 -25.333 83 -76 83c-50 0 -75 -27.667 -75 -83v-53c0 -56 25.333 -84 76 -84z" />
    <glyph glyph-name="Hcircumflex" unicode="&#x124;" horiz-adv-x="639" 
d="M416 725l-98 63l-98 -63l-46 71l144 83l144 -83zM77 0v676h120v-281h244v281h121v-676h-121v293h-244v-293h-120z" />
    <glyph glyph-name="hcircumflex" unicode="&#x125;" horiz-adv-x="552" 
d="M227 741l-98 65l-98 -65l-46 71l144 85l144 -85zM485 0h-117.001v318c0 41.333 -7.33301 70.5 -22 87.5s-36 25.5 -64 25.5s-59 -9 -93 -27v-404h-117v732h117v-230c33.333 20 68 30 104 30c56.667 0 102.834 -17 138.501 -51s53.5 -86 53.5 -156v-325z" />
    <glyph glyph-name="Hbar" unicode="&#x126;" horiz-adv-x="639" 
d="M562 0h-121v293h-244v-293h-120v481h-40v81h40v114h120v-114h244v114h121v-114h38v-81h-38v-481zM441 395v86h-244v-86h244z" />
    <glyph glyph-name="hbar" unicode="&#x127;" horiz-adv-x="552" 
d="M485 0h-117.001v318c0 41.333 -7.33301 70.5 -22 87.5s-36 25.5 -64 25.5s-59 -9 -93 -27v-404h-117v595h-41v81h41v56h117v-56h93v-81h-93v-93c33.333 20 68 30 104 30c56.667 0 102.834 -17 138.501 -51s53.5 -86 53.5 -156v-325z" />
    <glyph glyph-name="Itilde" unicode="&#x128;" horiz-adv-x="274" 
d="M240 850l46.001 -52c-7.33301 -16 -19 -30.333 -35 -43s-35.333 -19 -58 -19c-17.333 0 -37.833 7.66699 -61.5 23s-40.834 23 -51.501 23c-16.667 0 -32.334 -9.33301 -47.001 -28l-46 52c7.33301 16 19 30.333 35 43s35.333 19 58 19
c17.333 0 37.833 -7.83301 61.5 -23.5s40.834 -23.5 51.501 -23.5c17.333 0 33 9.66699 47 29zM77.001 0v676h120v-676h-120z" />
    <glyph glyph-name="itilde" unicode="&#x129;" horiz-adv-x="261" 
d="M233 708l46 -52c-7.33301 -16 -19 -30.333 -35 -43s-35 -19 -57 -19c-18 0 -38.667 7.66699 -62 23s-40.333 23 -51 23c-18.667 0 -34.334 -9.33301 -47.001 -28l-46 52c18.667 41.333 49.667 62 93 62c17.333 0 37.833 -7.83301 61.5 -23.5s40.834 -23.5 51.501 -23.5
c18 0 33.333 9.66699 46 29zM189 0h-117v519h117v-519z" />
    <glyph glyph-name="Imacron" unicode="&#x12a;" horiz-adv-x="274" 
d="M264 763h-254v81h254v-81zM77 0v676h120v-676h-120z" />
    <glyph glyph-name="imacron" unicode="&#x12b;" horiz-adv-x="261" 
d="M257 621h-254v81h254v-81zM189 0h-117v519h117v-519z" />
    <glyph glyph-name="Ibreve" unicode="&#x12c;" horiz-adv-x="274" 
d="M186 885h79.0029c-0.666992 -38 -13.334 -70 -38.001 -96s-55 -39 -91 -39c-35.333 0 -65.333 13 -90 39s-37.334 58 -38.001 96h79c0.666992 -17.333 5.66699 -31.666 15 -42.999s20.666 -17 33.999 -17c14.667 0 26.667 5.66699 36 17s14 25.666 14 42.999zM77.0029 0
v676h120v-676h-120z" />
    <glyph glyph-name="ibreve" unicode="&#x12d;" horiz-adv-x="261" 
d="M179 728h79.0029c-0.666992 -38 -13.334 -70 -38.001 -96s-55 -39 -91 -39c-35.333 0 -65.333 13 -90 39s-37.334 58 -38.001 96h79c0.666992 -17.333 5.66699 -31.666 15 -42.999s20.666 -17 33.999 -17c14.667 0 26.667 5.66699 36 17s14 25.666 14 42.999zM189.003 0
h-117v519h117v-519z" />
    <glyph glyph-name="Iogonek" unicode="&#x12e;" horiz-adv-x="274" 
d="M77 0v676h120v-676c-54 -40 -81 -78 -81 -114c0 -21.333 11.333 -32 34 -32c12 0 23.333 2 34 6l13 -73c-16.667 -7.33301 -36 -11 -58 -11c-36 0 -63.667 9 -83 27s-29 42 -29 72c0 46 24.667 87.667 74 125h-24z" />
    <glyph glyph-name="iogonek" unicode="&#x12f;" horiz-adv-x="261" 
d="M130 597c-19.333 0 -35.833 6.66699 -49.5 20s-20.5 29.333 -20.5 48c0 19.333 7 35.333 21 48s30.333 19 49 19s35 -6.33301 49 -19s21 -28.667 21 -48c0 -18.667 -6.83301 -34.667 -20.5 -48s-30.167 -20 -49.5 -20zM72 0v519h117v-519
c-54 -39.333 -81 -77.333 -81 -114c0 -21.333 11 -32 33 -32c12.667 0 24.334 2 35.001 6l13 -73c-16.667 -7.33301 -36.334 -11 -59.001 -11c-36 0 -63.5 9 -82.5 27s-28.5 42 -28.5 72c0 46 24.667 87.667 74 125h-21z" />
    <glyph glyph-name="Idotaccent" unicode="&#x130;" horiz-adv-x="274" 
d="M195 802c0 -16 -5.83301 -29.667 -17.5 -41s-25.5 -17 -41.5 -17c-15.333 0 -28.833 5.66699 -40.5 17s-17.5 25 -17.5 41c0 16.667 5.83301 30.834 17.5 42.501s25.167 17.5 40.5 17.5c16.667 0 30.667 -5.83301 42 -17.5s17 -25.834 17 -42.501zM77 0v676h120v-676
h-120z" />
    <glyph glyph-name="dotlessi" unicode="&#x131;" horiz-adv-x="261" 
d="M189 0h-117v519h117v-519z" />
    <glyph glyph-name="IJ" unicode="&#x132;" horiz-adv-x="754" 
d="M567 227l-0.00195312 448.999l120 -7v-445c0 -73.333 -19.167 -131.166 -57.5 -173.499s-92.166 -63.5 -161.499 -63.5c-53.333 0 -110.666 11.333 -171.999 34l28 98c54 -18.667 100.667 -28 140 -28c68.667 0 103 45.333 103 136zM196.998 -0.000976562h-120v676h120
v-676z" />
    <glyph glyph-name="ij" unicode="&#x133;" horiz-adv-x="521" 
d="M460 665c0 -18.667 -6.83301 -34.667 -20.5 -48s-30.167 -20 -49.5 -20s-35.833 6.66699 -49.5 20s-20.5 29.333 -20.5 48c0 19.333 7 35.333 21 48s30.333 19 49 19s35 -6.33301 49 -19s21 -28.667 21 -48zM200 665c0 -18.667 -6.83301 -34.667 -20.5 -48
s-30.167 -20 -49.5 -20s-35.833 6.66699 -49.5 20s-20.5 29.333 -20.5 48c0 19.333 7 35.333 21 48s30.333 19 49 19s35 -6.33301 49 -19s21 -28.667 21 -48zM449 -202l-117 -20v741h117v-721zM189 0h-117v519h117v-519z" />
    <glyph glyph-name="Jcircumflex" unicode="&#x134;" horiz-adv-x="480" 
d="M445 725l-98 63l-98 -63l-46 71l144 83l144 -83zM22 21l27.998 97.999c54 -18.667 100.667 -28 140 -28c68.667 0 103 45.333 103 136v449l120 -7v-445c0 -73.333 -19.167 -131.166 -57.5 -173.499s-92.166 -63.5 -161.499 -63.5c-53.333 0 -110.666 11.333 -171.999 34z
" />
    <glyph glyph-name="jcircumflex" unicode="&#x135;" horiz-adv-x="260" 
d="M228 580l-97 70l-99 -70l-45 71l143 90l144 -90zM189 -202l-118 -20v741h118v-721z" />
    <glyph glyph-name="Kcommaaccent" unicode="&#x136;" horiz-adv-x="600" 
d="M77 0v676h120v-293l209 293h140l-218 -299l250 -377h-142l-181 278l-58 -81v-197h-120zM300 -224h-78l28 161h105z" />
    <glyph glyph-name="kcommaaccent" unicode="&#x137;" horiz-adv-x="490" 
d="M72 0v732h117v-421l70 24c20.667 8 35 27.667 43 59l32 125h115l-40 -150c-8 -30 -16.833 -53.5 -26.5 -70.5s-24.167 -30.167 -43.5 -39.5l135 -259h-132l-107 219l-46 -17v-202h-117zM252 -224h-78l28 161h105z" />
    <glyph glyph-name="Lacute" unicode="&#x139;" horiz-adv-x="509" 
d="M263 800l-213 -79l-31 72l210 91zM77 0v676h120v-572h280l-6 -104h-394z" />
    <glyph glyph-name="lacute" unicode="&#x13a;" horiz-adv-x="261" 
d="M248 819l-213 -79l-31 72l210 91zM189 0h-117v725l117 20v-745z" />
    <glyph glyph-name="Lcommaaccent" unicode="&#x13b;" horiz-adv-x="509" 
d="M77 0v676h120v-572h280l-6 -104h-394zM280 -224h-79l28 161h105z" />
    <glyph glyph-name="lcommaaccent" unicode="&#x13c;" horiz-adv-x="261" 
d="M72 0v725l117 20v-745h-117zM122 -224h-78l28 161h105z" />
    <glyph glyph-name="Lcaron" unicode="&#x13d;" horiz-adv-x="509" 
d="M390 495h-76v181l103 12zM471 0h-394v676h120v-572h280z" />
    <glyph glyph-name="lcaron" unicode="&#x13e;" horiz-adv-x="261" 
d="M72 0v725l117 20v-745h-117zM330 551h-76v181l103 12z" />
    <glyph glyph-name="Ldot" unicode="&#x13f;" horiz-adv-x="509" 
d="M471 0h-394v676h120v-572h280zM399 280c0 -17.333 -6.33301 -32 -19 -44s-27.667 -18 -45 -18c-16.667 0 -31.167 6 -43.5 18s-18.5 26.667 -18.5 44c0 18 6.16699 33.167 18.5 45.5s26.833 18.5 43.5 18.5c18 0 33.167 -6.16699 45.5 -18.5s18.5 -27.5 18.5 -45.5z" />
    <glyph glyph-name="ldot" unicode="&#x140;" horiz-adv-x="362" 
d="M189 0h-117v725l117 20v-745zM369 280c0 -17.333 -6.33301 -32 -19 -44s-27.667 -18 -45 -18c-16.667 0 -31.334 6 -44.001 18s-19 26.667 -19 44c0 18 6.33301 33.167 19 45.5s27.334 18.5 44.001 18.5c18 0 33.167 -6.16699 45.5 -18.5s18.5 -27.5 18.5 -45.5z" />
    <glyph glyph-name="Lslash" unicode="&#x141;" horiz-adv-x="509" 
d="M471 0h-394v272l-46 -16l-24 65l70 26v329h120v-286l82 30l25 -65l-107 -39v-212h280z" />
    <glyph glyph-name="lslash" unicode="&#x142;" horiz-adv-x="261" 
d="M189 0h-117v279l-47 -16l-25 65l72 26v371l117 20v-349l47 17l24 -65l-71 -26v-322z" />
    <glyph glyph-name="Nacute" unicode="&#x143;" horiz-adv-x="632" 
d="M437 800l-213 -79l-31 72l210 91zM77 0v676.001h97l263 -439c-2 37.333 -3 70.666 -3 99.999v339h121v-676h-100l-262 435c2.66699 -34 4 -68.333 4 -103v-332h-120z" />
    <glyph glyph-name="nacute" unicode="&#x144;" horiz-adv-x="546" 
d="M383 658l-213 -79l-30 72l209 91zM67 0l0.000976562 318c0 67.333 19.667 119.833 59 157.5s88.666 56.5 147.999 56.5s108.333 -18.833 147 -56.5s58 -90.167 58 -157.5v-318h-117v313c0 38 -7.83301 67.167 -23.5 87.5s-37.167 30.5 -64.5 30.5
c-28 0 -50.167 -10.167 -66.5 -30.5s-24.5 -49.5 -24.5 -87.5v-313h-116z" />
    <glyph glyph-name="Ncommaaccent" unicode="&#x145;" horiz-adv-x="632" 
d="M77 0v676.001h97l263 -439c-2 37.333 -3 70.666 -3 99.999v339h121v-676h-100l-262 435c2.66699 -34 4 -68.333 4 -103v-332h-120zM324 -223.999h-78l28 161h105z" />
    <glyph glyph-name="ncommaaccent" unicode="&#x146;" horiz-adv-x="546" 
d="M67 0l0.000976562 318c0 67.333 19.667 119.833 59 157.5s88.666 56.5 147.999 56.5s108.333 -18.833 147 -56.5s58 -90.167 58 -157.5v-318h-117v313c0 38 -7.83301 67.167 -23.5 87.5s-37.167 30.5 -64.5 30.5c-28 0 -50.167 -10.167 -66.5 -30.5
s-24.5 -49.5 -24.5 -87.5v-313h-116zM274.001 -224h-79l28 161h105z" />
    <glyph glyph-name="Ncaron" unicode="&#x147;" horiz-adv-x="632" 
d="M459 807l-144 -83l-144 83l46 72l98 -64l98 64zM77 0v676.001h97l263 -439c-2 37.333 -3 70.666 -3 99.999v339h121v-676h-100l-262 435c2.66699 -34 4 -68.333 4 -103v-332h-120z" />
    <glyph glyph-name="ncaron" unicode="&#x148;" horiz-adv-x="546" 
d="M417 665l-144 -83l-144 83l46 72l98 -64l98 64zM67 0l0.000976562 318c0 67.333 19.667 119.833 59 157.5s88.666 56.5 147.999 56.5s108.333 -18.833 147 -56.5s58 -90.167 58 -157.5v-318h-117v313c0 38 -7.83301 67.167 -23.5 87.5s-37.167 30.5 -64.5 30.5
c-28 0 -50.167 -10.167 -66.5 -30.5s-24.5 -49.5 -24.5 -87.5v-313h-116z" />
    <glyph glyph-name="Eng" unicode="&#x14a;" horiz-adv-x="632" 
d="M555 -202l-118 -19.999v252l-244 405c2.66699 -34 4 -68.333 4 -103v-332h-120v676h97l263 -439c-2 37.333 -3 70.666 -3 99.999v339h121v-878z" />
    <glyph glyph-name="eng" unicode="&#x14b;" horiz-adv-x="546" 
d="M479 -201l-116.999 -20v532c0 38 -7.83301 67.167 -23.5 87.5s-37.167 30.5 -64.5 30.5c-28 0 -50.167 -10.167 -66.5 -30.5s-24.5 -49.5 -24.5 -87.5v-311h-116v316c0 67.333 19.667 119.833 59 157.5s88.666 56.5 147.999 56.5s108.333 -18.833 147 -56.5
s58 -90.167 58 -157.5v-517z" />
    <glyph glyph-name="Omacron" unicode="&#x14c;" horiz-adv-x="636" 
d="M444 763h-253v81h253v-81zM59 262v150c0 88.667 24.333 157 73 205s110.667 72 186 72s137.333 -24 186 -72s73 -116.333 73 -205v-150c0 -88.667 -24.333 -156.667 -73 -204s-110.667 -71 -186 -71s-137.333 23.667 -186 71s-73 115.333 -73 204zM179 405
l0.000976562 -134c0 -120 46.333 -180 139 -180c92 0 138 60 138 180v134c0 61.333 -12.333 106.666 -37 135.999s-58.334 44 -101.001 44s-76.5 -14.667 -101.5 -44s-37.5 -74.666 -37.5 -135.999z" />
    <glyph glyph-name="omacron" unicode="&#x14d;" horiz-adv-x="539" 
d="M396 621h-253v81h253v-81zM54 215l-0.000976562 90c0 71.333 19.833 127 59.5 167s91.5 60 155.5 60c64.667 0 116.834 -20 156.501 -60s59.5 -96 59.5 -168v-89c0 -72 -20 -128 -60 -168s-92 -60 -156 -60s-115.833 20 -155.5 60s-59.5 96 -59.5 168zM169.999 220
c0 -88 33 -132 99 -132c66.667 0 100 44 100 132v79c0 88 -33.333 132 -100 132c-66 0 -99 -44 -99 -132v-79z" />
    <glyph glyph-name="Obreve" unicode="&#x14e;" horiz-adv-x="636" 
d="M367 870l79.002 -0.000976562c-0.666992 -38 -13.334 -70 -38.001 -96s-55 -39 -91 -39c-35.333 0 -65.333 12.833 -90 38.5s-37.334 57.834 -38.001 96.501h79c0 -16.667 4.83301 -30.834 14.5 -42.501s21.167 -17.5 34.5 -17.5c14 0 25.833 5.83301 35.5 17.5
s14.5 25.834 14.5 42.501zM59.002 261.999v150c0 88.667 24.333 157 73 205s110.667 72 186 72s137.333 -24 186 -72s73 -116.333 73 -205v-150c0 -88.667 -24.333 -156.667 -73 -204s-110.667 -71 -186 -71s-137.333 23.667 -186 71s-73 115.333 -73 204zM179.002 404.999
l0.000976562 -134c0 -120 46.333 -180 139 -180c92 0 138 60 138 180v134c0 61.333 -12.333 106.666 -37 135.999s-58.334 44 -101.001 44s-76.5 -14.667 -101.5 -44s-37.5 -74.666 -37.5 -135.999z" />
    <glyph glyph-name="obreve" unicode="&#x14f;" horiz-adv-x="539" 
d="M319 728l79.002 -0.000976562c-0.666992 -38 -13.334 -70 -38.001 -96s-55 -39 -91 -39c-35.333 0 -65.333 12.833 -90 38.5s-37.334 57.834 -38.001 96.501h79c0 -16.667 4.83301 -30.834 14.5 -42.501s21.167 -17.5 34.5 -17.5c14 0 25.833 5.83301 35.5 17.5
s14.5 25.834 14.5 42.501zM54.002 214.999l-0.000976562 90c0 71.333 19.833 127 59.5 167s91.5 60 155.5 60c64.667 0 116.834 -20 156.501 -60s59.5 -96 59.5 -168v-89c0 -72 -20 -128 -60 -168s-92 -60 -156 -60s-115.833 20 -155.5 60s-59.5 96 -59.5 168z
M170.001 219.999c0 -88 33 -132 99 -132c66.667 0 100 44 100 132v79c0 88 -33.333 132 -100 132c-66 0 -99 -44 -99 -132v-79z" />
    <glyph glyph-name="Ohungarumlaut" unicode="&#x150;" horiz-adv-x="636" 
d="M581 814l-170 -98l-42 69l164 108zM357 814l-169 -99l-43 70l164 107zM59 262v150c0 88.667 24.333 157 73 205s110.667 72 186 72s137.333 -24 186 -72s73 -116.333 73 -205v-150c0 -88.667 -24.333 -156.667 -73 -204s-110.667 -71 -186 -71s-137.333 23.667 -186 71
s-73 115.333 -73 204zM179 405l0.000976562 -134c0 -120 46.333 -180 139 -180c92 0 138 60 138 180v134c0 61.333 -12.333 106.666 -37 135.999s-58.334 44 -101.001 44s-76.5 -14.667 -101.5 -44s-37.5 -74.666 -37.5 -135.999z" />
    <glyph glyph-name="ohungarumlaut" unicode="&#x151;" horiz-adv-x="539" 
d="M525 672l-170 -98l-42 69l164 108zM301 672l-170 -99l-42 70l164 107zM54 215l-0.000976562 90c0 71.333 19.833 127 59.5 167s91.5 60 155.5 60c64.667 0 116.834 -20 156.501 -60s59.5 -96 59.5 -168v-89c0 -72 -20 -128 -60 -168s-92 -60 -156 -60
s-115.833 20 -155.5 60s-59.5 96 -59.5 168zM169.999 220c0 -88 33 -132 99 -132c66.667 0 100 44 100 132v79c0 88 -33.333 132 -100 132c-66 0 -99 -44 -99 -132v-79z" />
    <glyph glyph-name="OE" unicode="&#x152;" horiz-adv-x="897" 
d="M841 0l-435 -0.000976562c-30.667 -8.66699 -60 -13 -88 -13c-75.333 0 -137.333 23.667 -186 71s-73 115.333 -73 204v150c0 88.667 24.333 157 73 205s110.667 72 186 72c28 0 57 -4.33301 87 -13h427v-104h-296c27.333 -43.333 41 -96.666 41 -159.999v-21h214
l-6 -100h-208v-29c0 -62 -13.667 -114.667 -41 -158h305v-104zM456 270.999l0.000976562 134c0 61.333 -12.333 106.666 -37 135.999s-58.334 44 -101.001 44s-76.5 -14.667 -101.5 -44s-37.5 -74.666 -37.5 -135.999v-134c0 -120 46.333 -180 139 -180c92 0 138 60 138 180
z" />
    <glyph glyph-name="oe" unicode="&#x153;" horiz-adv-x="829" 
d="M732 112l23.001 -96c-52.667 -19.333 -107.334 -29 -164.001 -29c-71.333 0 -126.333 21.333 -165 64c-36.667 -42.667 -89 -64 -157 -64c-64 0 -115.833 20 -155.5 60s-59.5 96 -59.5 168v90c0 71.333 19.833 127 59.5 167s91.5 60 155.5 60c65.333 0 117 -21 155 -63
c36.667 42 86.667 63 150 63c58 0 106.833 -18.333 146.5 -55s59.5 -83.667 59.5 -141v-110h-295v-19c0 -79.333 35.333 -119 106 -119c41.333 0 88.333 8 141 24zM663.001 312v23.999c0 27.333 -8.16699 50 -24.5 68s-37.833 27 -64.5 27s-48.167 -9.16699 -64.5 -27.5
s-24.5 -43.166 -24.5 -74.499v-17h178zM369.001 219.999v79c0 88 -33.333 132 -100 132c-66 0 -99 -44 -99 -132v-79c0 -88 33 -132 99 -132c66.667 0 100 44 100 132z" />
    <glyph glyph-name="Racute" unicode="&#x154;" horiz-adv-x="565" 
d="M403 800l-213 -79l-30 72l209 91zM77 0l0.000976562 676h233c63.333 0 114.666 -20.5 153.999 -61.5s59 -90.833 59 -149.5c0 -42 -11.333 -80 -34 -114s-53.667 -58.333 -93 -73l131 -278h-135l-116 262h-79v-262h-120zM197.001 359h108
c28.667 0 51.834 9.83301 69.501 29.5s26.5 45.167 26.5 76.5c0 32 -8.83301 57.833 -26.5 77.5s-40.834 29.5 -69.501 29.5h-108v-213z" />
    <glyph glyph-name="racute" unicode="&#x155;" horiz-adv-x="364" 
d="M330 658l-213 -79l-31 72l210 91zM67 0l-0.000976562 335.001c0 58.667 19.333 106.167 58 142.5s87.334 54.5 146.001 54.5c30.667 0 59 -4.33301 85 -13l-22 -97c-24 6 -44.667 9 -62 9c-26.667 0 -48.167 -8.83301 -64.5 -26.5s-24.5 -40.834 -24.5 -69.501v-335h-116
z" />
    <glyph glyph-name="Rcommaaccent" unicode="&#x156;" horiz-adv-x="565" 
d="M77 0l0.000976562 676h233c63.333 0 114.666 -20.5 153.999 -61.5s59 -90.833 59 -149.5c0 -42 -11.333 -80 -34 -114s-53.667 -58.333 -93 -73l131 -278h-135l-116 262h-79v-262h-120zM197.001 359h108c28.667 0 51.834 9.83301 69.501 29.5s26.5 45.167 26.5 76.5
c0 32 -8.83301 57.833 -26.5 77.5s-40.834 29.5 -69.501 29.5h-108v-213zM286.001 -224h-79l28 161h105z" />
    <glyph glyph-name="rcommaaccent" unicode="&#x157;" horiz-adv-x="364" 
d="M67 0l-0.000976562 335.001c0 58.667 19.333 106.167 58 142.5s87.334 54.5 146.001 54.5c30.667 0 59 -4.33301 85 -13l-22 -97c-24 6 -44.667 9 -62 9c-26.667 0 -48.167 -8.83301 -64.5 -26.5s-24.5 -40.834 -24.5 -69.501v-335h-116zM123.999 -223.999h-79l28 161
h105z" />
    <glyph glyph-name="Rcaron" unicode="&#x158;" horiz-adv-x="565" 
d="M425 807l-143 -83l-144 83l46 72l97 -64l99 64zM77 0l0.000976562 676h233c63.333 0 114.666 -20.5 153.999 -61.5s59 -90.833 59 -149.5c0 -42 -11.333 -80 -34 -114s-53.667 -58.333 -93 -73l131 -278h-135l-116 262h-79v-262h-120zM197.001 359h108
c28.667 0 51.834 9.83301 69.501 29.5s26.5 45.167 26.5 76.5c0 32 -8.83301 57.833 -26.5 77.5s-40.834 29.5 -69.501 29.5h-108v-213z" />
    <glyph glyph-name="rcaron" unicode="&#x159;" horiz-adv-x="364" 
d="M343 665l-143 -83l-144 83l46 72l97 -64l99 64zM67 0l-0.000976562 335.001c0 58.667 19.333 106.167 58 142.5s87.334 54.5 146.001 54.5c30.667 0 59 -4.33301 85 -13l-22 -97c-24 6 -44.667 9 -62 9c-26.667 0 -48.167 -8.83301 -64.5 -26.5
s-24.5 -40.834 -24.5 -69.501v-335h-116z" />
    <glyph glyph-name="Sacute" unicode="&#x15a;" horiz-adv-x="514" 
d="M378 800l-213 -79l-30 72l209 91zM40 26l23 101.998c70.667 -24.667 132.334 -37 185.001 -37c29.333 0 53.5 8.16699 72.5 24.5s28.5 38.5 28.5 66.5c0 22 -7.16699 41.333 -21.5 58s-32.5 29.834 -54.5 39.501s-45.5 21 -70.5 34s-48.5 26.5 -70.5 40.5
s-40.167 34 -54.5 60s-21.5 56.333 -21.5 91c0 55.333 20.667 99.833 62 133.5s93.666 50.5 156.999 50.5c58 0 119.333 -13 184 -39l-31 -98c-59.333 22 -110.333 33 -153 33c-31.333 0 -54.833 -7 -70.5 -21s-23.5 -33 -23.5 -57c0 -20.667 7.16699 -38.667 21.5 -54
s32.5 -27.5 54.5 -36.5s45.5 -20 70.5 -33s48.5 -26.667 70.5 -41s40.167 -35.166 54.5 -62.499s21.5 -59.333 21.5 -96c0 -62.667 -21.833 -111.167 -65.5 -145.5s-97.167 -51.5 -160.5 -51.5c-66 0 -135.333 13 -208 39z" />
    <glyph glyph-name="sacute" unicode="&#x15b;" horiz-adv-x="427" 
d="M328 658l-213 -79l-30 72l209 91zM35 16l23.0029 95.999c50 -16 95 -24 135 -24c22.667 0 41.167 5.16699 55.5 15.5s21.5 23.166 21.5 38.499c0 17.333 -7.66699 32 -23 44s-33.833 22.333 -55.5 31s-43.334 18.5 -65.001 29.5s-40.167 27.833 -55.5 50.5
s-23 50.667 -23 84c0 44 16.667 80.167 50 108.5s77.666 42.5 132.999 42.5c44.667 0 90.667 -8 138 -24l-26 -98c-44.667 14 -82 21 -112 21c-42 0 -63 -16.667 -63 -50c0 -16 7.66699 -29.5 23 -40.5s33.666 -20.667 54.999 -29s42.833 -18.166 64.5 -29.499
s40.167 -28.666 55.5 -51.999s23 -52 23 -86c0 -42.667 -17 -79.5 -51 -110.5s-82.333 -46.5 -145 -46.5c-51.333 0 -104 9.66699 -158 29z" />
    <glyph glyph-name="Scircumflex" unicode="&#x15c;" horiz-adv-x="514" 
d="M354 725l-97 63l-99 -63l-45 71l143 83l144 -83zM40 26l23 101.998c70.667 -24.667 132.334 -37 185.001 -37c29.333 0 53.5 8.16699 72.5 24.5s28.5 38.5 28.5 66.5c0 22 -7.16699 41.333 -21.5 58s-32.5 29.834 -54.5 39.501s-45.5 21 -70.5 34s-48.5 26.5 -70.5 40.5
s-40.167 34 -54.5 60s-21.5 56.333 -21.5 91c0 55.333 20.667 99.833 62 133.5s93.666 50.5 156.999 50.5c58 0 119.333 -13 184 -39l-31 -98c-59.333 22 -110.333 33 -153 33c-31.333 0 -54.833 -7 -70.5 -21s-23.5 -33 -23.5 -57c0 -20.667 7.16699 -38.667 21.5 -54
s32.5 -27.5 54.5 -36.5s45.5 -20 70.5 -33s48.5 -26.667 70.5 -41s40.167 -35.166 54.5 -62.499s21.5 -59.333 21.5 -96c0 -62.667 -21.833 -111.167 -65.5 -145.5s-97.167 -51.5 -160.5 -51.5c-66 0 -135.333 13 -208 39z" />
    <glyph glyph-name="scircumflex" unicode="&#x15d;" horiz-adv-x="427" 
d="M310 583l-97 63l-99 -63l-45 71l143 83l144 -83zM35 16l23.0029 95.999c50 -16 95 -24 135 -24c22.667 0 41.167 5.16699 55.5 15.5s21.5 23.166 21.5 38.499c0 17.333 -7.66699 32 -23 44s-33.833 22.333 -55.5 31s-43.334 18.5 -65.001 29.5s-40.167 27.833 -55.5 50.5
s-23 50.667 -23 84c0 44 16.667 80.167 50 108.5s77.666 42.5 132.999 42.5c44.667 0 90.667 -8 138 -24l-26 -98c-44.667 14 -82 21 -112 21c-42 0 -63 -16.667 -63 -50c0 -16 7.66699 -29.5 23 -40.5s33.666 -20.667 54.999 -29s42.833 -18.166 64.5 -29.499
s40.167 -28.666 55.5 -51.999s23 -52 23 -86c0 -42.667 -17 -79.5 -51 -110.5s-82.333 -46.5 -145 -46.5c-51.333 0 -104 9.66699 -158 29z" />
    <glyph glyph-name="Scedilla" unicode="&#x15e;" horiz-adv-x="514" 
d="M217 -83l0.00195312 70.9971c-56.667 2.66699 -115.667 15.334 -177 38.001l23 102c70.667 -24.667 132.334 -37 185.001 -37c29.333 0 53.5 8.16699 72.5 24.5s28.5 38.5 28.5 66.5c0 22 -7.16699 41.333 -21.5 58s-32.5 29.834 -54.5 39.501s-45.5 21 -70.5 34
s-48.5 26.5 -70.5 40.5s-40.167 34 -54.5 60s-21.5 56.333 -21.5 91c0 55.333 20.667 99.833 62 133.5s93.666 50.5 156.999 50.5c58 0 119.333 -13 184 -39l-31 -98c-59.333 22 -110.333 33 -153 33c-31.333 0 -54.833 -7 -70.5 -21s-23.5 -33 -23.5 -57
c0 -20.667 7.16699 -38.667 21.5 -54s32.5 -27.5 54.5 -36.5s45.5 -20 70.5 -33s48.5 -26.667 70.5 -41s40.167 -35.166 54.5 -62.499s21.5 -59.333 21.5 -96c0 -51.333 -15.333 -93.5 -46 -126.5s-70.334 -54.5 -119.001 -64.5v-87c0 -40 -12.333 -69.5 -37 -88.5
s-54.334 -28.5 -89.001 -28.5c-26.667 0 -51.667 3.33301 -75 10l12 83c22 -4.66699 40.667 -7 56 -7c27.333 0 41 14 41 42z" />
    <glyph glyph-name="scedilla" unicode="&#x15f;" horiz-adv-x="427" 
d="M175 -83l0.00292969 69.999c-45.333 2 -92 11.667 -140 29l23 96c50 -16 95 -24 135 -24c22.667 0 41.167 5.16699 55.5 15.5s21.5 23.166 21.5 38.499c0 17.333 -7.66699 32 -23 44s-33.833 22.333 -55.5 31s-43.334 18.5 -65.001 29.5s-40.167 27.833 -55.5 50.5
s-23 50.667 -23 84c0 44 16.667 80.167 50 108.5s77.666 42.5 132.999 42.5c44.667 0 90.667 -8 138 -24l-26 -98c-44.667 14 -82 21 -112 21c-42 0 -63 -16.667 -63 -50c0 -16 7.66699 -29.5 23 -40.5s33.666 -20.667 54.999 -29s42.833 -18.166 64.5 -29.499
s40.167 -28.666 55.5 -51.999s23 -52 23 -86c0 -33.333 -10.5 -63.5 -31.5 -90.5s-51.5 -46.167 -91.5 -57.5v-90c0 -40 -12.333 -69.5 -37 -88.5s-54 -28.5 -88 -28.5c-27.333 0 -52.333 3.33301 -75 10l11 83c22 -4.66699 40.667 -7 56 -7c28 0 42 14 42 42z" />
    <glyph glyph-name="Scaron" unicode="&#x160;" horiz-adv-x="514" 
d="M403 807l-143 -83l-144 83l46 72l97 -64l99 64zM40 26l23 101.998c70.667 -24.667 132.334 -37 185.001 -37c29.333 0 53.5 8.16699 72.5 24.5s28.5 38.5 28.5 66.5c0 22 -7.16699 41.333 -21.5 58s-32.5 29.834 -54.5 39.501s-45.5 21 -70.5 34s-48.5 26.5 -70.5 40.5
s-40.167 34 -54.5 60s-21.5 56.333 -21.5 91c0 55.333 20.667 99.833 62 133.5s93.666 50.5 156.999 50.5c58 0 119.333 -13 184 -39l-31 -98c-59.333 22 -110.333 33 -153 33c-31.333 0 -54.833 -7 -70.5 -21s-23.5 -33 -23.5 -57c0 -20.667 7.16699 -38.667 21.5 -54
s32.5 -27.5 54.5 -36.5s45.5 -20 70.5 -33s48.5 -26.667 70.5 -41s40.167 -35.166 54.5 -62.499s21.5 -59.333 21.5 -96c0 -62.667 -21.833 -111.167 -65.5 -145.5s-97.167 -51.5 -160.5 -51.5c-66 0 -135.333 13 -208 39z" />
    <glyph glyph-name="scaron" unicode="&#x161;" horiz-adv-x="427" 
d="M356 665l-143 -83l-144 83l45 72l98 -64l98 64zM35 16l23.0029 95.999c50 -16 95 -24 135 -24c22.667 0 41.167 5.16699 55.5 15.5s21.5 23.166 21.5 38.499c0 17.333 -7.66699 32 -23 44s-33.833 22.333 -55.5 31s-43.334 18.5 -65.001 29.5s-40.167 27.833 -55.5 50.5
s-23 50.667 -23 84c0 44 16.667 80.167 50 108.5s77.666 42.5 132.999 42.5c44.667 0 90.667 -8 138 -24l-26 -98c-44.667 14 -82 21 -112 21c-42 0 -63 -16.667 -63 -50c0 -16 7.66699 -29.5 23 -40.5s33.666 -20.667 54.999 -29s42.833 -18.166 64.5 -29.499
s40.167 -28.666 55.5 -51.999s23 -52 23 -86c0 -42.667 -17 -79.5 -51 -110.5s-82.333 -46.5 -145 -46.5c-51.333 0 -104 9.66699 -158 29z" />
    <glyph glyph-name="Tcommaaccent" unicode="&#x162;" horiz-adv-x="522" 
d="M201 0v572h-173v104h466v-104h-172v-572h-121zM263 -224h-79l28 161h105z" />
    <glyph glyph-name="tcommaaccent" unicode="&#x163;" horiz-adv-x="324" 
d="M97 0v438h-64l-22 81h86v144l118 19v-163h92v-81h-92v-438h-118zM153 -224h-78l27 161h105z" />
    <glyph glyph-name="Tcaron" unicode="&#x164;" horiz-adv-x="522" 
d="M405 807l-143 -83l-144 83l45 72l98 -64l98 64zM201 0v572h-173v104h466v-104h-172v-572h-121z" />
    <glyph glyph-name="tcaron" unicode="&#x165;" horiz-adv-x="322" 
d="M353 571h-76v181l103 12zM212 -1h-115v437h-64l-20 82h84v144l115 19v-163h91v-82h-91v-437z" />
    <glyph glyph-name="Tbar" unicode="&#x166;" horiz-adv-x="522" 
d="M322 0h-121v313h-89v81h89v178h-173v104h466v-104h-172v-178h89v-81h-89v-313z" />
    <glyph glyph-name="tbar" unicode="&#x167;" horiz-adv-x="324" 
d="M215 0h-118v243h-65v81h65v114h-64l-22 81h86v144l118 19v-163h92v-81h-92v-114h91v-81h-91v-243z" />
    <glyph glyph-name="Utilde" unicode="&#x168;" horiz-adv-x="636" 
d="M420 850l46 -52c-7.33301 -16 -19 -30.333 -35 -43s-35 -19 -57 -19c-18 0 -38.667 7.66699 -62 23s-40.333 23 -51 23c-18.667 0 -34.334 -9.33301 -47.001 -28l-46 52c18.667 41.333 49.667 62 93 62c17.333 0 37.833 -7.83301 61.5 -23.5s40.834 -23.5 51.501 -23.5
c18 0 33.333 9.66699 46 29zM72 222l0.00292969 454h120v-445c0 -42 11.5 -75.833 34.5 -101.5s53.5 -38.5 91.5 -38.5c37.333 0 67.666 12.833 90.999 38.5s35 59.5 35 101.5v445h120v-454c0 -68.667 -23.833 -125 -71.5 -169s-105.834 -66 -174.501 -66
s-126.834 22 -174.501 66s-71.5 100.333 -71.5 169z" />
    <glyph glyph-name="utilde" unicode="&#x169;" horiz-adv-x="546" 
d="M376 708l46.001 -52c-7.33301 -16 -19 -30.333 -35 -43s-35.333 -19 -58 -19c-17.333 0 -37.833 7.66699 -61.5 23s-40.834 23 -51.501 23c-16.667 0 -32.334 -9.33301 -47.001 -28l-46 52c7.33301 16 19 30.333 35 43s35.333 19 58 19
c17.333 0 37.833 -7.83301 61.5 -23.5s40.834 -23.5 51.501 -23.5c17.333 0 33 9.66699 47 29zM67.001 201v318h116v-313c0 -38 8 -67.167 24 -87.5s38 -30.5 66 -30.5c27.333 0 49 10.167 65 30.5s24 49.5 24 87.5v313h117v-318c0 -67.333 -19.667 -119.833 -59 -157.5
s-88.333 -56.5 -147 -56.5c-59.333 0 -108.5 18.833 -147.5 56.5s-58.5 90.167 -58.5 157.5z" />
    <glyph glyph-name="Umacron" unicode="&#x16a;" horiz-adv-x="636" 
d="M445 763h-254v81h254v-81zM72 222l0.00292969 454h120v-445c0 -42 11.5 -75.833 34.5 -101.5s53.5 -38.5 91.5 -38.5c37.333 0 67.666 12.833 90.999 38.5s35 59.5 35 101.5v445h120v-454c0 -68.667 -23.833 -125 -71.5 -169s-105.834 -66 -174.501 -66
s-126.834 22 -174.501 66s-71.5 100.333 -71.5 169z" />
    <glyph glyph-name="umacron" unicode="&#x16b;" horiz-adv-x="546" 
d="M399 621h-253v81h253v-81zM67 201v318h116v-313c0 -38 8 -67.167 24 -87.5s38 -30.5 66 -30.5c27.333 0 49 10.167 65 30.5s24 49.5 24 87.5v313h117v-318c0 -67.333 -19.667 -119.833 -59 -157.5s-88.333 -56.5 -147 -56.5c-59.333 0 -108.5 18.833 -147.5 56.5
s-58.5 90.167 -58.5 157.5z" />
    <glyph glyph-name="Ubreve" unicode="&#x16c;" horiz-adv-x="636" 
d="M366 870l79.999 0.00292969c-0.666992 -38.667 -13.5 -70.834 -38.5 -96.501s-55.167 -38.5 -90.5 -38.5c-36 0 -66.333 13 -91 39s-37 58 -37 96h78c0.666992 -16.667 5.83398 -30.834 15.501 -42.501s21.167 -17.5 34.5 -17.5c14 0 25.667 5.66699 35 17
s14 25.666 14 42.999zM71.999 222.003l0.00292969 454h120v-445c0 -42 11.5 -75.833 34.5 -101.5s53.5 -38.5 91.5 -38.5c37.333 0 67.666 12.833 90.999 38.5s35 59.5 35 101.5v445h120v-454c0 -68.667 -23.833 -125 -71.5 -169s-105.834 -66 -174.501 -66
s-126.834 22 -174.501 66s-71.5 100.333 -71.5 169z" />
    <glyph glyph-name="ubreve" unicode="&#x16d;" horiz-adv-x="546" 
d="M322 728l79.002 -0.000976562c-0.666992 -38 -13.334 -70 -38.001 -96s-55 -39 -91 -39c-35.333 0 -65.333 12.833 -90 38.5s-37.334 57.834 -38.001 96.501h79c0 -16.667 4.83301 -30.834 14.5 -42.501s21.167 -17.5 34.5 -17.5c14 0 25.833 5.83301 35.5 17.5
s14.5 25.834 14.5 42.501zM67.002 200.999v318h116v-313c0 -38 8 -67.167 24 -87.5s38 -30.5 66 -30.5c27.333 0 49 10.167 65 30.5s24 49.5 24 87.5v313h117v-318c0 -67.333 -19.667 -119.833 -59 -157.5s-88.333 -56.5 -147 -56.5c-59.333 0 -108.5 18.833 -147.5 56.5
s-58.5 90.167 -58.5 157.5z" />
    <glyph glyph-name="Uring" unicode="&#x16e;" horiz-adv-x="636" 
d="M318 721c-26.667 0 -49.5 9.5 -68.5 28.5s-28.5 41.833 -28.5 68.5c0 26 9.5 48.5 28.5 67.5s41.833 28.5 68.5 28.5c26 0 48.5 -9.5 67.5 -28.5s28.5 -41.5 28.5 -67.5c0 -26.667 -9.5 -49.5 -28.5 -68.5s-41.5 -28.5 -67.5 -28.5zM318 786
c8.66699 0 16.167 3.16699 22.5 9.5s9.5 13.833 9.5 22.5c0 9.33301 -3 17 -9 23s-13.667 9 -23 9s-17 -3 -23 -9s-9 -13.667 -9 -23c0 -8.66699 3.16699 -16.167 9.5 -22.5s13.833 -9.5 22.5 -9.5zM72 222l0.00292969 454h120v-445c0 -42 11.5 -75.833 34.5 -101.5
s53.5 -38.5 91.5 -38.5c37.333 0 67.666 12.833 90.999 38.5s35 59.5 35 101.5v445h120v-454c0 -68.667 -23.833 -125 -71.5 -169s-105.834 -66 -174.501 -66s-126.834 22 -174.501 66s-71.5 100.333 -71.5 169z" />
    <glyph glyph-name="uring" unicode="&#x16f;" horiz-adv-x="546" 
d="M274 579c-26.667 0 -49.667 9.5 -69 28.5s-29 41.833 -29 68.5c0 26 9.66699 48.5 29 67.5s42.333 28.5 69 28.5c26 0 48.333 -9.5 67 -28.5s28 -41.5 28 -67.5c0 -26.667 -9.33301 -49.5 -28 -68.5s-41 -28.5 -67 -28.5zM274 644c8.66699 0 15.998 3.16699 21.998 9.5
s9 13.833 9 22.5s-3 16.167 -9 22.5s-13.333 9.5 -22 9.5c-9.33301 0 -17.166 -3.16699 -23.499 -9.5s-9.5 -13.833 -9.5 -22.5s3.33301 -16.167 10 -22.5s14.334 -9.5 23.001 -9.5zM66.998 201v318h116v-313c0 -38 8 -67.167 24 -87.5s38 -30.5 66 -30.5
c27.333 0 49 10.167 65 30.5s24 49.5 24 87.5v313h117v-318c0 -67.333 -19.667 -119.833 -59 -157.5s-88.333 -56.5 -147 -56.5c-59.333 0 -108.5 18.833 -147.5 56.5s-58.5 90.167 -58.5 157.5z" />
    <glyph glyph-name="Uhungarumlaut" unicode="&#x170;" horiz-adv-x="636" 
d="M566 814l-170 -98l-42 69l164 108zM342 814l-169 -99l-43 70l164 107zM72 222l0.00292969 454h120v-445c0 -42 11.5 -75.833 34.5 -101.5s53.5 -38.5 91.5 -38.5c37.333 0 67.666 12.833 90.999 38.5s35 59.5 35 101.5v445h120v-454c0 -68.667 -23.833 -125 -71.5 -169
s-105.834 -66 -174.501 -66s-126.834 22 -174.501 66s-71.5 100.333 -71.5 169z" />
    <glyph glyph-name="uhungarumlaut" unicode="&#x171;" horiz-adv-x="546" 
d="M522 672l-170 -98l-42 69l164 108zM298 672l-169 -99l-43 70l164 107zM67 201v318h116v-313c0 -38 8 -67.167 24 -87.5s38 -30.5 66 -30.5c27.333 0 49 10.167 65 30.5s24 49.5 24 87.5v313h117v-318c0 -67.333 -19.667 -119.833 -59 -157.5s-88.333 -56.5 -147 -56.5
c-59.333 0 -108.5 18.833 -147.5 56.5s-58.5 90.167 -58.5 157.5z" />
    <glyph glyph-name="Uogonek" unicode="&#x172;" horiz-adv-x="636" 
d="M362 -140l13.0029 -73c-16.667 -7.33301 -36 -11 -58 -11c-36 0 -63.667 9 -83 27s-29 42 -29 72c0 42 21 81 63 117c-57.333 10 -104.333 35.833 -141 77.5s-55 92.5 -55 152.5v454h120v-445c0 -42 11.5 -75.833 34.5 -101.5s53.5 -38.5 91.5 -38.5
c37.333 0 67.666 12.833 90.999 38.5s35 59.5 35 101.5v445h120v-454c0 -60.667 -18.833 -112 -56.5 -154s-85.834 -67.667 -144.501 -77c-46 -36 -69 -71 -69 -105c0 -21.333 11.333 -32 34 -32c11.333 0 22.666 2 33.999 6z" />
    <glyph glyph-name="uogonek" unicode="&#x173;" horiz-adv-x="546" 
d="M320 -140l14.001 -73c-16.667 -7.33301 -36.334 -11 -59.001 -11c-36 0 -63.5 8.83301 -82.5 26.5s-28.5 41.834 -28.5 72.501c0 42 21 81 63 117c-48 8.66699 -86.667 31 -116 67s-44 83.333 -44 142v318h116v-313c0 -38 8 -67.167 24 -87.5s38 -30.5 66 -30.5
c27.333 0 49 10.167 65 30.5s24 49.5 24 87.5v313h117v-318c0 -56.667 -14.333 -103 -43 -139s-66 -59 -112 -69c-47.333 -36.667 -71 -72.334 -71 -107.001c0 -21.333 11 -32 33 -32c12.667 0 24 2 34 6z" />
    <glyph glyph-name="Wcircumflex" unicode="&#x174;" horiz-adv-x="837" 
d="M516 725l-98 63l-98 -63l-46 71l143 83l144 -83zM153 0l-115 676.002h123l58 -399c4.66699 -32 8.66699 -75.667 12 -131c15.333 71.333 25.333 114.666 30 129.999l91 293h132l92 -293c5.33301 -18.667 15.333 -61.334 30 -128.001
c3.33301 55.333 7.33301 98.333 12 129l58 399h123l-115 -676h-136l-108 353c-8 26.667 -15.333 57.334 -22 92.001c-7.33301 -40.667 -14.333 -71.334 -21 -92.001l-108 -353h-136z" />
    <glyph glyph-name="wcircumflex" unicode="&#x175;" horiz-adv-x="787" 
d="M492 583l-98 63l-98 -63l-46 71l143 83l144 -83zM70 176l-25.0029 342.999h117l23 -335c2 -28.667 9.5 -51.5 22.5 -68.5s30.833 -25.5 53.5 -25.5s40.834 9 54.501 27s20.5 41 20.5 69v298h114v-298c0 -28 6.66699 -51 20 -69s31.333 -27 54 -27s40.834 8.5 54.501 25.5
s21.5 39.833 23.5 68.5l24 335h116l-26 -343c-4.66699 -59.333 -24 -105.666 -58 -138.999s-78 -50 -132 -50c-58.667 0 -103 23.667 -133 71c-31.333 -47.333 -76 -71 -134 -71c-53.333 0 -97.166 17 -131.499 51s-53.5 80 -57.5 138z" />
    <glyph glyph-name="Ycircumflex" unicode="&#x176;" horiz-adv-x="570" 
d="M382 725l-97 63l-99 -63l-45 71l143 83l144 -83zM225 0v258l-205 418h129l136 -295l136 295h129l-205 -418v-258h-120z" />
    <glyph glyph-name="ycircumflex" unicode="&#x177;" horiz-adv-x="500" 
d="M346 583l-98 63l-98 -63l-46 71l144 83l144 -83zM72 184l-47 334.999h117l46 -325c4.66699 -31.333 13 -54.666 25 -69.999s29.333 -23 52 -23h37l52 418h117l-96 -730h-115l28 211h-27c-108 -0 -171 61.333 -189 184z" />
    <glyph glyph-name="Ydieresis" unicode="&#x178;" horiz-adv-x="570" 
d="M437 802c0 -16 -5.83301 -29.667 -17.5 -41s-25.5 -17 -41.5 -17c-15.333 0 -28.833 5.66699 -40.5 17s-17.5 25 -17.5 41c0 16.667 5.83301 30.834 17.5 42.501s25.167 17.5 40.5 17.5c16.667 0 30.667 -5.83301 42 -17.5s17 -25.834 17 -42.501zM249 802
c0 -16 -5.66699 -29.666 -17 -40.999s-25 -17 -41 -17s-29.833 5.66699 -41.5 17s-17.5 25 -17.5 41s6 30 18 42s25.667 18 41 18c16 0 29.667 -5.83301 41 -17.5s17 -25.834 17 -42.501zM225 0.000976562v258l-205 418h129l136 -295l136 295h129l-205 -418v-258h-120z" />
    <glyph glyph-name="Zacute" unicode="&#x179;" horiz-adv-x="557" 
d="M397 800l-213 -79l-30 72l209 91zM43 0v84l298 492h-292v100h443v-83l-300 -492h321l-11 -101h-459z" />
    <glyph glyph-name="zacute" unicode="&#x17a;" horiz-adv-x="480" 
d="M362 658l-213 -79l-30 72l209 91zM420 0h-370v85l228 336h-221v98h361v-84l-223 -337h235z" />
    <glyph glyph-name="Zdotaccent" unicode="&#x17b;" horiz-adv-x="557" 
d="M336 802c0 -16 -5.83301 -29.667 -17.5 -41s-25.5 -17 -41.5 -17c-15.333 0 -28.833 5.66699 -40.5 17s-17.5 25 -17.5 41c0 16.667 5.66699 30.834 17 42.501s25 17.5 41 17.5s29.833 -5.83301 41.5 -17.5s17.5 -25.834 17.5 -42.501zM43 0v84l298 492h-292v100h443v-83
l-300 -492h321l-11 -101h-459z" />
    <glyph glyph-name="zdotaccent" unicode="&#x17c;" horiz-adv-x="480" 
d="M299 660c0 -16 -5.83301 -29.667 -17.5 -41s-25.5 -17 -41.5 -17c-15.333 0 -28.833 5.66699 -40.5 17s-17.5 25 -17.5 41c0 16.667 5.83301 30.834 17.5 42.501s25.167 17.5 40.5 17.5c16.667 0 30.667 -5.83301 42 -17.5s17 -25.834 17 -42.501zM420 0h-370v85l228 336
h-221v98h361v-84l-223 -337h235z" />
    <glyph glyph-name="Zcaron" unicode="&#x17d;" horiz-adv-x="557" 
d="M421 807l-143 -83l-144 83l45 72l98 -64l98 64zM43 0v84l298 492h-292v100h443v-83l-300 -492h321l-11 -101h-459z" />
    <glyph glyph-name="zcaron" unicode="&#x17e;" horiz-adv-x="480" 
d="M384 665l-143 -83l-144 83l45 72l98 -64l98 64zM420 0h-370v85l228 336h-221v98h361v-84l-223 -337h235z" />
    <glyph glyph-name="florin" unicode="&#x192;" horiz-adv-x="502" 
d="M139 -50l59 428h-86v80h98l18 125c7.33301 50.667 28 89.5 62 116.5s73 40.5 117 40.5c34 0 65.333 -5.66699 94 -17l-29 -97c-21.333 7.33301 -42.666 11 -63.999 11c-42.667 0 -67 -22 -73 -66l-16 -113h127l-21 -80h-117l-62 -440
c-7.33301 -50.667 -28 -89.5 -62 -116.5s-73 -40.5 -117 -40.5c-34 0 -65.333 5.66699 -94 17l29 97c21.333 -7.33301 42.666 -11 63.999 -11c42.667 0 67 22 73 66z" />
    <glyph glyph-name="Scommaaccent" unicode="&#x218;" horiz-adv-x="514" 
d="M40 26l23 101.998c70.667 -24.667 132.334 -37 185.001 -37c29.333 0 53.5 8.16699 72.5 24.5s28.5 38.5 28.5 66.5c0 22 -7.16699 41.333 -21.5 58s-32.5 29.834 -54.5 39.501s-45.5 21 -70.5 34s-48.5 26.5 -70.5 40.5s-40.167 34 -54.5 60s-21.5 56.333 -21.5 91
c0 55.333 20.667 99.833 62 133.5s93.666 50.5 156.999 50.5c58 0 119.333 -13 184 -39l-31 -98c-59.333 22 -110.333 33 -153 33c-31.333 0 -54.833 -7 -70.5 -21s-23.5 -33 -23.5 -57c0 -20.667 7.16699 -38.667 21.5 -54s32.5 -27.5 54.5 -36.5s45.5 -20 70.5 -33
s48.5 -26.667 70.5 -41s40.167 -35.166 54.5 -62.499s21.5 -59.333 21.5 -96c0 -62.667 -21.833 -111.167 -65.5 -145.5s-97.167 -51.5 -160.5 -51.5c-66 0 -135.333 13 -208 39zM264 -224.002h-78l27 161h105z" />
    <glyph glyph-name="scommaaccent" unicode="&#x219;" horiz-adv-x="427" 
d="M35 16l23.0029 95.999c50 -16 95 -24 135 -24c22.667 0 41.167 5.16699 55.5 15.5s21.5 23.166 21.5 38.499c0 17.333 -7.66699 32 -23 44s-33.833 22.333 -55.5 31s-43.334 18.5 -65.001 29.5s-40.167 27.833 -55.5 50.5s-23 50.667 -23 84c0 44 16.667 80.167 50 108.5
s77.666 42.5 132.999 42.5c44.667 0 90.667 -8 138 -24l-26 -98c-44.667 14 -82 21 -112 21c-42 0 -63 -16.667 -63 -50c0 -16 7.66699 -29.5 23 -40.5s33.666 -20.667 54.999 -29s42.833 -18.166 64.5 -29.499s40.167 -28.666 55.5 -51.999s23 -52 23 -86
c0 -42.667 -17 -79.5 -51 -110.5s-82.333 -46.5 -145 -46.5c-51.333 0 -104 9.66699 -158 29zM218.003 -224.001h-78l27 161h105z" />
    <glyph glyph-name="circumflex" unicode="&#x2c6;" horiz-adv-x="474" 
d="M335 583l-98 63l-98 -63l-46 71l144 83l144 -83z" />
    <glyph glyph-name="caron" unicode="&#x2c7;" horiz-adv-x="474" 
d="M381 665l-144 -83l-144 83l46 72l98 -64l98 64z" />
    <glyph glyph-name="breve" unicode="&#x2d8;" horiz-adv-x="413" 
d="M256 728h79.0029c-0.666992 -38 -13.334 -70 -38.001 -96s-55 -39 -91 -39c-35.333 0 -65.333 13 -90 39s-37.334 58 -38.001 96h79c0.666992 -17.333 5.66699 -31.666 15 -42.999s20.666 -17 33.999 -17c14.667 0 26.667 5.66699 36 17s14 25.666 14 42.999z" />
    <glyph glyph-name="dotaccent" unicode="&#x2d9;" horiz-adv-x="268" 
d="M193 660c0 -16 -5.83301 -29.667 -17.5 -41s-25.5 -17 -41.5 -17c-15.333 0 -28.833 5.66699 -40.5 17s-17.5 25 -17.5 41c0 16.667 5.66699 30.834 17 42.501s25 17.5 41 17.5s29.833 -5.83301 41.5 -17.5s17.5 -25.834 17.5 -42.501z" />
    <glyph glyph-name="ring" unicode="&#x2da;" horiz-adv-x="345" 
d="M173 579c-26.667 0 -49.5 9.5 -68.5 28.5s-28.5 41.833 -28.5 68.5c0 26 9.5 48.5 28.5 67.5s41.833 28.5 68.5 28.5c26 0 48.5 -9.5 67.5 -28.5s28.5 -41.5 28.5 -67.5c0 -26.667 -9.5 -49.5 -28.5 -68.5s-41.5 -28.5 -67.5 -28.5zM173 644
c8.66699 0 16.167 3.16699 22.5 9.5s9.5 13.833 9.5 22.5c0 9.33301 -3.16699 17 -9.5 23s-13.833 9 -22.5 9s-16.167 -3 -22.5 -9s-9.5 -13.667 -9.5 -23c0 -8.66699 3.16699 -16.167 9.5 -22.5s13.833 -9.5 22.5 -9.5z" />
    <glyph glyph-name="ogonek" unicode="&#x2db;" horiz-adv-x="315" 
d="M227 -140l14.001 -73.001c-16.667 -7.33301 -36.334 -11 -59.001 -11c-36 0 -63.5 8.83301 -82.5 26.5s-28.5 41.834 -28.5 72.501c0 46 24.667 87.667 74 125h96c-54 -39.333 -81 -77.333 -81 -114c0 -21.333 11 -32 33 -32c12.667 0 24 2 34 6z" />
    <glyph glyph-name="tilde" unicode="&#x2dc;" horiz-adv-x="453" 
d="M330 708l46 -52c-7.33301 -16 -19 -30.333 -35 -43s-35 -19 -57 -19c-18 0 -38.667 7.66699 -62 23s-40.333 23 -51 23c-18.667 0 -34.334 -9.33301 -47.001 -28l-46 52c18.667 41.333 49.667 62 93 62c17.333 0 37.833 -7.83301 61.5 -23.5s40.834 -23.5 51.501 -23.5
c18 0 33.333 9.66699 46 29z" />
    <glyph glyph-name="hungarumlaut" unicode="&#x2dd;" horiz-adv-x="597" 
d="M516 672l-170 -98l-42 69l164 108zM292 672l-169 -99l-43 70l164 107z" />
    <glyph glyph-name="Omega" unicode="&#x3a9;" horiz-adv-x="694" 
d="M643 0l-229.001 0.000976562v221c36 16 64.333 39.833 85 71.5s31 63.834 31 96.501v42c0 47.333 -16.167 90.5 -48.5 129.5s-77.166 58.5 -134.499 58.5c-58.667 0 -103.667 -19.167 -135 -57.5s-47 -81.833 -47 -130.5v-42c0 -34 10 -66.833 30 -98.5
s48.333 -55.167 85 -70.5v-220h-229v87h125v66c-40 25.333 -70.833 58 -92.5 98s-32.5 83.333 -32.5 130v59c0 78.667 26.833 145 80.5 199s125.5 81 215.5 81c89.333 0 161 -27.5 215 -82.5s81 -120.833 81 -197.5v-59c0 -48.667 -10.833 -92.834 -32.5 -132.501
s-52.5 -71.834 -92.5 -96.501v-65h125v-87z" />
    <glyph glyph-name="pi" unicode="&#x3c0;" horiz-adv-x="734" 
d="M593 0h-112v420h-228v-420h-112v420h-81v99h615v-99h-82v-420z" />
    <glyph glyph-name="afii10023" unicode="&#x401;" horiz-adv-x="529" 
d="M425 801c0 -16 -5.83301 -29.667 -17.5 -41s-25.5 -17 -41.5 -17c-15.333 0 -28.833 5.66699 -40.5 17s-17.5 25 -17.5 41c0 16.667 5.83301 30.834 17.5 42.501s25.167 17.5 40.5 17.5c16.667 0 30.667 -5.83301 42 -17.5s17 -25.834 17 -42.501zM237 801
c0 -16 -5.66699 -29.667 -17 -41s-25 -17 -41 -17s-29.833 5.66699 -41.5 17s-17.5 25 -17.5 41c0 16.667 6 30.834 18 42.501s25.667 17.5 41 17.5c16 0 29.667 -5.83301 41 -17.5s17 -25.834 17 -42.501zM77 0v676h387v-104h-267v-181h226l-6 -100h-220v-187h276v-104
h-396z" />
    <glyph glyph-name="afii10051" unicode="&#x402;" horiz-adv-x="716" 
d="M484 -12c-33.333 0 -66.332 2.99805 -98.999 8.99805v101l19 -4c5.33301 -1.33301 13 -2.16602 23 -2.49902s15.333 -0.5 16 -0.5c32 0 57.167 7.83301 75.5 23.5s27.5 38.834 27.5 69.501v35c0 30 -9 53.333 -27 70s-42 25 -72 25c-46.667 0 -88.667 -9 -126 -27v-287
h-121v571h-172v105h465v-105h-172v-180c57.333 18 111.666 27 162.999 27s94.5 -15.833 129.5 -47.5s52.5 -76.167 52.5 -133.5v-70c0 -57.333 -17.333 -101.5 -52 -132.5s-78 -46.5 -130 -46.5z" />
    <glyph glyph-name="afii10052" unicode="&#x403;" horiz-adv-x="470" 
d="M389 799l-213 -79l-30 72l209 91zM77 0v676h373v-104h-253v-572h-120z" />
    <glyph glyph-name="afii10053" unicode="&#x404;" horiz-adv-x="562" 
d="M326 -13c-80 0 -144.666 23.333 -193.999 70s-74 114.667 -74 204v153c0 89.333 24.667 157.5 74 204.5s114 70.5 194 70.5c58.667 0 123.334 -10.667 194.001 -32l-23 -99c-58.667 18 -115.334 27 -170.001 27c-49.333 0 -86.333 -15.167 -111 -45.5
s-37 -78.833 -37 -145.5h226l-9 -101h-217v-21c0 -122 49.333 -183 148 -183c56 0 112.667 9.33301 170 28l23 -100c-68.667 -20 -133.334 -30 -194.001 -30z" />
    <glyph glyph-name="afii10054" unicode="&#x405;" horiz-adv-x="514" 
d="M40 26l23 101.998c70.667 -24.667 132.334 -37 185.001 -37c29.333 0 53.5 8.16699 72.5 24.5s28.5 38.5 28.5 66.5c0 22 -7.16699 41.333 -21.5 58s-32.5 29.834 -54.5 39.501s-45.5 21 -70.5 34s-48.5 26.5 -70.5 40.5s-40.167 34 -54.5 60s-21.5 56.333 -21.5 91
c0 55.333 20.667 99.833 62 133.5s93.666 50.5 156.999 50.5c58 0 119.333 -13 184 -39l-31 -98c-59.333 22 -110.333 33 -153 33c-31.333 0 -54.833 -7 -70.5 -21s-23.5 -33 -23.5 -57c0 -20.667 7.16699 -38.667 21.5 -54s32.5 -27.5 54.5 -36.5s45.5 -20 70.5 -33
s48.5 -26.667 70.5 -41s40.167 -35.166 54.5 -62.499s21.5 -59.333 21.5 -96c0 -62.667 -21.833 -111.167 -65.5 -145.5s-97.167 -51.5 -160.5 -51.5c-66 0 -135.333 13 -208 39z" />
    <glyph glyph-name="afii10055" unicode="&#x406;" horiz-adv-x="274" 
d="M77 0v676h120v-676h-120z" />
    <glyph glyph-name="afii10056" unicode="&#x407;" horiz-adv-x="274" 
d="M291 801c0 -16 -5.83301 -29.667 -17.5 -41s-25.5 -17 -41.5 -17c-15.333 0 -28.833 5.66699 -40.5 17s-17.5 25 -17.5 41c0 16.667 5.83301 30.834 17.5 42.501s25.167 17.5 40.5 17.5c16.667 0 30.667 -5.83301 42 -17.5s17 -25.834 17 -42.501zM103 801
c0 -16 -5.66699 -29.667 -17 -41s-25 -17 -41 -17s-29.833 5.66699 -41.5 17s-17.5 25 -17.5 41c0 16.667 6 30.834 18 42.501s25.667 17.5 41 17.5c16 0 29.667 -5.83301 41 -17.5s17 -25.834 17 -42.501zM77 0v676h120v-676h-120z" />
    <glyph glyph-name="afii10057" unicode="&#x408;" horiz-adv-x="480" 
d="M22 21l27.998 97.999c54 -18.667 100.667 -28 140 -28c68.667 0 103 45.333 103 136v449l120 -7v-445c0 -73.333 -19.167 -131.166 -57.5 -173.499s-92.166 -63.5 -161.499 -63.5c-53.333 0 -110.666 11.333 -171.999 34z" />
    <glyph glyph-name="afii10058" unicode="&#x409;" horiz-adv-x="956" 
d="M12 -9l-5 105c22 3.33301 39.5 7.83301 52.5 13.5s26.667 15.5 41 29.5s25.5 33.667 33.5 59s15.5 58.833 22.5 100.5s11.833 93.5 14.5 155.5s4 136 4 222h417v-262h123c63.333 0 114.5 -20 153.5 -60s58.5 -89 58.5 -147s-19.5 -107 -58.5 -147s-90.167 -60 -153.5 -60
h-243v574h-181c0 -85.333 -2.5 -159.333 -7.5 -222s-13.333 -115 -25 -157s-24.5 -76 -38.5 -102s-32.667 -46.167 -56 -60.5s-46 -24.333 -68 -30s-50 -9.5 -84 -11.5zM592 102h119c29.333 0 52.333 9.5 69 28.5s25 44.5 25 76.5s-8.33301 57.5 -25 76.5
s-39.667 28.5 -69 28.5h-119v-210z" />
    <glyph glyph-name="afii10059" unicode="&#x40a;" horiz-adv-x="926" 
d="M77 0v676h120v-276h244v276h121v-276h122c64 0 115.5 -19 154.5 -57s58.5 -85.667 58.5 -143c0 -58 -19.5 -105.833 -58.5 -143.5s-90.5 -56.5 -154.5 -56.5h-243v298h-244v-298h-120zM562 102h119c29.333 0 52.166 8.66699 68.499 26s24.5 41.333 24.5 72
c0 31.333 -8.16699 55.5 -24.5 72.5s-39.166 25.5 -68.499 25.5h-119v-196z" />
    <glyph glyph-name="afii10060" unicode="&#x40b;" horiz-adv-x="720" 
d="M201 0v572h-172v104h465v-104h-172v-180c56 18 110.333 27 163 27c51.333 0 93.833 -15.833 127.5 -47.5s50.5 -76.167 50.5 -133.5v-238h-120v220c0 30.667 -8.5 54.167 -25.5 70.5s-40.5 24.5 -70.5 24.5c-46 0 -87.667 -9 -125 -27v-288h-121z" />
    <glyph glyph-name="afii10061" unicode="&#x40c;" horiz-adv-x="604" 
d="M442 799l-213 -79l-30 72l209 91zM77 0v676.002h120v-292l108 36c21.333 7.33301 37.333 17.166 48 29.499s19 29.166 25 50.499l48 176h119l-55 -208c-16 -62 -45.667 -102 -89 -120l179 -348h-140l-149 305l-94 -35v-270h-120z" />
    <glyph glyph-name="afii10062" unicode="&#x40e;" horiz-adv-x="572" 
d="M289 809c14.667 0 26.8311 5.16699 36.498 15.5s15.834 24.5 18.501 42.5l79 -11c-4 -37.333 -18 -67 -42 -89s-54.667 -33 -92 -33c-36.667 0 -67 11 -91 33s-37.667 51.667 -41 89l78 11c2.66699 -17.333 8.83398 -31.333 18.501 -42s21.5 -16 35.5 -16zM136.997 0
l-12.998 102h129c21.333 0 37.5 6.33301 48.5 19s18.833 33 23.5 61l7 43h-60c-56.667 0 -99.834 16 -129.501 48s-49.5 77 -59.5 135l-44 268h120l43 -258c5.33301 -31.333 13.666 -54.5 24.999 -69.5s28.333 -22.5 51 -22.5h73l62 350h121l-91 -505
c-20 -114 -78.667 -171 -176 -171h-130z" />
    <glyph glyph-name="afii10145" unicode="&#x40f;" horiz-adv-x="638" 
d="M265 -139v139h-188v676h120v-574h244v574h121v-676h-185v-121z" />
    <glyph glyph-name="afii10017" unicode="&#x410;" horiz-adv-x="607" 
d="M25 0l209 676h139l209 -676h-122l-51 173h-211l-50 -173h-123zM226 272h154.999l-50 168c-9.33301 30.667 -18.333 68 -27 112c-11.333 -50 -20.666 -87.333 -27.999 -112z" />
    <glyph glyph-name="afii10018" unicode="&#x411;" horiz-adv-x="571" 
d="M77 0v676h396v-102h-276v-162h122c64 0 115.667 -19.833 155 -59.5s59 -88.167 59 -145.5c0 -58 -19.667 -107 -59 -147s-91 -60 -155 -60h-242zM197 102h120c28.667 0 51.334 9.5 68.001 28.5s25 44.5 25 76.5c0 31.333 -8.33301 56.333 -25 75s-39.334 28 -68.001 28
h-120v-208z" />
    <glyph glyph-name="afii10019" unicode="&#x412;" horiz-adv-x="576" 
d="M292 0l-215.001 0.000976562v676h213c68.667 0 123 -17 163 -51s60 -78.333 60 -133c0 -61.333 -29 -107 -87 -137c36.667 -13.333 64.5 -33.5 83.5 -60.5s28.5 -58.167 28.5 -93.5c0 -54.667 -22.167 -101.834 -66.5 -141.501s-104.166 -59.5 -179.499 -59.5z
M196.999 397.001l83 -0.000976562c34.667 0 61.667 8 81 24s29 37.333 29 64s-8.66699 47.834 -26 63.501s-43 23.5 -77 23.5h-90v-175zM196.999 104l94 0.000976562c39.333 0 69.833 9 91.5 27s32.5 41.333 32.5 70c0 29.333 -9.66699 52.666 -29 69.999s-48.333 26 -87 26
h-102v-193z" />
    <glyph glyph-name="afii10020" unicode="&#x413;" horiz-adv-x="470" 
d="M77 0v676h373v-104h-253v-572h-120z" />
    <glyph glyph-name="afii10021" unicode="&#x414;" horiz-adv-x="691" 
d="M10 -139v241h65c33.333 46 60.5 124.667 81.5 236s32.167 224 33.5 338h405v-574h76v-223l-111 -18v139h-439v-121zM207 102h267v472h-174c-4 -102 -15 -196.333 -33 -283s-38 -149.667 -60 -189z" />
    <glyph glyph-name="afii10022" unicode="&#x415;" horiz-adv-x="529" 
d="M77 0v676h387v-104h-267v-181h226l-6 -100h-220v-187h276v-104h-396z" />
    <glyph glyph-name="afii10024" unicode="&#x416;" horiz-adv-x="863" 
d="M24 0l158.002 345.001c-22.667 11.333 -40.167 25.666 -52.5 42.999s-22.5 42.333 -30.5 75l-52 213h119l44 -181c5.33301 -22 13.666 -39.167 24.999 -51.5s28.666 -22.5 51.999 -30.5l85 -29v292h120v-292l84 29c23.333 8 40.5 18.167 51.5 30.5s19.5 29.5 25.5 51.5
l45 181h119l-52 -213c-8 -32 -18.5 -56.833 -31.5 -74.5s-30.833 -32.167 -53.5 -43.5l159 -345h-139l-130 300l-78 -30v-270h-120v270l-79 30l-130 -300h-139z" />
    <glyph glyph-name="afii10025" unicode="&#x417;" horiz-adv-x="532" 
d="M246 -13c-32.667 0 -68.8311 3.49805 -108.498 10.498s-71.5 15.5 -95.5 25.5l22 101c63.333 -22.667 119.666 -34 168.999 -34c38 0 69.167 9.83301 93.5 29.5s36.5 45.5 36.5 77.5s-8.5 56.5 -25.5 73.5s-46.5 25.5 -88.5 25.5h-79l-7 100h68
c36.667 0 64.334 9.83301 83.001 29.5s28 44.834 28 75.501c0 24 -9 44.167 -27 60.5s-44 24.5 -78 24.5c-42 0 -92.667 -11 -152 -33l-28 97c66 26 134.333 39 205 39c63.333 0 113.333 -16.5 150 -49.5s55 -76.5 55 -130.5c0 -32 -8.33301 -62.167 -25 -90.5
s-38.334 -48.5 -65.001 -60.5c70.667 -23.333 106 -75.666 106 -156.999c0 -65.333 -22.333 -117.333 -67 -156s-101.334 -58 -170.001 -58z" />
    <glyph glyph-name="afii10026" unicode="&#x418;" horiz-adv-x="648" 
d="M77 0v676h120v-348c0 -42 -0.666992 -75.333 -2 -100l279 448h97v-676h-120v341c0 34.667 1.33301 69 4 103l-279 -444h-99z" />
    <glyph glyph-name="afii10027" unicode="&#x419;" horiz-adv-x="648" 
d="M326 809c14.667 0 26.8311 5.16699 36.498 15.5s15.834 24.5 18.501 42.5l79 -11c-4 -37.333 -18 -67 -42 -89s-54.667 -33 -92 -33c-36.667 0 -67 11 -91 33s-37.667 51.667 -41 89l78 11c2.66699 -17.333 8.83398 -31.333 18.501 -42s21.5 -16 35.5 -16zM76.9971 0v676
h120v-348c0 -42 -0.666992 -75.333 -2 -100l279 448h97v-676h-120v341c0 34.667 1.33301 69 4 103l-279 -444h-99z" />
    <glyph glyph-name="afii10028" unicode="&#x41a;" horiz-adv-x="604" 
d="M77 0v676.002h120v-292l108 36c21.333 7.33301 37.333 17.166 48 29.499s19 29.166 25 50.499l48 176h119l-55 -208c-16 -62 -45.667 -102 -89 -120l179 -348h-140l-149 305l-94 -35v-270h-120z" />
    <glyph glyph-name="afii10029" unicode="&#x41b;" horiz-adv-x="671" 
d="M14 -9l-5 104.999c22 3.33301 39.5 7.83301 52.5 13.5s26.667 15.5 41 29.5s25.5 33.667 33.5 59s15.5 58.833 22.5 100.5s11.833 93.5 14.5 155.5s4 136 4 222h417v-676h-120v574h-182c0 -73.333 -2.16699 -138.166 -6.5 -194.499s-10 -104.833 -17 -145.5
s-16.833 -75.167 -29.5 -103.5s-25.667 -51 -39 -68s-30.666 -30.667 -51.999 -41s-41.833 -17.5 -61.5 -21.5s-43.834 -7 -72.501 -9z" />
    <glyph glyph-name="afii10030" unicode="&#x41c;" horiz-adv-x="822" 
d="M42 0l76 676h139l128 -350c8 -20 16.667 -49 26 -87c6 27.333 14.333 56.333 25 87l129 350h139l76 -676h-120l-40 401c-4 38.667 -6.33301 76.667 -7 114c-13.333 -50.667 -24.666 -88.334 -33.999 -113.001l-103 -281h-130l-103 281
c-12.667 34.667 -24.334 72.334 -35.001 113.001c-1.33301 -46 -3.33301 -84 -6 -114l-41 -401h-119z" />
    <glyph glyph-name="afii10031" unicode="&#x41d;" horiz-adv-x="639" 
d="M77 0v676h120v-281h244v281h121v-676h-121v293h-244v-293h-120z" />
    <glyph glyph-name="afii10032" unicode="&#x41e;" horiz-adv-x="636" 
d="M59 262v150c0 88.667 24.333 157 73 205s110.667 72 186 72s137.333 -24 186 -72s73 -116.333 73 -205v-150c0 -88.667 -24.333 -156.667 -73 -204s-110.667 -71 -186 -71s-137.333 23.667 -186 71s-73 115.333 -73 204zM179 271c0 -120 46.334 -180 139.001 -180
c92 0 138 60 138 180v134c0 61.333 -12.333 106.666 -37 135.999s-58.334 44 -101.001 44s-76.5 -14.667 -101.5 -44s-37.5 -74.666 -37.5 -135.999v-134z" />
    <glyph glyph-name="afii10033" unicode="&#x41f;" horiz-adv-x="638" 
d="M77 0v676h485v-676h-121v574h-244v-574h-120z" />
    <glyph glyph-name="afii10034" unicode="&#x420;" horiz-adv-x="554" 
d="M77 0v676h233c63.333 0 114.666 -20.5 153.999 -61.5s59 -90.833 59 -149.5c0 -58 -19.667 -107.167 -59 -147.5s-90.666 -60.5 -153.999 -60.5h-113v-257h-120zM197 359h109c29.333 0 52.333 9.66699 69 29s25 45 25 77s-8.33301 57.833 -25 77.5s-39.667 29.5 -69 29.5
h-109v-213z" />
    <glyph glyph-name="afii10035" unicode="&#x421;" horiz-adv-x="566" 
d="M498 119l23 -101c-64 -20.667 -128.667 -31 -194 -31c-80 0 -144.667 23.5 -194 70.5s-74 115.167 -74 204.5v152c0 89.333 24.667 157.5 74 204.5s114 70.5 194 70.5c61.333 0 126 -10.333 194 -31l-23 -101c-62 18.667 -118.667 28 -170 28
c-99.333 0 -149 -60 -149 -180v-134c0 -120 49.667 -180 149 -180c55.333 0 112 9.33301 170 28z" />
    <glyph glyph-name="afii10036" unicode="&#x422;" horiz-adv-x="522" 
d="M201 0v572h-173v104h466v-104h-172v-572h-121z" />
    <glyph glyph-name="afii10037" unicode="&#x423;" horiz-adv-x="572" 
d="M137 0l-12.998 102h129c21.333 0 37.5 6.33301 48.5 19s18.833 33 23.5 61l7 43h-60c-56.667 0 -99.834 16 -129.501 48s-49.5 77 -59.5 135l-44 268h120l43 -258c5.33301 -31.333 13.666 -54.5 24.999 -69.5s28.333 -22.5 51 -22.5h73l62 350h121l-91 -505
c-20 -114 -78.667 -171 -176 -171h-130z" />
    <glyph glyph-name="afii10038" unicode="&#x424;" horiz-adv-x="789" 
d="M334 -11l0.000976562 92.998c-90 2.66699 -162 26.334 -216 71.001s-81 110.334 -81 197.001s27.167 152.334 81.5 197.001s126.166 68 215.499 70v72h121v-72c90 -2 162.167 -25.167 216.5 -69.5s81.5 -109.833 81.5 -196.5c0 -87.333 -27.167 -153.333 -81.5 -198
s-126.5 -68.334 -216.5 -71.001v-93h-121zM334.001 184.998v329.999c-116.667 -4 -175 -58.667 -175 -164c0 -50.667 14.333 -90.667 43 -120s72.667 -44.666 132 -45.999zM455.001 184.997c59.333 1.33301 103.5 16.667 132.5 46s43.5 69.333 43.5 120
c0 48.667 -14.5 88 -43.5 118s-73.167 45.333 -132.5 46v-330z" />
    <glyph glyph-name="afii10039" unicode="&#x425;" horiz-adv-x="589" 
d="M22 0l204 352l-182 324h133l117 -214l121 214h130l-181 -320l203 -356h-136l-136 247l-140 -247h-133z" />
    <glyph glyph-name="afii10040" unicode="&#x426;" horiz-adv-x="658" 
d="M526 -139v139h-449v676h120v-574h244v574h121v-574h75v-223z" />
    <glyph glyph-name="afii10041" unicode="&#x427;" horiz-adv-x="595" 
d="M398 0l0.000976562 284c-57.333 -18 -112 -27 -164 -27c-50.667 0 -92.834 15.833 -126.501 47.5s-50.5 76.167 -50.5 133.5v238h119v-220c0 -30.667 8.5 -54.167 25.5 -70.5s40.5 -24.5 70.5 -24.5c46.667 0 88.667 9 126 27v288h121v-676h-121z" />
    <glyph glyph-name="afii10042" unicode="&#x428;" horiz-adv-x="910" 
d="M77 0v676h120v-574h197v574h121v-574h197v574h120v-676h-755z" />
    <glyph glyph-name="afii10043" unicode="&#x429;" horiz-adv-x="923" 
d="M797 -139v139h-720v676h120v-574h197v574h121v-574h197v574h120v-574h77v-223z" />
    <glyph glyph-name="afii10044" unicode="&#x42a;" horiz-adv-x="650" 
d="M166 0v574h-139v102h259v-262h122c64 0 115.667 -19.833 155 -59.5s59 -88.167 59 -145.5c0 -58 -19.667 -107.333 -59 -148s-91 -61 -155 -61h-242zM286 102h119c29.333 0 52.333 9.5 69 28.5s25 44.5 25 76.5s-8.33301 57.5 -25 76.5s-39.667 28.5 -69 28.5h-119v-210z
" />
    <glyph glyph-name="afii10045" unicode="&#x42b;" horiz-adv-x="797" 
d="M77 0v676h120v-262h116c63.333 0 114.666 -20 153.999 -60s59 -89 59 -147s-19.667 -107 -59 -147s-90.666 -60 -153.999 -60h-236zM197 102h113c28.667 0 51.334 9.5 68.001 28.5s25 44.5 25 76.5s-8.33301 57.5 -25 76.5s-39.334 28.5 -68.001 28.5h-113v-210zM600 0
v676h120v-676h-120z" />
    <glyph glyph-name="afii10046" unicode="&#x42c;" horiz-adv-x="561" 
d="M77 0v676h120v-262h122c64 0 115.667 -20 155 -60s59 -89 59 -147s-19.667 -107 -59 -147s-91 -60 -155 -60h-242zM197 102h120c28.667 0 51.334 9.5 68.001 28.5s25 44.5 25 76.5s-8.33301 57.5 -25 76.5s-39.334 28.5 -68.001 28.5h-120v-210z" />
    <glyph glyph-name="afii10047" unicode="&#x42d;" horiz-adv-x="566" 
d="M238 -13c-60 0 -124.331 10 -192.998 30l22 100c58 -18.667 114.667 -28 170 -28c99.333 0 149 61 149 183v21h-217l-10 101h227c-0.666992 66.667 -13.334 115.167 -38.001 145.5s-61.667 45.5 -111 45.5c-54 0 -110.667 -9 -170 -27l-22 99
c69.333 21.333 133.666 32 192.999 32c80 0 144.667 -23.5 194 -70.5s74 -115.167 74 -204.5v-153c0 -89.333 -24.5 -157.333 -73.5 -204s-113.833 -70 -194.5 -70z" />
    <glyph glyph-name="afii10048" unicode="&#x42e;" horiz-adv-x="856" 
d="M552 -13c-71.333 0 -129.833 23.667 -175.5 71s-68.5 115.333 -68.5 204v31h-111v-293h-120v676h120v-281h111v17c0 88.667 22.833 157 68.5 205s104.167 72 175.5 72c72 0 130.833 -23.833 176.5 -71.5s68.5 -116.167 68.5 -205.5v-150
c0 -88.667 -22.833 -156.667 -68.5 -204s-104.5 -71 -176.5 -71zM552 91c82.667 0 124 59.667 124 179v135c0 119.333 -41.333 179 -124 179c-82 0 -123 -59.667 -123 -179v-135c0 -119.333 41 -179 123 -179z" />
    <glyph glyph-name="afii10049" unicode="&#x42f;" horiz-adv-x="569" 
d="M38 0l128 274c-38.667 14.667 -69 39.5 -91 74.5s-33 74.167 -33 117.5c0 58 19.667 107.5 59 148.5s90.333 61.5 153 61.5h238v-676h-120v257h-85l-115 -257h-134zM259 359h113v213h-113c-28.667 0 -51.667 -9.83301 -69 -29.5s-26 -45.167 -26 -76.5
c0 -32 8.66699 -57.833 26 -77.5s40.333 -29.5 69 -29.5z" />
    <glyph glyph-name="afii10065" unicode="&#x430;" horiz-adv-x="499" 
d="M219 -13c-54.667 0 -97.999 15.333 -129.999 46s-48 72.667 -48 126c0 51.333 17.833 90.833 53.5 118.5s83.167 41.5 142.5 41.5h83v19c0 61.333 -27.667 92 -83 92c-40.667 0 -87.334 -8 -140.001 -24l-25 94c65.333 20.667 120.333 31 165 31
c60 0 108.333 -17.5 145 -52.5s55 -81.833 55 -140.5v-338h-100l-9 31c-26 -29.333 -62.333 -44 -109 -44zM239.001 87c24 0 43.501 6.83105 58.501 20.498s22.5 29.834 22.5 48.501v77h-84c-26 0 -45 -6.66699 -57 -20s-18 -30.666 -18 -51.999
c0 -22 6.66699 -39.833 20 -53.5s32.666 -20.5 57.999 -20.5z" />
    <glyph glyph-name="afii10066" unicode="&#x431;" horiz-adv-x="550" 
d="M281 -13c-64 0 -115.669 19.833 -155.002 59.5s-59 95.5 -59 167.5v234c0 44.667 5.5 83.334 16.5 116.001s27 58.667 48 78s43.833 34.166 68.5 44.499s54 18.5 88 24.5l196 32v-99l-191 -33c-76 -13.333 -114 -59.333 -114 -138c32.667 28.667 74.334 43 125.001 43
c54.667 0 100.334 -18.667 137.001 -56s55 -91 55 -161v-85c0 -72 -19.833 -127.833 -59.5 -167.5s-91.5 -59.5 -155.5 -59.5zM280.998 88c66 0 99 43.667 99 131v65c0 87.333 -33 131 -99 131c-65.333 0 -98 -43.667 -98 -131v-65c0 -87.333 32.667 -131 98 -131z" />
    <glyph glyph-name="afii10067" unicode="&#x432;" horiz-adv-x="528" 
d="M68 0l0.000976562 519.001h211c55.333 0 98.666 -12 129.999 -36s47 -58 47 -102c0 -50 -22.667 -86 -68 -108c58.667 -22 88 -63 88 -123c0 -46.667 -18.833 -83.334 -56.5 -110.001s-87.167 -40 -148.5 -40h-203zM186.001 95.001h80.001
c27.333 0 48.166 6.33301 62.499 19s21.5 28.667 21.5 48c0 20 -6.83301 36.5 -20.5 49.5s-34.167 19.5 -61.5 19.5h-82v-136zM186.002 315.001h70c26 0 46.5 5.5 61.5 16.5s22.5 26.167 22.5 45.5c0 39.333 -26.333 59 -79 59h-75v-121z" />
    <glyph glyph-name="afii10068" unicode="&#x433;" horiz-adv-x="394" 
d="M68 0v519h312v-98h-195v-421h-117z" />
    <glyph glyph-name="afii10069" unicode="&#x434;" horiz-adv-x="579" 
d="M12 -118v216h61l53 237c13.333 58.667 34.5 104 63.5 136s71.5 48 127.5 48h179v-421h63v-201l-100 -15v118h-347v-103zM194 98h185v323h-49c-42.667 0 -71 -31.667 -85 -95z" />
    <glyph glyph-name="afii10070" unicode="&#x435;" horiz-adv-x="514" 
d="M54 207l-0.000976562 110c0 67.333 19.333 120 58 158s87.667 57 147 57c58 0 106.833 -18.333 146.5 -55s59.5 -83.667 59.5 -141v-110h-295v-19c0 -79.333 35.333 -119 106 -119c41.333 0 88.333 8 141 24l23 -96c-52 -19.333 -106.667 -29 -164 -29
c-67.333 0 -121.166 19 -161.499 57s-60.5 92.333 -60.5 163zM169.999 312l178 -0.000976562v24c0 27.333 -8.16699 50 -24.5 68s-37.833 27 -64.5 27s-48.167 -9.16699 -64.5 -27.5s-24.5 -43.166 -24.5 -74.499v-17z" />
    <glyph glyph-name="afii10072" unicode="&#x436;" horiz-adv-x="739" 
d="M19 0l132 260.001c-18 9.33301 -32 22.166 -42 38.499s-19 39.833 -27 70.5l-40 150h115l32 -126c8 -32 22.333 -51.333 43 -58l79 -25v209h117v-209l79 25c21.333 7.33301 36 26.666 44 57.999l32 126h114l-39 -150c-8 -30.667 -17 -54.167 -27 -70.5
s-24 -29.166 -42 -38.499l131 -260h-128l-105 220l-59 -18v-202h-117v202l-59 18l-104 -220h-129z" />
    <glyph glyph-name="afii10073" unicode="&#x437;" horiz-adv-x="464" 
d="M212 -13c-26 0 -56.333 3.00195 -91 9.00195s-61.667 13 -81 21l22 96c48.667 -17.333 93.667 -26 135 -26c28 0 50.833 5.66699 68.5 17s26.5 27.666 26.5 48.999c0 44.667 -26 67 -78 67h-63l-8 92h58c24.667 0 43.5 6.33301 56.5 19s19.5 29 19.5 49
c0 34.667 -25.333 52 -76 52c-36 0 -77.333 -8.66699 -124 -26l-24 92c56.667 22.667 116 34 178 34c53.333 0 94.833 -12.833 124.5 -38.5s44.5 -58.5 44.5 -98.5c0 -26.667 -6.83301 -50.5 -20.5 -71.5s-30.167 -36.167 -49.5 -45.5
c25.333 -8.66699 45.333 -24.334 60 -47.001s22 -47.667 22 -75c0 -52.667 -18 -94 -54 -124s-84.667 -45 -146 -45z" />
    <glyph glyph-name="afii10074" unicode="&#x438;" horiz-adv-x="563" 
d="M72 0v518.999h116v-233c0 -27.333 -1.33301 -59.666 -4 -96.999l210 330h98v-519h-116v228c0 27.333 1.33301 60.333 4 99l-209 -327h-99z" />
    <glyph glyph-name="afii10075" unicode="&#x439;" horiz-adv-x="563" 
d="M279 671c29.333 0 46.667 18.667 52 56l78 -10c-2 -36.667 -15.167 -66 -39.5 -88s-54.5 -33 -90.5 -33c-34.667 0 -64.167 11 -88.5 33s-37.5 51.333 -39.5 88l77 10c2.66699 -17.333 8.5 -31 17.5 -41s20.167 -15 33.5 -15zM72.001 0v518.999h116v-233
c0 -27.333 -1.33301 -59.666 -4 -96.999l210 330h98v-519h-116v228c0 27.333 1.33301 60.333 4 99l-209 -327h-99z" />
    <glyph glyph-name="afii10076" unicode="&#x43a;" horiz-adv-x="513" 
d="M72 0v519h117v-210l91 27c20.667 8 35 27.333 43 58l32 125h115l-40 -149c-8.66699 -31.333 -18.167 -55 -28.5 -71s-24.5 -28.667 -42.5 -38l135 -261h-128l-108 221l-69 -20v-201h-117z" />
    <glyph glyph-name="afii10077" unicode="&#x43b;" horiz-adv-x="526" 
d="M23 0l69 335c12 58.667 32.833 104 62.5 136s72.167 48 127.5 48h172v-519h-117v421h-42c-43.333 0 -71.333 -31.667 -84 -95l-68 -326h-120z" />
    <glyph glyph-name="afii10078" unicode="&#x43c;" horiz-adv-x="693" 
d="M40 0l56 519h150l100 -302l102 302h149l56 -519h-118l-37 365l-91 -272h-120l-93 272l-35 -365h-119z" />
    <glyph glyph-name="afii10079" unicode="&#x43d;" horiz-adv-x="554" 
d="M72 0v519h117v-200h176v200h117v-519h-117v220h-176v-220h-117z" />
    <glyph glyph-name="afii10080" unicode="&#x43e;" horiz-adv-x="539" 
d="M54 215l-0.000976562 90c0 71.333 19.833 127 59.5 167s91.5 60 155.5 60c64.667 0 116.834 -20 156.501 -60s59.5 -96 59.5 -168v-89c0 -72 -20 -128 -60 -168s-92 -60 -156 -60s-115.833 20 -155.5 60s-59.5 96 -59.5 168zM169.999 220c0 -88 33 -132 99 -132
c66.667 0 100 44 100 132v79c0 88 -33.333 132 -100 132c-66 0 -99 -44 -99 -132v-79z" />
    <glyph glyph-name="afii10081" unicode="&#x43f;" horiz-adv-x="552" 
d="M72 0v519h408v-519h-117v421h-174v-421h-117z" />
    <glyph glyph-name="afii10082" unicode="&#x440;" horiz-adv-x="548" 
d="M72 -211l0.000976562 730h95l14 -45c30 38.667 72.667 58 128 58c53.333 0 97.666 -19.5 132.999 -58.5s53 -91.833 53 -158.5v-110c0 -70 -19.667 -123.833 -59 -161.5s-87.333 -56.5 -144 -56.5c-34.667 0 -69 10 -103 30v-228h-117zM282.001 88
c63.333 0 95 40.667 95 122v100c0 39.333 -8.66699 69.333 -26 90s-40 31 -68 31s-50.667 -9.33301 -68 -28s-26 -45.667 -26 -81v-207c34.667 -18 65.667 -27 93 -27z" />
    <glyph glyph-name="afii10083" unicode="&#x441;" horiz-adv-x="474" 
d="M54 214v90.999c0 76.667 20 133.667 60 171s94.333 56 163 56c46 0 95.667 -8 149 -24l-24 -97c-47.333 13.333 -87.333 20 -120 20c-36.667 0 -64.334 -10 -83.001 -30s-28 -52.667 -28 -98v-86c0 -45.333 9.33301 -78.166 28 -98.499s46.334 -30.5 83.001 -30.5
c31.333 0 71.333 6.66699 120 20l25 -97c-55.333 -16 -105.333 -24 -150 -24c-68.667 0 -123 18.667 -163 56s-60 94.333 -60 171z" />
    <glyph glyph-name="afii10084" unicode="&#x442;" horiz-adv-x="430" 
d="M160 0v421h-137v98h390v-98h-136v-421h-117z" />
    <glyph glyph-name="afii10085" unicode="&#x443;" horiz-adv-x="500" 
d="M72 184l-47 334.999h117l46 -325c4.66699 -31.333 13 -54.666 25 -69.999s29.333 -23 52 -23h37l52 418h117l-96 -730h-115l28 211h-27c-108 -0 -171 61.333 -189 184z" />
    <glyph glyph-name="afii10086" unicode="&#x444;" horiz-adv-x="786" 
d="M334 -211l0.00195312 228c-34 -20 -68.333 -30 -103 -30c-54.667 0 -97.834 18.333 -129.501 55s-47.5 91 -47.5 163v109c0 70.667 17.167 124.667 51.5 162s77.5 56 129.5 56c32 0 65 -10.333 99 -31v224l118 20v-244c34 20.667 67.667 31 101 31
c50.667 0 93.167 -18.667 127.5 -56s51.5 -91.333 51.5 -162v-109c0 -71.333 -16.333 -125.5 -49 -162.5s-76.334 -55.5 -131.001 -55.5c-32.667 0 -66 10 -100 30v-228h-118zM252.002 88c20.667 0 48.001 9 82.001 27v290c-34.667 17.333 -62 26 -82 26
c-26.667 0 -46.834 -9.33301 -60.501 -28s-20.5 -49.667 -20.5 -93v-100c0 -81.333 27 -122 81 -122zM534.003 88c54 0 81.001 40.667 81.001 122v100c0 43.333 -6.83301 74.333 -20.5 93s-33.834 28 -60.501 28c-20 0 -47.333 -8.66699 -82 -26v-290
c34 -18 61.333 -27 82 -27z" />
    <glyph glyph-name="afii10087" unicode="&#x445;" horiz-adv-x="496" 
d="M16 0l162 268l-148 251h132l86 -150l89 150h128l-149 -248l163 -271h-135l-97 169l-100 -169h-131z" />
    <glyph glyph-name="afii10088" unicode="&#x446;" horiz-adv-x="563" 
d="M443 -121v121h-371v519h117v-421h174v421h117v-421h63v-204z" />
    <glyph glyph-name="afii10089" unicode="&#x447;" horiz-adv-x="518" 
d="M329 0v206c-42 -14 -87 -21 -135 -21c-39.333 0 -72.666 12.167 -99.999 36.5s-41 58.5 -41 102.5v195h114v-164c0 -48 23.667 -72 71 -72c31.333 0 61.666 6.66699 90.999 20v216h117v-519h-117z" />
    <glyph glyph-name="afii10090" unicode="&#x448;" horiz-adv-x="788" 
d="M72 0v519h117v-421h147v421h117v-421h147v421h117v-519h-645z" />
    <glyph glyph-name="afii10091" unicode="&#x449;" horiz-adv-x="800" 
d="M680 -121v121h-608v519h117v-421h147v421h117v-421h147v421h117v-421h63v-204z" />
    <glyph glyph-name="afii10092" unicode="&#x44a;" horiz-adv-x="562" 
d="M127 0l0.000976562 426h-107v93h224v-193h100c55.333 0 99.833 -14 133.5 -42s50.5 -67.333 50.5 -118s-17.333 -91 -52 -121s-79.334 -45 -134.001 -45h-215zM244.001 95l97.001 -0.000976562c22.667 0 39.667 6.33301 51 19s17 29.334 17 50.001
s-5.33301 37.5 -16 50.5s-27.334 19.5 -50.001 19.5h-99v-139z" />
    <glyph glyph-name="afii10093" unicode="&#x44b;" horiz-adv-x="718" 
d="M72 0l0.000976562 519h117v-193h99c56 0 100.833 -14 134.5 -42s50.5 -67.333 50.5 -118s-17.333 -91 -52 -121s-79.334 -45 -134.001 -45h-215zM189.001 95l97.001 -0.000976562c22.667 0 39.667 6.33301 51 19s17 29.334 17 50.001s-5.33301 37.5 -16 50.5
s-27.334 19.5 -50.001 19.5h-99v-139zM529.002 -0.000976562v519h117v-519h-117z" />
    <glyph glyph-name="afii10094" unicode="&#x44c;" horiz-adv-x="506" 
d="M72 0l0.000976562 519h117v-193h99c56 0 100.833 -14 134.5 -42s50.5 -67.333 50.5 -118s-17.333 -91 -52 -121s-79.334 -45 -134.001 -45h-215zM189.001 95l97.001 -0.000976562c22.667 0 39.667 6.33301 51 19s17 29.334 17 50.001s-5.33301 37.5 -16 50.5
s-27.334 19.5 -50.001 19.5h-99v-139z" />
    <glyph glyph-name="afii10095" unicode="&#x44d;" horiz-adv-x="467" 
d="M191 -13c-42.667 0 -92.667 8 -150 24l24 95c44.667 -13.333 84.667 -20 120 -20c37.333 0 65 10.5 83 31.5s27.333 55.5 28 103.5h-151l-8 97h158c-4 76.667 -40.667 115 -110 115c-31.333 0 -71.333 -6.66699 -120 -20l-24 94c52 16.667 102 25 150 25
c68 0 122 -18.833 162 -56.5s60 -94.5 60 -170.5v-91c0 -76 -20 -132.833 -60 -170.5s-94 -56.5 -162 -56.5z" />
    <glyph glyph-name="afii10096" unicode="&#x44e;" horiz-adv-x="751" 
d="M487 -13c-62 0 -112.167 19.5 -150.5 58.5s-57.833 93.833 -58.5 164.5v10h-89v-220h-117v519h117v-200h89c2.66699 68 23 120.5 61 157.5s87.333 55.5 148 55.5c63.333 0 114.166 -20 152.499 -60s57.5 -96 57.5 -168v-90c0 -72 -19.167 -127.833 -57.5 -167.5
s-89.166 -59.5 -152.499 -59.5zM487 88c62 0 93 43.667 93 131v80c0 88 -31 132 -93 132c-62.667 0 -94 -44 -94 -132v-80c0 -87.333 31.333 -131 94 -131z" />
    <glyph glyph-name="afii10097" unicode="&#x44f;" horiz-adv-x="503" 
d="M36 0l99 211c-29.333 10.667 -52.166 28.667 -68.499 54s-24.5 55.333 -24.5 90c0 50.667 17.167 90.667 51.5 120s79.166 44 134.499 44h207v-519h-117v194h-70l-81 -194h-131zM228 279l90.001 -0.000976562v148h-88c-22.667 0 -39.834 -6.83301 -51.501 -20.5
s-17.5 -31.167 -17.5 -52.5s5.5 -39.166 16.5 -53.499s27.833 -21.5 50.5 -21.5z" />
    <glyph glyph-name="afii10071" unicode="&#x451;" horiz-adv-x="514" 
d="M410 660c0 -16 -5.83301 -29.667 -17.5 -41s-25.5 -17 -41.5 -17c-15.333 0 -28.833 5.66699 -40.5 17s-17.5 25 -17.5 41c0 16.667 5.83301 30.834 17.5 42.501s25.167 17.5 40.5 17.5c16.667 0 30.667 -5.83301 42 -17.5s17 -25.834 17 -42.501zM222 660
c0 -16 -5.66699 -29.666 -17 -40.999s-25 -17 -41 -17s-29.833 5.66699 -41.5 17s-17.5 25 -17.5 41s5.83301 30 17.5 42s25.5 18 41.5 18s29.667 -5.83301 41 -17.5s17 -25.834 17 -42.501zM54 207.001l-0.000976562 110c0 67.333 19.333 120 58 158s87.667 57 147 57
c58 0 106.833 -18.333 146.5 -55s59.5 -83.667 59.5 -141v-110h-295v-19c0 -79.333 35.333 -119 106 -119c41.333 0 88.333 8 141 24l23 -96c-52 -19.333 -106.667 -29 -164 -29c-67.333 0 -121.166 19 -161.499 57s-60.5 92.333 -60.5 163zM169.999 312.001
l178 -0.000976562v24c0 27.333 -8.16699 50 -24.5 68s-37.833 27 -64.5 27s-48.167 -9.16699 -64.5 -27.5s-24.5 -43.166 -24.5 -74.499v-17z" />
    <glyph glyph-name="afii10099" unicode="&#x452;" horiz-adv-x="552" 
d="M368 -222v540c0 41.333 -7.33301 70.5 -22 87.5s-36 25.5 -64 25.5c-27.333 0 -58.333 -8.66699 -93 -26v-405h-117v595h-40v80h40v57h117v-57h92v-80h-92v-93c36 20 70.333 30 103 30c56.667 0 103 -17 139 -51s54 -86 54 -156v-527z" />
    <glyph glyph-name="afii10100" unicode="&#x453;" horiz-adv-x="394" 
d="M345 658l-213 -79l-30 72l209 91zM68 0v519h312v-98h-195v-421h-117z" />
    <glyph glyph-name="afii10101" unicode="&#x454;" horiz-adv-x="467" 
d="M276 -13c-68 0 -121.999 18.833 -161.999 56.5s-60 94.5 -60 170.5v91c0 76 20 132.833 60 170.5s94 56.5 162 56.5c48 0 98 -8.33301 150 -25l-23 -94c-50 13.333 -90.333 20 -121 20c-69.333 0 -106 -38.333 -110 -115h158l-8 -97h-151
c0.666992 -48 10 -82.5 28 -103.5s45.667 -31.5 83 -31.5c35.333 0 75.666 6.66699 120.999 20l23 -95c-57.333 -16 -107.333 -24 -150 -24z" />
    <glyph glyph-name="afii10102" unicode="&#x455;" horiz-adv-x="427" 
d="M35 16l23.0029 95.999c50 -16 95 -24 135 -24c22.667 0 41.167 5.16699 55.5 15.5s21.5 23.166 21.5 38.499c0 17.333 -7.66699 32 -23 44s-33.833 22.333 -55.5 31s-43.334 18.5 -65.001 29.5s-40.167 27.833 -55.5 50.5s-23 50.667 -23 84c0 44 16.667 80.167 50 108.5
s77.666 42.5 132.999 42.5c44.667 0 90.667 -8 138 -24l-26 -98c-44.667 14 -82 21 -112 21c-42 0 -63 -16.667 -63 -50c0 -16 7.66699 -29.5 23 -40.5s33.666 -20.667 54.999 -29s42.833 -18.166 64.5 -29.499s40.167 -28.666 55.5 -51.999s23 -52 23 -86
c0 -42.667 -17 -79.5 -51 -110.5s-82.333 -46.5 -145 -46.5c-51.333 0 -104 9.66699 -158 29z" />
    <glyph glyph-name="afii10103" unicode="&#x456;" horiz-adv-x="261" 
d="M130 597c-19.333 0 -35.833 6.66699 -49.5 20s-20.5 29.333 -20.5 48c0 19.333 7 35.333 21 48s30.333 19 49 19s35 -6.33301 49 -19s21 -28.667 21 -48c0 -18.667 -6.83301 -34.667 -20.5 -48s-30.167 -20 -49.5 -20zM72 0v519h117v-519h-117z" />
    <glyph glyph-name="afii10104" unicode="&#x457;" horiz-adv-x="261" 
d="M284 660c0 -16 -5.83301 -29.667 -17.5 -41s-25.5 -17 -41.5 -17c-15.333 0 -28.833 5.66699 -40.5 17s-17.5 25 -17.5 41c0 16.667 5.83301 30.834 17.5 42.501s25.167 17.5 40.5 17.5c16.667 0 30.667 -5.83301 42 -17.5s17 -25.834 17 -42.501zM96 660
c0 -16 -5.66699 -29.666 -17 -40.999s-25 -17 -41 -17s-29.833 5.66699 -41.5 17s-17.5 25 -17.5 41s5.83301 30 17.5 42s25.5 18 41.5 18s29.667 -5.83301 41 -17.5s17 -25.834 17 -42.501zM189 0.000976562h-117v519h117v-519z" />
    <glyph glyph-name="afii10105" unicode="&#x458;" horiz-adv-x="261" 
d="M131 597c-19.333 0 -35.833 6.66699 -49.5 20s-20.5 29.333 -20.5 48c0 19.333 6.83301 35.333 20.5 48s30.167 19 49.5 19c18.667 0 34.834 -6.33301 48.501 -19s20.5 -28.667 20.5 -48c0 -18.667 -6.83301 -34.667 -20.5 -48s-29.834 -20 -48.501 -20zM72 -222v741h118
v-721z" />
    <glyph glyph-name="afii10106" unicode="&#x459;" horiz-adv-x="771" 
d="M23 0l69.001 335c12 58.667 32.833 104 62.5 136s72.167 48 127.5 48h172v-193h99c56 0 100.833 -14 134.5 -42s50.5 -67.333 50.5 -118s-17.333 -91 -52 -121s-79.334 -45 -134.001 -45h-215v421h-42c-43.333 0 -71.333 -31.667 -84 -95l-68 -326h-120zM454.001 95
l97.001 -0.000976562c22.667 0 39.667 6.33301 51 19s17 29.334 17 50.001s-5.33301 37.5 -16 50.5s-27.334 19.5 -50.001 19.5h-99v-139z" />
    <glyph glyph-name="afii10107" unicode="&#x45a;" horiz-adv-x="800" 
d="M72 0l0.000976562 519h117v-193h176v193h117v-193h99c56 0 100.833 -14 134.5 -42s50.5 -67.333 50.5 -118s-17.333 -91 -52 -121s-79.334 -45 -134.001 -45h-215v227h-176v-227h-117zM482.001 95l97.001 -0.000976562c22.667 0 39.667 6.33301 51 19
s17 29.334 17 50.001s-5.33301 37.5 -16 50.5s-27.334 19.5 -50.001 19.5h-99v-139z" />
    <glyph glyph-name="afii10108" unicode="&#x45b;" horiz-adv-x="552" 
d="M72 0v595h-40v80h40v57h117v-57h92v-80h-92v-93c36 20 70.333 30 103 30c56.667 0 103 -17 139 -51s54 -86 54 -156v-325h-117v318c0 41.333 -7.33301 70.5 -22 87.5s-36 25.5 -64 25.5c-27.333 0 -58.333 -8.66699 -93 -26v-405h-117z" />
    <glyph glyph-name="afii10109" unicode="&#x45c;" horiz-adv-x="513" 
d="M397 658l-213 -79l-30 72l209 91zM72 0v519h117v-210l91 27c20.667 8 35 27.333 43 58l32 125h115l-40 -149c-8.66699 -31.333 -18.167 -55 -28.5 -71s-24.5 -28.667 -42.5 -38l135 -261h-128l-108 221l-69 -20v-201h-117z" />
    <glyph glyph-name="afii10110" unicode="&#x45e;" horiz-adv-x="503" 
d="M255 671c29.333 0 46.667 18.667 52 56l78 -10c-2 -36.667 -15.167 -66 -39.5 -88s-54.5 -33 -90.5 -33c-34.667 0 -64.167 11 -88.5 33s-37.5 51.333 -39.5 88l77 10c2.66699 -17.333 8.5 -31 17.5 -41s20.167 -15 33.5 -15zM72.001 184l-47 334.999h117l46 -325
c4.66699 -31.333 13 -54.666 25 -69.999s29.333 -23 52 -23h37l52 418h117l-96 -730h-115l28 211h-27c-108 -0 -171 61.333 -189 184z" />
    <glyph glyph-name="afii10193" unicode="&#x45f;" horiz-adv-x="552" 
d="M228 -121v121h-156v519h117v-421h174v421h117v-519h-152v-106z" />
    <glyph glyph-name="afii10050" unicode="&#x490;" horiz-adv-x="470" 
d="M77 0v676h262v89l111 18v-211h-253v-572h-120z" />
    <glyph glyph-name="afii10098" unicode="&#x491;" horiz-adv-x="394" 
d="M68 0v517.999h212v84c10 2 20.5 3.83301 31.5 5.5s23.333 3.33398 37 5.00098s24.167 3.16699 31.5 4.5v-197h-196v-420h-116z" />
    <glyph glyph-name="Wgrave" unicode="&#x1e80;" horiz-adv-x="837" 
d="M509 721l-213 79l34 84l209 -91zM153 0l-115 676.002h123l58 -399c4.66699 -32 8.66699 -75.667 12 -131c15.333 71.333 25.333 114.666 30 129.999l91 293h132l92 -293c5.33301 -18.667 15.333 -61.334 30 -128.001c3.33301 55.333 7.33301 98.333 12 129l58 399h123
l-115 -676h-136l-108 353c-8 26.667 -15.333 57.334 -22 92.001c-7.33301 -40.667 -14.333 -71.334 -21 -92.001l-108 -353h-136z" />
    <glyph glyph-name="wgrave" unicode="&#x1e81;" horiz-adv-x="787" 
d="M485 579l-213 79l34 84l209 -91zM70 176l-25.0029 342.999h117l23 -335c2 -28.667 9.5 -51.5 22.5 -68.5s30.833 -25.5 53.5 -25.5s40.834 9 54.501 27s20.5 41 20.5 69v298h114v-298c0 -28 6.66699 -51 20 -69s31.333 -27 54 -27s40.834 8.5 54.501 25.5
s21.5 39.833 23.5 68.5l24 335h116l-26 -343c-4.66699 -59.333 -24 -105.666 -58 -138.999s-78 -50 -132 -50c-58.667 0 -103 23.667 -133 71c-31.333 -47.333 -76 -71 -134 -71c-53.333 0 -97.166 17 -131.499 51s-53.5 80 -57.5 138z" />
    <glyph glyph-name="Wacute" unicode="&#x1e82;" horiz-adv-x="837" 
d="M539 800l-213 -79l-30 72l209 91zM153 0l-115 676.002h123l58 -399c4.66699 -32 8.66699 -75.667 12 -131c15.333 71.333 25.333 114.666 30 129.999l91 293h132l92 -293c5.33301 -18.667 15.333 -61.334 30 -128.001c3.33301 55.333 7.33301 98.333 12 129l58 399h123
l-115 -676h-136l-108 353c-8 26.667 -15.333 57.334 -22 92.001c-7.33301 -40.667 -14.333 -71.334 -21 -92.001l-108 -353h-136z" />
    <glyph glyph-name="wacute" unicode="&#x1e83;" horiz-adv-x="787" 
d="M515 658l-213 -79l-30 72l209 91zM70 176l-25.0029 342.999h117l23 -335c2 -28.667 9.5 -51.5 22.5 -68.5s30.833 -25.5 53.5 -25.5s40.834 9 54.501 27s20.5 41 20.5 69v298h114v-298c0 -28 6.66699 -51 20 -69s31.333 -27 54 -27s40.834 8.5 54.501 25.5
s21.5 39.833 23.5 68.5l24 335h116l-26 -343c-4.66699 -59.333 -24 -105.666 -58 -138.999s-78 -50 -132 -50c-58.667 0 -103 23.667 -133 71c-31.333 -47.333 -76 -71 -134 -71c-53.333 0 -97.166 17 -131.499 51s-53.5 80 -57.5 138z" />
    <glyph glyph-name="Wdieresis" unicode="&#x1e84;" horiz-adv-x="837" 
d="M571 802c0 -16 -5.83301 -29.667 -17.5 -41s-25.5 -17 -41.5 -17c-15.333 0 -28.833 5.66699 -40.5 17s-17.5 25 -17.5 41c0 16.667 5.66699 30.834 17 42.501s25 17.5 41 17.5s29.833 -5.83301 41.5 -17.5s17.5 -25.834 17.5 -42.501zM383 802
c0 -16 -5.66699 -29.667 -17 -41s-25.333 -17 -42 -17c-15.333 0 -28.833 5.66699 -40.5 17s-17.5 25 -17.5 41c0 16.667 5.83301 30.834 17.5 42.501s25.167 17.5 40.5 17.5c16.667 0 30.667 -5.83301 42 -17.5s17 -25.834 17 -42.501zM153 0l-115 676.002h123l58 -399
c4.66699 -32 8.66699 -75.667 12 -131c15.333 71.333 25.333 114.666 30 129.999l91 293h132l92 -293c5.33301 -18.667 15.333 -61.334 30 -128.001c3.33301 55.333 7.33301 98.333 12 129l58 399h123l-115 -676h-136l-108 353c-8 26.667 -15.333 57.334 -22 92.001
c-7.33301 -40.667 -14.333 -71.334 -21 -92.001l-108 -353h-136z" />
    <glyph glyph-name="wdieresis" unicode="&#x1e85;" horiz-adv-x="787" 
d="M546 660c0 -16 -5.83301 -29.667 -17.5 -41s-25.5 -17 -41.5 -17c-15.333 0 -28.833 5.66699 -40.5 17s-17.5 25 -17.5 41c0 16.667 5.66699 30.834 17 42.501s25 17.5 41 17.5s29.833 -5.83301 41.5 -17.5s17.5 -25.834 17.5 -42.501zM358 660
c0 -16 -5.66699 -29.667 -17 -41s-25.333 -17 -42 -17c-15.333 0 -28.833 5.66699 -40.5 17s-17.5 25 -17.5 41c0 16.667 5.83301 30.834 17.5 42.501s25.167 17.5 40.5 17.5c16.667 0 30.667 -5.83301 42 -17.5s17 -25.834 17 -42.501zM70 176l-25.0029 342.999h117
l23 -335c2 -28.667 9.5 -51.5 22.5 -68.5s30.833 -25.5 53.5 -25.5s40.834 9 54.501 27s20.5 41 20.5 69v298h114v-298c0 -28 6.66699 -51 20 -69s31.333 -27 54 -27s40.834 8.5 54.501 25.5s21.5 39.833 23.5 68.5l24 335h116l-26 -343
c-4.66699 -59.333 -24 -105.666 -58 -138.999s-78 -50 -132 -50c-58.667 0 -103 23.667 -133 71c-31.333 -47.333 -76 -71 -134 -71c-53.333 0 -97.166 17 -131.499 51s-53.5 80 -57.5 138z" />
    <glyph glyph-name="Ygrave" unicode="&#x1ef2;" horiz-adv-x="570" 
d="M376 721l-213 79l34 84l209 -91zM225 0v258l-205 418h129l136 -295l136 295h129l-205 -418v-258h-120z" />
    <glyph glyph-name="ygrave" unicode="&#x1ef3;" horiz-adv-x="500" 
d="M349 579l-213 79l34 84l209 -91zM72 184l-47 334.999h117l46 -325c4.66699 -31.333 13 -54.666 25 -69.999s29.333 -23 52 -23h37l52 418h117l-96 -730h-115l28 211h-27c-108 -0 -171 61.333 -189 184z" />
    <glyph glyph-name="endash" unicode="&#x2013;" horiz-adv-x="500" 
d="M500 224h-500v99h500v-99z" />
    <glyph glyph-name="emdash" unicode="&#x2014;" horiz-adv-x="1000" 
d="M1000 224h-1000v99h1000v-99z" />
    <glyph glyph-name="quoteleft" unicode="&#x2018;" horiz-adv-x="257" 
d="M173 493h-106l69 240l77 -13z" />
    <glyph glyph-name="quoteright" unicode="&#x2019;" horiz-adv-x="258" 
d="M146 493l-78 13l40 227h106z" />
    <glyph glyph-name="quotesinglbase" unicode="&#x201a;" horiz-adv-x="263" 
d="M134 -114l-77 13l40 227h106z" />
    <glyph glyph-name="quotedblleft" unicode="&#x201c;" horiz-adv-x="425" 
d="M335 493h-106l69 240l77 -13zM169 493h-106l68 240l78 -13z" />
    <glyph glyph-name="quotedblright" unicode="&#x201d;" horiz-adv-x="425" 
d="M307 493l-77 13l39 227h107zM141 493l-78 13l40 227h106z" />
    <glyph glyph-name="quotedblbase" unicode="&#x201e;" horiz-adv-x="424" 
d="M295 -114l-78 13l40 227h106zM134 -114l-77 13l40 227h106z" />
    <glyph glyph-name="dagger" unicode="&#x2020;" horiz-adv-x="438" 
d="M276 0h-112v409h-102v92h102v155h112v-155h102v-92h-102v-409z" />
    <glyph glyph-name="daggerdbl" unicode="&#x2021;" horiz-adv-x="438" 
d="M276 0h-112v167h-102v92h102v138h-102v92h102v167h112v-167h102v-92h-102v-138h102v-92h-102v-167z" />
    <glyph glyph-name="bullet" unicode="&#x2022;" horiz-adv-x="472" 
d="M400 279c0 -42 -15 -77.833 -45 -107.5s-66 -44.5 -108 -44.5s-77.833 14.833 -107.5 44.5s-44.5 65.5 -44.5 107.5s14.833 78 44.5 108s65.5 45 107.5 45s78 -15 108 -45s45 -66 45 -108z" />
    <glyph glyph-name="ellipsis" unicode="&#x2026;" horiz-adv-x="811" 
d="M680 -11c-19.333 0 -36.167 7.16699 -50.5 21.5s-21.5 31.166 -21.5 50.499c0 20 7 36.667 21 50s31 20 51 20c18.667 0 35 -6.83301 49 -20.5s21 -30.167 21 -49.5s-7 -36.166 -21 -50.499s-30.333 -21.5 -49 -21.5zM405.999 -11c-19.333 0 -36 7.16699 -50 21.5
s-21 31.166 -21 50.499c0 20 7 36.667 21 50s30.667 20 50 20s35.833 -6.66699 49.5 -20s20.5 -30 20.5 -50c0 -19.333 -6.83301 -36.166 -20.5 -50.499s-30.167 -21.5 -49.5 -21.5zM132.999 -11c-20 0 -37 7.16699 -51 21.5s-21 31.166 -21 50.499c0 20 7 36.667 21 50
s31 20 51 20c18.667 0 35 -6.83301 49 -20.5s21 -30.167 21 -49.5s-7 -36.166 -21 -50.499s-30.333 -21.5 -49 -21.5z" />
    <glyph glyph-name="perthousand" unicode="&#x2030;" horiz-adv-x="1267" 
d="M371 528v-67c0 -48.667 -14.667 -87.5 -44 -116.5s-67 -43.5 -113 -43.5s-83.667 14.5 -113 43.5s-44 67.833 -44 116.5v67c0 48 14.833 86.833 44.5 116.5s67.167 44.5 112.5 44.5s82.833 -14.833 112.5 -44.5s44.5 -68.5 44.5 -116.5zM329 0h-92l319 676h91zM284 463
v63c0 54.667 -23.333 82 -70 82c-45.333 0 -68 -27.333 -68 -82v-63c0 -55.333 22.667 -83 68 -83c46.667 0 70 27.667 70 83zM1210 215v-67c0 -48 -14.833 -86.833 -44.5 -116.5s-67.5 -44.5 -113.5 -44.5c-45.333 0 -82.833 14.833 -112.5 44.5s-44.5 68.5 -44.5 116.5v67
c0 48.667 14.667 87.667 44 117s67 44 113 44s83.833 -14.667 113.5 -44s44.5 -68.333 44.5 -117zM832 215l-0.000976562 -67c0 -48 -14.833 -86.833 -44.5 -116.5s-67.5 -44.5 -113.5 -44.5c-45.333 0 -82.666 14.667 -111.999 44s-44 68.333 -44 117v67
c0 48.667 14.5 87.667 43.5 117s66.5 44 112.5 44s83.833 -14.667 113.5 -44s44.5 -68.333 44.5 -117zM1121 150l-0.00195312 63c0 28 -6.16699 48.833 -18.5 62.5s-29.166 20.5 -50.499 20.5s-38.166 -6.83301 -50.499 -20.5s-18.5 -34.5 -18.5 -62.5v-63
c0 -54.667 23 -82 69 -82s69 27.333 69 82zM743.997 150v63c0 55.333 -23.333 83 -70 83c-20.667 0 -37.167 -6.83301 -49.5 -20.5s-18.5 -34.5 -18.5 -62.5v-63c0 -54.667 22.667 -82 68 -82c46.667 0 70 27.333 70 82z" />
    <glyph glyph-name="guilsinglleft" unicode="&#x2039;" horiz-adv-x="336" 
d="M280 150l-79 -60l-146 190l146 191l79 -60l-99 -130z" />
    <glyph glyph-name="guilsinglright" unicode="&#x203a;" horiz-adv-x="337" 
d="M135 90l-79 60l99 130l-99 131l79 60l146 -190z" />
    <glyph glyph-name="Euro" unicode="&#x20ac;" horiz-adv-x="537" 
d="M490 108l21 -101c-53.333 -13.333 -104.666 -20 -153.999 -20c-70.667 0 -129.167 21.667 -175.5 65s-70.5 102 -72.5 176h-72v68h72v84h-72v68h72c2 74 26.167 132.667 72.5 176s104.833 65 175.5 65c49.333 0 100.666 -6.66699 153.999 -20l-21 -101
c-50 11.333 -94 17 -132 17s-68.5 -12.167 -91.5 -36.5s-35.5 -57.833 -37.5 -100.5h193l-13 -68h-180v-84h164l-13 -68h-151c2 -42.667 14.5 -76.167 37.5 -100.5s53.5 -36.5 91.5 -36.5s82 5.66699 132 17z" />
    <glyph glyph-name="afii61352" unicode="&#x2116;" horiz-adv-x="963" 
d="M77 0v676.001h97l263 -440c-2 37.333 -3 70.666 -3 99.999v340h121v-676h-100l-262 436c2.66699 -34 4 -68.333 4 -103v-333h-120zM655 119.001v75h235v-75h-235zM772 229.001c-40 0 -73 12.667 -99 38s-39 59 -39 101v60c0 42.667 13 76.834 39 102.501s59 38.5 99 38.5
s73 -12.833 99 -38.5s39 -59.834 39 -102.501v-60c0 -42 -13 -75.667 -39 -101s-59 -38 -99 -38zM772 299.001c40 0 60 24 60 72v54c0 47.333 -20 71 -60 71c-38.667 0 -58 -23.667 -58 -71v-54c0 -48 19.333 -72 58 -72z" />
    <glyph glyph-name="trademark" unicode="&#x2122;" horiz-adv-x="773" 
d="M696 373h-80l-18 155l-43 -115h-73l-43 115l-17 -155h-81l40 303h81l57 -161l56 161h81zM241 373h-81v232h-83v71h249l-7 -71h-78v-232z" />
    <glyph glyph-name="Delta" unicode="&#x2206;" horiz-adv-x="768" 
d="M737 0h-706l292 704h124zM578 99l-193 470l-194 -470h387z" />
    <glyph glyph-name="product" unicode="&#x220f;" horiz-adv-x="790" 
d="M649 -131h-112v708h-282v-708h-113v708h-81v99h670v-99h-82v-708z" />
    <glyph glyph-name="summation" unicode="&#x2211;" horiz-adv-x="688" 
d="M618 -128h-536v94l267 308l-267 307v95h536v-99h-385l263 -303l-262 -303h384v-99z" />
    <glyph glyph-name="radical" unicode="&#x221a;" horiz-adv-x="622" 
d="M379 0h-131l-140 438h-80l-21 81h199l74 -252c11.333 -38 22.333 -82.667 33 -134c17.333 68 29 112.667 35 134l145 465h123z" />
    <glyph glyph-name="integral" unicode="&#x222b;" horiz-adv-x="405" 
d="M147 -51l0.000976562 631c0 50.667 16.167 90 48.5 118s71.166 42 116.499 42c27.333 0 58 -5.66699 92 -17l-21 -98c-26 8 -47.667 12 -65 12c-40 0 -60 -21.667 -60 -65v-631c0 -50.667 -16 -90 -48 -118s-71 -42 -117 -42c-26 0 -56.667 5.33301 -92 16l22 99
c24 -8 45.333 -12 64 -12c40 0 60 21.667 60 65z" />
    <glyph glyph-name="approxequal" unicode="&#x2248;" horiz-adv-x="589" 
d="M446 469l71 -63c-43.333 -64.667 -90 -97 -140 -97c-22.667 0 -44.5 6.5 -65.5 19.5s-39.667 26 -56 39s-30.833 19.5 -43.5 19.5c-24 0 -47 -16.667 -69 -50l-71 64c43.333 64.667 90.333 97 141 97c22 0 43.333 -6.66699 64 -20s39.5 -26.5 56.5 -39.5
s31.5 -19.5 43.5 -19.5c22 0 45 16.667 69 50zM446 236l71.001 -64c-44.667 -64.667 -91.334 -97 -140.001 -97c-22.667 0 -44.5 6.66699 -65.5 20s-39.667 26.5 -56 39.5s-30.833 19.5 -43.5 19.5c-24 0 -47 -16.667 -69 -50l-71 63c42.667 64.667 89.667 97 141 97
c22 0 43.333 -6.5 64 -19.5s39.5 -26 56.5 -39s31.5 -19.5 43.5 -19.5c22.667 0 45.667 16.667 69 50z" />
    <glyph glyph-name="notequal" unicode="&#x2260;" horiz-adv-x="567" 
d="M506 128h-226l-48 -134l-90 33l37 101h-118v99h154l37 104h-191v100h228l47 129l90 -31l-36 -98h116v-100h-152l-38 -104h190v-99z" />
    <glyph glyph-name="lessequal" unicode="&#x2264;" horiz-adv-x="526" 
d="M416 34l-355 200v79l355 200l49 -95l-266 -144l266 -144zM454 -94h-392v97h392v-97z" />
    <glyph glyph-name="greaterequal" unicode="&#x2265;" horiz-adv-x="526" 
d="M465 234l-355 -200l-49 96l266 144l-266 144l49 95l355 -200v-79zM464 -94h-392v97h392v-97z" />
    <glyph glyph-name="lozenge" unicode="&#x25ca;" horiz-adv-x="684" 
d="M339 -5l-308 336l307 336l307 -337zM187 332l152 -168l152 166l-153 167z" />
    <glyph glyph-name="apple" unicode="&#xf8ff;" horiz-adv-x="0" 
 />
    <glyph glyph-name=".null" horiz-adv-x="0" 
 />
    <glyph glyph-name="nonmarkingreturn" horiz-adv-x="333" 
 />
    <glyph glyph-name="ubreve.smcp" horiz-adv-x="570" 
d="M334 778l79.999 0.00292969c-0.666992 -38.667 -13.5 -70.834 -38.5 -96.501s-55.167 -38.5 -90.5 -38.5c-36 0 -66.333 13 -91 39s-37 58 -37 96h78c0.666992 -16.667 5.83398 -30.834 15.501 -42.501s21.167 -17.5 34.5 -17.5c14 0 25.667 5.66699 35 17
s14 25.666 14 42.999zM385.999 198.003v372h117v-382c0 -58.667 -21 -106.834 -63 -144.501s-93.667 -56.5 -155 -56.5c-60.667 0 -112.167 18.833 -154.5 56.5s-63.5 85.834 -63.5 144.501v382h118v-372c0 -34 9.16699 -60.833 27.5 -80.5s42.5 -29.5 72.5 -29.5
s54.333 9.83301 73 29.5s28 46.5 28 80.5z" />
    <glyph glyph-name="gbreve.smcp" horiz-adv-x="549" 
d="M329 778h79.0029c-0.666992 -38 -13.334 -70 -38.001 -96s-55 -39 -91 -39c-35.333 0 -65.333 13 -90 39s-37.334 58 -38.001 96h79c0.666992 -17.333 5.66699 -31.666 15 -42.999s20.666 -17 33.999 -17c14.667 0 26.667 5.66699 36 17s14 25.666 14 42.999zM381.003 97
l-0.000976562 133h-60v84h170v-292c-68.667 -23.333 -134.667 -35 -198 -35c-70.667 0 -127.834 20.167 -171.501 60.5s-65.5 98.5 -65.5 174.5v126c0 76 21.833 134.167 65.5 174.5s100.834 60.5 171.501 60.5c46 0 107.333 -11 184 -33l-26 -96
c-59.333 18.667 -111.666 28 -156.999 28c-80 0 -120 -47.667 -120 -143v-106c0 -96.667 40 -145 120 -145c29.333 0 58.333 3 87 9z" />
    <glyph glyph-name="uhungarumlaut.smcp" horiz-adv-x="570" 
d="M527 722l-170 -98l-42 69l164 108zM303 722l-169 -99l-43 70l164 107zM386 198v372h117v-382c0 -58.667 -21 -106.834 -63 -144.501s-93.667 -56.5 -155 -56.5c-60.667 0 -112.167 18.833 -154.5 56.5s-63.5 85.834 -63.5 144.501v382h118v-372
c0 -34 9.16699 -60.833 27.5 -80.5s42.5 -29.5 72.5 -29.5s54.333 9.83301 73 29.5s28 46.5 28 80.5z" />
    <glyph glyph-name="wacute.smcp" horiz-adv-x="750" 
d="M497 708l-213 -79l-31 72l210 91zM138 0l-98.001 569.999h119l44 -306c3.33301 -21.333 6.33301 -61.666 9 -120.999c8.66699 44.667 18.334 84.667 29.001 120l70 215h126l71 -215c13.333 -42.667 23.333 -82 30 -118c4.66699 65.333 8 105 10 119l43 306h119l-98 -570
h-130l-88 279c-8 24.667 -14.333 51 -19 79c-5.33301 -32.667 -11.333 -59 -18 -79l-89 -279h-130z" />
    <glyph glyph-name="wcircumflex.smcp" horiz-adv-x="750" 
d="M471 633l-98 63l-98 -63l-46 71l144 83l144 -83zM138 0l-98.001 569.999h119l44 -306c3.33301 -21.333 6.33301 -61.666 9 -120.999c8.66699 44.667 18.334 84.667 29.001 120l70 215h126l71 -215c13.333 -42.667 23.333 -82 30 -118c4.66699 65.333 8 105 10 119l43 306
h119l-98 -570h-130l-88 279c-8 24.667 -14.333 51 -19 79c-5.33301 -32.667 -11.333 -59 -18 -79l-89 -279h-130z" />
    <glyph glyph-name="wdieresis.smcp" horiz-adv-x="750" 
d="M525 710c0 -16 -5.83301 -29.667 -17.5 -41s-25.5 -17 -41.5 -17c-15.333 0 -28.833 5.66699 -40.5 17s-17.5 25 -17.5 41c0 16.667 5.66699 30.834 17 42.501s25 17.5 41 17.5s29.833 -5.83301 41.5 -17.5s17.5 -25.834 17.5 -42.501zM337 710
c0 -16 -5.66699 -29.667 -17 -41s-25.333 -17 -42 -17c-15.333 0 -28.833 5.66699 -40.5 17s-17.5 25 -17.5 41c0 16.667 5.83301 30.834 17.5 42.501s25.167 17.5 40.5 17.5c16.667 0 30.667 -5.83301 42 -17.5s17 -25.834 17 -42.501zM138 0l-98.001 569.999h119l44 -306
c3.33301 -21.333 6.33301 -61.666 9 -120.999c8.66699 44.667 18.334 84.667 29.001 120l70 215h126l71 -215c13.333 -42.667 23.333 -82 30 -118c4.66699 65.333 8 105 10 119l43 306h119l-98 -570h-130l-88 279c-8 24.667 -14.333 51 -19 79
c-5.33301 -32.667 -11.333 -59 -18 -79l-89 -279h-130z" />
    <glyph glyph-name="idieresis.smcp" horiz-adv-x="261" 
d="M283 710c0 -16 -5.83301 -29.667 -17.5 -41s-25.5 -17 -41.5 -17c-15.333 0 -28.833 5.66699 -40.5 17s-17.5 25 -17.5 41c0 16.667 5.66699 30.834 17 42.501s25 17.5 41 17.5s29.833 -5.83301 41.5 -17.5s17.5 -25.834 17.5 -42.501zM95 710
c0 -16 -5.66699 -29.667 -17 -41s-25.333 -17 -42 -17c-15.333 0 -28.833 5.66699 -40.5 17s-17.5 25 -17.5 41c0 16.667 5.83301 30.834 17.5 42.501s25.167 17.5 40.5 17.5c16.667 0 30.667 -5.83301 42 -17.5s17 -25.834 17 -42.501zM189 0h-117v570h117v-570z" />
    <glyph glyph-name="ycircumflex.smcp" horiz-adv-x="516" 
d="M356 633l-98 63l-98 -63l-46 71l144 83l144 -83zM199 0v217l-176 353h127l108 -235l107 235h128l-176 -353v-217h-118z" />
    <glyph glyph-name="iogonek.smcp" horiz-adv-x="261" 
d="M176 -140l13 -73c-16.667 -7.33301 -36.334 -11 -59.001 -11c-36 0 -63.5 9 -82.5 27s-28.5 42 -28.5 72c0 46 24.667 87.667 74 125h-21v570h117v-570c-54 -39.333 -81 -77.333 -81 -114c0 -21.333 11 -32 33 -32c12.667 0 24.334 2 35.001 6z" />
    <glyph glyph-name="ydieresis.smcp" horiz-adv-x="516" 
d="M411 710c0 -16 -5.83301 -29.667 -17.5 -41s-25.5 -17 -41.5 -17c-15.333 0 -28.833 5.66699 -40.5 17s-17.5 25 -17.5 41c0 16.667 5.83301 30.834 17.5 42.501s25.167 17.5 40.5 17.5c16.667 0 30.667 -5.83301 42 -17.5s17 -25.834 17 -42.501zM223 710
c0 -16 -5.66699 -29.666 -17 -40.999s-25 -17 -41 -17s-29.833 5.66699 -41.5 17s-17.5 25 -17.5 41s6 30 18 42s25.667 18 41 18c16 0 29.667 -5.83301 41 -17.5s17 -25.834 17 -42.501zM199 0.000976562v217l-176 353h127l108 -235l107 235h128l-176 -353v-217h-118z" />
    <glyph glyph-name="zacute.smcp" horiz-adv-x="504" 
d="M372 708l-213 -79l-31 72l210 91zM448 0h-404v78l251 395h-246v97h391v-78l-252 -394h272z" />
    <glyph glyph-name="zcaron.smcp" horiz-adv-x="504" 
d="M396 715l-144 -83l-144 83l46 72l98 -64l98 64zM448 0h-404v78l251 395h-246v97h391v-78l-252 -394h272z" />
    <glyph glyph-name="zdotaccent.smcp" horiz-adv-x="504" 
d="M309 710c0 -16 -5.83301 -29.667 -17.5 -41s-25.5 -17 -41.5 -17c-15.333 0 -28.833 5.66699 -40.5 17s-17.5 25 -17.5 41c0 16.667 5.66699 30.834 17 42.501s25 17.5 41 17.5s29.833 -5.83301 41.5 -17.5s17.5 -25.834 17.5 -42.501zM448 0h-404v78l251 395h-246v97
h391v-78l-252 -394h272z" />
    <glyph glyph-name="cyrbreve" horiz-adv-x="413" 
d="M205 671c29.333 0 46.667 18.667 52 56l78 -10c-2 -36.667 -15.167 -66 -39.5 -88s-54.5 -33 -90.5 -33c-34.667 0 -64.167 11 -88.5 33s-37.5 51.333 -39.5 88l77 10c2.66699 -17.333 8.5 -31 17.5 -41s20.167 -15 33.5 -15z" />
    <glyph glyph-name="cyrBreve" horiz-adv-x="413" 
d="M205 809c14.667 0 26.8311 5.16699 36.498 15.5s15.834 24.5 18.501 42.5l79 -11c-4 -37.333 -18 -67 -42 -89s-54.667 -33 -92 -33c-36.667 0 -67 11 -91 33s-37.667 51.667 -41 89l78 11c2.66699 -17.333 8.83398 -31.333 18.501 -42s21.5 -16 35.5 -16z" />
    <glyph glyph-name="commaaccent" horiz-adv-x="224" 
d="M125 -224h-79l28 161h105z" />
    <glyph glyph-name="ncommaaccent.smcp" horiz-adv-x="567" 
d="M495 0l-96 0.000976562l-214 337c2.66699 -28.667 4 -58.667 4 -90v-247h-117v570h94l214 -340c-1.33301 21.333 -2 50.666 -2 87.999v252h117v-570zM291 -223.999h-79l28 161h105z" />
    <glyph glyph-name="one.onum" horiz-adv-x="394" 
d="M314 0h-117v463l-149 -23v99l266 42v-581z" />
    <glyph glyph-name="two.onum" horiz-adv-x="489" 
d="M428 0l-384.999 0.00195312v54c0 36.667 6.66699 69.667 20 99s30 52.833 50 70.5s41.5 34.667 64.5 51s44.5 30.166 64.5 41.499s36.667 24.833 50 40.5s20 32.5 20 50.5c0 21.333 -7.5 39 -22.5 53s-35.833 21 -62.5 21c-44.667 0 -90.667 -12.667 -138 -38l-41 88
c59.333 34 119.666 51 180.999 51c57.333 0 105.333 -16 144 -48s58 -74.333 58 -127c0 -30.667 -8.83301 -59.334 -26.5 -86.001s-39.167 -49 -64.5 -67l-75.5 -51.5c-25 -16.333 -46.333 -33.333 -64 -51s-26.5 -35.5 -26.5 -53.5h263z" />
    <glyph glyph-name="three.onum" horiz-adv-x="500" 
d="M18 -86l30 94.998c52.667 -18.667 102.334 -28 149.001 -28c40 0 72.833 10.667 98.5 32s38.5 50.333 38.5 87c0 30.667 -9.5 55.667 -28.5 75s-49.5 29 -91.5 29h-80l-18 93l174 174h-251l-15 98h390l10 -98l-175 -174c56.667 -1.33301 105 -20.166 145 -56.499
s60 -83.166 60 -140.499c0 -66.667 -24.833 -120 -74.5 -160s-109.834 -60 -180.501 -60c-56 0 -116.333 11.333 -181 34z" />
    <glyph glyph-name="ocircumflex.smcp" horiz-adv-x="571" 
d="M384 633l-98 63l-98 -63l-46 71l143 83l144 -83zM515 346v-123c0 -76 -21.667 -134.333 -65 -175s-98.333 -61 -165 -61s-121.5 20.333 -164.5 61s-64.5 99 -64.5 175v123c0 76 21.667 134.5 65 175.5s98 61.5 164 61.5c66.667 0 121.667 -20.5 165 -61.5
s65 -99.5 65 -175.5zM397 231v108c0 95.333 -37.333 143 -112 143c-74 0 -111 -47.667 -111 -143v-108c0 -95.333 37 -143 111 -143c74.667 0 112 47.667 112 143z" />
    <glyph glyph-name="four.onum" horiz-adv-x="559" 
d="M427 -106l-113 -10v151h-254l-15 93l134 441h110l-128 -435h153v213l113 18v-231h95v-99h-95v-141z" />
    <glyph glyph-name="five.onum" horiz-adv-x="517" 
d="M30 -88l23.001 97.999c64 -19.333 119.333 -29 166 -29c35.333 0 66.166 11.167 92.499 33.5s39.5 54.833 39.5 97.5c0 75.333 -47 113 -141 113h-142l12 344h370l-20 -98h-245l-6 -150h43c77.333 0 138.166 -17.5 182.499 -52.5s66.5 -86.833 66.5 -155.5
c0 -50 -12.833 -93.167 -38.5 -129.5s-56.667 -62.666 -93 -78.999s-75.166 -24.5 -116.499 -24.5c-60.667 0 -125 10.667 -193 32z" />
    <glyph glyph-name="six.onum" horiz-adv-x="562" 
d="M55 214v223c0 72 21.167 132 63.5 180s101.5 72 177.5 72c47.333 0 101 -9.33301 161 -28l-26 -98c-50 16.667 -95 25 -135 25c-37.333 0 -67.333 -13 -90 -39s-34 -59.667 -34 -101v-29c38.667 26.667 81 40 127 40c64 0 116.333 -21 157 -63s61 -100 61 -174
c0 -73.333 -22.333 -130.833 -67 -172.5s-99.667 -62.5 -165 -62.5c-64.667 0 -119.167 20.333 -163.5 61s-66.5 96 -66.5 166zM172 327l-0.000976562 -114c0 -35.333 9.83301 -65 29.5 -89s47.167 -36 82.5 -36c36 0 63.833 12.667 83.5 38s29.5 57.333 29.5 96
c0 44 -9.33301 79.167 -28 105.5s-47 39.5 -85 39.5c-41.333 0 -78.666 -13.333 -111.999 -40z" />
    <glyph glyph-name="omacron.smcp" horiz-adv-x="571" 
d="M412 671h-253v81h253v-81zM515 346v-123c0 -76 -21.667 -134.333 -65 -175s-98.333 -61 -165 -61s-121.5 20.333 -164.5 61s-64.5 99 -64.5 175v123c0 76 21.667 134.5 65 175.5s98 61.5 164 61.5c66.667 0 121.667 -20.5 165 -61.5s65 -99.5 65 -175.5zM397 231v108
c0 95.333 -37.333 143 -112 143c-74 0 -111 -47.667 -111 -143v-108c0 -95.333 37 -143 111 -143c74.667 0 112 47.667 112 143z" />
    <glyph glyph-name="eight.onum" horiz-adv-x="574" 
d="M400 359c38.667 -20.667 68.834 -45 90.501 -73s32.5 -64 32.5 -108c0 -58 -24.333 -104.333 -73 -139s-103.334 -52 -164.001 -52c-62 0 -116.833 17.333 -164.5 52s-71.5 81 -71.5 139c0 40.667 10.833 74 32.5 100s51.5 49 89.5 69c-67.333 42 -101 95.667 -101 161
c0 50 19.5 92.667 58.5 128s91.167 53 156.5 53c58.667 0 109.667 -16.833 153 -50.5s65 -77.167 65 -130.5c0 -34 -9 -62.5 -27 -85.5s-43.667 -44.167 -77 -63.5zM297 407c28.667 14 50.5 28.832 65.5 44.499s22.5 34.834 22.5 57.501c0 24.667 -9.16699 44 -27.5 58
s-42.166 21 -71.499 21c-28.667 0 -51.834 -7.16699 -69.501 -21.5s-26.5 -33.5 -26.5 -57.5c0 -23.333 9 -42.5 27 -57.5s44.667 -29.833 80 -44.5zM274 296.999c-33.333 -16.667 -59 -34.002 -77 -52.002s-27 -40 -27 -66s11.167 -47.667 33.5 -65s49.833 -26 82.5 -26
c32 0 59.667 8.5 83 25.5s35 38.833 35 65.5s-10.833 48.334 -32.5 65.001s-54.167 34.334 -97.5 53.001z" />
    <glyph glyph-name="nine.onum" horiz-adv-x="565" 
d="M393 121v29c-38.667 -26.667 -81 -40 -127 -40c-64 0 -116.333 21 -157 63s-61 100 -61 174c0 73.333 22.333 130.833 67 172.5s99.667 62.5 165 62.5c64.667 0 119.167 -20.333 163.5 -61s66.5 -96 66.5 -166v-223c0 -72 -21.167 -132 -63.5 -180s-101.5 -72 -177.5 -72
c-47.333 0 -101 9.33301 -161 28l26 98c51.333 -16.667 96.333 -25 135 -25c38 0 68.167 13 90.5 39s33.5 59.667 33.5 101zM393 242l0.000976562 114c0 35.333 -9.83301 65 -29.5 89s-47.167 36 -82.5 36c-36 0 -63.833 -12.667 -83.5 -38s-29.5 -57.333 -29.5 -96
c0 -44 9.33301 -79.167 28 -105.5s47 -39.5 85 -39.5c41.333 0 78.666 13.333 111.999 40z" />
    <glyph glyph-name="cent.onum" horiz-adv-x="483" 
d="M321 -124l-88.999 0.000976562v114c-54.667 7.33301 -97.834 29.666 -129.501 66.999s-47.5 89.666 -47.5 156.999v91c0 66.667 15.833 118.667 47.5 156s74.834 60 129.501 68v114h89v-114c29.333 -2.66699 64.666 -9.66699 105.999 -21l-23 -97
c-48.667 13.333 -88.667 20 -120 20c-37.333 0 -65.333 -10 -84 -30s-28 -52.667 -28 -98v-86c0 -45.333 9.33301 -78.166 28 -98.499s46.667 -30.5 84 -30.5c31.333 0 71.333 6.66699 120 20l24 -97c-40 -11.333 -75.667 -18.333 -107 -21v-114z" />
    <glyph glyph-name="sterling.onum" horiz-adv-x="494" 
d="M452 0l-389.999 0.000976562v86c44.667 56.667 67 107 67 151c0 8.66699 -0.666992 21 -2 37h-68v73h55l-9 34.5c-4.66699 17.667 -7.83398 30.5 -9.50098 38.5s-3.5 18.833 -5.5 32.5s-3 26.5 -3 38.5c0 63.333 19.667 112.166 59 146.499s89.333 51.5 150 51.5
c50 0 103.667 -12 161 -36l-34 -93c-40 17.333 -79.667 26 -119 26c-64 0 -96 -34.333 -96 -103c0 -22.667 8.33301 -68 25 -136h168v-73h-154c1.33301 -16 2 -28.333 2 -37c0 -50.667 -20.667 -98 -62 -142h265v-95z" />
    <glyph glyph-name="Euro.onum" horiz-adv-x="531" 
d="M490 108l21 -101c-53.333 -13.333 -104.666 -20 -153.999 -20c-70.667 0 -129.167 21.667 -175.5 65s-70.5 102 -72.5 176h-72v68h72v84h-72v68h72c2 74 26.167 132.667 72.5 176s104.833 65 175.5 65c49.333 0 100.666 -6.66699 153.999 -20l-21 -101
c-50 11.333 -94 17 -132 17s-68.5 -12.167 -91.5 -36.5s-35.5 -57.833 -37.5 -100.5h193l-13 -68h-180v-84h164l-13 -68h-151c2 -42.667 14.5 -76.167 37.5 -100.5s53.5 -36.5 91.5 -36.5s82 5.66699 132 17z" />
    <glyph glyph-name="numbersign.onum" horiz-adv-x="574" 
d="M413 0h-103l19 189h-118l-19 -189h-103l19 189h-70v102h81l12 128h-70v102h81l18 188h103l-18 -188h118l18 188h103l-18 -188h70v-102h-81l-12 -128h69v-102h-80zM340 291l12 128h-118l-12 -128h118z" />
    <glyph glyph-name="sacute.smcp" horiz-adv-x="467" 
d="M355 708l-213 -79l-30 72l209 91zM41 21l22.0039 100.001c59.333 -22 113.333 -33 162 -33c24 0 43.333 6.16699 58 18.5s22 28.833 22 49.5c0 16.667 -6.16699 31.5 -18.5 44.5s-27.833 23.5 -46.5 31.5s-38.667 17.5 -60 28.5s-41.333 22.5 -60 34.5
s-34.167 29.167 -46.5 51.5s-18.5 48.166 -18.5 77.499c0 48 18.5 86.5 55.5 115.5s83.5 43.5 139.5 43.5c47.333 0 101.666 -11.667 162.999 -35l-30 -94c-48.667 18.667 -93 28 -133 28c-24.667 0 -43.167 -5.16699 -55.5 -15.5s-18.5 -24.166 -18.5 -41.499
c0 -18.667 8.66699 -34.5 26 -47.5s38.166 -24.5 62.499 -34.5s48.666 -21.5 72.999 -34.5s45.166 -32.333 62.499 -58s26 -56.834 26 -93.501c0 -54 -19.5 -95.833 -58.5 -125.5s-86.5 -44.5 -142.5 -44.5c-58.667 0 -120 11.333 -184 34z" />
    <glyph glyph-name="scommaaccent.smcp" horiz-adv-x="467" 
d="M41 21l22.0039 100.001c59.333 -22 113.333 -33 162 -33c24 0 43.333 6.16699 58 18.5s22 28.833 22 49.5c0 16.667 -6.16699 31.5 -18.5 44.5s-27.833 23.5 -46.5 31.5s-38.667 17.5 -60 28.5s-41.333 22.5 -60 34.5s-34.167 29.167 -46.5 51.5
s-18.5 48.166 -18.5 77.499c0 48 18.5 86.5 55.5 115.5s83.5 43.5 139.5 43.5c47.333 0 101.666 -11.667 162.999 -35l-30 -94c-48.667 18.667 -93 28 -133 28c-24.667 0 -43.167 -5.16699 -55.5 -15.5s-18.5 -24.166 -18.5 -41.499c0 -18.667 8.66699 -34.5 26 -47.5
s38.166 -24.5 62.499 -34.5s48.666 -21.5 72.999 -34.5s45.166 -32.333 62.499 -58s26 -56.834 26 -93.501c0 -54 -19.5 -95.833 -58.5 -125.5s-86.5 -44.5 -142.5 -44.5c-58.667 0 -120 11.333 -184 34zM238.004 -223.999h-79l28 161h105z" />
    <glyph glyph-name="zero.tnum" 
d="M531 415v-153c0 -90.667 -22.667 -159.167 -68 -205.5s-103 -69.5 -173 -69.5c-70.667 0 -128.5 23.167 -173.5 69.5s-67.5 114.833 -67.5 205.5v153c0 90.667 22.5 159 67.5 205s102.833 69 173.5 69s128.5 -23 173.5 -69s67.5 -114.333 67.5 -205zM414 262v153
c0 115.333 -41.333 173 -124 173s-124 -57.667 -124 -173v-153c0 -116 41.333 -174 124 -174s124 58 124 174z" />
    <glyph glyph-name="one.tnum" 
d="M425 0h-117v570l-154 -26v102l271 42v-688z" />
    <glyph glyph-name="CR" horiz-adv-x="226" 
 />
    <glyph glyph-name="two.tnum" 
d="M498 0l-424 -0.00195312v71c0 40 7.5 76.5 22.5 109.5s33.833 60 56.5 81s47.167 41.5 73.5 61.5s50.833 37.333 73.5 52s41.5 32 56.5 52s22.5 40.667 22.5 62c0 28.667 -8.83301 52.334 -26.5 71.001s-43.167 28 -76.5 28c-44 0 -94.667 -13.667 -152 -41l-40 91
c66 34 131.333 51 196 51c64 0 116.5 -18.333 157.5 -55s61.5 -84.667 61.5 -144c0 -35.333 -10.333 -68.333 -31 -99s-45.5 -57.167 -74.5 -79.5l-87.5 -65c-29.333 -21 -54.333 -44.167 -75 -69.5s-31 -51.666 -31 -78.999h298v-98z" />
    <glyph glyph-name="four.tnum" 
d="M433 1l-112 -10v151h-255l-15 93l135 441h109l-128 -435h154v213l112 18v-231h95v-99h-95v-141z" />
    <glyph glyph-name="five.tnum" 
d="M66 19l23.001 97.999c64 -19.333 119.333 -29 166 -29c35.333 0 66.166 11.167 92.499 33.5s39.5 54.833 39.5 97.5c0 75.333 -47 113 -141 113h-142l12 344h370l-20 -98h-245l-6 -150h43c77.333 0 138.166 -17.5 182.499 -52.5s66.5 -86.833 66.5 -155.5
c0 -50 -12.833 -93.167 -38.5 -129.5s-56.667 -62.666 -93 -78.999s-75.166 -24.5 -116.499 -24.5c-60.667 0 -125 10.667 -193 32z" />
    <glyph glyph-name="six.tnum" 
d="M61 214l-0.00195312 223c0 72 21.167 132 63.5 180s101.833 72 178.5 72c46.667 0 100 -9.33301 160 -28l-25 -98c-51.333 16.667 -96.333 25 -135 25c-38 0 -68.167 -13 -90.5 -39s-33.5 -59.667 -33.5 -101v-29c38 26.667 80 40 126 40c64 0 116.333 -21 157 -63
s61 -100 61 -174c0 -73.333 -22.167 -130.833 -66.5 -172.5s-99.166 -62.5 -164.499 -62.5s-120.166 20.333 -164.499 61s-66.5 96 -66.5 166zM177.998 327v-114c0 -35.333 9.83301 -65 29.5 -89s47.5 -36 83.5 -36s63.833 12.667 83.5 38s29.5 57.333 29.5 96
c0 44 -9.5 79.167 -28.5 105.5s-47.167 39.5 -84.5 39.5c-42 0 -79.667 -13.333 -113 -40z" />
    <glyph glyph-name="tbar.smcp" horiz-adv-x="472" 
d="M294 0h-117v260h-72v76h72v133h-146v101h410v-101h-147v-133h72v-76h-72v-260z" />
    <glyph glyph-name="eight.tnum" 
d="M402 359c38.667 -20.667 68.834 -45 90.501 -73s32.5 -64 32.5 -108c0 -58 -24.333 -104.333 -73 -139s-103.334 -52 -164.001 -52c-62 0 -116.833 17.333 -164.5 52s-71.5 81 -71.5 139c0 40.667 10.833 74 32.5 100s51.5 49 89.5 69c-67.333 42 -101 95.667 -101 161
c0 50 19.5 92.667 58.5 128s91.167 53 156.5 53c58.667 0 109.667 -16.833 153 -50.5s65 -77.167 65 -130.5c0 -34 -9 -62.5 -27 -85.5s-43.667 -44.167 -77 -63.5zM299 407c28.667 14 50.5 28.832 65.5 44.499s22.5 34.834 22.5 57.501c0 24.667 -9.16699 44 -27.5 58
s-42.166 21 -71.499 21c-28.667 0 -51.834 -7.16699 -69.501 -21.5s-26.5 -33.5 -26.5 -57.5c0 -23.333 9 -42.5 27 -57.5s44.667 -29.833 80 -44.5zM276 296.999c-33.333 -16.667 -59 -34.002 -77 -52.002s-27 -40 -27 -66s11.167 -47.667 33.5 -65s49.833 -26 82.5 -26
c32 0 59.667 8.5 83 25.5s35 38.833 35 65.5s-10.833 48.334 -32.5 65.001s-54.167 34.334 -97.5 53.001z" />
    <glyph glyph-name="nine.tnum" 
d="M403 228l0.00195312 29c-38.667 -26.667 -81 -40 -127 -40c-64 0 -116.167 21 -156.5 63s-60.5 100 -60.5 174c0 73.333 22.167 130.833 66.5 172.5s99.5 62.5 165.5 62.5c64.667 0 119 -20.333 163 -61s66 -96 66 -166v-223c0 -72 -21 -132 -63 -180s-101 -72 -177 -72
c-47.333 0 -101 9.33301 -161 28l25 98c51.333 -16.667 96.666 -25 135.999 -25c37.333 0 67.166 13 89.499 39s33.5 59.667 33.5 101zM404.002 349v114c0 34.667 -10 64.167 -30 88.5s-47.333 36.5 -82 36.5c-36 0 -64 -12.667 -84 -38s-30 -57.333 -30 -96
c0 -44 9.5 -79.167 28.5 -105.5s47.5 -39.5 85.5 -39.5c40.667 0 78 13.333 112 40z" />
    <glyph glyph-name="uring.smcp" horiz-adv-x="570" 
d="M286 629c-26.667 0 -49.667 9.5 -69 28.5s-29 41.833 -29 68.5c0 26 9.66699 48.5 29 67.5s42.333 28.5 69 28.5c26 0 48.5 -9.5 67.5 -28.5s28.5 -41.5 28.5 -67.5c0 -26.667 -9.5 -49.5 -28.5 -68.5s-41.5 -28.5 -67.5 -28.5zM286 694
c8.66699 0 16.167 3.16699 22.5 9.5s9.5 13.833 9.5 22.5c0 9.33301 -3 17 -9 23s-13.667 9 -23 9s-17 -3 -23 -9s-9 -13.667 -9 -23c0 -8.66699 3.16699 -16.167 9.5 -22.5s13.833 -9.5 22.5 -9.5zM386 198v372h117v-382c0 -58.667 -21 -106.834 -63 -144.501
s-93.667 -56.5 -155 -56.5c-60.667 0 -112.167 18.833 -154.5 56.5s-63.5 85.834 -63.5 144.501v382h118v-372c0 -34 9.16699 -60.833 27.5 -80.5s42.5 -29.5 72.5 -29.5s54.333 9.83301 73 29.5s28 46.5 28 80.5z" />
    </font>
</defs>
</svg>
