<svg width="106" height="107" viewBox="0 0 106 107" fill="none" xmlns="http://www.w3.org/2000/svg">
<rect x="0.5" y="0.5" width="104.915" height="104.987" fill="white" fill-opacity="0.27" stroke="white" stroke-dasharray="6 6"/>
<line x1="-4.37114e-08" y1="70.1501" x2="106" y2="70.1501" stroke="white" stroke-opacity="0.38" stroke-dasharray="6 6"/>
<line x1="-4.37114e-08" y1="35.05" x2="106" y2="35.05" stroke="white" stroke-opacity="0.38" stroke-dasharray="6 6"/>
<line x1="70.8455" y1="3.58152e-09" x2="70.8455" y2="106.2" stroke="white" stroke-opacity="0.38" stroke-dasharray="6 6"/>
<line x1="35.6727" y1="3.58152e-09" x2="35.6727" y2="106.2" stroke="white" stroke-opacity="0.38" stroke-dasharray="6 6"/>
<path d="M12.0796 24.6499H13.9996L15.1196 21.0099H19.7996L20.9196 24.6499H22.8596L18.5596 11.1299H16.3796L12.0796 24.6499ZM15.5996 19.4099L16.8996 15.2299C17.0796 14.6499 17.2996 13.8499 17.4596 13.0899C17.6596 13.8499 17.8596 14.6699 18.0396 15.2299L19.3196 19.4099H15.5996Z" fill="white"/>
<path d="M17.6662 59.2998C20.6862 59.2998 22.4262 57.6598 22.4262 54.4798V50.4798C22.4262 47.2798 20.2462 45.5198 17.6662 45.5198C15.9862 45.5198 14.2262 46.0998 12.8662 46.5998V59.2998H17.6662ZM20.5462 54.3598C20.5462 56.6998 19.6062 57.6198 17.6662 57.6198H14.7662V47.7398C15.5262 47.4798 16.6462 47.1998 17.6462 47.1998C19.3662 47.1998 20.5462 48.3598 20.5462 50.5998V54.3598Z" fill="white"/>
<path d="M12.5512 89.6899C12.5512 93.3499 14.7912 95.1099 17.7912 95.1099C19.2712 95.1099 20.7912 94.7699 22.0312 94.3499V87.6099H18.7712V89.0899H20.2512V93.0899C19.4912 93.2699 18.7712 93.4299 17.8112 93.4299C15.8112 93.4299 14.4512 92.2699 14.4512 89.5499V86.5899C14.4512 83.9099 15.8112 82.7499 17.8112 82.7499C19.1312 82.7499 20.2712 83.0299 21.3112 83.3499L21.7312 81.7499C20.3512 81.3499 19.2312 81.0699 17.7912 81.0699C14.7912 81.0699 12.5512 82.8299 12.5512 86.4899V89.6899Z" fill="white"/>
<path d="M53.0466 24.6499C56.3466 24.6499 57.8466 22.6099 57.8466 20.7499C57.8466 19.4299 57.1866 18.1499 55.5866 17.5299C56.7066 16.9499 57.3466 15.9299 57.3466 14.6899C57.3466 12.6499 55.7666 11.1299 53.1066 11.1299H48.9666V24.6499H53.0466ZM50.8666 16.9099V12.8099H53.0466C54.6266 12.8099 55.4266 13.5899 55.4266 14.8499C55.4266 16.0899 54.4866 16.9099 52.9066 16.9099H50.8666ZM50.8666 22.9699V18.5099H53.1866C55.1066 18.5099 55.9266 19.4299 55.9266 20.7499C55.9266 22.0699 54.9466 22.9699 53.0266 22.9699H50.8666Z" fill="white"/>
<path d="M49.5168 59.2998H57.0968V57.6198H51.4168V53.2998H55.9768L56.0968 51.6798H51.4168V47.4598H56.9168V45.7798H49.5168V59.2998Z" fill="white"/>
<path d="M48.3221 94.8499H50.2221V88.7899H55.8021V94.8499H57.6821V81.3299H55.8021V87.1299H50.2221V81.3299H48.3221V94.8499Z" fill="white"/>
<path d="M92.1766 22.6699C91.1766 22.9899 90.0366 23.2299 88.7166 23.2299C86.7166 23.2299 85.3566 22.1299 85.3566 19.3699V16.4099C85.3566 13.7099 86.7166 12.5499 88.7166 12.5499C90.0366 12.5499 91.1766 12.8099 92.1766 13.1099L92.5366 11.5099C91.2166 11.0899 90.0966 10.8699 88.6966 10.8699C85.6966 10.8699 83.4566 12.6299 83.4566 16.2899V19.4899C83.4566 23.1499 85.6966 24.9099 88.6966 24.9099C90.1166 24.9099 91.2366 24.6899 92.5366 24.3099L92.1766 22.6699Z" fill="white"/>
<path d="M84.3835 59.2998H86.2835V53.2998H90.6635L90.8035 51.6798H86.2835V47.4598H91.7635V45.7798H84.3835V59.2998Z" fill="white"/>
<path d="M86.8639 94.8499H88.7639V81.3299H86.8639V94.8499Z" fill="white"/>
</svg>
